<?xml version="1.0" encoding="UTF-8" standalone="no"?>
<!DOCTYPE svg PUBLIC "-//W3C//DTD SVG 1.1//EN" "http://www.w3.org/Graphics/SVG/1.1/DTD/svg11.dtd">
<svg width="100%" height="100%" viewBox="0 0 228 243" version="1.1" xmlns="http://www.w3.org/2000/svg" xmlns:xlink="http://www.w3.org/1999/xlink" xml:space="preserve" xmlns:serif="http://www.serif.com/" style="fill-rule:evenodd;clip-rule:evenodd;stroke-linejoin:round;stroke-miterlimit:2;">
    <g transform="matrix(1,0,0,1,-21.0097,-480.681)">
        <g transform="matrix(1,0,0,1.13277,0,0)">
            <g transform="matrix(0.974093,0.0392517,-0.0439789,0.850558,-425.459,183.943)">
                <g transform="matrix(0.90571,0,0,0.922558,-6.55233,148.793)">
                    <g>
                        <g transform="matrix(1.30151,0,0,1.30151,483.26,-94.1403)">
                            <path d="M194.005,349.395C193.775,349.821 193.535,350.141 193.489,350.202C191.919,352.296 189.033,353.376 185.298,353.103C148.83,350.442 106.957,354.377 66.374,357.868C62.282,358.22 58.606,357.407 56.29,355.497C53.93,353.55 53.1,350.576 53.649,347.319C59.249,314.054 53.533,267.867 51.105,226.319C50.855,222.04 51.706,219.174 52.857,217.702L53.224,217.283C53.726,216.774 54.231,216.529 54.329,216.482C63.419,209.027 73.153,202.528 82.988,196.265C84.365,195.389 86.08,195.809 86.342,195.873C117.894,203.607 159.258,195.041 195.552,188.88C197.405,188.566 198.51,189.408 198.716,189.565C198.91,189.713 200.028,190.565 200.05,192.302C200.544,231.462 200.339,273.754 210.431,317.744C210.51,318.089 211.042,320.408 210.074,322.151C205.116,331.077 199.607,340.938 194.005,349.395ZM72.864,348.166C67.47,348.559 63.573,345.406 63.941,340.61C66.042,313.217 61.943,278.219 58.957,245.531C58.458,240.062 60.913,236.728 65.035,238.272C90.071,247.81 122.267,246.086 152.609,243.219C153.655,243.12 154.421,242.202 154.312,241.254C154.204,240.304 153.243,239.561 152.193,239.661C121.752,242.577 89.501,244.179 64.633,234.134L64.626,234.131C58.58,231.724 55.43,236.615 56.063,244.236C58.825,277.451 62.668,313.015 60.012,340.769C59.34,347.797 64.796,352.023 72.561,351.415C73.714,351.324 74.737,350.51 74.808,349.642C74.879,348.779 73.998,348.083 72.864,348.166ZM193.008,326.985C192.703,327.545 190.921,330.816 189.147,333.954C188.982,334.246 188.568,334.388 188.091,334.206C187.652,334.038 187.249,333.607 187.127,333.183C177.712,300.484 172.879,267.149 170.128,237.543C169.909,235.188 171.171,233.512 171.388,233.225C176.398,226.575 181.464,220.076 182.39,218.888C183.036,218.058 182.87,216.91 182.062,216.389C181.252,215.867 180.002,216.106 179.354,216.931C178.401,218.145 173.294,224.642 168.29,231.223C166.78,233.209 166.092,235.612 166.324,237.96C169.185,266.861 174.163,300.289 183.51,333.069C184.07,335.035 185.834,336.827 187.853,337.596C189.906,338.377 191.789,337.947 192.575,336.529C194.302,333.409 196.029,330.166 196.325,329.611C196.711,328.885 196.31,327.64 195.404,326.915C194.484,326.181 193.403,326.259 193.008,326.985ZM191.195,207.655C191.223,207.619 191.407,207.385 191.724,207.452C191.763,207.461 192.041,207.519 192.05,207.835C192.969,239.408 194.574,273.639 201.891,308.559C201.929,308.74 202.17,309.892 201.655,310.855C201.261,311.593 201.571,312.858 202.438,313.623C203.285,314.369 204.319,314.335 204.713,313.579C205.754,311.583 205.248,309.137 205.17,308.758C197.885,273.54 196.596,239.179 195.855,207.324C195.815,205.627 194.672,204.237 192.964,203.888C191.274,203.542 189.349,204.284 188.208,205.723C187.538,206.569 187.702,207.705 188.495,208.217C189.29,208.731 190.531,208.499 191.195,207.655ZM153.166,225.147C123.678,228.401 92.373,230.086 68.193,220.333C67.785,220.169 67.623,219.686 67.599,219.616C67.579,219.557 67.414,219.064 67.688,218.839C74.601,213.153 81.64,207.97 86.741,204.296C87.705,203.602 88.922,203.845 89.111,203.882C95.075,205.073 100.745,205.569 101.764,205.658C102.758,205.745 103.523,205.036 103.47,204.178C103.417,203.321 102.558,202.503 101.567,202.413C100.552,202.321 94.898,201.807 88.958,200.578C88.595,200.503 86.225,200.012 84.382,201.278C79.269,204.791 72.261,209.712 65.474,215.056C64.53,215.799 64.233,217.679 64.919,219.816C65.593,221.913 67.063,223.696 68.534,224.259C92.86,233.582 124.109,231.817 153.514,228.631C156.758,228.279 158.593,226.318 158.923,225.966C159.622,225.219 159.537,224.08 158.748,223.492C157.96,222.904 156.686,223.028 155.985,223.769C155.812,223.951 154.858,224.96 153.166,225.147ZM87.811,285.991C87.931,286.741 88.449,287.474 89.12,287.832C89.823,288.207 90.592,288.127 91.071,287.733L91.533,287.353C89.608,275.799 87.303,262.045 85.611,248.93C85.474,247.868 84.562,246.871 83.667,246.713C82.782,246.556 82.089,247.264 82.224,248.352C83.821,261.139 85.997,274.648 87.811,285.991Z" style="fill:rgb(226,126,255);"/>
                        </g>
                        <g transform="matrix(0.454159,-0.0205759,0.0207304,0.450774,-882.811,220.313)">
                            <path d="M3196.02,453.55C3199.33,453.459 3201.71,455.556 3201.39,458.057C3201.07,460.603 3198.06,462.76 3194.73,462.87C3172.49,463.607 3157.38,450.798 3160.24,430.56C3171.49,350.941 3165.17,247.965 3161.64,151.907C3160.84,130.05 3170.34,116.117 3187.46,123.909L3187.48,123.918C3257.28,156.108 3349.72,155.7 3437.16,151.274C3440.19,151.12 3442.82,153.313 3443.01,156.14C3443.2,158.955 3440.91,161.429 3437.88,161.579C3350.74,165.88 3258.43,166.645 3188.09,135.895C3176.43,130.875 3169.04,140.262 3169.75,156.015C3173.99,250.583 3181.11,351.961 3171.5,430.613C3169.82,444.385 3180.55,453.977 3196.02,453.55ZM3542.39,408.206C3543.64,406.134 3546.7,406.061 3549.26,408.317C3551.77,410.537 3552.76,414.119 3551.54,416.203C3550.62,417.765 3545.25,426.884 3539.9,435.648C3537.42,439.711 3531.93,440.584 3526.26,438.104C3520.59,435.627 3515.78,430.233 3514.43,424.495C3492.01,328.81 3482.17,231.833 3477.79,148.217C3477.44,141.418 3479.72,134.585 3484.3,129.063C3499.48,110.752 3514.94,92.694 3517.82,89.327C3519.8,87.018 3523.34,86.47 3525.64,88.12C3527.94,89.769 3528.21,93.043 3526.25,95.361C3523.45,98.658 3508.1,116.728 3492.9,135.235C3490,138.766 3488.52,143.153 3488.72,147.511C3492.7,233.151 3502.13,329.838 3524.76,425.295C3525.06,426.554 3526.13,427.82 3527.38,428.369C3528.67,428.932 3529.9,428.649 3530.44,427.781C3535.92,418.971 3541.45,409.779 3542.39,408.206ZM3552.9,64.146C3550.88,66.504 3547.38,67.04 3545.11,65.413C3542.84,63.786 3542.58,60.546 3544.62,58.19C3548.07,54.19 3553.67,52.306 3558.46,53.522C3563.3,54.752 3566.39,58.902 3566.28,63.802C3564.2,155.674 3563.37,254.851 3579.57,357.276C3580.43,362.672 3579.66,367.596 3577.63,371.108C3576.39,373.268 3573.46,373.213 3571.12,370.936C3568.77,368.647 3567.97,365.029 3569.25,362.859C3570.85,360.153 3570.31,356.801 3570.22,356.275C3553.89,254.704 3553.8,155.861 3555.33,64.778C3555.34,64.244 3554.98,63.77 3554.44,63.632C3553.92,63.496 3553.29,63.699 3552.9,64.146ZM3441.85,109.58C3444.99,109.375 3447.95,108.058 3450.09,105.979C3452.22,103.91 3455.81,103.708 3458.03,105.542C3460.26,107.378 3460.32,110.61 3458.2,112.693C3454.09,116.733 3448.41,119.284 3442.39,119.665C3357.88,125.007 3268.28,126.012 3199.94,95.976C3195.75,94.136 3191.85,88.871 3190.18,82.7C3188.56,76.678 3189.45,71.186 3192.4,69.059C3212.51,54.548 3233.2,41.282 3248.28,31.829C3251.71,29.677 3256.41,29.113 3261.46,30.409C3278.28,34.727 3294.39,36.946 3297.28,37.344C3300.1,37.733 3302.45,40.119 3302.49,42.678C3302.53,45.235 3300.25,47.098 3297.41,46.718C3294.51,46.328 3278.36,44.16 3261.46,39.95C3258.85,39.3 3256.41,39.659 3254.63,40.832C3239.56,50.751 3218.75,64.769 3198.23,80.247C3197.81,80.562 3197.57,81.405 3197.87,82.475C3198.16,83.488 3198.84,84.328 3199.48,84.62C3267.35,115.878 3357.1,115.107 3441.85,109.58ZM3256.04,281.803C3254.55,282.932 3252.38,282.987 3250.45,281.833C3248.54,280.695 3247.19,278.565 3246.94,276.358C3243.15,242.564 3238.79,204.11 3235.92,167.18C3235.68,164.058 3237.64,162.054 3240.26,162.645C3242.87,163.234 3245.28,166.194 3245.53,169.287C3248.63,207.173 3253.35,246.575 3257.41,280.769L3256.04,281.803Z" style="fill:white;"/>
                        </g>
                    </g>
                </g>
                <g transform="matrix(1.30533,-0.160546,0.147065,1.24062,378.395,173.565)">
                    <g transform="matrix(1,0,0,1,-72.7784,-84.0177)">
                        <g transform="matrix(1.06613,0,0,1.51602,-71.8417,-161.473)">
                            <path d="M235.773,311.826C241.122,314.116 244.62,317.666 244.62,317.666C245.13,318.183 245.173,318.874 244.728,319.419C244.284,319.965 243.439,320.258 242.586,320.164C238.977,319.762 235.661,319.581 232.641,319.558C217.912,319.444 210.374,323.11 210.374,323.11C209.554,323.517 208.462,323.454 207.732,322.957C207.003,322.461 206.825,321.66 207.304,321.021C212.244,314.417 217.464,311.4 222.241,310.336C227.278,309.215 231.971,310.198 235.773,311.826ZM233.642,314.566C230.786,313.343 227.275,312.528 223.49,313.371C220.683,313.995 217.794,315.49 214.891,318.214C219.003,317.239 224.939,316.33 232.667,316.39C234.157,316.401 235.715,316.449 237.341,316.54C236.283,315.86 235.036,315.163 233.642,314.566Z"/>
                        </g>
                        <g transform="matrix(1.41034,0,0,1.95409,-78.8698,-309.987)">
                            <path d="M178.356,322.552C178.324,322.326 178.308,322.095 178.308,321.861C178.308,320.21 179.128,318.735 180.41,317.774C185.358,319.893 188.597,323.175 188.597,323.175C184.88,322.762 181.466,322.576 178.356,322.552Z"/>
                        </g>
                    </g>
                    <g transform="matrix(0.967632,0.270468,-0.235475,0.967632,62.2676,-119.393)">
                        <g transform="matrix(1.06613,0,0,1.51602,-71.8417,-161.473)">
                            <path d="M235.785,311.824C241.129,314.112 244.624,317.659 244.624,317.659C245.133,318.174 245.171,318.867 244.721,319.415C244.271,319.963 243.421,320.259 242.567,320.164C238.958,319.763 235.642,319.581 232.621,319.558C217.897,319.444 210.362,323.107 210.362,323.107C209.54,323.515 208.451,323.456 207.726,322.963C207,322.47 206.827,321.671 207.306,321.031C212.251,314.421 217.477,311.401 222.259,310.337C227.293,309.216 231.986,310.197 235.785,311.824ZM233.63,314.568C230.772,313.344 227.259,312.527 223.472,313.37C220.664,313.995 217.772,315.493 214.868,318.224C218.983,317.245 224.933,316.33 232.687,316.39C234.165,316.401 235.71,316.448 237.323,316.538C236.265,315.859 235.021,315.164 233.63,314.568Z"/>
                        </g>
                        <g transform="matrix(1.41034,0,0,1.95409,-78.8698,-309.987)">
                            <path d="M178.356,322.552C178.324,322.326 178.308,322.095 178.308,321.861C178.308,320.21 179.128,318.735 180.41,317.774C185.358,319.893 188.597,323.175 188.597,323.175C184.88,322.762 181.466,322.576 178.356,322.552Z"/>
                        </g>
                    </g>
                    <g transform="matrix(0.636355,0,0,0.573652,-2.59283,61.6116)">
                        <path d="M197.083,340.841C194.112,342.8 189.153,343.839 184.293,343.067C178.85,342.201 173.696,339.109 171.321,333.602C170.43,331.535 171.141,329.019 172.907,327.987C174.673,326.955 176.831,327.796 177.722,329.863C179.058,332.961 182.168,334.284 185.23,334.771C188.507,335.292 191.903,334.844 193.696,333.433L194.801,332.723L196.162,332.273L197.295,332.226L198.691,332.546C200.159,333.085 202.382,335.154 209.562,335.853C216.746,336.552 219.355,328.282 219.697,327.28C220.428,325.136 222.514,324.097 224.352,324.96C226.191,325.822 227.09,328.263 226.36,330.406C225.786,332.088 221.05,345.369 208.997,344.196C202.454,343.559 198.436,341.603 197.083,340.841Z"/>
                    </g>
                    <g transform="matrix(0.68885,0,0,0.738262,-770.062,21.2718)">
                        <path d="M1249.53,262.097C1249.53,262.097 1280.62,258.625 1279.45,247.18C1278.29,235.734 1254.72,254.123 1249.53,262.097Z"/>
                    </g>
                    <g transform="matrix(-0.68885,0,0,0.738262,1014.61,21.2718)">
                        <path d="M1249.53,262.097C1249.53,262.097 1280.62,258.625 1279.45,247.18C1278.29,235.734 1254.72,254.123 1249.53,262.097Z"/>
                    </g>
                </g>
            </g>
        </g>
    </g>
</svg>
