<?xml version="1.0" encoding="UTF-8" standalone="no"?>
<!DOCTYPE svg PUBLIC "-//W3C//DTD SVG 1.1//EN" "http://www.w3.org/Graphics/SVG/1.1/DTD/svg11.dtd">
<svg width="100%" height="100%" viewBox="0 0 199 180" version="1.1" xmlns="http://www.w3.org/2000/svg" xmlns:xlink="http://www.w3.org/1999/xlink" xml:space="preserve" xmlns:serif="http://www.serif.com/" style="fill-rule:evenodd;clip-rule:evenodd;stroke-linejoin:round;stroke-miterlimit:2;">
    <g transform="matrix(1,0,0,1,-684.965,-54.3196)">
        <g id="blank" transform="matrix(0.72728,0,0,0.72728,-1053.96,0.21036)">
            <g transform="matrix(2.64791,0,0,2.64791,1706.65,-2144.94)">
                <g transform="matrix(0.189656,0,0,0.189656,39.8026,709.916)">
                    <g>
                        <g>
                            <g>
                                <g transform="matrix(5.27272,0,0,5.27272,-209.868,-3743.19)">
                                    <g transform="matrix(0.512491,0,0,0.512491,241.831,443.503)">
                                        <g>
                                            <g transform="matrix(2.19487,0,0,2.19487,-2133.38,-939.576)">
                                                <path d="M1055.92,857.562L1055.47,857.896C1053.43,859.251 1051.18,859.125 1050.79,859.104C1044.43,858.749 1033.88,858.345 1024.49,858.508C1010.8,858.747 1005.64,859.258 1000.54,859.954C997.736,860.336 996.095,858.942 995.795,858.688C995.483,858.422 993.783,856.978 993.71,854.009C993.418,842.079 990.311,826.356 991.734,801.922C991.755,801.576 991.871,799.583 993.791,798.105L994.118,797.871L994.953,797.354C996.013,796.496 996.112,796.659 997.171,795.823C998.098,795.09 1002.03,791.127 1012.11,785.776C1013.75,784.911 1015.46,785.058 1015.75,785.083C1025.57,785.923 1032.53,786.261 1041.83,785.986C1046.93,785.835 1056.24,785.973 1066.95,784.009C1067.96,783.823 1069.29,784.024 1070.21,784.644C1071.09,785.231 1071.71,786.316 1071.82,787.397C1073.97,808.707 1074.18,819.522 1071.47,841.978C1071.35,842.963 1070.9,844.356 1069.27,845.943C1069.01,846.196 1067.67,847.416 1064.76,850.217C1060.73,854.096 1056.67,857.024 1055.92,857.562Z" style="fill:rgb(255,164,242);"/>
                                            </g>
                                            <g>
                                                <g transform="matrix(2.15889,0,0,2.15889,-2088.7,-902.245)">
                                                    <path d="M998.137,851.51C998.553,851.49 999.051,851.934 999.101,852.367C999.151,852.806 998.749,853.288 998.327,853.318C994.744,853.578 992.173,850.552 992.023,847.195C991.607,837.923 991.605,837.941 990.903,828.685C990.089,817.953 990.029,810.77 990.219,804.814C990.319,801.672 994.018,799.085 996.221,799.23L996.224,799.23C1020.24,800.941 1020.22,800.817 1044.26,802.036C1044.87,802.067 1045.4,802.617 1045.41,802.998C1045.43,803.374 1044.95,803.881 1044.34,803.85C1037.85,803.523 1034.1,803.399 1016.98,802.385C1006.87,801.786 1005.66,801.498 996.255,800.952C994.688,800.871 992.399,802.839 992.403,804.969C992.443,823.331 993.339,823.288 993.822,847.15C993.873,849.696 995.9,851.619 998.137,851.51Z" style="fill:white;"/>
                                                </g>
                                                <g transform="matrix(0.760821,0,0,1.05703,43.034,-46.3508)">
                                                    <path d="M197.718,915.777C198.63,915.124 200.423,915.035 201.288,915.581C202.186,916.148 202.254,917.277 201.249,918C196.648,921.296 192.603,923.946 191.839,924.447C189.918,925.703 186.794,926.172 184.314,925.543C181.473,924.823 180.317,922.993 180.505,921.599C181.163,916.717 183.701,893.048 183.999,884.785C184.626,867.418 184.662,846.496 183.86,828.897C183.772,826.974 184.45,824.629 187.127,822.698C188.426,821.76 196.093,816.227 202.985,810.455C203.76,809.806 205.58,809.696 206.621,810.325C207.761,811.013 207.843,812.233 207.065,812.901C200.3,818.713 192.898,824.199 191.632,825.137C189.504,826.714 189.577,828.752 189.59,829.109C190.51,854.761 189.578,880.232 189.416,884.674C189.184,891.019 186.869,913.851 185.753,921.62C185.724,921.821 185.921,922.342 186.6,922.512C187.081,922.633 187.925,922.495 188.289,922.255C188.831,921.897 192.945,919.19 197.718,915.777ZM218.696,802.469C217.907,803.158 216.036,803.475 214.916,802.783C213.82,802.106 213.695,800.868 214.482,800.11C216.066,798.584 218.907,798.154 221.175,798.53C224.896,799.148 226.08,801.656 226.204,802.308C229.113,817.645 230.066,840.404 229.487,855.932C229.249,862.299 228.488,874.869 225.087,897.748C224.787,899.766 222.426,902.025 221.985,902.299C220.891,902.979 218.762,903.064 217.744,902.516C216.665,901.934 216.575,900.759 217.704,899.987C217.881,899.866 219.129,899.013 219.261,897.806C223.385,859.899 225.208,855.666 221.593,822.547C221.459,821.324 221.277,817.614 220.826,811.945C220.82,811.861 220.485,807.545 220.024,802.722C219.992,802.384 219.552,802.301 219.498,802.291C219.434,802.279 219.006,802.199 218.696,802.469Z" style="fill:white;"/>
                                                </g>
                                                <g transform="matrix(0.668404,0,0,1.05703,-57.0775,-46.3508)">
                                                    <path d="M211.032,877.334C211.107,878.164 210.453,878.629 210.354,878.7C209.601,879.235 208.65,879.155 208.498,879.142L208.437,879.137C207.111,879.025 206.017,877.964 205.946,877.166C203.587,849.27 203.08,835.958 202.943,832.369C202.914,831.589 203.919,830.61 205.44,830.705C206.962,830.799 208.081,831.899 208.108,832.693C208.226,836.27 208.685,850.1 211.032,877.334Z" style="fill:white;"/>
                                                </g>
                                                <g transform="matrix(-0.00326583,0.760814,0.92681,0.00397837,-662.626,640.557)">
                                                    <path d="M224.025,896.929C224.039,897.241 224.125,899.129 222.762,900.621C221.931,901.531 222.007,903.165 222.96,904.139C223.91,905.11 225.484,905.157 226.317,904.264C227.956,902.508 228.89,899.839 228.761,897.158C228.159,884.637 228.053,883.491 227.666,872.228C227.075,855.073 226.263,839.229 225.314,825.684C224.94,820.338 224.996,810.766 222.446,788.372C222.263,786.76 220.631,785.13 218.338,784.549C216.044,783.968 213.552,784.557 212.276,785.853C202.114,796.167 194.04,807.546 190.238,813.054C189.956,813.462 188.377,815.751 188.659,819.044C189.103,824.216 189.548,829.389 189.992,834.561C190.089,835.726 191.099,836.674 192.109,836.535C193.144,836.393 193.991,835.179 193.894,833.994C193.838,833.324 193.805,833.33 193.105,825.631C193.048,825.003 192.831,820.999 192.62,818.335C192.6,818.079 192.487,816.645 193.491,815.239C197.417,809.739 205.754,798.358 216.086,788.106C216.46,787.735 216.994,787.866 217.072,787.886C217.336,787.95 217.717,788.305 217.743,788.513C219.865,805.389 219.466,805.446 221.303,834.023C222.468,852.136 222.938,868.391 223.097,874.136C223.397,884.919 223.516,885.763 224.025,896.929Z" style="fill:white;"/>
                                                </g>
                                                <g transform="matrix(-0.00326583,0.760814,0.92681,0.00397837,-663.805,761.274)">
                                                    <path d="M212.89,792.837L212.89,792.877C213.05,804.7 213.582,814.922 213.938,820.881C214.654,832.867 214.299,833.243 214.462,845.272L214.462,845.275C214.871,872.689 215.739,883.918 215.596,891.37C215.572,892.62 216.565,893.676 217.735,893.635C218.884,893.594 219.903,892.466 219.92,891.258C220.016,884.489 219.07,871.343 218.822,845.855C218.717,833.281 219.034,832.888 218.482,820.35C218.237,814.794 217.877,804.76 218.007,793.286L218.007,793.243L218.008,793.203C218.028,791.465 216.603,789.441 214.071,788.567C213.736,788.452 211.892,787.816 209.662,788.291C209.018,788.439 208.566,788.94 208.49,789.275C208.319,790.026 209.033,790.529 209.129,790.596C209.102,790.63 209.05,790.685 209.105,790.724C209.318,790.874 210.411,791.644 212.076,792.04C212.13,792.017 212.176,792.026 212.232,792.046C212.555,792.161 212.886,792.581 212.889,792.796L212.89,792.837Z" style="fill:white;"/>
                                                </g>
                                            </g>
                                        </g>
                                    </g>
                                </g>
                            </g>
                        </g>
                    </g>
                </g>
            </g>
            <g transform="matrix(1,0,0,1,1982.06,-646.085)">
                <g transform="matrix(1,0,0,1,-2.55336,6.12811)">
                    <ellipse cx="496.082" cy="901.64" rx="11.745" ry="14.81"/>
                </g>
                <g transform="matrix(1,0,0,1,52.5992,6.12811)">
                    <ellipse cx="496.082" cy="901.64" rx="11.745" ry="14.81"/>
                </g>
            </g>
        </g>
    </g>
</svg>
