<?xml version="1.0" encoding="UTF-8" standalone="no"?>
<!DOCTYPE svg PUBLIC "-//W3C//DTD SVG 1.1//EN" "http://www.w3.org/Graphics/SVG/1.1/DTD/svg11.dtd">
<svg width="100%" height="100%" viewBox="0 0 175 183" version="1.1" xmlns="http://www.w3.org/2000/svg" xmlns:xlink="http://www.w3.org/1999/xlink" xml:space="preserve" xmlns:serif="http://www.serif.com/" style="fill-rule:evenodd;clip-rule:evenodd;stroke-linejoin:round;stroke-miterlimit:2;">
    <g transform="matrix(1,0,0,1,-275.227,-57.8323)">
        <g id="blank" transform="matrix(0.760315,0,0,0.760315,-1556.61,-2.40695)">
            <g transform="matrix(1.31525,0,0,1.31525,2047.33,3.16573)">
                <g transform="matrix(1,0,0,1,10.2233,4.44089e-16)">
                    <g transform="matrix(1.03177,0,0,1.03177,217.619,-740.359)">
                        <g>
                            <g transform="matrix(2.19487,0,0,2.19487,-2133.38,-939.576)">
                                <path d="M1055.7,858.854L1055.32,859.292C1055.05,859.57 1053.5,861.16 1050.84,861.16L999.333,861.16C996.667,861.16 995.177,859.541 994.917,859.257C993.174,857.362 993.318,855.051 993.342,854.663C994.352,838.462 994.868,820.941 994.267,803.011C994.186,800.592 995.432,799.074 995.657,798.799L995.914,798.506C995.97,798.446 996.266,798.131 996.677,797.825C1001.82,792.911 1007.7,787.302 1013.46,781.935C1013.69,781.724 1014.97,780.535 1017.07,780.543C1033.37,780.603 1049.66,780.664 1065.95,780.724C1067.65,780.731 1068.57,781.775 1068.73,781.958C1068.89,782.143 1069.81,783.179 1069.65,784.911C1067.96,804.302 1068.11,823.33 1068.81,841.67C1068.82,842.01 1068.9,844.003 1067.41,845.692C1064.53,848.978 1060.27,853.799 1055.7,858.854Z" style="fill:rgb(255,164,242);"/>
                            </g>
                            <g>
                                <g transform="matrix(2.15889,0,0,2.15889,-2088.7,-902.245)">
                                    <path d="M997.878,852.765C998.362,852.765 998.775,853.205 998.75,853.7C998.725,854.196 998.267,854.633 997.781,854.633C994.402,854.629 991.755,851.79 991.942,848.324C992.619,835.772 993.073,821.145 992.791,805.656C992.729,802.24 995.382,799.457 998.655,799.479L998.659,799.48C1013.26,799.65 1027.86,799.821 1042.46,799.991C1042.93,799.997 1043.35,800.436 1043.34,800.93C1043.34,801.425 1042.91,801.854 1042.44,801.848C1027.86,801.674 1013.28,801.5 998.699,801.325C996.399,801.309 994.528,803.27 994.57,805.67C994.84,821.217 994.409,835.841 993.766,848.329C993.641,850.76 995.507,852.761 997.878,852.765Z" style="fill:white;"/>
                                </g>
                                <g transform="matrix(0.760821,0,0,1.05703,43.034,-46.3508)">
                                    <path d="M192.554,915.327C193.405,914.58 195.09,914.476 196.176,915.141C197.285,915.82 197.451,917.023 196.58,917.79C193.822,920.208 191.063,922.625 188.305,925.043C186.602,926.531 183.645,927.12 180.979,926.407C178.241,925.674 176.519,923.775 176.445,921.858C175.237,890.554 174.228,857.309 174.933,824.068C174.982,821.733 176.146,819.216 178.509,817.227C179.818,816.126 187.049,810.042 194.943,803.568C195.877,802.803 197.569,802.71 198.568,803.382C199.589,804.068 199.632,805.291 198.678,806.075C190.811,812.54 183.587,818.628 182.282,819.728C181.981,819.982 180.056,821.604 179.998,824.093C179.227,857.379 180.299,890.615 181.618,921.869C181.634,922.237 181.985,922.713 182.633,922.887C183.231,923.047 183.914,922.892 184.269,922.582C187.031,920.164 189.792,917.746 192.554,915.327ZM211.76,795.453C210.797,796.225 209.096,796.313 208.108,795.643C207.095,794.957 207.073,793.731 208.061,792.941C209.727,791.608 212.379,791.092 214.605,791.727C216.898,792.381 218.18,794.074 218.029,795.785C214.959,830.725 215.491,864.952 217.132,896.792C217.27,899.467 215.317,901.204 215.009,901.477C214.17,902.223 212.496,902.325 211.417,901.659C210.314,900.979 210.153,899.775 211.015,899.01C211.162,898.879 212.098,898.048 212.036,896.77C210.474,864.906 209.955,830.676 212.875,795.771C212.903,795.435 212.535,795.331 212.489,795.317C212.432,795.301 212.076,795.199 211.76,795.453Z" style="fill:white;"/>
                                </g>
                                <g transform="matrix(0.668404,0,0,1.05703,-57.0775,-46.3508)">
                                    <path d="M222.314,877.603C222.326,877.982 222.139,878.514 221.498,878.934C220.658,879.486 219.64,879.472 219.472,879.469L219.416,879.469C217.816,879.446 216.588,878.54 216.559,877.585C216.356,869.605 215.991,849.486 216.013,832.461C216.014,831.494 217.266,830.591 218.89,830.614C220.517,830.638 221.765,831.575 221.763,832.544C221.713,849.797 222.094,869.485 222.314,877.603Z" style="fill:white;"/>
                                </g>
                                <g transform="matrix(-0.00326583,0.760814,0.92681,0.00397837,-662.626,640.557)">
                                    <path d="M216.168,893.335C216.169,895.157 214.792,896.31 214.575,896.492C213.574,897.33 213.604,898.677 214.644,899.456C215.672,900.226 217.392,900.174 218.381,899.346C220.405,897.654 221.452,895.419 221.449,893.275C221.409,860.476 221.368,827.678 221.328,794.88C221.325,792.889 219.769,790.92 217.312,790.081C214.892,789.255 212.122,789.715 210.429,791.164C203.685,796.939 191.787,807.146 180.075,817.387C178.231,819 177.27,821.157 177.272,823.268C177.279,828.424 177.285,833.579 177.292,838.734C177.293,839.883 178.458,840.89 179.923,840.902C181.384,840.915 182.549,839.933 182.547,838.787C182.536,833.652 182.524,828.517 182.513,823.382C182.513,823.114 182.509,821.626 183.954,820.362C195.586,810.186 207.473,799.975 214.313,794.11C214.783,793.706 215.354,793.901 215.44,793.93C215.852,794.071 216.097,794.42 216.098,794.718C216.121,827.59 216.145,860.463 216.168,893.335Z" style="fill:white;"/>
                                </g>
                                <g transform="matrix(-0.00326583,0.760814,0.92681,0.00397837,-663.805,761.274)">
                                    <path d="M216.216,794.121L216.216,794.164C216.17,812.123 216.124,830.081 216.079,848.04L216.079,848.043C216.067,861.805 216.056,875.568 216.045,889.33C216.044,890.469 217.205,891.475 218.66,891.5C220.118,891.526 221.278,890.555 221.28,889.415C221.3,875.616 221.319,861.817 221.339,848.018C221.396,830.012 221.452,812.006 221.509,794L221.508,793.954L221.509,793.91C221.516,791.883 219.953,789.977 217.461,789.29C215.138,788.65 213.171,789.347 212.821,789.471C212.701,789.516 211.888,789.824 211.722,790.632C211.556,791.441 212.214,791.897 212.31,791.963C212.296,792.076 212.355,792.146 212.447,792.21C212.654,792.353 213.716,793.089 215.384,793.328C215.443,793.296 215.492,793.302 215.553,793.319C215.969,793.434 216.217,793.773 216.216,794.075L216.216,794.121Z" style="fill:white;"/>
                                </g>
                            </g>
                        </g>
                    </g>
                </g>
            </g>
            <g transform="matrix(1,0,0,1,1982.06,-646.085)">
                <g transform="matrix(1,0,0,1,-2.55336,6.12811)">
                    <ellipse cx="496.082" cy="901.64" rx="11.745" ry="14.81"/>
                </g>
                <g transform="matrix(1,0,0,1,52.5992,6.12811)">
                    <ellipse cx="496.082" cy="901.64" rx="11.745" ry="14.81"/>
                </g>
            </g>
        </g>
    </g>
</svg>
