<?xml version="1.0" encoding="UTF-8" standalone="no"?>
<!DOCTYPE svg PUBLIC "-//W3C//DTD SVG 1.1//EN" "http://www.w3.org/Graphics/SVG/1.1/DTD/svg11.dtd">
<svg width="100%" height="100%" viewBox="0 0 102 102" version="1.1" xmlns="http://www.w3.org/2000/svg" xmlns:xlink="http://www.w3.org/1999/xlink" xml:space="preserve" xmlns:serif="http://www.serif.com/" style="fill-rule:evenodd;clip-rule:evenodd;stroke-linejoin:round;stroke-miterlimit:2;">
    <g transform="matrix(1,0,0,1,-2260.42,-789.086)">
        <g transform="matrix(1,0,0,1,-0.284563,0)">
            <g id="Icon_of_Zalo.svg" transform="matrix(2.03829,0,0,2.03829,2311.66,840.043)">
                <g transform="matrix(1,0,0,1,-25,-25)">
                    <clipPath id="_clip1">
                        <rect x="0" y="0" width="50" height="50"/>
                    </clipPath>
                    <g clip-path="url(#_clip1)">
                        <path d="M22.782,0.166L27.199,0.166C33.265,0.166 36.81,1.057 39.957,2.744C43.104,4.431 45.588,6.896 47.256,10.043C48.943,13.19 49.834,16.735 49.834,22.801L49.834,27.199C49.834,33.265 48.943,36.81 47.256,39.957C45.569,43.104 43.104,45.588 39.957,47.256C36.81,48.943 33.265,49.834 27.199,49.834L22.801,49.834C16.735,49.834 13.19,48.943 10.043,47.256C6.896,45.569 4.412,43.104 2.744,39.957C1.057,36.81 0.166,33.265 0.166,27.199L0.166,22.801C0.166,16.735 1.057,13.19 2.744,10.043C4.431,6.896 6.896,4.412 10.043,2.744C13.171,1.057 16.735,0.166 22.782,0.166Z" style="fill:rgb(255,164,242);"/>
                        <path d="M7.779,43.589C10.102,43.846 13.006,43.184 15.068,42.183C24.023,47.132 38.02,46.895 46.492,41.473C46.821,40.98 47.128,40.468 47.413,39.936C49.106,36.778 50,33.22 50,27.132L50,22.718C50,16.629 49.106,13.071 47.413,9.913C45.739,6.754 43.246,4.281 40.088,2.588C36.929,0.894 33.371,0 27.283,0L22.85,0C17.664,0 14.298,0.653 11.47,1.899C11.315,2.037 11.164,2.178 11.015,2.321C2.717,10.32 2.087,27.659 9.123,37.078C9.131,37.092 9.139,37.106 9.149,37.12C10.233,38.719 9.187,41.515 7.551,43.152C7.284,43.399 7.379,43.551 7.779,43.589Z" style="fill:white;"/>
                        <path d="M20.563,17L10.838,17L10.838,19.085L17.587,19.085L10.933,27.332C10.724,27.635 10.573,27.919 10.573,28.564L10.573,29.095L19.748,29.095C20.203,29.095 20.582,28.716 20.582,28.261L20.582,27.142L13.492,27.142L19.748,19.294C19.843,19.18 20.013,18.972 20.089,18.877L20.127,18.82C20.487,18.289 20.563,17.834 20.563,17.284L20.563,17Z" style="fill:rgb(255,164,242);fill-rule:nonzero;"/>
                        <path d="M32.942,29.095L34.326,29.095L34.326,17L32.24,17L32.24,28.393C32.24,28.773 32.544,29.095 32.942,29.095Z" style="fill:rgb(255,164,242);fill-rule:nonzero;"/>
                        <path d="M25.814,19.692C23.198,19.692 21.075,21.816 21.075,24.432C21.075,27.048 23.198,29.171 25.814,29.171C28.43,29.171 30.553,27.048 30.553,24.432C30.572,21.816 28.449,19.692 25.814,19.692ZM25.814,27.218C24.279,27.218 23.027,25.967 23.027,24.432C23.027,22.896 24.279,21.645 25.814,21.645C27.35,21.645 28.601,22.896 28.601,24.432C28.601,25.967 27.369,27.218 25.814,27.218Z" style="fill:rgb(255,164,242);fill-rule:nonzero;"/>
                        <path d="M40.487,19.616C37.852,19.616 35.71,21.758 35.71,24.393C35.71,27.029 37.852,29.171 40.487,29.171C43.122,29.171 45.264,27.029 45.264,24.393C45.264,21.758 43.122,19.616 40.487,19.616ZM40.487,27.218C38.932,27.218 37.681,25.967 37.681,24.412C37.681,22.858 38.932,21.607 40.487,21.607C42.041,21.607 43.292,22.858 43.292,24.412C43.292,25.967 42.041,27.218 40.487,27.218Z" style="fill:rgb(255,164,242);fill-rule:nonzero;"/>
                        <path d="M29.456,29.094L30.575,29.094L30.575,19.957L28.622,19.957L28.622,28.279C28.622,28.715 29.001,29.094 29.456,29.094Z" style="fill:rgb(255,164,242);fill-rule:nonzero;"/>
                    </g>
                </g>
            </g>
        </g>
    </g>
</svg>
