<?xml version="1.0" encoding="UTF-8" standalone="no"?>
<!DOCTYPE svg PUBLIC "-//W3C//DTD SVG 1.1//EN" "http://www.w3.org/Graphics/SVG/1.1/DTD/svg11.dtd">
<svg width="100%" height="100%" viewBox="0 0 90 99" version="1.1" xmlns="http://www.w3.org/2000/svg" xmlns:xlink="http://www.w3.org/1999/xlink" xml:space="preserve" xmlns:serif="http://www.serif.com/" style="fill-rule:evenodd;clip-rule:evenodd;stroke-linejoin:round;stroke-miterlimit:2;">
    <g transform="matrix(1,0,0,1,-1960.32,-986.093)">
        <g transform="matrix(1,0,0,1,-0.284563,0)">
            <g id="Q-A" serif:id="Q&amp;A" transform="matrix(1,0,0,1,1649.06,484.644)">
                <g transform="matrix(7.11183,0,0,7.11183,-6179.12,-4524.9)">
                    <path d="M919.091,716.047C919.091,716.225 919.02,716.396 918.894,716.522C918.768,716.648 918.597,716.719 918.419,716.719L914.277,716.719C914.052,716.719 913.835,716.629 913.676,716.47C913.516,716.31 913.427,716.094 913.427,715.868L913.427,715.063C913.427,714.391 913.771,714.055 914.459,714.055L919.667,714.055C920.163,714.055 920.411,713.807 920.411,713.311C920.411,713.087 920.339,712.911 920.195,712.783C920.067,712.639 919.891,712.567 919.667,712.567L915.563,712.567C913.959,712.567 912.659,711.267 912.659,709.663L912.659,709.663C912.659,708.893 912.965,708.154 913.509,707.609C914.054,707.065 914.792,706.759 915.563,706.759L921.059,706.759C922.227,706.759 923.203,707.159 923.987,707.959C924.787,708.743 925.187,709.719 925.187,710.887L925.187,711.223C925.187,712.391 924.787,713.375 923.987,714.175C923.203,714.959 922.227,715.351 921.059,715.351L919.835,715.351C919.547,715.351 919.347,715.399 919.235,715.495C919.139,715.591 919.091,715.775 919.091,716.047L919.091,716.047Z" style="fill:rgb(255,164,242);"/>
                </g>
                <g transform="matrix(7.11183,0,0,5.79911,-6176.25,-3593.81)">
                    <path d="M921.162,713.311C921.162,713.509 921.03,713.67 920.869,713.67C920.707,713.67 920.576,713.509 920.576,713.311C920.576,713.07 920.492,712.884 920.341,712.744C920.335,712.739 920.33,712.733 920.324,712.728C920.164,712.554 919.945,712.468 919.667,712.468L915.563,712.468C914.035,712.468 912.824,711.19 912.824,709.663C912.824,708.911 913.116,708.186 913.648,707.655C914.156,707.147 914.844,706.858 915.563,706.858C915.724,706.858 915.856,707.019 915.856,707.217C915.856,707.415 915.724,707.576 915.563,707.576C914.984,707.576 914.428,707.802 914.018,708.212C913.632,708.598 913.41,709.117 913.41,709.663C913.41,710.837 914.388,711.75 915.563,711.75L919.667,711.75C920.107,711.75 920.448,711.908 920.702,712.178C921,712.459 921.162,712.833 921.162,713.311Z" style="fill:white;"/>
                </g>
                <g transform="matrix(1.05009,0,0,1,-17.837,1.83104)">
                    <path d="M356.097,581.829L356.097,592.722C356.097,595.728 353.773,598.169 350.91,598.169L324.7,598.169C321.837,598.169 319.513,595.728 319.513,592.722L319.513,581.829C319.513,578.823 321.837,576.383 324.7,576.383L350.91,576.383C353.773,576.383 356.097,578.823 356.097,581.829Z" style="fill:rgb(255,164,242);"/>
                </g>
            </g>
        </g>
    </g>
</svg>
