<?xml version="1.0" encoding="UTF-8" standalone="no"?>
<!DOCTYPE svg PUBLIC "-//W3C//DTD SVG 1.1//EN" "http://www.w3.org/Graphics/SVG/1.1/DTD/svg11.dtd">
<svg width="100%" height="100%" viewBox="0 0 81 101" version="1.1" xmlns="http://www.w3.org/2000/svg" xmlns:xlink="http://www.w3.org/1999/xlink" xml:space="preserve" xmlns:serif="http://www.serif.com/" style="fill-rule:evenodd;clip-rule:evenodd;stroke-linejoin:round;stroke-miterlimit:2;">
    <g transform="matrix(1,0,0,1,-2520.88,-514.546)">
        <g transform="matrix(1,0,0,1,-0.284563,0)">
            <g transform="matrix(1,0,0,1,2213.04,-185.901)">
                <g transform="matrix(0.428343,0,0,1,197.486,-24.5595)">
                    <path d="M407.672,753.733L422.296,753.733C436.083,753.733 447.276,758.527 447.276,764.433L447.276,814.366C447.276,820.272 436.083,825.066 422.296,825.066L283.26,825.066C269.473,825.066 258.279,820.272 258.279,814.366L258.279,764.433C258.279,758.527 269.473,753.733 283.26,753.733L297.884,753.733L297.884,738.847C297.884,731.208 312.362,725.007 330.195,725.007L375.361,725.007C393.194,725.007 407.672,731.208 407.672,738.847L407.672,753.733ZM317.339,753.733L388.217,753.733L388.217,738.847C388.217,735.807 382.457,733.34 375.361,733.34L330.195,733.34C323.099,733.34 317.339,735.807 317.339,738.847L317.339,753.733ZM344.124,789.157L336.634,810.254L368.922,810.254L361.432,789.157C366.73,787.865 370.306,785.424 370.306,782.628C370.306,778.484 362.452,775.12 352.778,775.12C343.104,775.12 335.25,778.484 335.25,782.628C335.25,785.424 338.826,787.865 344.124,789.157Z" style="fill:rgb(255,164,242);"/>
                </g>
                <g transform="matrix(1,0,0,1,0,2.77085)">
                    <path d="M316.212,764.84C316.212,763.69 317.146,762.757 318.295,762.757C319.445,762.757 320.379,763.69 320.379,764.84L320.379,783.49C320.379,786.001 322.415,788.036 324.926,788.036L334.129,788.036C335.279,788.036 336.212,788.97 336.212,790.12C336.212,791.27 335.279,792.203 334.129,792.203L324.926,792.203C320.113,792.203 316.212,788.302 316.212,783.49L316.212,764.84Z" style="fill:white;"/>
                </g>
            </g>
        </g>
    </g>
</svg>
