<?xml version="1.0" encoding="UTF-8" standalone="no"?>
<!DOCTYPE svg PUBLIC "-//W3C//DTD SVG 1.1//EN" "http://www.w3.org/Graphics/SVG/1.1/DTD/svg11.dtd">
<svg width="100%" height="100%" viewBox="0 0 103 86" version="1.1" xmlns="http://www.w3.org/2000/svg" xmlns:xlink="http://www.w3.org/1999/xlink" xml:space="preserve" xmlns:serif="http://www.serif.com/" style="fill-rule:evenodd;clip-rule:evenodd;stroke-linejoin:round;stroke-miterlimit:2;">
    <g transform="matrix(1,0,0,1,-2930.2,-999.431)">
        <g transform="matrix(1,0,0,1,-0.284563,0)">
            <g transform="matrix(1.14814,0,0,1.14814,1388.18,-35.0124)">
                <g transform="matrix(0.934402,0,0,0.893161,88.1176,101.756)">
                    <path d="M1421.31,909.451C1421.31,911.33 1425.81,917.458 1427.66,918.438C1429.84,919.605 1431.61,921.423 1432.71,923.639C1434.61,927.479 1437.45,933.778 1438.07,938.318L1438.12,938.317C1438.2,939.053 1438.39,940.252 1438.4,941C1438.4,941 1437.26,941.281 1435.63,941.751C1432.64,942.612 1428.04,944.108 1425.93,945.664C1425.55,945.949 1425.19,946.289 1424.86,946.671C1421.95,949.97 1420.59,956.399 1416.13,957.47C1414.92,957.762 1413.47,957.79 1411.87,957.651C1409.84,957.474 1407.56,957.027 1405.17,956.508C1400.36,955.465 1395.13,954.133 1390.67,954.133C1386.3,954.133 1381.23,955.403 1376.56,956.428C1374.16,956.955 1371.87,957.417 1369.82,957.61C1368.23,957.76 1366.79,957.746 1365.57,957.47C1361.05,956.443 1359.71,949.909 1356.53,946.817C1356.31,946.601 1356.07,946.401 1355.83,946.221C1353.81,944.727 1348.57,942.795 1345.54,941.751C1344.21,941.288 1343.3,941 1343.3,941C1343.32,940.252 1343.27,939.51 1343.35,938.774L1343.3,938.774C1343.79,934.155 1346.73,927.506 1348.7,923.478C1349.82,921.2 1351.64,919.339 1353.88,918.166C1355.77,917.195 1360.39,911.246 1360.39,909.451C1360.39,901.373 1366.95,894.814 1375.03,894.814C1378.66,894.814 1381.99,896.142 1384.55,898.339L1397.15,898.339C1399.71,896.142 1403.04,894.814 1406.68,894.814C1414.75,894.814 1421.31,901.373 1421.31,909.451Z" style="fill:rgb(255,164,242);"/>
                </g>
                <g transform="matrix(0.934402,0,0,0.893161,87.0423,101.833)">
                    <circle cx="1375.36" cy="907.279" r="6.078" style="fill:white;"/>
                </g>
                <g transform="matrix(0.934402,0,0,0.893161,118.226,101.833)">
                    <circle cx="1375.36" cy="907.279" r="6.078" style="fill:white;"/>
                </g>
                <g transform="matrix(0.946662,0,0,1,71.1306,-2.56087)">
                    <path d="M1438.34,942.895C1438.37,942.865 1438.39,942.834 1438.4,942.803C1438.4,942.803 1438.39,942.87 1438.36,942.995C1438.35,942.962 1438.35,942.929 1438.34,942.895ZM1437.04,946.765C1435.61,951.388 1433.05,959.33 1429.31,964.537C1425.18,970.304 1417.53,974.87 1414.38,976.697C1407.79,980.524 1398.65,972.995 1390.87,972.995C1383.09,972.995 1374.33,978.437 1367.7,976.697C1361.07,974.957 1354.91,967.615 1351.09,962.553C1348.14,958.654 1345.8,950.054 1344.84,946.594C1347.38,947.443 1354.02,950.757 1356.36,952.484C1360.07,955.229 1361.26,962.635 1366.1,963.733C1371.91,965.052 1382.83,960.396 1391.19,960.396C1399.62,960.396 1410.79,965.145 1416.66,963.733C1421.64,962.539 1422.75,954.673 1426.46,951.928C1428.79,950.209 1434.16,947.564 1437.04,946.765Z" style="fill:rgb(255,164,242);"/>
                </g>
                <g transform="matrix(0.934402,0,0,1,88.1176,-3.68278)">
                    <path d="M1377.54,935.164C1376.59,935.64 1375.41,935.311 1374.9,934.43C1374.4,933.548 1374.75,932.447 1375.69,931.971C1375.69,931.971 1391.8,923.877 1406.38,932.009C1407.3,932.523 1407.6,933.637 1407.05,934.497C1406.5,935.357 1405.31,935.638 1404.39,935.125C1391.63,928.01 1377.54,935.164 1377.54,935.164Z" style="fill:white;"/>
                </g>
                <g transform="matrix(0.700802,0,0,1,413.094,4.11713)">
                    <path d="M1378.13,935.04C1376.97,935.625 1375.35,935.44 1374.51,934.628C1373.68,933.815 1373.94,932.68 1375.1,932.095C1375.1,932.095 1391.85,923.695 1407,932.148C1408.11,932.771 1408.3,933.914 1407.41,934.697C1406.52,935.481 1404.89,935.61 1403.77,934.987C1391.59,928.191 1378.13,935.04 1378.13,935.04Z" style="fill:white;"/>
                </g>
                <g transform="matrix(-0.934402,-1.22465e-16,1.14431e-16,-1,2589.66,1909.37)">
                    <path d="M1320.63,962.121L1326.04,947.228L1332.86,967.188L1331.61,967.188C1328.59,966.143 1323.35,964.212 1321.33,962.718C1321.08,962.538 1320.85,962.338 1320.63,962.121Z" style="fill:white;"/>
                </g>
                <g transform="matrix(-0.934402,-1.22465e-16,1.14431e-16,-1,2589.66,1909.37)">
                    <path d="M1319.71,961.83L1325.12,946.936C1325.26,946.565 1325.63,946.317 1326.05,946.32C1326.47,946.324 1326.84,946.579 1326.96,946.952L1333.78,966.912C1333.87,967.188 1333.82,967.489 1333.64,967.723C1333.46,967.957 1333.16,968.095 1332.86,968.095L1331.61,968.095C1331.5,968.095 1331.38,968.076 1331.28,968.039C1328.17,966.966 1322.8,964.963 1320.72,963.429C1320.45,963.224 1320.18,962.997 1319.93,962.75C1319.68,962.506 1319.59,962.151 1319.71,961.83ZM1331.49,966.178L1326.01,950.129L1321.75,961.865C1321.81,961.913 1321.87,961.961 1321.93,962.006C1323.8,963.387 1328.5,965.135 1331.49,966.178Z" style="fill:rgb(255,164,242);"/>
                </g>
                <g transform="matrix(-0.934402,-1.22465e-16,1.14431e-16,-1,2663.65,1909.37)">
                    <path d="M1320.72,967.188L1319.22,967.188L1326.04,947.228L1331.49,962.268C1331.15,962.65 1330.8,962.99 1330.41,963.274C1328.31,964.83 1323.7,966.326 1320.72,967.188Z" style="fill:white;"/>
                </g>
                <g transform="matrix(-0.934402,-1.22465e-16,1.14431e-16,-1,2664.08,1909.37)">
                    <path d="M1320.72,968.095L1319.22,968.095C1318.91,968.095 1318.62,967.957 1318.44,967.723C1318.26,967.489 1318.2,967.188 1318.3,966.912L1325.11,946.952C1325.24,946.578 1325.61,946.324 1326.03,946.32C1326.45,946.317 1326.82,946.565 1326.96,946.936L1332.41,961.977C1332.52,962.274 1332.45,962.602 1332.24,962.844C1331.86,963.278 1331.45,963.663 1331.02,963.986C1328.84,965.594 1324.09,967.164 1321,968.055C1320.91,968.082 1320.81,968.095 1320.72,968.095ZM1320.57,966.281L1320.57,966.28C1323.46,965.442 1327.81,964.042 1329.81,962.563C1330.01,962.413 1330.21,962.245 1330.39,962.062L1326.07,950.132L1320.55,966.281L1320.57,966.281Z" style="fill:rgb(255,164,242);"/>
                </g>
                <g transform="matrix(0.934402,0,0,1,87.4946,-2.45386)">
                    <g transform="matrix(-1.55227,-1.90098e-16,8.66807e-17,-0.707801,3426.74,1630.73)">
                        <path d="M1317.94,952.677L1321.48,933.826L1324.67,951.007C1322.63,951.279 1320.34,951.932 1317.94,952.677Z" style="fill:white;"/>
                    </g>
                    <g transform="matrix(-1.55227,-1.90098e-16,8.66807e-17,-0.707801,3426.74,1630.73)">
                        <path d="M1317.59,952.4L1321.12,933.55C1321.18,933.253 1321.32,933.057 1321.48,933.057C1321.63,933.058 1321.77,933.254 1321.83,933.552L1325.03,950.733C1325.07,950.961 1325.06,951.217 1324.99,951.422C1324.93,951.628 1324.82,951.759 1324.7,951.774C1322.67,952.045 1320.38,952.696 1317.99,953.437C1317.86,953.478 1317.73,953.372 1317.64,953.158C1317.56,952.945 1317.54,952.656 1317.59,952.4ZM1318.52,951.72C1320.5,951.115 1322.41,950.591 1324.14,950.314L1321.47,935.976L1318.52,951.72Z" style="fill:rgb(255,164,242);"/>
                    </g>
                    <g transform="matrix(-1.79985,-2.20418e-16,8.66807e-17,-0.707801,3785.26,1630.73)">
                        <path d="M1318.29,950.949L1321.48,933.826L1324.99,952.563C1322.6,951.831 1320.32,951.199 1318.29,950.949Z" style="fill:white;"/>
                    </g>
                    <g transform="matrix(-1.79985,-2.20418e-16,8.66807e-17,-0.707801,3785.26,1630.73)">
                        <path d="M1317.99,950.638L1321.18,933.515C1321.23,933.237 1321.35,933.058 1321.48,933.057C1321.6,933.057 1321.72,933.235 1321.77,933.513L1325.29,952.25C1325.33,952.504 1325.32,952.799 1325.25,953.022C1325.18,953.245 1325.07,953.361 1324.95,953.326C1322.57,952.596 1320.3,951.966 1318.27,951.717C1318.16,951.704 1318.07,951.567 1318.01,951.352C1317.96,951.136 1317.95,950.869 1317.99,950.638ZM1318.77,950.244C1320.53,950.504 1322.45,951.021 1324.46,951.626C1324.46,951.626 1321.48,935.721 1321.48,935.721L1318.77,950.244Z" style="fill:rgb(255,164,242);"/>
                    </g>
                </g>
                <g transform="matrix(1,0,0,1,0,-1)">
                    <path d="M1348.74,932.231C1348.97,931.789 1349.52,931.62 1349.96,931.855C1350.4,932.09 1350.57,932.639 1350.34,933.082C1349,935.608 1348.35,937.359 1348.06,938.341C1350.91,938.672 1358.46,940.148 1361.63,946.604C1362.98,949.346 1363.57,951.005 1364.04,952.012C1364.25,952.447 1364.37,952.727 1364.62,952.868C1364.85,952.994 1365.14,953.011 1365.58,953.03C1366.18,953.058 1366.99,953.046 1368.1,953.067C1368.6,953.077 1369,953.491 1368.99,953.992C1368.98,954.492 1368.57,954.891 1368.07,954.881C1366.69,954.855 1365.77,954.876 1365.11,954.818C1364.52,954.768 1364.09,954.651 1363.74,954.453C1363.21,954.161 1362.82,953.683 1362.4,952.78C1361.93,951.78 1361.34,950.13 1360,947.405C1356.49,940.258 1346.89,940.062 1346.89,940.062C1346.64,940.055 1346.39,939.938 1346.22,939.739C1346.06,939.541 1345.98,939.28 1346.02,939.023C1346.02,939.023 1346.33,936.76 1348.74,932.231Z" style="fill:white;"/>
                </g>
            </g>
        </g>
    </g>
</svg>
