<?xml version="1.0" encoding="UTF-8" standalone="no"?>
<!DOCTYPE svg PUBLIC "-//W3C//DTD SVG 1.1//EN" "http://www.w3.org/Graphics/SVG/1.1/DTD/svg11.dtd">
<svg width="100%" height="100%" viewBox="0 0 99 98" version="1.1" xmlns="http://www.w3.org/2000/svg" xmlns:xlink="http://www.w3.org/1999/xlink" xml:space="preserve" xmlns:serif="http://www.serif.com/" style="fill-rule:evenodd;clip-rule:evenodd;stroke-linejoin:round;stroke-miterlimit:2;">
    <g transform="matrix(1,0,0,1,-2681.04,-986.03)">
        <g transform="matrix(1,0,0,1,-0.284563,0)">
            <g transform="matrix(1,0,0,1,1278.4,283.308)">
                <g transform="matrix(0.828033,0,0,0.828033,295.346,125.132)">
                    <path d="M1356.38,730.982C1354.28,729.897 1351.7,730.432 1350.2,732.265C1344.22,739.742 1341.16,751.133 1344.39,768.417C1353.32,816.079 1408.73,815.637 1408.73,815.637C1408.73,815.637 1476.84,784.051 1449.93,734.739C1447.23,729.793 1443.84,726.12 1440.1,723.424C1438.38,722.236 1436.11,722.236 1434.39,723.425C1412.59,738.525 1399.99,719.597 1399.99,719.597L1399.98,719.614C1389.69,742.71 1369.71,737.765 1356.38,730.982Z" style="fill:rgb(255,164,242);"/>
                </g>
                <g transform="matrix(0.819239,0.12036,-0.12036,0.819239,307.753,-34.452)">
                    <path d="M1507.6,716.427C1506.45,715.652 1506.14,714.088 1506.92,712.935C1507.69,711.783 1509.26,711.476 1510.41,712.25C1510.41,712.25 1523.63,721.096 1528.52,738.356C1531.73,749.713 1531.39,764.769 1521.03,783.351C1520.35,784.564 1518.82,784.999 1517.6,784.323C1516.39,783.646 1515.95,782.112 1516.63,780.9C1526.12,763.883 1526.62,750.126 1523.67,739.726C1519.32,724.348 1507.6,716.427 1507.6,716.427Z" style="fill:white;"/>
                </g>
                <g transform="matrix(0.901024,0,0,0.901024,153.071,77.2499)">
                    <path d="M1404.63,756.33C1404.73,755.057 1405.84,754.104 1407.11,754.201C1408.38,754.299 1409.34,755.412 1409.24,756.684C1409.24,756.684 1407.45,781.369 1434.42,790.396C1435.63,790.801 1436.28,792.112 1435.88,793.322C1435.47,794.532 1434.16,795.186 1432.95,794.781C1402.35,784.535 1404.63,756.33 1404.63,756.33Z" style="fill:white;"/>
                </g>
                <g transform="matrix(0.828033,0,0,0.828033,294.445,125.689)">
                    <g transform="matrix(1.12943,-2.38484e-18,-2.38484e-18,1.14891,-180.569,-108.637)">
                        <path d="M1399.98,713.786C1399.98,713.786 1380.23,685.367 1346.46,713.634C1345.6,714.338 1345.12,715.39 1345.16,716.487C1345.19,717.584 1345.74,718.604 1346.64,719.254C1356.87,726.455 1386.61,743.802 1399.98,713.786Z" style="fill:rgb(255,164,242);"/>
                    </g>
                    <g transform="matrix(-0.820899,-1.00531e-16,1.05925e-16,-0.864946,2549.86,1328.98)">
                        <path d="M1399.98,713.786C1399.98,713.786 1380.7,686.049 1347.67,712.635C1346.49,713.567 1345.82,714.969 1345.87,716.432C1345.91,717.896 1346.67,719.255 1347.92,720.115C1359.14,727.725 1387.12,742.642 1399.98,713.786Z" style="fill:rgb(255,164,242);"/>
                    </g>
                </g>
            </g>
        </g>
    </g>
</svg>
