<?xml version="1.0" encoding="UTF-8" standalone="no"?>
<!DOCTYPE svg PUBLIC "-//W3C//DTD SVG 1.1//EN" "http://www.w3.org/Graphics/SVG/1.1/DTD/svg11.dtd">
<svg width="100%" height="100%" viewBox="0 0 129 89" version="1.1" xmlns="http://www.w3.org/2000/svg" xmlns:xlink="http://www.w3.org/1999/xlink" xml:space="preserve" xmlns:serif="http://www.serif.com/" style="fill-rule:evenodd;clip-rule:evenodd;stroke-linejoin:round;stroke-miterlimit:2;">
    <g transform="matrix(1,0,0,1,-2675.02,-534.327)">
        <g transform="matrix(1,0,0,1,-0.284563,0)">
            <g id="ship" transform="matrix(1,0,0,1,1989.99,22.6687)">
                <g transform="matrix(1,0,0,1,2.1142,-6.34238)">
                    <path d="M714.839,589.354L698.205,589.354C689.921,589.354 683.205,582.638 683.205,574.354L683.205,533C683.205,524.716 689.921,518 698.205,518L755.172,518C763.457,518 770.172,524.716 770.172,533L770.172,574.354C770.172,582.638 763.457,589.354 755.172,589.354L743.072,589.354C740.891,583.684 735.39,579.656 728.956,579.656C722.521,579.656 717.02,583.684 714.839,589.354Z" style="fill:rgb(255,164,242);"/>
                </g>
                <g transform="matrix(0.456683,0,0,0.5,462.078,288.334)">
                    <path d="M697.486,588.111C689.147,585.285 683.205,577.953 683.205,569.354L683.205,540C683.205,528.955 693.009,520 705.102,520L748.275,520C760.369,520 770.172,528.955 770.172,540L770.172,569.354C770.172,577.275 765.13,584.121 757.817,587.36C752.528,577.081 741.087,569.958 727.838,569.958C714.269,569.958 702.596,577.43 697.486,588.111Z" style="fill:rgb(255,164,242);"/>
                </g>
                <g transform="matrix(0.803463,0,0,0.803463,143.682,117.922)">
                    <path d="M745.186,579.46C745.834,581.143 746.189,582.971 746.189,584.881C746.189,593.225 739.414,600 731.07,600C722.725,600 715.951,593.225 715.951,584.881C715.951,582.971 716.306,581.143 716.953,579.46C719.134,573.79 724.635,569.762 731.07,569.762C737.504,569.762 743.005,573.79 745.186,579.46Z" style="fill:rgb(255,164,242);"/>
                </g>
                <g transform="matrix(0.803463,0,0,0.803463,154.536,117.922)">
                    <path d="M810.161,578.463C811.077,580.412 811.589,582.587 811.589,584.881C811.589,593.225 804.814,600 796.47,600C788.125,600 781.351,593.225 781.351,584.881C781.351,582.733 781.8,580.689 782.608,578.838C784.942,573.498 790.273,569.762 796.47,569.762C802.52,569.762 807.745,573.324 810.161,578.463Z" style="fill:rgb(255,164,242);"/>
                </g>
                <path d="M693.603,529.208C693.603,528.058 694.537,527.125 695.687,527.125C696.836,527.125 697.77,528.058 697.77,529.208L697.77,567.869C697.77,568.643 698.077,569.385 698.624,569.932C699.171,570.479 699.913,570.786 700.687,570.786L711.146,570.786C712.295,570.786 713.229,571.719 713.229,572.869C713.229,574.019 712.295,574.953 711.146,574.953L700.687,574.953C698.808,574.953 697.006,574.206 695.678,572.878C694.35,571.55 693.603,569.748 693.603,567.869L693.603,529.208Z" style="fill:white;"/>
            </g>
        </g>
    </g>
</svg>
