<?xml version="1.0" encoding="UTF-8" standalone="no"?>
<!DOCTYPE svg PUBLIC "-//W3C//DTD SVG 1.1//EN" "http://www.w3.org/Graphics/SVG/1.1/DTD/svg11.dtd">
<svg width="100%" height="100%" viewBox="0 0 487 539" version="1.1" xmlns="http://www.w3.org/2000/svg" xmlns:xlink="http://www.w3.org/1999/xlink" xml:space="preserve" xmlns:serif="http://www.serif.com/" style="fill-rule:evenodd;clip-rule:evenodd;stroke-linejoin:round;stroke-miterlimit:2;">
    <g transform="matrix(1,0,0,1,-3444.37,-29.4509)">
        <g transform="matrix(1,0,0,1,1811.77,-470.415)">
            <g transform="matrix(5.46596,0,0,5.46596,-7291.16,-2232.38)">
                <g>
                    <g transform="matrix(0.878023,0,0,1.06589,199.214,-37.7747)">
                        <path d="M1673.25,516.722C1673.44,515.842 1674.38,515.201 1675.46,515.201C1676.55,515.201 1677.48,515.842 1677.67,516.722C1679.61,525.6 1682.31,537.983 1683.59,543.855C1684.04,545.894 1685.88,547.537 1688.31,548.068C1694.88,549.502 1708.1,552.389 1716.73,554.271C1717.71,554.486 1718.4,555.22 1718.4,556.058C1718.4,556.896 1717.71,557.63 1716.73,557.845C1708.1,559.727 1694.88,562.614 1688.31,564.048C1685.88,564.579 1684.04,566.222 1683.59,568.261C1682.31,574.133 1679.61,586.516 1677.67,595.394C1677.48,596.274 1676.55,596.915 1675.46,596.915C1674.38,596.915 1673.44,596.274 1673.25,595.394C1671.32,586.516 1668.61,574.133 1667.33,568.261C1666.88,566.222 1665.05,564.579 1662.62,564.048C1656.05,562.614 1642.82,559.727 1634.19,557.845C1633.21,557.63 1632.52,556.896 1632.52,556.058C1632.52,555.22 1633.21,554.486 1634.19,554.271C1642.82,552.389 1656.05,549.502 1662.62,548.068C1665.05,547.537 1666.88,545.894 1667.33,543.855C1668.61,537.983 1671.32,525.6 1673.25,516.722Z" style="fill:rgb(255,164,242);"/>
                    </g>
                    <g transform="matrix(1,0,0,1,0.122137,0.056371)">
                        <path d="M1644.29,557.116C1643.72,557.037 1643.32,556.511 1643.4,555.942C1643.48,555.372 1644.01,554.973 1644.58,555.052C1644.58,555.052 1652.94,556.207 1659.37,558.129C1662.27,558.995 1664.78,560.043 1666.08,561.175C1667.43,562.35 1668.4,564.579 1669.02,567.161C1670.35,572.732 1670.21,579.945 1670.21,579.945C1670.2,580.52 1669.72,580.977 1669.15,580.965C1668.57,580.953 1668.12,580.477 1668.13,579.902C1668.13,579.902 1668.27,572.987 1666.99,567.647C1666.49,565.554 1665.8,563.698 1664.71,562.745C1663.57,561.749 1661.33,560.888 1658.78,560.125C1652.48,558.244 1644.29,557.116 1644.29,557.116Z" style="fill:white;"/>
                    </g>
                </g>
                <g transform="matrix(0.475911,0,0,0.577742,906.418,198.017)">
                    <path d="M1671.39,525.27C1671.74,523.646 1673.46,522.464 1675.46,522.464C1677.46,522.464 1679.18,523.646 1679.54,525.27C1680.78,530.95 1682.05,536.802 1682.98,541.03C1683.8,544.793 1687.19,547.824 1691.67,548.803C1696.73,549.906 1703.62,551.41 1709.81,552.762C1711.63,553.158 1712.89,554.511 1712.89,556.058C1712.89,557.605 1711.63,558.958 1709.81,559.354C1703.62,560.706 1696.73,562.21 1691.67,563.313C1687.19,564.292 1683.8,567.323 1682.98,571.086C1682.05,575.314 1680.78,581.166 1679.54,586.846C1679.18,588.47 1677.46,589.652 1675.46,589.652C1673.46,589.652 1671.74,588.47 1671.39,586.846C1670.15,581.166 1668.87,575.314 1667.95,571.086C1667.13,567.323 1663.73,564.292 1659.25,563.313C1654.19,562.21 1647.31,560.706 1641.11,559.354C1639.29,558.958 1638.03,557.605 1638.03,556.058C1638.03,554.511 1639.29,553.158 1641.11,552.762C1647.31,551.41 1654.19,549.906 1659.25,548.803C1663.73,547.824 1667.13,544.793 1667.95,541.03C1668.87,536.802 1670.15,530.95 1671.39,525.27Z" style="fill:rgb(255,164,242);"/>
                </g>
            </g>
        </g>
    </g>
</svg>
