<?xml version="1.0" encoding="UTF-8" standalone="no"?>
<!DOCTYPE svg PUBLIC "-//W3C//DTD SVG 1.1//EN" "http://www.w3.org/Graphics/SVG/1.1/DTD/svg11.dtd">
<svg width="100%" height="100%" viewBox="0 0 100 100" version="1.1" xmlns="http://www.w3.org/2000/svg" xmlns:xlink="http://www.w3.org/1999/xlink" xml:space="preserve" xmlns:serif="http://www.serif.com/" style="fill-rule:evenodd;clip-rule:evenodd;stroke-linecap:round;stroke-linejoin:round;stroke-miterlimit:1.5;">
    <g transform="matrix(1,0,0,1,-2148.18,-360.529)">
        <g transform="matrix(1,0,0,1,-0.284563,0)">
            <g id="ADD" transform="matrix(1,0,0,1,848.314,260.376)">
                <g transform="matrix(1.12371,0,0,1,-169.279,0)">
                    <path d="M1337.04,172.688C1337.04,171.362 1336.57,170.091 1335.73,169.153C1334.9,168.215 1333.77,167.688 1332.59,167.688C1328.35,167.688 1321.86,167.688 1316.56,167.688C1311.64,167.688 1307.66,163.211 1307.66,157.688C1307.66,152.935 1307.66,147.266 1307.66,142.512C1307.66,136.989 1311.64,132.512 1316.56,132.512C1321.86,132.512 1328.35,132.512 1332.59,132.512C1333.77,132.512 1334.9,131.985 1335.73,131.047C1336.57,130.11 1337.04,128.838 1337.04,127.512C1337.04,122.898 1337.04,115.911 1337.04,110.153C1337.04,104.631 1341.02,100.153 1345.94,100.153C1350.17,100.153 1355.21,100.153 1359.44,100.153C1364.36,100.153 1368.34,104.631 1368.34,110.153C1368.34,115.911 1368.34,122.898 1368.34,127.512C1368.34,128.838 1368.81,130.11 1369.64,131.047C1370.48,131.985 1371.61,132.512 1372.79,132.512C1376.77,132.512 1382.71,132.512 1387.66,132.512C1392.57,132.512 1396.56,136.989 1396.56,142.512C1396.56,147.266 1396.56,152.935 1396.56,157.688C1396.56,163.211 1392.57,167.688 1387.66,167.688C1382.71,167.688 1376.77,167.688 1372.79,167.688C1371.61,167.688 1370.48,168.215 1369.64,169.153C1368.81,170.091 1368.34,171.362 1368.34,172.688C1368.34,177.302 1368.34,184.289 1368.34,190.047C1368.34,195.57 1364.36,200.047 1359.44,200.047C1355.21,200.047 1350.17,200.047 1345.94,200.047C1341.02,200.047 1337.04,195.57 1337.04,190.047C1337.04,184.289 1337.04,177.302 1337.04,172.688Z" style="fill:rgb(255,164,242);"/>
                </g>
                <g transform="matrix(1.12371,0,0,0.962355,-166.643,5.68592)">
                    <path d="M1345.94,193.243C1344.37,193.243 1343.09,191.812 1343.09,190.047L1343.09,172.688L1342.89,170.375L1342.29,168.171L1341.33,166.14L1340.02,164.342L1338.41,162.868L1336.61,161.783L1334.65,161.113L1332.59,160.885L1316.56,160.885C1314.99,160.884 1313.71,159.454 1313.71,157.688L1313.71,142.512C1313.71,140.747 1314.99,139.316 1316.56,139.316" style="fill:none;stroke:white;stroke-width:3.98px;"/>
                </g>
            </g>
        </g>
    </g>
</svg>
