<?xml version="1.0" encoding="UTF-8" standalone="no"?>
<!DOCTYPE svg PUBLIC "-//W3C//DTD SVG 1.1//EN" "http://www.w3.org/Graphics/SVG/1.1/DTD/svg11.dtd">
<svg width="100%" height="100%" viewBox="0 0 100 100" version="1.1" xmlns="http://www.w3.org/2000/svg" xmlns:xlink="http://www.w3.org/1999/xlink" xml:space="preserve" xmlns:serif="http://www.serif.com/" style="fill-rule:evenodd;clip-rule:evenodd;stroke-linejoin:round;stroke-miterlimit:2;">
    <g transform="matrix(1,0,0,1,-2157.99,-50.2068)">
        <g transform="matrix(1,0,0,1,-0.284563,0)">
            <g id="ACCOUNT" transform="matrix(1,0,0,1,1858.08,-49.9466)">
                <g transform="matrix(1,0,0,1.10345,0,-20.0362)">
                    <path d="M395.482,196.788C394.332,198.437 392.331,199.436 390.179,199.436C376.568,199.45 323.698,199.45 310.088,199.45C307.93,199.45 305.924,198.448 304.771,196.795C301.763,192.476 300.186,187.773 300.186,183C300.186,164.842 322.567,150.1 350.133,150.1C377.699,150.1 400.08,164.842 400.08,183C400.08,187.773 398.503,192.476 395.482,196.788Z" style="fill:rgb(255,164,242);"/>
                </g>
                <g transform="matrix(0.89667,0,0,0.98943,36.1794,2.13274)">
                    <path d="M328.776,156.65C335.181,154.509 342.447,153.31 350.133,153.31C351.415,153.31 352.457,154.254 352.457,155.416C352.457,156.578 351.415,157.521 350.133,157.521C343.027,157.521 336.306,158.621 330.384,160.601C324.528,162.559 319.456,165.375 315.594,168.845C311.156,172.832 308.375,177.683 308.375,183C308.375,183.998 308.331,186.279 309.029,188.383C309.393,189.481 309.941,190.556 310.977,191.196C312.212,191.959 313.957,192.195 315.743,192.287C319.048,192.457 322.523,192.029 324.388,192.028C325.67,192.028 326.711,192.972 326.711,194.134C326.711,195.296 325.67,196.24 324.388,196.24C322.466,196.24 318.884,196.667 315.479,196.491C312.792,196.352 310.218,195.823 308.361,194.676C306.448,193.495 305.25,191.62 304.578,189.594C303.723,187.014 303.729,184.224 303.729,183C303.729,176.579 306.963,170.669 312.322,165.855C316.623,161.991 322.255,158.83 328.776,156.65Z" style="fill:white;"/>
                </g>
                <g transform="matrix(1,6.16298e-32,-6.16298e-32,1,7.4185,-5.79523)">
                    <circle cx="342.715" cy="126.736" r="20.787" style="fill:rgb(255,164,242);"/>
                </g>
            </g>
        </g>
    </g>
</svg>
