<?xml version="1.0" encoding="UTF-8" standalone="no"?>
<!DOCTYPE svg PUBLIC "-//W3C//DTD SVG 1.1//EN" "http://www.w3.org/Graphics/SVG/1.1/DTD/svg11.dtd">
<svg width="100%" height="100%" viewBox="0 0 116 105" version="1.1" xmlns="http://www.w3.org/2000/svg" xmlns:xlink="http://www.w3.org/1999/xlink" xml:space="preserve" xmlns:serif="http://www.serif.com/" style="fill-rule:evenodd;clip-rule:evenodd;stroke-linejoin:round;stroke-miterlimit:2;">
    <g transform="matrix(1,0,0,1,-2798.74,-974.483)">
        <g transform="matrix(1,0,0,1,-0.284563,0)">
            <g transform="matrix(1,0,0,1,1308.72,275.138)">
                <g transform="matrix(1,0,0,1,-3.91956,-9.47718)">
                    <path d="M1551.88,708.822C1580.62,708.822 1603.96,732.162 1603.96,760.91C1603.96,789.659 1580.62,812.999 1551.88,812.999C1523.13,812.999 1499.79,789.659 1499.79,760.91C1499.79,732.162 1523.13,708.822 1551.88,708.822ZM1551.88,717.155C1527.73,717.155 1508.12,736.761 1508.12,760.91C1508.12,785.06 1527.73,804.666 1551.88,804.666C1576.03,804.666 1595.63,785.06 1595.63,760.91C1595.63,736.761 1576.03,717.155 1551.88,717.155Z" style="fill:rgb(255,164,242);"/>
                </g>
                <g transform="matrix(-0.51277,-6.27962e-17,7.00702e-17,-0.572167,2290.45,1189.53)">
                    <path d="M1461.89,764.055C1463.51,757.497 1468.35,751.385 1475.82,746.632L1545.93,746.632C1555.23,752.551 1560.45,760.578 1560.45,768.948C1560.45,774.488 1558.16,779.93 1553.81,784.727L1467.94,784.727C1464.14,780.547 1461.92,775.877 1461.41,771.079L1434.62,771.079C1434.11,775.877 1431.88,780.547 1428.09,784.727L1342.22,784.727C1337.87,779.93 1335.57,774.488 1335.57,768.948C1335.57,760.578 1340.8,752.551 1350.1,746.632L1420.21,746.632C1427.68,751.385 1432.52,757.497 1434.13,764.055L1461.89,764.055Z" style="fill:rgb(255,164,242);"/>
                </g>
                <g transform="matrix(0.88206,0,0,0.88206,180.387,87.0209)">
                    <path d="M1529.86,782.262C1528.56,782.213 1527.54,781.116 1527.59,779.814C1527.64,778.511 1528.74,777.493 1530.04,777.541C1530.04,777.541 1554.9,778.489 1561.5,777.563C1562.51,777.421 1563.76,776.461 1564.97,775.489C1567.21,773.694 1569.16,771.568 1569.16,771.568C1570.05,770.609 1571.54,770.547 1572.5,771.43C1573.46,772.313 1573.52,773.809 1572.64,774.768C1572.64,774.768 1569.62,778.037 1566.61,780.171C1565.04,781.28 1563.44,782.061 1562.16,782.24C1555.38,783.192 1529.86,782.262 1529.86,782.262Z" style="fill:rgb(255,164,242);"/>
                </g>
                <g transform="matrix(1,0,0,1,1,0)">
                    <path d="M1495.36,743.24C1495.56,742.701 1496.16,742.425 1496.7,742.624C1497.24,742.823 1497.51,743.423 1497.31,743.962C1497.31,743.962 1496.24,746.877 1496.38,750.162C1496.51,753.287 1497.78,756.772 1502.4,758.18C1502.95,758.348 1503.26,758.931 1503.09,759.481C1502.92,760.03 1502.34,760.341 1501.79,760.173C1496.06,758.427 1494.46,754.124 1494.3,750.249C1494.14,746.535 1495.36,743.24 1495.36,743.24Z" style="fill:white;"/>
                </g>
                <g transform="matrix(1,0,0,1,65.8587,0)">
                    <path d="M1495.36,743.24C1495.56,742.701 1496.16,742.425 1496.7,742.624C1497.24,742.823 1497.51,743.423 1497.31,743.962C1497.31,743.962 1496.24,746.877 1496.38,750.162C1496.51,753.287 1497.78,756.772 1502.4,758.18C1502.95,758.348 1503.26,758.931 1503.09,759.481C1502.92,760.03 1502.34,760.341 1501.79,760.173C1496.06,758.427 1494.46,754.124 1494.3,750.249C1494.14,746.535 1495.36,743.24 1495.36,743.24Z" style="fill:white;"/>
                </g>
            </g>
        </g>
    </g>
</svg>
