<?xml version="1.0" encoding="UTF-8" standalone="no"?>
<!DOCTYPE svg PUBLIC "-//W3C//DTD SVG 1.1//EN" "http://www.w3.org/Graphics/SVG/1.1/DTD/svg11.dtd">
<svg width="100%" height="100%" viewBox="0 0 103 100" version="1.1" xmlns="http://www.w3.org/2000/svg" xmlns:xlink="http://www.w3.org/1999/xlink" xml:space="preserve" xmlns:serif="http://www.serif.com/" style="fill-rule:evenodd;clip-rule:evenodd;stroke-linejoin:round;stroke-miterlimit:2;">
    <g transform="matrix(1,0,0,1,-2425.36,-986.03)">
        <g transform="matrix(1,0,0,1,-0.284563,0)">
            <g transform="matrix(1,0,0,1,1426.96,285.416)">
                <g transform="matrix(1.13122,0,0,1.13122,-151.549,-105.193)">
                    <path d="M1043,732.656C1043,721.438 1051.64,712.331 1062.28,712.331C1072.92,712.331 1081.56,721.438 1081.56,732.656C1092.23,729.189 1103.56,734.593 1106.85,744.714C1110.14,754.835 1104.15,765.867 1093.48,769.333C1100.08,778.409 1098.44,790.855 1089.83,797.11C1081.22,803.366 1068.88,801.077 1062.28,792.001C1055.69,801.077 1043.35,803.366 1034.74,797.11C1026.12,790.855 1024.49,778.409 1031.08,769.333C1020.41,765.867 1014.42,754.835 1017.71,744.714C1021,734.593 1032.33,729.189 1043,732.656ZM1062.28,742.68C1054.66,742.68 1048.48,748.866 1048.48,756.484C1048.48,764.102 1054.66,770.287 1062.28,770.287C1069.9,770.287 1076.09,764.102 1076.09,756.484C1076.09,748.866 1069.9,742.68 1062.28,742.68Z" style="fill:rgb(255,164,242);"/>
                </g>
                <g transform="matrix(1.13122,0,0,1.13122,-149.555,-106.19)">
                    <path d="M1048.12,793.441C1049.12,793.245 1050.09,793.895 1050.29,794.892C1050.48,795.89 1049.83,796.859 1048.83,797.055C1044.66,797.877 1040.28,797.083 1036.66,794.458C1029.48,789.237 1028.23,778.834 1033.74,771.261L1036.39,767.61L1032.1,766.215C1024.18,763.643 1019.26,756.115 1020.2,748.55C1020.33,747.542 1021.25,746.824 1022.25,746.95C1023.26,747.075 1023.98,747.995 1023.86,749.004C1023.12,754.904 1027.06,760.706 1033.23,762.712L1039.94,764.89C1040.5,765.072 1040.94,765.512 1041.12,766.072C1041.3,766.633 1041.2,767.247 1040.86,767.724L1036.71,773.426C1032.44,779.313 1033.24,787.42 1038.83,791.478C1041.59,793.482 1044.93,794.069 1048.12,793.441Z" style="fill:white;"/>
                </g>
            </g>
        </g>
    </g>
</svg>
