<?xml version="1.0" encoding="UTF-8" standalone="no"?>
<!DOCTYPE svg PUBLIC "-//W3C//DTD SVG 1.1//EN" "http://www.w3.org/Graphics/SVG/1.1/DTD/svg11.dtd">
<svg width="100%" height="100%" viewBox="0 0 572 414" version="1.1" xmlns="http://www.w3.org/2000/svg" xmlns:xlink="http://www.w3.org/1999/xlink" xml:space="preserve" xmlns:serif="http://www.serif.com/" style="fill-rule:evenodd;clip-rule:evenodd;stroke-linejoin:round;stroke-miterlimit:2;">
    <g transform="matrix(1,0,0,1,-3409.37,-146.871)">
        <g transform="matrix(0.894749,0,0,0.894749,585.288,0)">
            <g transform="matrix(6.50576,0,0,6.50576,-6445.89,-3262.2)">
                <g transform="matrix(1.81119,0,0,1.81119,-1232.5,-502.217)">
                    <path d="M1522.5,574.804C1528.2,566.674 1539.61,566.674 1545.32,570.739C1551.02,574.804 1551.02,582.935 1545.32,591.065C1541.32,597.162 1531.05,603.26 1522.5,607.325C1513.94,603.26 1503.67,597.162 1499.67,591.065C1493.97,582.935 1493.97,574.804 1499.67,570.739C1505.38,566.674 1516.79,566.674 1522.5,574.804Z" style="fill:rgb(255,164,242);"/>
                </g>
                <g transform="matrix(1.81119,0,0,1.81119,-1236.4,-483.016)">
                    <path d="M1505.5,577.64C1504.9,576.656 1505.22,575.374 1506.2,574.78C1507.19,574.186 1508.47,574.503 1509.06,575.488C1509.06,575.488 1512.54,581.051 1524.45,587.092C1525.47,587.612 1525.88,588.867 1525.36,589.892C1524.84,590.918 1523.59,591.328 1522.56,590.808C1509.25,584.051 1505.5,577.64 1505.5,577.64Z" style="fill:white;"/>
                </g>
            </g>
        </g>
    </g>
</svg>
