<?xml version="1.0" encoding="UTF-8" standalone="no"?>
<!DOCTYPE svg PUBLIC "-//W3C//DTD SVG 1.1//EN" "http://www.w3.org/Graphics/SVG/1.1/DTD/svg11.dtd">
<svg width="100%" height="100%" viewBox="0 0 69 98" version="1.1" xmlns="http://www.w3.org/2000/svg" xmlns:xlink="http://www.w3.org/1999/xlink" xml:space="preserve" xmlns:serif="http://www.serif.com/" style="fill-rule:evenodd;clip-rule:evenodd;stroke-linejoin:round;stroke-miterlimit:2;">
    <g transform="matrix(1,0,0,1,-2359.89,-668.368)">
        <g transform="matrix(1,0,0,1,-0.284563,0)">
            <g transform="matrix(-2.5453e-16,1.3856,-0.728712,-1.33862e-16,2652.44,215.693)">
                <path d="M357.952,311.486C358.891,309.069 360.377,307.643 361.958,307.643C363.538,307.643 365.025,309.069 365.963,311.486C373.33,330.453 388.964,370.704 396.509,390.128C397.318,392.212 397.441,394.984 396.827,397.296C396.214,399.608 394.968,401.066 393.606,401.066C378.831,401.066 345.085,401.066 330.309,401.066C328.947,401.066 327.701,399.608 327.088,397.296C326.474,394.984 326.598,392.212 327.407,390.128C334.951,370.704 350.585,330.453 357.952,311.486Z" style="fill:rgb(255,164,242);"/>
            </g>
            <g transform="matrix(-2.5453e-16,1.3856,-0.728712,-1.33862e-16,2652.44,215.693)">
                <path d="M380.282,370.177C379.813,368.874 379.989,367.094 380.674,366.203C381.359,365.312 382.295,365.646 382.764,366.949C382.764,366.949 387.631,380.48 387.63,380.477C388.561,382.907 388.699,386.125 387.986,388.812C387.268,391.515 385.812,393.22 384.219,393.22C384.213,393.22 384.207,393.22 384.201,393.22L353.197,392.489C352.367,392.469 351.702,391.173 351.712,389.595C351.722,388.017 352.404,386.752 353.234,386.772C353.234,386.772 384.225,387.502 384.232,387.502C384.684,387.493 385.097,387.005 385.301,386.236C385.507,385.46 385.466,384.529 385.194,383.83C385.183,383.802 385.173,383.774 385.162,383.745L380.282,370.177Z" style="fill:white;"/>
            </g>
        </g>
    </g>
</svg>
