<?xml version="1.0" encoding="UTF-8" standalone="no"?>
<!DOCTYPE svg PUBLIC "-//W3C//DTD SVG 1.1//EN" "http://www.w3.org/Graphics/SVG/1.1/DTD/svg11.dtd">
<svg width="100%" height="100%" viewBox="0 0 100 33" version="1.1" xmlns="http://www.w3.org/2000/svg" xmlns:xlink="http://www.w3.org/1999/xlink" xml:space="preserve" xmlns:serif="http://www.serif.com/" style="fill-rule:evenodd;clip-rule:evenodd;stroke-linejoin:round;stroke-miterlimit:2;">
    <g transform="matrix(1,0,0,1,-2348.46,-393.977)">
        <g transform="matrix(1,0,0,1,-0.284563,0)">
            <g id="DEL" transform="matrix(1,0,0,1,848.314,260.376)">
                <g transform="matrix(1.32601,0,0,1.06195,-363.721,-11.9878)">
                    <path d="M1480.91,144.865L1480.91,160.401C1480.91,164.688 1478.12,168.169 1474.69,168.169L1412.06,168.169C1408.63,168.169 1405.84,164.688 1405.84,160.401L1405.84,144.865C1405.84,140.577 1408.63,137.096 1412.06,137.096L1474.69,137.096C1478.12,137.096 1480.91,140.577 1480.91,144.865Z" style="fill:rgb(255,164,242);"/>
                </g>
                <g transform="matrix(1.32601,0,0,1.06195,-363.721,-11.9878)">
                    <path d="M1449.27,159.913C1450.13,159.913 1450.84,160.792 1450.84,161.875C1450.84,162.958 1450.13,163.837 1449.27,163.837L1416.48,163.837C1412.52,163.837 1409.31,159.825 1409.31,154.884L1409.31,150.381C1409.31,145.44 1412.52,141.429 1416.48,141.429C1417.35,141.429 1418.05,142.308 1418.05,143.39C1418.05,144.473 1417.35,145.352 1416.48,145.352C1414.26,145.352 1412.45,147.606 1412.45,150.381L1412.45,154.884C1412.45,157.66 1414.26,159.913 1416.48,159.913L1449.27,159.913Z" style="fill:white;"/>
                </g>
            </g>
        </g>
    </g>
</svg>
