<?xml version="1.0" encoding="UTF-8" standalone="no"?>
<!DOCTYPE svg PUBLIC "-//W3C//DTD SVG 1.1//EN" "http://www.w3.org/Graphics/SVG/1.1/DTD/svg11.dtd">
<svg width="100%" height="100%" viewBox="0 0 270 354" version="1.1" xmlns="http://www.w3.org/2000/svg" xmlns:xlink="http://www.w3.org/1999/xlink" xml:space="preserve" xmlns:serif="http://www.serif.com/" style="fill-rule:evenodd;clip-rule:evenodd;stroke-linejoin:round;stroke-miterlimit:2;">
    <g transform="matrix(1,0,0,1,-3499.73,-195.539)">
        <g transform="matrix(0.894749,0,0,0.894749,585.288,0)">
            <g transform="matrix(3.83939,0,0,3.83939,-1009.43,-2459.71)">
                <g transform="matrix(-0.764021,-9.35656e-17,1.1025e-16,-0.900262,2143.26,1436.23)">
                    <path d="M1349.66,784.097C1349.94,786.486 1349.01,788.863 1347.11,790.642C1345.21,792.42 1342.52,793.435 1339.69,793.435C1320.23,793.435 1280.07,793.435 1260.61,793.435C1257.78,793.435 1255.09,792.42 1253.19,790.642C1251.29,788.863 1250.36,786.486 1250.64,784.097C1252.5,768.003 1256.32,735.091 1258.34,717.627C1259.1,711.114 1265.55,706.15 1273.26,706.15C1288.21,706.15 1312.09,706.15 1327.04,706.15C1334.75,706.15 1341.2,711.114 1341.96,717.627C1343.98,735.091 1347.8,768.003 1349.66,784.097Z" style="fill:rgb(255,164,242);"/>
                </g>
                <g transform="matrix(0.804164,3.30006e-17,-2.32086e-16,0.158761,104.958,594.105)">
                    <path d="M1312.74,706.15L1337.07,706.15C1339.27,706.15 1341.31,712.065 1342.43,721.696L1348.55,774.458C1349,778.354 1349,783.176 1348.56,787.096C1348.12,791.016 1347.29,793.435 1346.4,793.435L1253.9,793.435C1253.01,793.435 1252.18,791.016 1251.74,787.096C1251.3,783.176 1251.3,778.354 1251.76,774.458L1257.87,721.696C1258.99,712.065 1261.03,706.15 1263.23,706.15L1286.12,706.15C1287.44,675.055 1292.9,651.716 1299.43,651.716C1305.96,651.716 1311.43,675.055 1312.74,706.15ZM1307.37,706.15C1306.19,689.716 1303.08,677.96 1299.43,677.96C1295.79,677.96 1292.68,689.716 1291.5,706.15L1307.37,706.15Z" style="fill:rgb(255,164,242);"/>
                </g>
                <g transform="matrix(1,0,0,0.886792,8.65124,84.2984)">
                    <path d="M1124.15,730.614C1124.15,729.318 1125.08,728.265 1126.23,728.265C1127.38,728.265 1128.32,729.318 1128.32,730.614L1128.32,781.093C1128.32,782.39 1127.38,783.442 1126.23,783.442C1125.08,783.442 1124.15,782.39 1124.15,781.093L1124.15,730.614Z" style="fill:white;"/>
                </g>
                <g transform="matrix(1,0,0,0.886792,22.8684,84.2984)">
                    <path d="M1124.15,730.614C1124.15,729.318 1125.08,728.265 1126.23,728.265C1127.38,728.265 1128.32,729.318 1128.32,730.614L1128.32,781.093C1128.32,782.39 1127.38,783.442 1126.23,783.442C1125.08,783.442 1124.15,782.39 1124.15,781.093L1124.15,730.614Z" style="fill:white;"/>
                </g>
                <g transform="matrix(1,0,0,0.886792,37.0856,84.2984)">
                    <path d="M1124.15,730.614C1124.15,729.318 1125.08,728.265 1126.23,728.265C1127.38,728.265 1128.32,729.318 1128.32,730.614L1128.32,781.093C1128.32,782.39 1127.38,783.442 1126.23,783.442C1125.08,783.442 1124.15,782.39 1124.15,781.093L1124.15,730.614Z" style="fill:white;"/>
                </g>
                <g transform="matrix(1,0,0,1,-0.158736,1.90486)">
                    <path d="M1123.02,775.216C1122.93,774.647 1123.33,774.116 1123.89,774.031C1124.46,773.945 1124.99,774.337 1125.08,774.906L1126.41,783.717C1126.91,787.085 1129.81,789.576 1133.21,789.576L1142.27,789.576C1142.84,789.576 1143.31,790.042 1143.31,790.617C1143.31,791.192 1142.84,791.659 1142.27,791.659L1133.21,791.659C1128.78,791.659 1125.01,788.414 1124.35,784.027L1123.02,775.216Z" style="fill:white;"/>
                </g>
            </g>
        </g>
    </g>
</svg>
