<?xml version="1.0" encoding="UTF-8" standalone="no"?>
<!DOCTYPE svg PUBLIC "-//W3C//DTD SVG 1.1//EN" "http://www.w3.org/Graphics/SVG/1.1/DTD/svg11.dtd">
<svg width="100%" height="100%" viewBox="0 0 114 63" version="1.1" xmlns="http://www.w3.org/2000/svg" xmlns:xlink="http://www.w3.org/1999/xlink" xml:space="preserve" xmlns:serif="http://www.serif.com/" style="fill-rule:evenodd;clip-rule:evenodd;stroke-linejoin:round;stroke-miterlimit:2;">
    <g transform="matrix(1,0,0,1,-2653.8,-814.829)">
        <g transform="matrix(1,0,0,1,-0.284563,0)">
            <g transform="matrix(1,0,0,1,1761.51,293.005)">
                <g transform="matrix(1.13647,0,0,1.3617,-130.248,-200.726)">
                    <path d="M999.893,537.49L999.893,569.527C999.893,573.316 996.208,576.392 991.668,576.392L908.226,576.392C903.686,576.392 900,573.316 900,569.527L900,537.49C900,533.701 903.686,530.625 908.226,530.625L991.668,530.625C996.208,530.625 999.893,533.701 999.893,537.49Z" style="fill:rgb(255,164,242);"/>
                </g>
                <g transform="matrix(1.14141,0,0,1.19033,-136.051,-102.368)">
                    <path d="M917.596,529.39L984.662,529.39C985.41,529.39 986.082,529.828 986.358,530.495C988,534.46 991.166,537.64 995.13,539.285C995.798,539.562 996.23,540.193 996.23,540.891L996.23,558.484C996.23,559.182 995.798,559.813 995.13,560.09C990.651,561.948 987.192,565.765 985.797,570.463C985.574,571.215 984.857,571.734 984.041,571.734L918.216,571.734C917.401,571.734 916.684,571.215 916.461,570.463C915.027,565.634 911.412,561.735 906.75,559.939C906.059,559.672 905.606,559.029 905.606,558.315L905.606,541.06C905.606,540.345 906.059,539.702 906.75,539.436C910.89,537.84 914.206,534.585 915.9,530.495C916.176,529.828 916.848,529.39 917.596,529.39ZM918.795,532.891C916.792,536.99 913.409,540.292 909.256,542.201C909.256,542.201 909.256,557.174 909.256,557.174C913.984,559.347 917.716,563.328 919.547,568.233C919.547,568.233 982.711,568.233 982.711,568.233C984.487,563.475 988.052,559.587 992.58,557.374C992.58,557.374 992.58,542 992.58,542.001C988.62,540.066 985.397,536.85 983.463,532.891L918.795,532.891Z" style="fill:white;"/>
                </g>
                <g transform="matrix(1.13647,0,0,1.18518,-130.248,-77.6278)">
                    <path d="M942.381,523.331L934.806,540.831L930.806,540.831L923.256,523.331L927.631,523.331L932.956,535.831L938.356,523.331L942.381,523.331Z" style="fill:white;"/>
                    <path d="M959.881,523.331L959.881,540.831L956.556,540.831L947.831,530.206L947.831,540.831L943.831,540.831L943.831,523.331L947.181,523.331L955.881,533.956L955.881,523.331L959.881,523.331Z" style="fill:white;"/>
                    <path d="M964.031,523.331L971.981,523.331C973.881,523.331 975.556,523.698 977.006,524.431C978.472,525.148 979.606,526.165 980.406,527.481C981.222,528.798 981.631,530.331 981.631,532.081C981.631,533.831 981.222,535.365 980.406,536.681C979.606,537.998 978.472,539.023 977.006,539.756C975.556,540.473 973.881,540.831 971.981,540.831L964.031,540.831L964.031,523.331ZM971.781,537.506C973.531,537.506 974.922,537.023 975.956,536.056C977.006,535.073 977.531,533.748 977.531,532.081C977.531,530.415 977.006,529.098 975.956,528.131C974.922,527.148 973.531,526.656 971.781,526.656L968.081,526.656L968.081,537.506L971.781,537.506Z" style="fill:white;"/>
                </g>
            </g>
        </g>
    </g>
</svg>
