<?xml version="1.0" encoding="UTF-8" standalone="no"?>
<!DOCTYPE svg PUBLIC "-//W3C//DTD SVG 1.1//EN" "http://www.w3.org/Graphics/SVG/1.1/DTD/svg11.dtd">
<svg width="100%" height="100%" viewBox="0 0 119 119" version="1.1" xmlns="http://www.w3.org/2000/svg" xmlns:xlink="http://www.w3.org/1999/xlink" xml:space="preserve" xmlns:serif="http://www.serif.com/" style="fill-rule:evenodd;clip-rule:evenodd;stroke-linejoin:round;stroke-miterlimit:2;">
    <g transform="matrix(1,0,0,1,-2450.71,-781.348)">
        <g transform="matrix(1,0,0,1,-0.284563,0)">
            <g id="icons8-facebook.svg" transform="matrix(2.37481,0,0,2.37481,2510.36,840.718)">
                <g transform="matrix(1,0,0,1,-25,-25)">
                    <path d="M41,4L9,4C6.24,4 4,6.24 4,9L4,41C4,43.76 6.24,46 9,46L41,46C43.76,46 46,43.76 46,41L46,9C46,6.24 43.76,4 41,4ZM37,19L35,19C32.86,19 32,19.5 32,21L32,24L37,24L36,29L32,29L32,44L27,44L27,29L23,29L23,24L27,24L27,21C27,17 29,14 33,14C35.9,14 37,15 37,15L37,19Z" style="fill:rgb(255,164,242);fill-rule:nonzero;"/>
                </g>
            </g>
        </g>
    </g>
</svg>
