<?xml version="1.0" encoding="UTF-8" standalone="no"?>
<!DOCTYPE svg PUBLIC "-//W3C//DTD SVG 1.1//EN" "http://www.w3.org/Graphics/SVG/1.1/DTD/svg11.dtd">
<svg width="100%" height="100%" viewBox="0 0 87 101" version="1.1" xmlns="http://www.w3.org/2000/svg" xmlns:xlink="http://www.w3.org/1999/xlink" xml:space="preserve" xmlns:serif="http://www.serif.com/" style="fill-rule:evenodd;clip-rule:evenodd;stroke-linejoin:round;stroke-miterlimit:2;">
    <g transform="matrix(1,0,0,1,-3149.41,-99.9172)">
        <g transform="matrix(1,0,0,1,191.149,0)">
            <g transform="matrix(-1.12057,-1.37231e-16,1.01375e-16,-0.82779,6603.9,231.995)">
                <path d="M3222.3,99.172C3222.3,99.172 3239.74,133.061 3248.48,150.063C3249.43,151.909 3249.54,154.317 3248.78,156.311C3248.01,158.305 3246.48,159.555 3244.82,159.555L3184.29,159.555C3182.63,159.555 3181.11,158.305 3180.34,156.311C3179.57,154.317 3179.68,151.909 3180.63,150.063C3189.39,133.033 3206.88,99.047 3206.88,99.047L3206.88,44.737C3206.88,43.135 3207.35,41.599 3208.18,40.466C3209.02,39.333 3210.15,38.697 3211.34,38.697C3213.38,38.697 3215.8,38.697 3217.84,38.697C3219.02,38.697 3220.16,39.333 3220.99,40.466C3221.83,41.599 3222.3,43.135 3222.3,44.737C3222.3,60.048 3222.3,99.172 3222.3,99.172Z" style="fill:rgb(255,164,242);"/>
            </g>
            <g transform="matrix(1,0,0,1,-189.41,1.13515)">
                <path d="M3162.06,107.503C3161.41,106.552 3161.66,105.255 3162.61,104.609C3163.56,103.963 3164.86,104.21 3165.5,105.161L3187.78,137.923C3188.42,138.874 3188.18,140.171 3187.22,140.817C3186.27,141.464 3184.98,141.216 3184.33,140.266L3162.06,107.503Z" style="fill:white;"/>
            </g>
        </g>
    </g>
</svg>
