<?xml version="1.0" encoding="UTF-8" standalone="no"?>
<!DOCTYPE svg PUBLIC "-//W3C//DTD SVG 1.1//EN" "http://www.w3.org/Graphics/SVG/1.1/DTD/svg11.dtd">
<svg width="100%" height="100%" viewBox="0 0 285 108" version="1.1" xmlns="http://www.w3.org/2000/svg" xmlns:xlink="http://www.w3.org/1999/xlink" xml:space="preserve" xmlns:serif="http://www.serif.com/" style="fill-rule:evenodd;clip-rule:evenodd;stroke-linejoin:round;stroke-miterlimit:2;">
    <g transform="matrix(1,0,0,1,-2524.76,-347.884)">
        <g transform="matrix(1,0,0,1,-0.284563,0)">
            <g transform="matrix(1,0,0,1,2281.78,-718.642)">
                <g transform="matrix(0.956081,0,0,0.956081,573.746,225.115)">
                    <circle cx="-289.566" cy="936.158" r="56.094" style="fill:white;"/>
                </g>
                <g transform="matrix(1,0,0,1,581,192.878)">
                    <g transform="matrix(0.823183,0,0,0.926628,-11.2094,70.1813)">
                        <path d="M-279.443,890.492L-63.03,890.492C-56.518,890.492 -51.231,895.147 -51.231,900.88L-51.231,949.355C-51.231,955.088 -56.518,959.742 -63.03,959.742L-279.443,959.742C-271.523,949.975 -266.861,938.021 -266.861,925.117C-266.861,912.213 -271.523,900.259 -279.443,890.492Z" style="fill:rgb(255,164,242);"/>
                    </g>
                    <path d="M-255.251,959.16C-262.963,966.251 -273.252,970.583 -284.544,970.583C-308.444,970.583 -327.847,951.179 -327.847,927.28C-327.847,903.381 -308.444,883.977 -284.544,883.977C-273.252,883.977 -262.963,888.309 -255.251,895.4C-246.641,903.317 -241.242,914.673 -241.242,927.28C-241.242,939.887 -246.641,951.243 -255.251,959.16Z" style="fill:rgb(255,164,242);"/>
                </g>
                <g transform="matrix(0.78082,0.78082,-0.61644,0.61644,1068.53,764.33)">
                    <path d="M-245.483,931.157L-245.391,931.157L-245.391,942.347C-245.391,943.26 -245.677,944.135 -246.187,944.78C-246.696,945.426 -247.387,945.788 -248.108,945.788C-255.279,945.788 -274.657,945.788 -281.828,945.788C-282.548,945.788 -283.239,945.426 -283.749,944.78C-284.258,944.135 -284.544,943.26 -284.544,942.347C-284.544,940.011 -284.544,936.934 -284.544,934.598C-284.544,932.698 -283.328,931.157 -281.828,931.157C-274.885,931.157 -257.034,931.157 -257.034,931.157L-257.034,863.093C-257.034,861.193 -255.818,859.652 -254.318,859.652C-252.473,859.652 -250.044,859.652 -248.2,859.652C-246.7,859.652 -245.483,861.193 -245.483,863.093C-245.483,877.365 -245.483,931.157 -245.483,931.157Z" style="fill:white;"/>
                </g>
                <g transform="matrix(0.965111,0,0,0.965111,562.096,214.017)">
                    <path d="M-302.165,934.747C-302.233,935.308 -302.414,935.8 -302.71,936.224C-303.006,936.642 -303.38,936.955 -303.833,937.161C-304.29,937.362 -304.783,937.431 -305.313,937.367C-305.843,937.303 -306.304,937.12 -306.695,936.818C-307.091,936.509 -307.383,936.117 -307.571,935.64C-307.759,935.158 -307.819,934.637 -307.752,934.077C-307.684,933.516 -307.503,933.026 -307.207,932.608C-306.912,932.189 -306.535,931.877 -306.077,931.671C-305.625,931.465 -305.133,931.393 -304.604,931.457C-304.074,931.52 -303.611,931.706 -303.215,932.015C-302.824,932.323 -302.534,932.715 -302.346,933.191C-302.158,933.668 -302.098,934.187 -302.165,934.747ZM-303.23,934.619C-303.192,934.301 -303.229,934.004 -303.342,933.729C-303.461,933.454 -303.642,933.229 -303.887,933.053C-304.132,932.873 -304.421,932.762 -304.756,932.722C-305.09,932.682 -305.397,932.721 -305.677,932.838C-305.957,932.951 -306.184,933.127 -306.359,933.367C-306.539,933.606 -306.648,933.886 -306.687,934.204C-306.725,934.523 -306.685,934.82 -306.567,935.095C-306.454,935.37 -306.275,935.598 -306.03,935.778C-305.785,935.954 -305.496,936.062 -305.161,936.102C-304.827,936.142 -304.52,936.106 -304.24,935.993C-303.96,935.875 -303.73,935.697 -303.55,935.458C-303.375,935.218 -303.268,934.938 -303.23,934.619Z" style="fill:white;fill-rule:nonzero;"/>
                    <path d="M-304.977,924.283L-299.879,926.182L-300.24,927.151L-304.282,928.539L-301.187,929.692L-301.621,930.858L-306.719,928.958L-306.355,927.983L-302.316,926.602L-305.411,925.448L-304.977,924.283Z" style="fill:white;fill-rule:nonzero;"/>
                    <path d="M-303.825,922.099L-303.146,921.039L-299.429,923.42L-297.958,921.124L-297.094,921.677L-299.245,925.034L-303.825,922.099Z" style="fill:white;fill-rule:nonzero;"/>
                    <path d="M-300.802,917.689L-299.999,916.719L-295.809,920.188L-296.612,921.158L-300.802,917.689Z" style="fill:white;fill-rule:nonzero;"/>
                    <path d="M-294.831,911.773L-291.252,915.87L-292.031,916.55L-296.246,915.847L-294.073,918.334L-295.009,919.152L-298.588,915.055L-297.804,914.37L-293.594,915.078L-295.767,912.591L-294.831,911.773Z" style="fill:white;fill-rule:nonzero;"/>
                    <path d="M-286.958,912.244L-286.471,913.13L-290.163,915.158L-292.782,910.39L-289.179,908.411L-288.693,909.296L-291.199,910.673L-290.63,911.709L-288.417,910.492L-287.945,911.351L-290.159,912.567L-289.553,913.67L-286.958,912.244Z" style="fill:white;fill-rule:nonzero;"/>
                    <path d="M-285.059,912.692C-285.257,912.769 -285.45,912.766 -285.637,912.684C-285.825,912.601 -285.958,912.458 -286.037,912.255C-286.118,912.048 -286.115,911.855 -286.028,911.677C-285.944,911.494 -285.803,911.364 -285.605,911.287C-285.407,911.21 -285.215,911.211 -285.029,911.288C-284.845,911.361 -284.712,911.502 -284.632,911.709C-284.553,911.912 -284.555,912.108 -284.638,912.295C-284.72,912.483 -284.861,912.615 -285.059,912.692Z" style="fill:white;fill-rule:nonzero;"/>
                    <path d="M-280.761,908.468L-279.641,908.206L-279.138,910.354C-279.374,910.639 -279.668,910.883 -280.019,911.088C-280.37,911.293 -280.738,911.44 -281.121,911.53C-281.671,911.658 -282.192,911.658 -282.686,911.529C-283.18,911.395 -283.602,911.151 -283.951,910.796C-284.296,910.435 -284.53,909.993 -284.653,909.468C-284.776,908.944 -284.763,908.445 -284.612,907.974C-284.458,907.496 -284.186,907.089 -283.797,906.753C-283.409,906.412 -282.937,906.176 -282.382,906.046C-281.918,905.938 -281.479,905.917 -281.064,905.985C-280.649,906.053 -280.278,906.205 -279.951,906.442L-280.567,907.353C-281.039,907.043 -281.542,906.951 -282.077,907.076C-282.415,907.156 -282.698,907.297 -282.928,907.499C-283.157,907.702 -283.314,907.949 -283.4,908.241C-283.486,908.532 -283.49,908.844 -283.412,909.177C-283.336,909.505 -283.194,909.781 -282.987,910.004C-282.781,910.226 -282.532,910.381 -282.24,910.467C-281.945,910.547 -281.631,910.548 -281.298,910.47C-280.945,910.387 -280.644,910.237 -280.397,910.019L-280.761,908.468Z" style="fill:white;fill-rule:nonzero;"/>
                    <path d="M-275.178,910.892C-275.743,910.891 -276.253,910.768 -276.708,910.523C-277.158,910.279 -277.512,909.944 -277.77,909.518C-278.023,909.088 -278.149,908.605 -278.148,908.072C-278.146,907.538 -278.018,907.059 -277.763,906.635C-277.503,906.206 -277.148,905.87 -276.696,905.627C-276.24,905.385 -275.729,905.264 -275.165,905.266C-274.6,905.267 -274.092,905.39 -273.642,905.635C-273.192,905.879 -272.838,906.217 -272.58,906.647C-272.322,907.073 -272.194,907.552 -272.195,908.086C-272.196,908.62 -272.327,909.101 -272.587,909.53C-272.847,909.955 -273.203,910.288 -273.654,910.53C-274.105,910.773 -274.613,910.893 -275.178,910.892ZM-275.175,909.82C-274.854,909.82 -274.564,909.749 -274.304,909.604C-274.045,909.454 -273.843,909.248 -273.697,908.984C-273.546,908.72 -273.47,908.42 -273.469,908.083C-273.469,907.746 -273.543,907.446 -273.693,907.181C-273.837,906.916 -274.039,906.711 -274.297,906.566C-274.556,906.415 -274.846,906.339 -275.167,906.338C-275.488,906.337 -275.779,906.412 -276.038,906.561C-276.297,906.706 -276.502,906.91 -276.653,907.174C-276.799,907.438 -276.872,907.738 -276.873,908.075C-276.874,908.412 -276.802,908.712 -276.658,908.977C-276.508,909.241 -276.304,909.449 -276.045,909.6C-275.787,909.746 -275.497,909.819 -275.175,909.82Z" style="fill:white;fill-rule:nonzero;"/>
                    <path d="M-265.126,906.818L-268.623,911.604L-269.836,911.33L-270.925,905.506L-269.598,905.806L-268.841,909.961L-266.347,906.542L-265.126,906.818Z" style="fill:white;fill-rule:nonzero;"/>
                    <path d="M-265.787,912.556C-265.986,912.482 -266.128,912.352 -266.214,912.165C-266.299,911.978 -266.304,911.783 -266.228,911.579C-266.15,911.371 -266.02,911.228 -265.837,911.153C-265.652,911.072 -265.46,911.069 -265.261,911.143C-265.062,911.217 -264.919,911.345 -264.832,911.527C-264.743,911.704 -264.737,911.896 -264.815,912.105C-264.891,912.309 -265.022,912.454 -265.209,912.539C-265.395,912.624 -265.588,912.63 -265.787,912.556Z" style="fill:white;fill-rule:nonzero;"/>
                    <path d="M-257.276,910.588L-261.915,914.278L-263.012,913.693L-262.521,907.789L-261.321,908.429L-261.69,912.636L-258.38,909.999L-257.276,910.588Z" style="fill:white;fill-rule:nonzero;"/>
                    <path d="M-252.15,914.803L-255.684,918.938L-256.47,918.267L-256.386,913.994L-258.532,916.504L-259.477,915.697L-255.943,911.561L-255.151,912.238L-255.241,916.506L-253.095,913.995L-252.15,914.803Z" style="fill:white;fill-rule:nonzero;"/>
                </g>
                <g transform="matrix(3.13596,0,0,3.13596,-792.933,-2336.21)">
                    <path d="M371.06,1100.55L368.233,1100.55L368.233,1095.3L371.06,1095.3C371.46,1095.3 371.795,1095.44 372.065,1095.71C372.34,1095.98 372.478,1096.32 372.478,1096.72L372.478,1099.13C372.478,1099.53 372.34,1099.87 372.065,1100.15C371.795,1100.42 371.46,1100.55 371.06,1100.55ZM370.355,1097.12L370.048,1097.12L370.048,1098.74L370.355,1098.74C370.45,1098.74 370.525,1098.71 370.58,1098.65C370.635,1098.6 370.663,1098.52 370.663,1098.43L370.663,1097.42C370.663,1097.33 370.635,1097.25 370.58,1097.2C370.525,1097.14 370.45,1097.12 370.355,1097.12ZM367.82,1098.33L368.765,1098.33L368.765,1098.74L367.82,1098.74L367.82,1098.33Z" style="fill:white;"/>
                    <path d="M372.913,1100.55L372.913,1096.72C372.913,1096.32 373.048,1095.98 373.318,1095.71C373.593,1095.44 373.93,1095.3 374.33,1095.3L375.74,1095.3C376.14,1095.3 376.475,1095.44 376.745,1095.71C377.02,1095.98 377.158,1096.32 377.158,1096.72L377.158,1100.55L375.343,1100.55L375.343,1098.39L374.728,1098.39L374.728,1100.55L372.913,1100.55ZM374.728,1097.42L374.728,1097.99L375.343,1097.99L375.343,1097.42C375.343,1097.33 375.315,1097.25 375.26,1097.2C375.205,1097.14 375.13,1097.12 375.035,1097.12C374.94,1097.12 374.865,1097.14 374.81,1097.2C374.755,1097.25 374.728,1097.33 374.728,1097.42Z" style="fill:white;"/>
                    <g transform="matrix(1,0,0,1,-3.0075,0)">
                        <path d="M376.513,1094.38C376.568,1094.37 376.625,1094.36 376.685,1094.34C376.81,1094.31 376.95,1094.29 377.105,1094.27C377.195,1094.26 377.275,1094.26 377.345,1094.26C377.62,1094.26 377.878,1094.29 378.118,1094.36C378.358,1094.42 378.628,1094.46 378.928,1094.46C379.083,1094.45 379.185,1094.44 379.235,1094.42C379.305,1094.4 379.373,1094.39 379.438,1094.37L379.573,1094.75C379.518,1094.77 379.46,1094.78 379.4,1094.8C379.3,1094.83 379.173,1094.85 379.018,1094.87C378.943,1094.88 378.863,1094.88 378.778,1094.88C378.483,1094.88 378.223,1094.84 377.998,1094.78C377.773,1094.71 377.505,1094.68 377.195,1094.67C377.04,1094.68 376.925,1094.7 376.85,1094.72C376.78,1094.73 376.715,1094.75 376.655,1094.76L376.513,1094.38Z" style="fill:white;"/>
                    </g>
                    <path d="M379.018,1097.12L379.018,1095.3L382.993,1095.3L382.993,1097.12L381.95,1097.12L381.95,1100.55L380.06,1100.55L380.06,1097.12L379.018,1097.12Z" style="fill:white;"/>
                    <path d="M385.198,1100.55L383.383,1100.55L383.383,1095.3L385.198,1095.3L385.198,1097.72L385.813,1097.72L385.813,1095.3L387.628,1095.3L387.628,1100.55L385.813,1100.55L385.813,1098.13L385.198,1098.13L385.198,1100.55Z" style="fill:white;"/>
                    <path d="M388.093,1099.13L388.093,1096.72C388.093,1096.32 388.228,1095.98 388.498,1095.71C388.773,1095.44 389.11,1095.3 389.51,1095.3L390.92,1095.3C391.32,1095.3 391.655,1095.44 391.925,1095.71C392.2,1095.98 392.338,1096.32 392.338,1096.72L392.338,1099.13C392.338,1099.53 392.2,1099.87 391.925,1100.15C391.655,1100.42 391.32,1100.55 390.92,1100.55L389.51,1100.55C389.11,1100.55 388.773,1100.42 388.498,1100.15C388.228,1099.87 388.093,1099.53 388.093,1099.13ZM389.908,1097.42L389.908,1098.43C389.908,1098.52 389.935,1098.6 389.99,1098.65C390.045,1098.71 390.12,1098.74 390.215,1098.74C390.31,1098.74 390.385,1098.71 390.44,1098.65C390.495,1098.6 390.523,1098.52 390.523,1098.43L390.523,1097.42C390.523,1097.33 390.495,1097.25 390.44,1097.2C390.385,1097.14 390.31,1097.12 390.215,1097.12C390.12,1097.12 390.045,1097.14 389.99,1097.2C389.935,1097.25 389.908,1097.33 389.908,1097.42ZM390.215,1094.78C390.18,1094.89 390.068,1094.97 389.878,1095.03C389.688,1095.09 389.383,1095.08 388.963,1095L388.963,1094.6C389.458,1094.66 389.875,1094.62 390.215,1094.48C390.555,1094.62 390.973,1094.66 391.468,1094.6L391.468,1095C391.048,1095.08 390.743,1095.09 390.553,1095.03C390.363,1094.97 390.25,1094.89 390.215,1094.78Z" style="fill:white;"/>
                    <path d="M392.773,1100.55L392.773,1096.72C392.773,1096.32 392.908,1095.98 393.178,1095.71C393.453,1095.44 393.79,1095.3 394.19,1095.3L395.6,1095.3C396,1095.3 396.335,1095.44 396.605,1095.71C396.88,1095.98 397.018,1096.32 397.018,1096.72L397.018,1100.55L395.203,1100.55L395.203,1097.42C395.203,1097.33 395.175,1097.25 395.12,1097.2C395.065,1097.14 394.99,1097.12 394.895,1097.12C394.8,1097.12 394.725,1097.14 394.67,1097.2C394.615,1097.25 394.588,1097.33 394.588,1097.42L394.588,1100.55L392.773,1100.55Z" style="fill:white;"/>
                    <path d="M397.453,1099.13L397.453,1096.72C397.453,1096.32 397.588,1095.98 397.858,1095.71C398.133,1095.44 398.47,1095.3 398.87,1095.3L400.325,1095.3C400.69,1095.3 400.998,1095.43 401.248,1095.68C401.498,1095.93 401.623,1096.23 401.623,1096.6L401.623,1097.47L399.883,1097.47L399.883,1097.36C399.883,1097.29 399.86,1097.23 399.815,1097.18C399.775,1097.14 399.72,1097.12 399.65,1097.12L399.575,1097.12C399.48,1097.12 399.405,1097.14 399.35,1097.2C399.295,1097.25 399.268,1097.33 399.268,1097.42L399.268,1097.72L401.983,1097.72L401.983,1098.13L401.623,1098.13L401.623,1099.13C401.623,1099.53 401.485,1099.87 401.21,1100.15C400.94,1100.42 400.605,1100.55 400.205,1100.55L398.87,1100.55C398.47,1100.55 398.133,1100.42 397.858,1100.15C397.588,1099.87 397.453,1099.53 397.453,1099.13ZM399.35,1098.65C399.405,1098.71 399.48,1098.74 399.575,1098.74C399.67,1098.74 399.745,1098.71 399.8,1098.65C399.855,1098.6 399.883,1098.52 399.883,1098.43L399.883,1098.13L399.268,1098.13L399.268,1098.43C399.268,1098.52 399.295,1098.6 399.35,1098.65Z" style="fill:white;"/>
                    <path d="M407.675,1096.59L407.675,1096.84C407.675,1097.31 407.48,1097.68 407.09,1097.93C407.48,1098.18 407.675,1098.54 407.675,1099.01L407.675,1099.26C407.675,1099.63 407.55,1099.93 407.3,1100.18C407.055,1100.43 406.75,1100.55 406.385,1100.55L403.76,1100.55L403.76,1095.3L406.385,1095.3C406.75,1095.3 407.055,1095.43 407.3,1095.68C407.55,1095.92 407.675,1096.23 407.675,1096.59ZM405.883,1097.12L405.575,1097.12L405.575,1097.72L405.883,1097.72C405.978,1097.72 406.053,1097.7 406.108,1097.65C406.163,1097.59 406.19,1097.52 406.19,1097.42C406.19,1097.33 406.163,1097.25 406.108,1097.2C406.053,1097.14 405.978,1097.12 405.883,1097.12ZM405.883,1098.13L405.575,1098.13L405.575,1098.74L405.883,1098.74C405.978,1098.74 406.053,1098.71 406.108,1098.65C406.163,1098.6 406.19,1098.52 406.19,1098.43C406.19,1098.33 406.163,1098.26 406.108,1098.21C406.053,1098.16 405.978,1098.13 405.883,1098.13Z" style="fill:white;"/>
                    <path d="M408.05,1100.55L408.05,1096.72C408.05,1096.32 408.185,1095.98 408.455,1095.71C408.73,1095.44 409.068,1095.3 409.468,1095.3L410.878,1095.3C411.278,1095.3 411.613,1095.44 411.883,1095.71C412.158,1095.98 412.295,1096.32 412.295,1096.72L412.295,1100.55L410.48,1100.55L410.48,1098.39L409.865,1098.39L409.865,1100.55L408.05,1100.55ZM409.865,1097.42L409.865,1097.99L410.48,1097.99L410.48,1097.42C410.48,1097.33 410.453,1097.25 410.398,1097.2C410.343,1097.14 410.268,1097.12 410.173,1097.12C410.078,1097.12 410.003,1097.14 409.948,1097.2C409.893,1097.25 409.865,1097.33 409.865,1097.42ZM408.916,1095.01L408.848,1094.6L411.736,1094.09L411.803,1094.5L408.916,1095.01Z" style="fill:white;"/>
                    <path d="M412.73,1099.13L412.73,1096.72C412.73,1096.32 412.865,1095.98 413.135,1095.71C413.41,1095.44 413.748,1095.3 414.148,1095.3L415.558,1095.3C415.958,1095.3 416.293,1095.44 416.563,1095.71C416.838,1095.98 416.975,1096.32 416.975,1096.72L416.975,1099.13C416.975,1099.53 416.838,1099.87 416.563,1100.15C416.293,1100.42 415.958,1100.55 415.558,1100.55L414.148,1100.55C413.748,1100.55 413.41,1100.42 413.135,1100.15C412.865,1099.87 412.73,1099.53 412.73,1099.13ZM414.545,1097.42L414.545,1098.43C414.545,1098.52 414.573,1098.6 414.628,1098.65C414.683,1098.71 414.758,1098.74 414.853,1098.74C414.948,1098.74 415.023,1098.71 415.078,1098.65C415.133,1098.6 415.16,1098.52 415.16,1098.43L415.16,1097.42C415.16,1097.33 415.133,1097.25 415.078,1097.2C415.023,1097.14 414.948,1097.12 414.853,1097.12C414.758,1097.12 414.683,1097.14 414.628,1097.2C414.573,1097.25 414.545,1097.33 414.545,1097.42Z" style="fill:white;"/>
                </g>
                <g transform="matrix(3.89541,0,0,3.89541,-1072.64,-3144.6)">
                    <path d="M370.358,1099.1C370.517,1099.15 370.642,1099.24 370.732,1099.36C370.823,1099.47 370.868,1099.62 370.868,1099.79C370.868,1100.04 370.772,1100.22 370.581,1100.36C370.392,1100.49 370.116,1100.55 369.752,1100.55L368.309,1100.55L368.309,1097.76L369.672,1097.76C370.012,1097.76 370.273,1097.83 370.453,1097.96C370.637,1098.09 370.728,1098.26 370.728,1098.49C370.728,1098.62 370.695,1098.74 370.629,1098.85C370.565,1098.96 370.475,1099.04 370.358,1099.1ZM368.951,1098.25L368.951,1098.91L369.592,1098.91C369.752,1098.91 369.873,1098.88 369.955,1098.82C370.037,1098.77 370.079,1098.68 370.079,1098.58C370.079,1098.47 370.037,1098.38 369.955,1098.33C369.873,1098.28 369.752,1098.25 369.592,1098.25L368.951,1098.25ZM369.704,1100.07C369.874,1100.07 370.002,1100.04 370.087,1099.98C370.174,1099.93 370.218,1099.84 370.218,1099.72C370.218,1099.49 370.047,1099.38 369.704,1099.38L368.951,1099.38L368.951,1100.07L369.704,1100.07Z" style="fill:white;fill-rule:nonzero;"/>
                    <path d="M372.709,1100.6C372.42,1100.6 372.158,1100.54 371.924,1100.41C371.693,1100.29 371.511,1100.12 371.378,1099.9C371.248,1099.68 371.183,1099.43 371.183,1099.16C371.183,1098.88 371.248,1098.64 371.378,1098.42C371.511,1098.2 371.693,1098.03 371.924,1097.9C372.158,1097.78 372.42,1097.71 372.709,1097.71C372.999,1097.71 373.259,1097.78 373.491,1097.9C373.722,1098.03 373.904,1098.2 374.037,1098.42C374.17,1098.64 374.236,1098.88 374.236,1099.16C374.236,1099.43 374.17,1099.68 374.037,1099.9C373.904,1100.12 373.722,1100.29 373.491,1100.41C373.259,1100.54 372.999,1100.6 372.709,1100.6ZM372.709,1100.05C372.874,1100.05 373.023,1100.01 373.156,1099.94C373.289,1099.86 373.392,1099.76 373.467,1099.62C373.544,1099.48 373.582,1099.33 373.582,1099.16C373.582,1098.98 373.544,1098.83 373.467,1098.69C373.392,1098.56 373.289,1098.45 373.156,1098.38C373.023,1098.3 372.874,1098.26 372.709,1098.26C372.545,1098.26 372.396,1098.3 372.263,1098.38C372.13,1098.45 372.025,1098.56 371.948,1098.69C371.874,1098.83 371.836,1098.98 371.836,1099.16C371.836,1099.33 371.874,1099.48 371.948,1099.62C372.025,1099.76 372.13,1099.86 372.263,1099.94C372.396,1100.01 372.545,1100.05 372.709,1100.05ZM372.709,1101.39C372.63,1101.39 372.563,1101.36 372.51,1101.31C372.46,1101.27 372.434,1101.2 372.434,1101.12C372.434,1101.04 372.46,1100.98 372.51,1100.92C372.563,1100.87 372.63,1100.84 372.709,1100.84C372.786,1100.84 372.852,1100.87 372.905,1100.92C372.958,1100.98 372.984,1101.04 372.984,1101.12C372.984,1101.2 372.958,1101.27 372.905,1101.31C372.854,1101.36 372.789,1101.39 372.709,1101.39ZM373.056,1097.54L372.709,1097.23L372.363,1097.54L371.908,1097.54L372.434,1096.96L372.984,1096.96L373.511,1097.54L373.056,1097.54Z" style="fill:white;fill-rule:nonzero;"/>
                    <path d="M377.186,1100.6C376.901,1100.6 376.644,1100.54 376.412,1100.42C376.184,1100.29 376.003,1100.12 375.87,1099.9C375.74,1099.68 375.675,1099.43 375.675,1099.16C375.675,1098.88 375.74,1098.63 375.87,1098.41C376.003,1098.19 376.184,1098.02 376.412,1097.9C376.644,1097.78 376.903,1097.71 377.19,1097.71C377.431,1097.71 377.649,1097.76 377.843,1097.84C378.04,1097.93 378.205,1098.05 378.338,1098.21L377.923,1098.59C377.734,1098.37 377.501,1098.26 377.222,1098.26C377.049,1098.26 376.895,1098.3 376.759,1098.38C376.624,1098.45 376.517,1098.56 376.44,1098.69C376.366,1098.83 376.329,1098.98 376.329,1099.16C376.329,1099.33 376.366,1099.48 376.44,1099.62C376.517,1099.76 376.624,1099.86 376.759,1099.94C376.895,1100.01 377.049,1100.05 377.222,1100.05C377.501,1100.05 377.734,1099.94 377.923,1099.72L378.338,1100.1C378.205,1100.26 378.04,1100.39 377.843,1100.47C377.647,1100.56 377.427,1100.6 377.186,1100.6Z" style="fill:white;fill-rule:nonzero;"/>
                    <path d="M380.064,1100.6C379.774,1100.6 379.512,1100.54 379.278,1100.41C379.047,1100.29 378.865,1100.12 378.732,1099.9C378.602,1099.68 378.537,1099.43 378.537,1099.16C378.537,1098.88 378.602,1098.64 378.732,1098.42C378.865,1098.2 379.047,1098.03 379.278,1097.9C379.512,1097.78 379.774,1097.71 380.064,1097.71C380.353,1097.71 380.614,1097.78 380.845,1097.9C381.076,1098.03 381.258,1098.2 381.391,1098.42C381.524,1098.64 381.59,1098.88 381.59,1099.16C381.59,1099.43 381.524,1099.68 381.391,1099.9C381.258,1100.12 381.076,1100.29 380.845,1100.41C380.614,1100.54 380.353,1100.6 380.064,1100.6ZM380.064,1100.05C380.228,1100.05 380.377,1100.01 380.51,1099.94C380.643,1099.86 380.747,1099.76 380.821,1099.62C380.898,1099.48 380.937,1099.33 380.937,1099.16C380.937,1098.98 380.898,1098.83 380.821,1098.69C380.747,1098.56 380.643,1098.45 380.51,1098.38C380.377,1098.3 380.228,1098.26 380.064,1098.26C379.899,1098.26 379.75,1098.3 379.617,1098.38C379.484,1098.45 379.379,1098.56 379.302,1098.69C379.228,1098.83 379.191,1098.98 379.191,1099.16C379.191,1099.33 379.228,1099.48 379.302,1099.62C379.379,1099.76 379.484,1099.86 379.617,1099.94C379.75,1100.01 379.899,1100.05 380.064,1100.05ZM380.41,1097.54L380.064,1097.23L379.717,1097.54L379.262,1097.54L379.789,1096.96L380.339,1096.96L380.865,1097.54L380.41,1097.54Z" style="fill:white;fill-rule:nonzero;"/>
                    <path d="M384.636,1097.76L384.636,1100.55L384.105,1100.55L382.714,1098.86L382.714,1100.55L382.077,1100.55L382.077,1097.76L382.611,1097.76L383.998,1099.46L383.998,1097.76L384.636,1097.76Z" style="fill:white;fill-rule:nonzero;"/>
                    <path d="M387.183,1099.11L387.773,1099.11L387.773,1100.25C387.621,1100.36 387.446,1100.45 387.246,1100.51C387.047,1100.57 386.846,1100.6 386.644,1100.6C386.355,1100.6 386.094,1100.54 385.863,1100.42C385.632,1100.29 385.45,1100.12 385.317,1099.9C385.187,1099.68 385.122,1099.43 385.122,1099.16C385.122,1098.88 385.187,1098.63 385.317,1098.41C385.45,1098.19 385.633,1098.02 385.867,1097.9C386.101,1097.78 386.364,1097.71 386.656,1097.71C386.901,1097.71 387.123,1097.76 387.322,1097.84C387.521,1097.92 387.689,1098.04 387.824,1098.2L387.41,1098.58C387.211,1098.37 386.97,1098.26 386.688,1098.26C386.51,1098.26 386.352,1098.3 386.214,1098.38C386.076,1098.45 385.968,1098.56 385.891,1098.69C385.814,1098.83 385.776,1098.98 385.776,1099.16C385.776,1099.33 385.814,1099.48 385.891,1099.62C385.968,1099.76 386.074,1099.86 386.21,1099.94C386.348,1100.01 386.505,1100.05 386.68,1100.05C386.866,1100.05 387.034,1100.01 387.183,1099.93L387.183,1099.11Z" style="fill:white;fill-rule:nonzero;"/>
                    <path d="M390.076,1098.29L389.184,1098.29L389.184,1097.76L391.615,1097.76L391.615,1098.29L390.722,1098.29L390.722,1100.55L390.076,1100.55L390.076,1098.29Z" style="fill:white;fill-rule:nonzero;"/>
                    <path d="M394.521,1097.76L394.521,1100.55L393.875,1100.55L393.875,1099.41L392.608,1099.41L392.608,1100.55L391.962,1100.55L391.962,1097.76L392.608,1097.76L392.608,1098.86L393.875,1098.86L393.875,1097.76L394.521,1097.76Z" style="fill:white;fill-rule:nonzero;"/>
                    <path d="M396.422,1100.6C396.024,1100.6 395.713,1100.49 395.489,1100.27C395.269,1100.05 395.159,1099.73 395.159,1099.32L395.159,1097.76L395.804,1097.76L395.804,1099.3C395.804,1099.8 396.012,1100.05 396.426,1100.05C396.628,1100.05 396.782,1099.99 396.889,1099.87C396.995,1099.75 397.048,1099.56 397.048,1099.3L397.048,1097.76L397.686,1097.76L397.686,1099.32C397.686,1099.73 397.574,1100.05 397.351,1100.27C397.13,1100.49 396.821,1100.6 396.422,1100.6ZM397.355,1097.76L397.463,1097.76C397.534,1097.76 397.591,1097.74 397.634,1097.69C397.679,1097.65 397.702,1097.59 397.702,1097.51C397.702,1097.42 397.675,1097.34 397.622,1097.27L397.989,1097.14C398.074,1097.25 398.116,1097.38 398.116,1097.54C398.116,1097.73 398.056,1097.89 397.937,1098.01C397.82,1098.12 397.657,1098.18 397.447,1098.18L397.355,1098.18L397.355,1097.76Z" style="fill:white;fill-rule:nonzero;"/>
                    <path d="M400.783,1098.11C400.929,1098.23 401.043,1098.38 401.126,1098.57C401.211,1098.75 401.253,1098.94 401.253,1099.16C401.253,1099.43 401.187,1099.68 401.054,1099.9C400.921,1100.12 400.739,1100.29 400.508,1100.41C400.277,1100.54 400.016,1100.6 399.727,1100.6C399.437,1100.6 399.175,1100.54 398.941,1100.41C398.71,1100.29 398.528,1100.12 398.395,1099.9C398.265,1099.68 398.2,1099.43 398.2,1099.16C398.2,1098.88 398.266,1098.64 398.399,1098.42C398.532,1098.2 398.717,1098.03 398.953,1097.9C399.19,1097.78 399.457,1097.71 399.755,1097.71C399.871,1097.71 400.018,1097.73 400.193,1097.75C400.331,1097.76 400.428,1097.77 400.484,1097.77C400.588,1097.77 400.667,1097.75 400.723,1097.7C400.782,1097.66 400.811,1097.59 400.811,1097.51C400.811,1097.42 400.784,1097.35 400.731,1097.27L401.098,1097.13C401.183,1097.25 401.225,1097.38 401.225,1097.53C401.225,1097.68 401.187,1097.8 401.11,1097.9C401.033,1098 400.924,1098.07 400.783,1098.11ZM399.727,1100.05C399.891,1100.05 400.04,1100.01 400.173,1099.94C400.306,1099.86 400.41,1099.76 400.484,1099.62C400.561,1099.48 400.6,1099.33 400.6,1099.16C400.6,1098.98 400.561,1098.83 400.484,1098.69C400.41,1098.56 400.306,1098.45 400.173,1098.38C400.04,1098.3 399.891,1098.26 399.727,1098.26C399.562,1098.26 399.413,1098.3 399.28,1098.38C399.147,1098.45 399.042,1098.56 398.965,1098.69C398.891,1098.83 398.854,1098.98 398.854,1099.16C398.854,1099.33 398.891,1099.48 398.965,1099.62C399.042,1099.76 399.147,1099.86 399.28,1099.94C399.413,1100.01 399.562,1100.05 399.727,1100.05Z" style="fill:white;fill-rule:nonzero;"/>
                    <path d="M404.299,1097.76L404.299,1100.55L403.768,1100.55L402.377,1098.86L402.377,1100.55L401.74,1100.55L401.74,1097.76L402.274,1097.76L403.661,1099.46L403.661,1097.76L404.299,1097.76Z" style="fill:white;fill-rule:nonzero;"/>
                    <path d="M406.846,1099.11L407.436,1099.11L407.436,1100.25C407.284,1100.36 407.109,1100.45 406.909,1100.51C406.71,1100.57 406.509,1100.6 406.308,1100.6C406.018,1100.6 405.757,1100.54 405.526,1100.42C405.295,1100.29 405.113,1100.12 404.98,1099.9C404.85,1099.68 404.785,1099.43 404.785,1099.16C404.785,1098.88 404.85,1098.63 404.98,1098.41C405.113,1098.19 405.296,1098.02 405.53,1097.9C405.764,1097.78 406.027,1097.71 406.319,1097.71C406.564,1097.71 406.786,1097.76 406.985,1097.84C407.184,1097.92 407.352,1098.04 407.487,1098.2L407.073,1098.58C406.874,1098.37 406.633,1098.26 406.351,1098.26C406.173,1098.26 406.015,1098.3 405.877,1098.38C405.739,1098.45 405.631,1098.56 405.554,1098.69C405.477,1098.83 405.439,1098.98 405.439,1099.16C405.439,1099.33 405.477,1099.48 405.554,1099.62C405.631,1099.76 405.738,1099.86 405.873,1099.94C406.011,1100.01 406.168,1100.05 406.343,1100.05C406.529,1100.05 406.697,1100.01 406.846,1099.93L406.846,1099.11Z" style="fill:white;fill-rule:nonzero;"/>
                </g>
                <g transform="matrix(1,0,0,0.489633,0,573.939)">
                    <path d="M512.987,1121.39L512.987,1123.56C512.987,1124.16 512.749,1124.65 512.455,1124.65L361.07,1124.65C360.776,1124.65 360.538,1124.16 360.538,1123.56L360.538,1121.39C360.538,1120.79 360.776,1120.3 361.07,1120.3L512.455,1120.3C512.749,1120.3 512.987,1120.79 512.987,1121.39Z" style="fill:white;"/>
                </g>
                <g transform="matrix(1,0,0,1,2,0)">
                    <path d="M256.219,1129.65C255.927,1128.54 256.593,1127.4 257.705,1127.11C258.817,1126.81 259.957,1127.48 260.249,1128.59C260.249,1128.59 264.917,1146.77 278.672,1152.17C279.742,1152.59 280.27,1153.8 279.85,1154.87C279.43,1155.94 278.22,1156.47 277.149,1156.05C261.663,1149.97 256.219,1129.65 256.219,1129.65Z" style="fill:white;"/>
                </g>
            </g>
        </g>
    </g>
</svg>
