<?xml version="1.0" encoding="UTF-8" standalone="no"?>
<!DOCTYPE svg PUBLIC "-//W3C//DTD SVG 1.1//EN" "http://www.w3.org/Graphics/SVG/1.1/DTD/svg11.dtd">
<svg width="100%" height="100%" viewBox="0 0 108 73" version="1.1" xmlns="http://www.w3.org/2000/svg" xmlns:xlink="http://www.w3.org/1999/xlink" xml:space="preserve" xmlns:serif="http://www.serif.com/" style="fill-rule:evenodd;clip-rule:evenodd;stroke-linejoin:round;stroke-miterlimit:2;">
    <g transform="matrix(1,0,0,1,-1932.05,-69.6716)">
        <g transform="matrix(1,0,0,1,-0.284563,0)">
            <g id="DOWN" transform="matrix(6.12323e-17,1,-1,6.12323e-17,2335.13,-458.222)">
                <g id="down">
                    <g transform="matrix(-2.5453e-16,1.3856,-0.728712,-1.33862e-16,820.156,-152.497)">
                        <path d="M357.952,311.486C358.891,309.069 360.377,307.643 361.958,307.643C363.538,307.643 365.025,309.069 365.963,311.486C373.33,330.453 388.964,370.704 396.509,390.128C397.318,392.212 397.441,394.984 396.827,397.296C396.214,399.608 394.968,401.066 393.606,401.066C378.831,401.066 345.085,401.066 330.309,401.066C328.947,401.066 327.701,399.608 327.088,397.296C326.474,394.984 326.598,392.212 327.407,390.128C334.951,370.704 350.585,330.453 357.952,311.486Z" style="fill:rgb(255,164,242);"/>
                    </g>
                    <g transform="matrix(-2.5453e-16,1.3856,-0.728712,-1.33862e-16,821.15,-152.497)">
                        <path d="M355.335,342.975C354.842,344.244 353.9,344.514 353.233,343.576C352.565,342.639 352.424,340.847 352.917,339.578L356.935,329.231C358.112,326.201 359.976,324.412 361.958,324.412C363.939,324.412 365.803,326.201 366.98,329.231C366.982,329.236 366.983,329.241 366.985,329.245L380.949,365.657C381.437,366.932 381.29,368.721 380.62,369.651C379.949,370.581 379.008,370.3 378.519,369.026C378.519,369.026 364.559,332.624 364.559,332.624C363.949,331.055 362.984,330.13 361.958,330.13C360.931,330.13 359.964,331.057 359.354,332.628L355.335,342.975Z" style="fill:white;"/>
                    </g>
                </g>
            </g>
        </g>
    </g>
</svg>
