<?xml version="1.0" encoding="UTF-8" standalone="no"?>
<!DOCTYPE svg PUBLIC "-//W3C//DTD SVG 1.1//EN" "http://www.w3.org/Graphics/SVG/1.1/DTD/svg11.dtd">
<svg width="100%" height="100%" viewBox="0 0 104 104" version="1.1" xmlns="http://www.w3.org/2000/svg" xmlns:xlink="http://www.w3.org/1999/xlink" xml:space="preserve" xmlns:serif="http://www.serif.com/" style="fill-rule:evenodd;clip-rule:evenodd;stroke-linejoin:round;stroke-miterlimit:2;">
    <g transform="matrix(1,0,0,1,-2898.55,-524.926)">
        <g transform="matrix(1,0,0,1,-0.284563,0)">
            <g transform="matrix(1,0,0,1,778.34,-464)">
                <g transform="matrix(0.974574,0,0,0.974574,1641.77,507.339)">
                    <circle cx="544.141" cy="547.076" r="52.924" style="fill:rgb(255,164,242);"/>
                </g>
                <g transform="matrix(1,0,0,1,1622.28,490)">
                    <g transform="matrix(1.05894,0,0,1.05894,1.97075,-28.8168)">
                        <path d="M468.619,547.076C468.619,538.94 470.618,531.268 474.151,524.523C474.152,524.522 474.152,524.521 474.153,524.519C482.108,509.335 497.841,498.856 516.045,498.385C516.263,498.379 516.48,498.41 516.686,498.475C516.887,498.406 517.102,498.368 517.326,498.368C517.687,498.368 518.025,498.466 518.316,498.635C518.623,498.473 518.968,498.394 519.316,498.408C537.219,499.129 552.648,509.532 560.5,524.519C560.5,524.521 560.501,524.522 560.502,524.523C564.035,531.268 566.034,538.94 566.034,547.076C566.034,557.776 562.576,567.675 556.718,575.715C556.717,575.716 556.716,575.717 556.716,575.719C548.221,587.376 534.68,595.125 519.316,595.743C518.968,595.757 518.623,595.679 518.316,595.516C518.025,595.686 517.687,595.783 517.326,595.783C517.102,595.783 516.887,595.746 516.686,595.677C516.48,595.742 516.263,595.773 516.045,595.767C500.389,595.361 486.562,587.555 477.937,575.719C477.936,575.717 477.935,575.716 477.935,575.715C472.077,567.675 468.619,557.776 468.619,547.076ZM477.104,527.4C474.462,532.785 472.87,538.777 472.596,545.109L489.284,545.109C489.503,538.888 490.761,532.929 492.887,527.4L477.104,527.4ZM511.946,502.624C498.162,504.277 486.295,512.205 479.287,523.465L494.58,523.465C498.552,515.15 504.555,507.988 511.946,502.624ZM555.366,523.465C548.507,512.446 536.995,504.617 523.585,502.738C530.904,508.09 536.85,515.209 540.794,523.465L555.366,523.465ZM562.057,545.109C561.908,541.686 561.375,538.363 560.5,535.181C559.755,532.477 558.763,529.874 557.549,527.4L542.487,527.4C544.614,532.929 545.871,538.888 546.091,545.109L562.057,545.109ZM554.111,572.593C558.797,565.855 561.679,557.772 562.057,549.043L546.091,549.043C545.791,557.521 543.565,565.513 539.838,572.593L554.111,572.593ZM523.584,591.414C534.481,589.888 544.125,584.432 551.038,576.527L537.553,576.527C533.862,582.318 529.115,587.37 523.584,591.414ZM483.615,576.527C490.712,584.643 500.689,590.177 511.946,591.528C506.348,587.465 501.547,582.372 497.821,576.527L483.615,576.527ZM472.596,549.043C472.974,557.772 475.856,565.855 480.541,572.593L495.537,572.593C491.809,565.513 489.583,557.521 489.284,549.043L472.596,549.043ZM497.127,527.4C494.827,532.883 493.459,538.852 493.221,545.109L515.359,545.109L515.359,527.4L497.127,527.4ZM515.359,505.031C508.508,509.732 502.861,516.064 498.98,523.465L515.359,523.465L515.359,505.031ZM536.394,523.465C532.378,515.806 526.47,509.292 519.294,504.545L519.294,523.465L536.394,523.465ZM542.153,545.109C541.915,538.852 540.547,532.883 538.247,527.4L519.294,527.4L519.294,545.109L542.153,545.109ZM535.342,572.593C539.388,565.619 541.828,557.6 542.153,549.043L519.294,549.043L519.294,572.593L535.342,572.593ZM519.294,589.607C524.567,586.119 529.155,581.677 532.811,576.527L519.294,576.527L519.294,589.607ZM502.563,576.527C506.052,581.44 510.388,585.71 515.359,589.121L515.359,576.527L502.563,576.527ZM493.221,549.043C493.547,557.6 495.986,565.619 500.032,572.593L515.359,572.593L515.359,549.043L493.221,549.043Z" style="fill:white;"/>
                    </g>
                    <path d="M510.235,561.023C509.931,559.914 510.584,558.767 511.693,558.463C512.802,558.159 513.949,558.813 514.253,559.922C514.253,559.922 519.677,580.113 531.771,587.581C532.75,588.185 533.053,589.47 532.449,590.448C531.845,591.427 530.561,591.73 529.582,591.126C516.363,582.964 510.235,561.023 510.235,561.023Z" style="fill:white;"/>
                </g>
            </g>
        </g>
    </g>
</svg>
