<?xml version="1.0" encoding="UTF-8" standalone="no"?>
<!DOCTYPE svg PUBLIC "-//W3C//DTD SVG 1.1//EN" "http://www.w3.org/Graphics/SVG/1.1/DTD/svg11.dtd">
<svg width="100%" height="100%" viewBox="0 0 173 185" version="1.1" xmlns="http://www.w3.org/2000/svg" xmlns:xlink="http://www.w3.org/1999/xlink" xml:space="preserve" xmlns:serif="http://www.serif.com/" style="fill-rule:evenodd;clip-rule:evenodd;stroke-linejoin:round;stroke-miterlimit:2;">
    <g transform="matrix(1,0,0,1,-603.019,-1129.14)">
        <g transform="matrix(1,0,0,1.28954,0,0)">
            <g transform="matrix(0.629975,0,0,0.488526,-251.098,860.851)">
                <g transform="matrix(1.58496,0,0,1.58496,1274.97,-246.247)">
                    <path d="M191.705,353.84C191.422,354.19 191.122,354.527 190.805,354.851C188.108,357.613 184.45,359.164 180.636,359.164L65.377,359.164C61.563,359.164 57.905,357.613 55.207,354.851C52.51,352.09 50.995,348.344 50.995,344.439L50.995,226.426C50.995,222.833 52.278,219.375 54.584,216.694C54.784,216.461 54.992,216.234 55.207,216.014C55.777,215.431 56.388,214.902 57.035,214.43L98.582,176.073C99.733,175.009 101.23,174.424 102.781,174.429L218.971,174.862C220.216,174.867 221.409,175.378 222.286,176.283C223.163,177.188 223.653,178.413 223.648,179.688L223.094,316.656C223.087,318.429 222.427,320.134 221.245,321.43L191.705,353.84Z" style="fill:rgb(107,113,255);"/>
                </g>
                <g transform="matrix(0.63654,0,0,0.63654,-1041.46,30.217)">
                    <path d="M4133.45,383.002C4135.28,380.828 4138.49,380.585 4140.61,382.459C4142.73,384.333 4142.97,387.618 4141.14,389.791L4124.19,409.926C4120.62,414.166 4114.85,415.685 4109.72,413.735C4104.6,411.786 4101.2,406.778 4101.2,401.18L4101.2,131.826C4101.2,124.938 4103.61,118.279 4108.01,113.062L4139.55,75.608C4141.38,73.435 4144.58,73.191 4146.71,75.065C4148.83,76.939 4149.07,80.224 4147.24,82.397L4115.7,119.852C4112.89,123.181 4111.35,127.431 4111.35,131.826L4111.35,401.18C4111.35,402.432 4112.11,403.552 4113.26,403.989C4114.41,404.425 4115.7,404.085 4116.49,403.136L4133.45,383.002ZM4070.23,90.23C4073.06,90.229 4075.7,100.625 4070.24,100.628L3831.26,100.776C3826.24,100.779 3821.73,97.61 3819.92,92.807C3818.12,88.003 3819.39,82.557 3823.12,79.11L3888.41,18.809C3892.28,15.235 3897.31,13.268 3902.52,13.29L3939.11,13.451C3941.91,13.464 3944.17,15.803 3944.16,18.672C3944.15,21.542 3941.87,23.861 3939.06,23.849L3902.47,23.688C3899.79,23.676 3897.2,24.69 3895.21,26.529L3829.93,86.831C3829.31,87.395 3829.11,88.287 3829.4,89.073C3829.7,89.86 3830.43,90.378 3831.26,90.378L4070.23,90.23ZM3875.46,187.755C3873.86,188.884 3871.77,189.053 3870.01,188.197C3868.25,187.342 3867.09,185.596 3866.99,183.64C3866.6,170.729 3866.29,190.381 3866.78,156.556C3866.82,153.687 3869.12,151.392 3871.93,151.434C3874.73,151.476 3876.97,153.84 3876.93,156.709C3876.4,193.322 3876.81,156.638 3877.24,186.501C3877.24,186.501 3876.52,187.01 3875.46,187.755ZM3785.3,404.981C3782.5,404.981 3780.22,402.708 3780.22,399.904C3780.22,365.365 3780.22,166.295 3780.22,166.295C3780.22,146.958 3795.56,131.26 3814.44,131.26L3814.46,131.26L4063.63,132.421C4066.43,132.434 4068.7,134.774 4068.68,137.643C4068.67,140.513 4066.38,142.832 4063.58,142.819L3814.43,141.658C3801.16,141.661 3790.38,152.699 3790.38,166.295L3790.38,399.904C3790.38,402.708 3788.11,404.981 3785.3,404.981C3785.3,404.981 3785.3,404.981 3785.3,404.981ZM4171.8,61.857C4171.73,59.33 4172.69,56.883 4174.47,55.084C4176.24,53.285 4178.68,52.291 4181.21,52.334C4182.86,52.362 4184.05,52.848 4184.05,54.264C4184.05,54.264 4184.05,54.264 4184.05,54.264C4184.05,54.369 4184.05,331.436 4184.05,331.436C4184.05,336.209 4182.38,340.823 4179.33,344.437C4177.5,346.611 4174.29,346.854 4172.17,344.98C4170.05,343.106 4169.81,339.821 4171.64,337.648C4173.1,335.921 4173.9,333.716 4173.9,331.436C4173.9,331.436 4172.37,108.399 4171.8,61.857Z" style="fill:white;"/>
                </g>
                <g transform="matrix(0.31827,0,0,0.31827,249.375,-121.765)">
                    <path d="M4096.7,805.55C4096.7,805.55 4062.7,855.55 4087.7,862.55C4112.7,869.55 4109.7,836.55 4096.7,805.55Z" style="fill:white;"/>
                </g>
                <g transform="matrix(1.11188,0,0,1.16147,500.944,-650.853)">
                    <g transform="matrix(1,0,0,1,0,3.70335)">
                        <g>
                            <g transform="matrix(1,0,0,1,13.2663,-15.4573)">
                                <path d="M784.111,780.879C782.598,781.407 780.848,781.032 779.687,779.785C778.12,778.101 778.214,775.463 779.897,773.896C779.897,773.896 780.825,773.042 782.478,771.811C789.106,766.873 807.408,755.859 824.411,769.442C826.079,770.774 827.734,772.343 829.364,774.177C830.892,775.896 830.737,778.532 829.018,780.06C828.211,780.777 827.203,781.123 826.202,781.111C825.069,781.097 823.947,780.626 823.136,779.713C806.127,760.579 785.576,779.995 785.576,779.995C785.14,780.401 784.64,780.695 784.111,780.879Z"/>
                            </g>
                            <g transform="matrix(1,0,0,1,33.6362,-15.4573)">
                                <path d="M860.353,780.762C858.777,781.453 856.869,781.115 855.63,779.785C854.063,778.101 854.157,775.463 855.84,773.896C855.84,773.896 856.89,772.93 858.746,771.57C865.679,766.494 883.867,755.933 900.696,769.719C902.248,770.99 903.788,772.468 905.307,774.177C906.835,775.896 906.68,778.532 904.961,780.06C904.244,780.697 903.368,781.041 902.48,781.102C901.237,781.186 899.969,780.716 899.079,779.713C882.07,760.579 861.519,779.995 861.519,779.995C861.166,780.323 860.771,780.579 860.353,780.762Z"/>
                            </g>
                        </g>
                        <g transform="matrix(1.46662,-0.110859,0.100834,1.36636,-1061.83,523.476)">
                            <path d="M1249.53,262.097C1249.53,262.097 1280.62,258.625 1279.45,247.18C1278.29,235.734 1254.72,254.123 1249.53,262.097Z"/>
                        </g>
                        <g transform="matrix(-1.25906,0.0951695,0.0996884,1.35084,2480.26,267.263)">
                            <path d="M1249.53,262.097C1249.53,262.097 1280.62,258.625 1279.45,247.18C1278.29,235.734 1254.72,254.123 1249.53,262.097Z"/>
                        </g>
                    </g>
                    <path d="M859.795,807.864C858.833,808.493 857.541,808.222 856.911,807.26C856.282,806.297 856.553,805.005 857.515,804.376C857.515,804.376 862.28,801.252 868.582,799.735C875.137,798.157 883.267,798.332 889.653,804.986C890.449,805.815 890.422,807.135 889.593,807.931C888.763,808.728 887.443,808.701 886.647,807.871C881.479,802.487 874.862,802.509 869.558,803.786C864.001,805.123 859.795,807.864 859.795,807.864Z" style="stroke:black;stroke-width:5.78px;"/>
                </g>
            </g>
        </g>
    </g>
</svg>
