<?xml version="1.0" encoding="UTF-8" standalone="no"?>
<!DOCTYPE svg PUBLIC "-//W3C//DTD SVG 1.1//EN" "http://www.w3.org/Graphics/SVG/1.1/DTD/svg11.dtd">
<svg width="100%" height="100%" viewBox="0 0 173 189" version="1.1" xmlns="http://www.w3.org/2000/svg" xmlns:xlink="http://www.w3.org/1999/xlink" xml:space="preserve" xmlns:serif="http://www.serif.com/" style="fill-rule:evenodd;clip-rule:evenodd;stroke-linejoin:round;stroke-miterlimit:2;">
    <g transform="matrix(1,0,0,1,-897.066,-1129.14)">
        <g transform="matrix(1,0,0,1.28954,0,0)">
            <g transform="matrix(0.629975,0,0,0.488526,42.949,860.851)">
                <g transform="matrix(1.58736,0,0,1.58736,841.24,-1762.14)">
                    <g>
                        <g>
                            <g transform="matrix(0.629975,0,0,0.629975,-529.96,1110.1)">
                                <g>
                                    <g transform="matrix(1.58736,0,0,1.58736,841.24,-1762.14)">
                                        <g transform="matrix(0.998488,0,0,0.998488,273.239,954.975)">
                                            <path d="M191.851,353.743C191.78,353.829 191.403,354.284 190.914,354.779C188.124,357.6 184.302,359.164 180.636,359.164L113.07,359.164C90.77,359.164 80.094,361.44 65.987,357.604C60.222,356.036 56.08,350.161 55.461,349.283C52.884,345.629 50.995,341.091 50.995,337.613C50.995,300.551 50.995,263.489 50.995,226.426C50.995,222.922 52.329,219.326 54.715,216.647L55.373,215.954C56.272,215.066 57.151,214.446 57.317,214.329C63.372,208.954 71.669,201.725 80.389,193.541C86.831,187.495 93.775,180.634 98.626,176.057C100.36,174.42 102.424,174.428 102.781,174.429C122.146,174.501 141.511,174.572 160.876,174.644C172.457,174.69 189.839,173.942 206.235,191.309C206.405,191.489 208.173,193.413 208.998,194.279C209.776,195.095 211.579,196.921 211.732,197.08C224.628,210.51 223.473,222.966 223.364,250.13C223.277,272.303 223.191,294.476 223.104,316.649C223.092,319.402 221.572,321.091 221.301,321.393C207.065,337.214 207.128,337.25 191.851,353.743Z" style="fill:rgb(107,113,255);"/>
                                        </g>
                                    </g>
                                    <g transform="matrix(0.63654,0,0,0.63654,-1041.46,30.217)">
                                        <path d="M4138.72,379.496C4140.51,377.361 4143.34,377.423 4144.98,379.549C4146.63,381.677 4146.59,385.22 4144.81,387.353C4143.43,388.996 4136.67,397.053 4127.43,407.768C4123.67,412.127 4117.92,413.509 4113.49,411.225C4109,408.902 4106.58,403.167 4107.53,396.967C4112.99,361.25 4119.88,325.458 4120.15,292.397C4120.15,291.833 4119.44,193.068 4119.32,174.552C4119.06,138.257 4119.61,138.256 4119.01,126.439C4118.65,119.282 4120.11,112.918 4122.88,108.56C4124.27,106.389 4134.09,90.799 4142.94,78.946C4144,77.523 4146.55,77.927 4148.56,79.854C4150.58,81.789 4151.26,84.499 4150.16,85.912C4140.86,97.878 4130.52,114.166 4129.53,115.708C4127.69,118.572 4126.69,122.704 4126.86,127.203C4127.28,138.382 4126.69,138.373 4126.87,166.251C4127.14,205.741 4127.41,245.23 4127.67,284.72C4127.95,326.092 4124.18,342.942 4116.8,397.555C4116.62,398.881 4117.22,400.246 4118.13,400.747C4119.05,401.251 4120.39,400.944 4121.2,400.003C4130.56,389.227 4137.33,381.149 4138.72,379.496ZM4086.46,84.756C4089.2,84.865 4093.7,94.614 4088.64,94.388C4078.87,93.951 4078.88,94.157 4069.12,93.68C4049.08,92.701 4042.73,91.354 3979.55,92.991C3942.15,93.96 3942.16,93.636 3919.5,94.041C3894.26,94.492 3856.68,96.823 3839.44,97.822C3833.6,98.161 3827.87,95.394 3825.38,90.837C3822.93,86.347 3824.02,80.847 3827.86,77.399C3855.9,52.248 3873.69,34.047 3889.6,18.377C3893,15.031 3897.98,13.032 3903.13,13.068C3904.66,13.079 3912.09,13.162 3939.67,13.198C3942.43,13.201 3944.93,15.502 3945.22,18.199C3945.52,20.904 3943.5,23.149 3940.75,23.152C3914.2,23.181 3905.31,23.066 3904.22,23.058C3901.56,23.038 3899.06,24.052 3897.38,25.746C3881.85,41.416 3864.38,59.544 3836.43,84.483C3835.82,85.026 3835.66,85.977 3836.06,86.67C3836.45,87.357 3837.44,87.863 3838.36,87.815C3903.27,84.446 3903.26,84.705 3937.22,84.364C3973.37,84 4017.73,81.801 4056.72,83.639C4060.03,83.795 4063.33,84.055 4066.64,84.191C4076.55,84.598 4076.54,84.362 4086.46,84.756ZM3894.56,180.86C3892.53,182.141 3889.99,182.436 3888.08,181.673C3886.14,180.899 3884.97,179.099 3885.1,177.101C3885.47,172.84 3885.26,171.816 3885.25,171.34C3885.24,170.608 3886.59,159.424 3887.06,149.233C3887.18,146.48 3889.94,143.865 3893.36,143.695C3896.64,143.531 3899.46,145.668 3899.32,148.626C3898.94,156.253 3898.05,163.98 3897.74,166.823L3898.01,165.902C3898.04,166.987 3898.11,169.159 3896.82,179.43L3894.56,180.86ZM3786,397.659C3783.18,396.883 3780.76,394.102 3780.75,391.699C3780.22,309.565 3780.1,290.172 3780.1,283.143C3780.13,246.544 3781.2,203.517 3781.03,166.002C3780.95,145.833 3798.89,130.327 3821.07,128.868L3821.09,128.866C3877.52,125.364 3895.4,123.116 3938.58,122.88C3969.29,122.713 3993.65,121.391 4018.47,121.168C4051.39,120.871 4064.35,122.432 4087.56,124.308C4090.07,124.512 4092.36,126.989 4092.55,129.828C4092.74,132.634 4090.82,134.823 4088.33,134.569C4048.79,130.543 4038.63,130.211 3979.47,132.064C3936.33,133.416 3936.31,132.32 3907.41,133.599C3882.7,134.693 3844.17,137.704 3821.28,139.187C3805.59,140.266 3792.44,151.344 3792.47,165.539C3792.56,203.078 3790.52,246.461 3790.29,283.132C3790.22,292.889 3790.26,297.251 3791.15,394.412C3791.17,396.863 3788.89,398.459 3786,397.659L3786,397.659ZM4166.02,76.023C4165.92,75.732 4165.02,73.189 4166.51,72.194C4167.05,71.833 4168.42,71.453 4171.1,72.711C4171.36,72.834 4173.37,73.778 4173.89,74.979L4173.9,74.979C4186.61,104.042 4184.51,137.44 4184.52,163.091C4184.57,219.068 4184.62,275.045 4184.67,331.022C4184.67,335.839 4183.01,340.459 4180.34,343.765C4178.72,345.774 4175.82,345.836 4174,343.762C4172.22,341.73 4172.07,338.3 4173.65,336.314C4173.96,335.915 4175.62,333.816 4175.65,330.271C4175.64,317.246 4175.48,317.257 4174.32,167.463C4174.1,138.833 4176.51,107.612 4166.02,76.023Z" style="fill:white;"/>
                                    </g>
                                </g>
                            </g>
                        </g>
                    </g>
                </g>
                <g transform="matrix(0.46014,0,0,0.46014,-319.543,-230.937)">
                    <path d="M4096.7,805.55C4096.7,805.55 4062.7,855.55 4087.7,862.55C4112.7,869.55 4109.7,836.55 4096.7,805.55Z" style="fill:white;"/>
                </g>
                <g transform="matrix(1.11188,0,0,1.16147,500.944,-650.853)">
                    <g transform="matrix(1,0,0,1,0,3.70335)">
                        <g>
                            <g transform="matrix(1,0,0,1,13.2663,-15.4573)">
                                <path d="M784.111,780.879C782.598,781.407 780.848,781.032 779.687,779.785C778.12,778.101 778.214,775.463 779.897,773.896C779.897,773.896 780.825,773.042 782.478,771.811C789.106,766.873 807.408,755.859 824.411,769.442C826.079,770.774 827.734,772.343 829.364,774.177C830.892,775.896 830.737,778.532 829.018,780.06C828.211,780.777 827.203,781.123 826.202,781.111C825.069,781.097 823.947,780.626 823.136,779.713C806.127,760.579 785.576,779.995 785.576,779.995C785.14,780.401 784.64,780.695 784.111,780.879Z"/>
                            </g>
                            <g transform="matrix(1,0,0,1,33.6362,-15.4573)">
                                <path d="M860.353,780.762C858.777,781.453 856.869,781.115 855.63,779.785C854.063,778.101 854.157,775.463 855.84,773.896C855.84,773.896 856.89,772.93 858.746,771.57C865.679,766.494 883.867,755.933 900.696,769.719C902.248,770.99 903.788,772.468 905.307,774.177C906.835,775.896 906.68,778.532 904.961,780.06C904.244,780.697 903.368,781.041 902.48,781.102C901.237,781.186 899.969,780.716 899.079,779.713C882.07,760.579 861.519,779.995 861.519,779.995C861.166,780.323 860.771,780.579 860.353,780.762Z"/>
                            </g>
                        </g>
                        <g transform="matrix(1.46662,-0.110859,0.100834,1.36636,-1061.83,523.476)">
                            <path d="M1249.53,262.097C1249.53,262.097 1280.62,258.625 1279.45,247.18C1278.29,235.734 1254.72,254.123 1249.53,262.097Z"/>
                        </g>
                        <g transform="matrix(-1.25906,0.0951695,0.0996884,1.35084,2480.26,267.263)">
                            <path d="M1249.53,262.097C1249.53,262.097 1280.62,258.625 1279.45,247.18C1278.29,235.734 1254.72,254.123 1249.53,262.097Z"/>
                        </g>
                    </g>
                    <path d="M859.795,807.864C858.833,808.493 857.541,808.222 856.911,807.26C856.282,806.297 856.553,805.005 857.515,804.376C857.515,804.376 862.28,801.252 868.582,799.735C875.137,798.157 883.267,798.332 889.653,804.986C890.449,805.815 890.422,807.135 889.593,807.931C888.763,808.728 887.443,808.701 886.647,807.871C881.479,802.487 874.862,802.509 869.558,803.786C864.001,805.123 859.795,807.864 859.795,807.864Z" style="stroke:black;stroke-width:5.78px;"/>
                </g>
            </g>
        </g>
    </g>
</svg>
