<?xml version="1.0" encoding="UTF-8" standalone="no"?>
<!DOCTYPE svg PUBLIC "-//W3C//DTD SVG 1.1//EN" "http://www.w3.org/Graphics/SVG/1.1/DTD/svg11.dtd">
<svg width="100%" height="100%" viewBox="0 0 190 196" version="1.1" xmlns="http://www.w3.org/2000/svg" xmlns:xlink="http://www.w3.org/1999/xlink" xml:space="preserve" xmlns:serif="http://www.serif.com/" style="fill-rule:evenodd;clip-rule:evenodd;stroke-linejoin:round;stroke-miterlimit:2;">
    <g transform="matrix(1,0,0,1,-1213.45,-1121.71)">
        <g transform="matrix(1,0,0,1.28954,0,0)">
            <g transform="matrix(0.629975,0,0,0.488526,362.372,860.851)">
                <g transform="matrix(2.07205,0,0,2.07205,-315.051,-1158.04)">
                    <g>
                        <g transform="matrix(0.764924,0,0,0.764924,767.364,440.041)">
                            <path d="M193.794,352.311C193.716,352.356 193.32,352.586 192.8,352.834C188.283,354.994 183.225,354.843 182.377,354.818C145.188,353.711 105.598,357.772 69.932,349.531C66.408,348.717 62.822,346.487 60.016,343.449C57.19,340.388 55.359,336.731 55.016,333.432C51.506,299.696 55.52,259.832 55.156,227.072C55.124,224.15 56.429,220.98 59.009,218.186L59.696,217.481C59.849,217.332 60.636,216.564 61.725,215.749C75.742,203.174 92.647,188.077 107.759,177.547C109.666,176.219 112.131,176.04 112.531,176.01C159.816,172.569 201.624,183.398 218.621,212.131C218.764,212.372 219.746,214.033 220.432,215.128C221.305,216.523 221.769,217.168 221.893,217.34C233.442,233.393 231.381,293.6 227.048,332.573C226.876,334.117 226.064,335.227 225.023,335.795C212.303,342.738 200.803,348.708 193.794,352.311ZM59.816,326.581C59.869,327.553 60.816,328.615 61.901,328.858L61.902,328.858C62.976,329.099 63.847,328.465 63.802,327.451C62.559,299.25 65.248,266.712 65.964,238.502C66.093,233.416 71.2,228.804 77.135,228.045C107.719,224.257 152.307,221.028 187.808,230.056C188.876,230.328 189.797,229.633 189.847,228.501C189.894,227.409 189.065,226.219 187.996,225.94C160.749,218.822 123.366,217.991 77.202,224.206L77.191,224.208C68.835,225.364 61.556,231.869 61.403,239.027C60.809,266.728 58.298,298.668 59.816,326.581ZM203.621,335.098C203.017,335.518 199.914,337.678 196.046,340.31C195.7,340.546 195.165,340.582 194.746,340.38C194.312,340.171 194.094,339.756 194.157,339.388C199.117,310.519 204.935,265.09 205.246,231.521C205.249,231.196 205.27,228.944 206.698,227.723C207.384,227.135 212.078,223.119 215.62,220.796C216.002,220.546 215.912,219.561 215.206,218.493C214.493,217.415 213.608,216.941 213.217,217.188C209.57,219.49 204.809,223.505 204.11,224.094C202.796,225.203 201.808,227.267 201.762,230.091C201.213,263.854 195.235,309.288 190.197,338.816C189.902,340.542 190.886,342.277 192.849,343.151C194.711,343.981 197.078,343.858 198.657,342.84C202.492,340.366 205.575,338.328 206.174,337.932C206.953,337.417 207.043,336.321 206.352,335.535C205.651,334.736 204.403,334.553 203.621,335.098ZM220.416,218.403C220.425,218.401 221.49,222.258 222.303,227.758C226.052,253.135 223.746,293.358 220.813,321.584C220.713,322.481 220.287,323.16 219.772,323.539C219.076,324.053 218.975,325.284 219.647,326.243C220.309,327.186 221.476,327.519 222.169,327.031C223.212,326.297 224.097,324.953 224.29,323.069C227.862,288.14 229.412,243.311 223.193,221.836C222.84,220.619 220.237,218.447 220.416,218.403ZM190.636,211.033C162.835,202.322 125.063,202.088 84.926,208.382C84.851,208.393 84.284,208.482 84.039,208.065C83.794,207.649 84.209,207.293 84.26,207.248C90.206,202.142 102.463,191.712 113.85,183.548C115.21,182.574 116.905,182.466 117.185,182.449C125.941,181.895 132.924,181.955 134.294,181.967C135.608,181.979 136.54,181.279 136.435,180.505C136.329,179.724 135.191,179.021 133.891,179.003C132.521,178.985 125.528,178.893 116.765,179.429C116.222,179.462 112.919,179.664 110.302,181.539C98.963,189.663 86.796,200.088 80.951,205.143C79.227,206.634 78.755,208.607 79.627,210.089C80.499,211.572 82.621,212.403 85.008,212.047C125.649,205.982 163.07,206.32 190.688,214.692C192.694,215.3 191.695,211.364 190.636,211.033ZM100.7,242.38C100.698,243.152 101.187,243.877 101.971,244.192C102.726,244.496 103.72,244.397 104.488,243.895L105.341,243.338C105.589,238.409 105.489,238.422 105.48,237.978L105.403,238.351C105.423,238.077 105.778,233.152 105.913,231.117C105.989,229.971 104.996,229.078 103.689,229.155C102.408,229.23 101.274,230.239 101.202,231.377C100.976,234.975 100.678,239.068 100.651,239.695C100.641,239.91 100.77,239.886 100.7,242.38Z" style="fill:rgb(107,113,255);"/>
                        </g>
                        <g transform="matrix(0.307203,0,0,0.307203,-350.577,573.466)">
                            <path d="M4146.11,400.058C4148.11,398.665 4151.16,399.149 4152.91,401.146C4154.63,403.101 4154.47,405.789 4152.47,407.116C4150.98,408.102 4143.3,413.178 4133.75,419.336C4129.82,421.871 4123.93,422.177 4119.29,420.112C4114.4,417.934 4111.95,413.615 4112.69,409.316C4125.23,335.79 4140.11,222.66 4141.48,138.595C4141.59,131.766 4143.91,126.55 4147.33,123.664C4149.07,122.197 4160.92,112.2 4170,106.468C4171.06,105.799 4173.26,107.152 4174.96,109.717C4176.63,112.25 4177.02,114.771 4175.99,115.452C4167.17,121.236 4155.48,131.236 4153.77,132.698C4151.63,134.528 4150.2,137.815 4150.16,142.156C4149.38,225.739 4134.9,338.855 4122.55,410.742C4122.39,411.657 4122.93,412.691 4124.01,413.212C4125.06,413.713 4126.39,413.625 4127.25,413.037C4136.88,406.483 4144.61,401.105 4146.11,400.058ZM4113.78,91.141C4116.42,91.969 4118.93,101.775 4113.91,100.252C4045.14,79.407 3951.97,78.565 3850.77,93.665C3844.87,94.545 3839.56,92.52 3837.37,88.792C3835.17,85.046 3836.43,80.144 3840.67,76.477C3855.21,63.895 3885.51,37.932 3913.75,17.704C3917.83,14.781 3923.56,12.833 3929.84,12.449C3951.66,11.114 3969.07,11.344 3972.49,11.389C3975.73,11.432 3978.55,13.143 3978.82,15.128C3979.09,17.1 3976.75,18.798 3973.49,18.769C3970.08,18.74 3952.69,18.588 3930.89,19.967C3930.19,20.012 3925.97,20.279 3922.59,22.705C3894.23,43.033 3863.7,69.01 3848.91,81.718C3848.17,82.351 3848.02,83.187 3848.36,83.752C3848.68,84.316 3849.55,84.699 3850.56,84.54C3950.51,68.869 4044.56,69.453 4113.78,91.141ZM3899.27,172.968C3897.36,174.219 3894.94,174.488 3893.01,173.709C3891.05,172.923 3889.83,171.175 3889.84,169.194C3889.97,164.465 3889.75,164.475 3889.7,163.542C3889.64,162.467 3890.37,153.174 3891.09,141.798C3891.27,138.956 3894.05,136.454 3897.28,136.264C3900.54,136.073 3903.01,138.297 3902.82,141.15C3902.18,150.9 3901.86,154.283 3901.55,159.16C3901.63,158.86 3901.71,158.56 3901.78,158.261C3901.78,158.298 3902.04,158.754 3901.4,171.579L3899.27,172.968ZM3793.23,384.523C3790.52,383.915 3788.18,381.339 3788.04,378.853C3784.26,309.35 3790.51,229.818 3791.99,160.846C3792.38,142.979 3810.52,126.823 3831.31,123.947L3831.33,123.943C3946.28,108.465 4039.37,110.536 4107.2,128.259C4109.86,128.953 4111.94,131.831 4111.81,134.637C4111.69,137.455 4109.4,139.186 4106.74,138.51C4018.33,116.027 3907.3,124.071 3831.16,133.502C3816.39,135.391 3803.67,146.873 3803.35,159.539C3801.57,229.778 3794.87,310.801 3797.97,381.018C3798.08,383.511 3795.99,385.139 3793.23,384.523L3793.23,384.523ZM4189.29,114.879C4189.24,114.675 4188.65,112.249 4189.79,112.295C4190.89,112.34 4192.81,114.748 4193.02,115.012C4193.19,115.234 4194.51,116.891 4194.84,118.041L4194.84,118.042C4210.33,171.512 4206.47,283.132 4197.57,370.108C4197.12,374.546 4195.17,377.948 4192.29,379.973C4190.53,381.213 4187.67,380.374 4186.02,378.01C4184.32,375.598 4184.56,372.58 4186.33,371.279C4187.61,370.334 4188.67,368.644 4188.92,366.41C4197.79,281.005 4202.46,171.68 4189.29,114.879Z" style="fill:white;"/>
                        </g>
                    </g>
                </g>
                <g transform="matrix(0.63654,0,0,0.63654,-1041.46,-376.639)">
                    <path d="M4096.7,805.55C4096.7,805.55 4062.7,855.55 4087.7,862.55C4112.7,869.55 4109.7,836.55 4096.7,805.55Z" style="fill:white;"/>
                </g>
                <g transform="matrix(1.11188,0,0,1.16147,500.944,-650.853)">
                    <g transform="matrix(1,0,0,1,0,3.70335)">
                        <g>
                            <g transform="matrix(1,0,0,1,13.2663,-15.4573)">
                                <path d="M784.111,780.879C782.598,781.407 780.848,781.032 779.687,779.785C778.12,778.101 778.214,775.463 779.897,773.896C779.897,773.896 780.825,773.042 782.478,771.811C789.106,766.873 807.408,755.859 824.411,769.442C826.079,770.774 827.734,772.343 829.364,774.177C830.892,775.896 830.737,778.532 829.018,780.06C828.211,780.777 827.203,781.123 826.202,781.111C825.069,781.097 823.947,780.626 823.136,779.713C806.127,760.579 785.576,779.995 785.576,779.995C785.14,780.401 784.64,780.695 784.111,780.879Z"/>
                            </g>
                            <g transform="matrix(1,0,0,1,33.6362,-15.4573)">
                                <path d="M860.353,780.762C858.777,781.453 856.869,781.115 855.63,779.785C854.063,778.101 854.157,775.463 855.84,773.896C855.84,773.896 856.89,772.93 858.746,771.57C865.679,766.494 883.867,755.933 900.696,769.719C902.248,770.99 903.788,772.468 905.307,774.177C906.835,775.896 906.68,778.532 904.961,780.06C904.244,780.697 903.368,781.041 902.48,781.102C901.237,781.186 899.969,780.716 899.079,779.713C882.07,760.579 861.519,779.995 861.519,779.995C861.166,780.323 860.771,780.579 860.353,780.762Z"/>
                            </g>
                        </g>
                        <g transform="matrix(1.46662,-0.110859,0.100834,1.36636,-1061.83,523.476)">
                            <path d="M1249.53,262.097C1249.53,262.097 1280.62,258.625 1279.45,247.18C1278.29,235.734 1254.72,254.123 1249.53,262.097Z"/>
                        </g>
                        <g transform="matrix(-1.25906,0.0951695,0.0996884,1.35084,2480.26,267.263)">
                            <path d="M1249.53,262.097C1249.53,262.097 1280.62,258.625 1279.45,247.18C1278.29,235.734 1254.72,254.123 1249.53,262.097Z"/>
                        </g>
                    </g>
                    <path d="M859.795,807.864C858.833,808.493 857.541,808.222 856.911,807.26C856.282,806.297 856.553,805.005 857.515,804.376C857.515,804.376 862.28,801.252 868.582,799.735C875.137,798.157 883.267,798.332 889.653,804.986C890.449,805.815 890.422,807.135 889.593,807.931C888.763,808.728 887.443,808.701 886.647,807.871C881.479,802.487 874.862,802.509 869.558,803.786C864.001,805.123 859.795,807.864 859.795,807.864Z" style="stroke:black;stroke-width:5.78px;"/>
                </g>
            </g>
        </g>
    </g>
</svg>
