<?xml version="1.0" encoding="UTF-8" standalone="no"?>
<!DOCTYPE svg PUBLIC "-//W3C//DTD SVG 1.1//EN" "http://www.w3.org/Graphics/SVG/1.1/DTD/svg11.dtd">
<svg width="100%" height="100%" viewBox="0 0 200 215" version="1.1" xmlns="http://www.w3.org/2000/svg" xmlns:xlink="http://www.w3.org/1999/xlink" xml:space="preserve" xmlns:serif="http://www.serif.com/" style="fill-rule:evenodd;clip-rule:evenodd;stroke-linejoin:round;stroke-miterlimit:2;">
    <g transform="matrix(1,0,0,1,-243.228,-495.973)">
        <g transform="matrix(1,0,0,1.13277,0,0)">
            <g transform="matrix(0.974093,0.0392517,-0.0439789,0.850558,-218.057,183.943)">
                <g transform="matrix(1.02446,-0.0472771,0.0467622,1.03574,213.647,-226.121)">
                    <g transform="matrix(0.883159,0.00300168,-0.00302423,0.889792,-241.092,375.885)">
                        <g>
                            <g transform="matrix(1.30151,0,0,1.30151,483.26,-94.1403)">
                                <path d="M191.349,354.012C191.287,354.094 190.962,354.523 190.524,354.992C188.037,357.657 184.424,359.169 180.629,359.169C142.246,359.162 103.863,359.154 65.481,359.147C61.685,359.145 58.327,357.527 56.231,354.647C54.184,351.833 53.411,347.9 54.167,343.76C60.857,307.167 64.313,266.505 59.954,224.656C59.579,221.064 60.353,217.877 61.986,215.666L62.449,215.09C63.087,214.36 63.735,213.889 63.859,213.799C74.028,203.675 85.065,192.888 97.192,181.998C97.436,181.778 98.751,180.598 101.122,180.787C137.954,183.737 177.093,183.108 218.375,176.158C220.408,175.816 221.292,176.82 221.461,177.012C222.509,178.204 222.062,180.009 221.999,180.265C210.342,227.367 213.072,272.883 217.989,317.407C218.29,320.128 217.021,321.835 216.788,322.149C210.18,331.041 201.598,342.121 191.349,354.012ZM72.564,346.674C67.38,346.603 63.949,342.023 64.803,336.365C68.945,308.945 71.724,275.945 69.569,240.27C69.246,234.921 72.623,231.133 77.259,231.701C104.668,235.208 134.466,237.425 165.844,236.776C166.849,236.756 167.691,235.805 167.701,234.727C167.71,233.645 166.879,232.741 165.871,232.764C134.362,233.484 104.45,231.245 76.934,227.669L76.926,227.668C70.301,226.841 65.584,232.174 66.053,239.813C68.241,275.39 65.297,308.54 60.918,336.261C59.636,344.377 64.451,350.871 71.895,350.939C72.969,350.949 74.047,349.997 74.226,348.829C74.405,347.662 73.645,346.689 72.564,346.674ZM195.971,329.202C193.036,333.22 190.59,336.455 190.117,337.081C189.846,337.439 189.344,337.585 188.892,337.419C188.447,337.256 188.11,336.811 188.075,336.334C185.515,301.91 182.401,266.834 183.339,231.745C183.41,229.085 184.844,227.275 185.097,226.955C189.845,220.956 194.398,215.381 197.952,211.121C198.722,210.197 198.772,208.868 198.049,208.222C197.326,207.577 196.052,207.812 195.276,208.732C191.648,213.035 187.07,218.587 182.353,224.491C180.638,226.638 179.668,229.304 179.609,231.965C178.83,266.928 181.827,301.944 184.161,336.354C184.309,338.522 185.77,340.465 187.8,341.208C189.839,341.953 192.06,341.346 193.302,339.699C193.776,339.072 196.223,335.83 199.151,331.81C199.767,330.964 199.537,329.656 198.684,328.957C197.836,328.262 196.594,328.349 195.971,329.202ZM208.897,198.314C208.93,198.277 209.169,198.003 209.478,198.085C209.786,198.166 209.735,198.495 209.729,198.535C203.815,236.196 205.764,273.047 209.28,308.726C209.417,310.117 208.795,311.025 208.681,311.193C208.086,312.061 208.325,313.374 209.169,314.064C210.009,314.75 211.234,314.647 211.831,313.769C212.071,313.417 213.364,311.517 213.064,308.59C209.404,272.811 207.464,235.819 213.736,197.948C214.07,195.933 213.175,194.347 211.541,193.927C209.915,193.51 207.78,194.31 206.29,195.991C205.428,196.963 205.34,198.292 206.043,198.92C206.745,199.546 208.039,199.293 208.897,198.314ZM168.644,216.368C137.552,217.705 108.153,215.896 81.282,212.652C80.793,212.593 80.589,212.138 80.559,212.071C80.531,212.009 80.325,211.548 80.647,211.234C86.052,205.962 93.773,198.516 102.208,190.798C102.374,190.646 103.285,189.813 104.889,189.938C106.015,190.027 111.984,190.495 118.977,190.855C120.044,190.91 120.902,190.048 120.859,188.984C120.816,187.895 119.849,186.974 118.796,186.922C111.723,186.568 105.686,186.103 104.547,186.015C101.388,185.772 99.628,187.374 99.303,187.67C90.835,195.381 83.163,202.775 77.835,207.973C76.681,209.099 76.463,211.134 77.334,213.079C78.199,215.01 79.954,216.429 81.723,216.641C108.419,219.837 137.63,221.645 168.511,220.394C169,220.375 171.657,220.267 174.049,217.791C174.816,216.997 174.913,215.682 174.23,214.929C173.54,214.168 172.302,214.235 171.537,215.019C170.29,216.297 168.899,216.357 168.644,216.368ZM97.086,278.062C97.095,278.854 97.523,279.625 98.142,280.015C98.782,280.417 99.578,280.392 100.148,279.986L100.677,279.608C100.513,265.194 99.957,250.719 99.509,239.829C99.464,238.73 98.587,237.744 97.641,237.641C96.664,237.536 95.901,238.37 95.948,239.446C96.396,249.81 96.941,263.786 97.086,278.062Z" style="fill:rgb(226,126,255);"/>
                            </g>
                            <g transform="matrix(0.454159,-0.0205759,0.0207304,0.450774,-882.811,220.313)">
                                <path d="M3195.36,449.213C3198.46,449.397 3200.5,452.284 3199.83,455.637C3199.16,459.006 3196.01,461.585 3192.89,461.414C3171.56,460.242 3158.69,440.904 3163.43,417.689C3179.59,338.409 3192.38,243.273 3190.8,140.468C3190.46,118.408 3204.6,103.636 3223.49,106.893L3223.51,106.897C3301.71,120.79 3386.96,131.148 3477.18,133.186C3480.08,133.252 3482.33,135.886 3482.16,139.081C3481.98,142.264 3479.46,144.815 3476.58,144.744C3386.74,142.516 3301.81,132.236 3223.91,118.557C3210.72,116.315 3200.57,126.787 3200.79,142.243C3202.26,245.328 3189.97,340.054 3174.52,418.495C3171.34,434.686 3180.54,448.331 3195.36,449.213ZM3550.58,414.979C3552.45,412.625 3555.96,412.444 3558.37,414.627C3560.78,416.809 3561.21,420.548 3559.33,422.908C3550.43,434.11 3543,443.132 3541.57,444.877C3537.77,449.49 3531.37,450.92 3525.63,448.504C3519.9,446.091 3516,440.332 3515.86,434.044C3513.71,334.599 3509.75,233.313 3516.57,132.677C3517.09,125.015 3520.22,117.461 3525.41,111.5C3539.67,95.102 3553.5,79.703 3564.43,67.783C3566.82,65.181 3570.44,64.716 3572.43,66.675C3574.42,68.637 3574.14,72.402 3571.77,75.014C3561.05,86.823 3547.3,102.29 3532.93,118.958C3529.64,122.776 3527.62,127.624 3527.27,132.531C3519.97,233.509 3524.27,334.982 3527.06,434.497C3527.1,435.879 3528,437.205 3529.25,437.732C3530.5,438.256 3531.96,437.938 3532.8,436.917C3534.24,435.174 3541.66,426.173 3550.58,414.979ZM3604.76,39.544C3602.14,42.293 3598.45,42.82 3596.52,40.915C3594.58,39.01 3594.97,35.241 3597.61,32.508C3602.05,27.903 3608.25,25.82 3612.89,27.249C3617.59,28.695 3619.85,33.425 3618.64,39.119C3595.73,147.42 3596.41,254.262 3602.17,357.823C3602.48,363.312 3600.94,368.585 3597.96,372.582C3596.16,375.012 3592.7,375.244 3590.31,373.086C3587.92,370.928 3587.48,367.173 3589.29,364.749C3590.72,362.84 3591.46,360.292 3591.33,357.721C3585.97,254.467 3585.24,148.032 3607.11,40.289C3607.24,39.635 3606.93,39.112 3606.45,38.959C3605.97,38.807 3605.27,39.004 3604.76,39.544ZM3487.27,86.308C3490.25,86.315 3493.31,85.074 3495.72,82.799C3498.08,80.572 3501.57,80.622 3503.43,82.891C3505.29,85.16 3504.89,88.875 3502.54,91.112C3497.9,95.527 3492.06,97.919 3486.36,97.891C3397.86,97.462 3314.56,88.438 3238.66,75.746C3233.63,74.906 3228.79,70.591 3226.57,64.91C3224.36,59.263 3225.18,53.402 3228.68,50.264C3244.59,35.992 3267.51,15.688 3292.74,-5.43C3296.69,-8.734 3302.17,-10.231 3307.95,-9.515C3311.2,-9.113 3328.4,-6.984 3348.59,-5.043C3351.69,-4.745 3354.23,-1.963 3354.22,1.17C3354.2,4.274 3351.67,6.616 3348.59,6.314C3328.63,4.363 3311.63,2.235 3308.42,1.834C3305.46,1.465 3302.67,2.252 3300.64,3.96C3275.49,25.101 3252.43,45.552 3236.29,60.029C3235.76,60.505 3235.55,61.463 3235.93,62.427C3236.3,63.366 3237.13,64.063 3237.92,64.196C3314.32,77.048 3398.16,86.101 3487.27,86.308ZM3283.01,260.666C3281.29,261.791 3279.06,261.737 3277.28,260.489C3275.51,259.253 3274.43,257.018 3274.51,254.724C3275.96,213.929 3276.25,174.134 3276.34,143.312C3276.35,140.116 3278.65,137.903 3281.42,138.333C3284.18,138.763 3286.49,141.693 3286.47,144.881C3286.32,177.168 3286,218.366 3284.58,259.647L3283.01,260.666Z" style="fill:white;"/>
                            </g>
                        </g>
                    </g>
                </g>
                <g transform="matrix(1.30533,-0.160546,0.147065,1.24062,378.395,173.565)">
                    <g transform="matrix(1,0,0,1,-72.7784,-84.0177)">
                        <g transform="matrix(1.06613,0,0,1.51602,-71.8417,-161.473)">
                            <path d="M235.773,311.826C241.122,314.116 244.62,317.666 244.62,317.666C245.13,318.183 245.173,318.874 244.728,319.419C244.284,319.965 243.439,320.258 242.586,320.164C238.977,319.762 235.661,319.581 232.641,319.558C217.912,319.444 210.374,323.11 210.374,323.11C209.554,323.517 208.462,323.454 207.732,322.957C207.003,322.461 206.825,321.66 207.304,321.021C212.244,314.417 217.464,311.4 222.241,310.336C227.278,309.215 231.971,310.198 235.773,311.826ZM233.642,314.566C230.786,313.343 227.275,312.528 223.49,313.371C220.683,313.995 217.794,315.49 214.891,318.214C219.003,317.239 224.939,316.33 232.667,316.39C234.157,316.401 235.715,316.449 237.341,316.54C236.283,315.86 235.036,315.163 233.642,314.566Z"/>
                        </g>
                        <g transform="matrix(1.41034,0,0,1.95409,-78.8698,-309.987)">
                            <path d="M178.356,322.552C178.324,322.326 178.308,322.095 178.308,321.861C178.308,320.21 179.128,318.735 180.41,317.774C185.358,319.893 188.597,323.175 188.597,323.175C184.88,322.762 181.466,322.576 178.356,322.552Z"/>
                        </g>
                    </g>
                    <g transform="matrix(0.967632,0.270468,-0.235475,0.967632,62.2676,-119.393)">
                        <g transform="matrix(1.06613,0,0,1.51602,-71.8417,-161.473)">
                            <path d="M235.785,311.824C241.129,314.112 244.624,317.659 244.624,317.659C245.133,318.174 245.171,318.867 244.721,319.415C244.271,319.963 243.421,320.259 242.567,320.164C238.958,319.763 235.642,319.581 232.621,319.558C217.897,319.444 210.362,323.107 210.362,323.107C209.54,323.515 208.451,323.456 207.726,322.963C207,322.47 206.827,321.671 207.306,321.031C212.251,314.421 217.477,311.401 222.259,310.337C227.293,309.216 231.986,310.197 235.785,311.824ZM233.63,314.568C230.772,313.344 227.259,312.527 223.472,313.37C220.664,313.995 217.772,315.493 214.868,318.224C218.983,317.245 224.933,316.33 232.687,316.39C234.165,316.401 235.71,316.448 237.323,316.538C236.265,315.859 235.021,315.164 233.63,314.568Z"/>
                        </g>
                        <g transform="matrix(1.41034,0,0,1.95409,-78.8698,-309.987)">
                            <path d="M178.356,322.552C178.324,322.326 178.308,322.095 178.308,321.861C178.308,320.21 179.128,318.735 180.41,317.774C185.358,319.893 188.597,323.175 188.597,323.175C184.88,322.762 181.466,322.576 178.356,322.552Z"/>
                        </g>
                    </g>
                    <g transform="matrix(0.636355,0,0,0.573652,-2.59283,61.6116)">
                        <path d="M197.083,340.841C194.112,342.8 189.153,343.839 184.293,343.067C178.85,342.201 173.696,339.109 171.321,333.602C170.43,331.535 171.141,329.019 172.907,327.987C174.673,326.955 176.831,327.796 177.722,329.863C179.058,332.961 182.168,334.284 185.23,334.771C188.507,335.292 191.903,334.844 193.696,333.433L194.801,332.723L196.162,332.273L197.295,332.226L198.691,332.546C200.159,333.085 202.382,335.154 209.562,335.853C216.746,336.552 219.355,328.282 219.697,327.28C220.428,325.136 222.514,324.097 224.352,324.96C226.191,325.822 227.09,328.263 226.36,330.406C225.786,332.088 221.05,345.369 208.997,344.196C202.454,343.559 198.436,341.603 197.083,340.841Z"/>
                    </g>
                    <g transform="matrix(0.68885,9.55972e-18,0,0.738262,-770.368,25.6838)">
                        <path d="M1249.53,262.097C1249.53,262.097 1280.62,258.625 1279.45,247.18C1278.29,235.734 1254.72,254.123 1249.53,262.097Z"/>
                    </g>
                    <g transform="matrix(-0.68885,-9.55972e-18,0,0.738262,1014.3,25.6838)">
                        <path d="M1249.53,262.097C1249.53,262.097 1280.62,258.625 1279.45,247.18C1278.29,235.734 1254.72,254.123 1249.53,262.097Z"/>
                    </g>
                </g>
            </g>
        </g>
    </g>
</svg>
