<?xml version="1.0" encoding="UTF-8" standalone="no"?>
<!DOCTYPE svg PUBLIC "-//W3C//DTD SVG 1.1//EN" "http://www.w3.org/Graphics/SVG/1.1/DTD/svg11.dtd">
<svg width="100%" height="100%" viewBox="0 0 200 215" version="1.1" xmlns="http://www.w3.org/2000/svg" xmlns:xlink="http://www.w3.org/1999/xlink" xml:space="preserve" xmlns:serif="http://www.serif.com/" style="fill-rule:evenodd;clip-rule:evenodd;stroke-linejoin:round;stroke-miterlimit:2;">
    <g transform="matrix(1,0,0,1,-728.873,-495.973)">
        <g transform="matrix(1,0,0,1.13277,0,0)">
            <g transform="matrix(0.974093,0.0392517,-0.0439789,0.850558,267.567,183.943)">
                <g transform="matrix(1.02446,-0.0472771,0.0467622,1.03574,-283.856,-203.162)">
                    <g transform="matrix(0.883159,0.00300168,-0.00302423,0.889792,244.532,375.885)">
                        <g>
                            <g transform="matrix(1.30151,0,0,1.30151,483.26,-94.1403)">
                                <path d="M191.899,354.076C191.828,354.157 191.457,354.58 190.969,355.043C188.204,357.668 184.443,359.17 180.643,359.171C142.247,359.17 103.851,359.169 65.455,359.169C61.623,359.167 58.191,357.586 55.95,354.873C53.727,352.18 52.743,348.45 53.316,344.582C58.935,306.655 62.585,271.152 59.91,234.078C59.665,230.686 60.586,227.498 62.404,225.157L62.91,224.553C63.605,223.781 64.297,223.262 64.428,223.164C76.729,210.992 87.832,198.963 98.141,187.617C98.362,187.374 99.619,185.99 101.916,186.011C138.67,186.333 176.024,183.678 218.194,176.309C220.315,175.939 221.431,177.008 221.637,177.205C221.845,177.404 222.955,178.468 222.718,180.639C217.325,230.073 221.502,274.373 222.844,318.123C222.856,318.518 222.925,320.778 221.162,322.767C210.924,334.314 201.144,344.666 191.899,354.076ZM72.126,347.239C66.856,347.195 63.201,342.838 63.901,337.566C67.879,307.644 70.467,278.399 69.478,248.36C69.312,243.323 72.983,239.41 77.798,239.644C107.144,241.221 137.039,241.621 168.837,239.883C169.885,239.825 170.717,238.843 170.683,237.77C170.648,236.696 169.752,235.813 168.702,235.874C136.862,237.712 106.961,237.346 77.572,235.758L77.564,235.758C70.704,235.42 65.55,240.986 65.782,248.15C66.758,278.193 64.022,307.491 59.914,337.502C58.884,345.029 64.045,351.258 71.582,351.301C72.676,351.307 73.728,350.385 73.873,349.281C74.02,348.175 73.221,347.248 72.126,347.239ZM198.891,329.735C198.361,330.356 195.594,333.597 192.211,337.455C191.9,337.811 191.372,337.948 190.927,337.79C190.481,337.631 190.174,337.195 190.176,336.731C190.308,302.777 187.776,269.214 186.869,234.278C186.858,233.868 186.799,231.601 188.438,229.406C190.053,227.242 195.691,219.688 200.775,212.993C201.5,212.04 201.445,210.677 200.607,210.021C199.77,209.365 198.456,209.652 197.731,210.606C192.6,217.358 186.962,224.917 185.408,226.999C183.754,229.215 182.891,231.935 182.967,234.609C183.96,269.396 186.382,302.85 186.155,336.764C186.141,338.873 187.477,340.776 189.492,341.5C191.513,342.225 193.833,341.624 195.252,340.009C198.652,336.141 201.43,332.895 201.963,332.272C202.668,331.448 202.557,330.173 201.721,329.485C200.887,328.799 199.594,328.913 198.891,329.735ZM211.075,199.61C211.107,199.569 211.33,199.284 211.67,199.364C212.009,199.445 211.993,199.782 211.99,199.827C210.088,238.572 212.914,274.55 214.317,309.677C214.371,311.033 213.648,311.932 213.52,312.09C212.841,312.933 212.983,314.213 213.832,314.892C214.683,315.572 215.975,315.434 216.656,314.59C216.924,314.258 218.445,312.374 218.328,309.523C216.879,274.273 214.046,238.119 216.22,199.168C216.336,197.092 215.182,195.441 213.371,195.022C211.573,194.607 209.408,195.473 208.027,197.239C207.239,198.247 207.274,199.633 208.105,200.28C208.936,200.927 210.287,200.619 211.075,199.61ZM170.682,219.225C139.738,221.685 110.802,221.825 82.404,220.627C81.906,220.606 81.706,220.167 81.677,220.102C81.649,220.04 81.448,219.597 81.781,219.257C89.928,210.95 97.628,202.681 103.271,196.564C103.424,196.398 104.303,195.445 105.873,195.458C106.977,195.467 112.834,195.515 119.674,195.429C120.735,195.416 121.517,194.435 121.426,193.331C121.334,192.215 120.374,191.268 119.318,191.283C112.429,191.38 106.53,191.34 105.418,191.332C102.346,191.311 100.647,193.164 100.349,193.489C94.698,199.651 87.035,207.93 78.979,216.202C77.778,217.436 77.514,219.499 78.359,221.363C79.202,223.222 80.972,224.494 82.778,224.57C111.084,225.77 139.955,225.673 170.795,223.319C171.292,223.281 174.039,223.072 176.34,220.477C177.077,219.646 177.09,218.304 176.33,217.557C175.575,216.813 174.311,216.902 173.564,217.744C172.371,219.091 170.941,219.204 170.682,219.225ZM97.502,282.574C97.497,283.303 97.921,284.017 98.576,284.367C99.23,284.717 100.066,284.676 100.677,284.269L101.238,283.896C101.313,269.35 100.951,255.249 100.675,246.104C100.644,245.052 99.762,244.136 98.778,244.093C97.797,244.05 96.972,244.889 97.003,245.943C97.257,254.41 97.602,268.089 97.502,282.574Z" style="fill:rgb(226,126,255);"/>
                            </g>
                            <g transform="matrix(0.454159,-0.0205759,0.0207304,0.450774,-882.811,220.313)">
                                <path d="M3194.03,450.783C3197.19,450.954 3199.33,453.704 3198.76,456.894C3198.2,460.093 3195.11,462.577 3191.94,462.415C3170.37,461.306 3156.45,442.705 3160.39,421.134C3176.08,335.205 3187.76,251.142 3188.93,164.453C3189.2,143.775 3204.64,128.413 3224.25,130.285L3224.27,130.287C3308.1,138.696 3393.56,143.657 3484.87,142.516C3487.88,142.478 3490.33,145.049 3490.28,148.239C3490.24,151.424 3487.73,154.056 3484.73,154.084C3393.56,154.941 3308.12,149.888 3224.41,141.513C3210.67,140.21 3199.65,151.004 3199.47,165.539C3198.34,252.221 3187.1,336.15 3171.79,421.837C3169.09,436.939 3178.97,449.969 3194.03,450.783ZM3558.86,416.898C3561,414.592 3564.66,414.436 3566.98,416.547C3569.31,418.662 3569.46,422.3 3567.31,424.608C3565.7,426.332 3557.33,435.322 3547.1,446.025C3542.81,450.509 3536.14,451.929 3530.43,449.566C3524.74,447.212 3521.19,441.588 3521.51,435.487C3526.62,337.801 3524.09,241.091 3525.83,140.734C3525.96,133.017 3528.79,125.292 3533.81,119.126C3538.52,113.337 3555.64,92.289 3571.21,73.502C3573.47,70.774 3577.22,70.21 3579.51,72.191C3581.8,74.175 3581.86,78.05 3579.6,80.779C3564.18,99.405 3547.06,120.441 3542.16,126.458C3538.95,130.399 3537.13,135.346 3537.03,140.289C3535.03,241.065 3537.86,338.104 3533.01,435.917C3532.95,437.254 3533.77,438.55 3535.02,439.065C3536.27,439.579 3537.8,439.253 3538.74,438.269C3548.92,427.594 3557.26,418.618 3558.86,416.898ZM3610.82,43.562C3608.37,46.433 3604.51,47.07 3602.23,45.104C3599.95,43.14 3599.97,39.2 3602.41,36.331C3606.55,31.471 3612.84,29.194 3617.99,30.643C3623.16,32.102 3626.19,37.01 3625.59,42.961C3614.25,154.903 3617.59,259.448 3617.1,361.196C3617.08,366.476 3615.12,371.63 3611.66,375.579C3609.57,377.95 3605.91,378.175 3603.54,376.08C3601.17,373.99 3600.94,370.334 3603.01,367.966C3604.67,366.083 3605.6,363.63 3605.61,361.117C3606.22,259.728 3602.87,155.693 3613.41,44.307C3613.47,43.639 3613.1,43.089 3612.55,42.931C3612.01,42.776 3611.29,43.004 3610.82,43.562ZM3492.72,94.805C3495.79,94.699 3498.84,93.315 3501.16,90.914C3503.43,88.553 3507.02,88.482 3509.09,90.735C3511.17,92.99 3511.01,96.79 3508.74,99.15C3504.27,103.78 3498.4,106.433 3492.51,106.616C3403.99,109.374 3321.41,105.882 3240.63,98.731C3235.48,98.275 3230.58,94.382 3228.41,88.913C3226.26,83.471 3227.24,77.55 3230.87,74.125C3255,51.339 3278,28.48 3294.97,11.471C3298.81,7.621 3304.13,5.623 3309.75,5.919C3312.93,6.086 3329.79,6.973 3349.5,7.592C3352.53,7.687 3355.14,10.451 3355.26,13.768C3355.38,17.067 3352.99,19.684 3349.98,19.584C3330.41,18.938 3313.66,18.035 3310.51,17.865C3307.63,17.71 3304.9,18.738 3302.92,20.713C3285.99,37.594 3262.87,60.419 3238.48,83.292C3237.91,83.822 3237.71,84.802 3238.07,85.713C3238.43,86.612 3239.26,87.249 3240.08,87.321C3321.13,94.478 3403.9,97.854 3492.72,94.805ZM3283.97,273.077C3282.14,274.188 3279.8,274.194 3277.94,273.086C3276.09,271.978 3274.99,269.916 3275.11,267.777C3277.24,227.194 3278.08,188.872 3278.5,162.169C3278.55,159.101 3280.95,156.812 3283.82,157.07C3286.69,157.328 3289.03,160.045 3288.98,163.113C3288.54,190.954 3287.71,230.823 3285.62,272.075L3283.97,273.077Z" style="fill:white;"/>
                            </g>
                        </g>
                    </g>
                </g>
                <g transform="matrix(1.30533,-0.160546,0.147065,1.24062,378.395,173.565)">
                    <g transform="matrix(1,0,0,1,-72.7784,-84.0177)">
                        <g transform="matrix(1.06613,0,0,1.51602,-71.8417,-161.473)">
                            <path d="M235.773,311.826C241.122,314.116 244.62,317.666 244.62,317.666C245.13,318.183 245.173,318.874 244.728,319.419C244.284,319.965 243.439,320.258 242.586,320.164C238.977,319.762 235.661,319.581 232.641,319.558C217.912,319.444 210.374,323.11 210.374,323.11C209.554,323.517 208.462,323.454 207.732,322.957C207.003,322.461 206.825,321.66 207.304,321.021C212.244,314.417 217.464,311.4 222.241,310.336C227.278,309.215 231.971,310.198 235.773,311.826ZM233.642,314.566C230.786,313.343 227.275,312.528 223.49,313.371C220.683,313.995 217.794,315.49 214.891,318.214C219.003,317.239 224.939,316.33 232.667,316.39C234.157,316.401 235.715,316.449 237.341,316.54C236.283,315.86 235.036,315.163 233.642,314.566Z"/>
                        </g>
                        <g transform="matrix(1.41034,0,0,1.95409,-78.8698,-309.987)">
                            <path d="M178.356,322.552C178.324,322.326 178.308,322.095 178.308,321.861C178.308,320.21 179.128,318.735 180.41,317.774C185.358,319.893 188.597,323.175 188.597,323.175C184.88,322.762 181.466,322.576 178.356,322.552Z"/>
                        </g>
                    </g>
                    <g transform="matrix(0.967632,0.270468,-0.235475,0.967632,62.2676,-119.393)">
                        <g transform="matrix(1.06613,0,0,1.51602,-71.8417,-161.473)">
                            <path d="M235.785,311.824C241.129,314.112 244.624,317.659 244.624,317.659C245.133,318.174 245.171,318.867 244.721,319.415C244.271,319.963 243.421,320.259 242.567,320.164C238.958,319.763 235.642,319.581 232.621,319.558C217.897,319.444 210.362,323.107 210.362,323.107C209.54,323.515 208.451,323.456 207.726,322.963C207,322.47 206.827,321.671 207.306,321.031C212.251,314.421 217.477,311.401 222.259,310.337C227.293,309.216 231.986,310.197 235.785,311.824ZM233.63,314.568C230.772,313.344 227.259,312.527 223.472,313.37C220.664,313.995 217.772,315.493 214.868,318.224C218.983,317.245 224.933,316.33 232.687,316.39C234.165,316.401 235.71,316.448 237.323,316.538C236.265,315.859 235.021,315.164 233.63,314.568Z"/>
                        </g>
                        <g transform="matrix(1.41034,0,0,1.95409,-78.8698,-309.987)">
                            <path d="M178.356,322.552C178.324,322.326 178.308,322.095 178.308,321.861C178.308,320.21 179.128,318.735 180.41,317.774C185.358,319.893 188.597,323.175 188.597,323.175C184.88,322.762 181.466,322.576 178.356,322.552Z"/>
                        </g>
                    </g>
                    <g transform="matrix(0.636355,0,0,0.573652,-2.59283,61.6116)">
                        <path d="M197.083,340.841C194.112,342.8 189.153,343.839 184.293,343.067C178.85,342.201 173.696,339.109 171.321,333.602C170.43,331.535 171.141,329.019 172.907,327.987C174.673,326.955 176.831,327.796 177.722,329.863C179.058,332.961 182.168,334.284 185.23,334.771C188.507,335.292 191.903,334.844 193.696,333.433L194.801,332.723L196.162,332.273L197.295,332.226L198.691,332.546C200.159,333.085 202.382,335.154 209.562,335.853C216.746,336.552 219.355,328.282 219.697,327.28C220.428,325.136 222.514,324.097 224.352,324.96C226.191,325.822 227.09,328.263 226.36,330.406C225.786,332.088 221.05,345.369 208.997,344.196C202.454,343.559 198.436,341.603 197.083,340.841Z"/>
                    </g>
                    <g transform="matrix(0.68885,2.86792e-17,0,0.738262,-770.346,25.374)">
                        <path d="M1249.53,262.097C1249.53,262.097 1280.62,258.625 1279.45,247.18C1278.29,235.734 1254.72,254.123 1249.53,262.097Z"/>
                    </g>
                    <g transform="matrix(-0.68885,-2.86792e-17,0,0.738262,1014.32,25.374)">
                        <path d="M1249.53,262.097C1249.53,262.097 1280.62,258.625 1279.45,247.18C1278.29,235.734 1254.72,254.123 1249.53,262.097Z"/>
                    </g>
                </g>
            </g>
        </g>
    </g>
</svg>
