<?xml version="1.0" encoding="UTF-8" standalone="no"?>
<!DOCTYPE svg PUBLIC "-//W3C//DTD SVG 1.1//EN" "http://www.w3.org/Graphics/SVG/1.1/DTD/svg11.dtd">
<svg width="100%" height="100%" viewBox="0 0 200 215" version="1.1" xmlns="http://www.w3.org/2000/svg" xmlns:xlink="http://www.w3.org/1999/xlink" xml:space="preserve" xmlns:serif="http://www.serif.com/" style="fill-rule:evenodd;clip-rule:evenodd;stroke-linejoin:round;stroke-miterlimit:2;">
    <g transform="matrix(1,0,0,1,-473.936,-495.973)">
        <g transform="matrix(1,0,0,1.13277,0,0)">
            <g transform="matrix(0.974093,0.0392517,-0.0439789,0.850558,12.63,183.943)">
                <g transform="matrix(0.904903,-0.0386442,0.0385104,0.921736,-15.7648,174.597)">
                    <g transform="matrix(1.30151,0,0,1.30151,483.26,-94.1403)">
                        <path d="M191.705,353.84C191.422,354.19 191.122,354.527 190.805,354.851C188.108,357.613 184.45,359.164 180.636,359.164L65.377,359.164C61.563,359.164 57.905,357.613 55.207,354.851C52.51,352.09 50.995,348.344 50.995,344.439L50.995,226.426C50.995,222.833 52.278,219.375 54.584,216.694C54.784,216.461 54.992,216.234 55.207,216.014C55.777,215.431 56.388,214.902 57.035,214.43L98.582,176.073C99.733,175.009 101.23,174.424 102.781,174.429L218.971,174.862C220.216,174.867 221.409,175.378 222.286,176.283C223.163,177.188 223.653,178.413 223.648,179.688L223.094,316.656C223.087,318.429 222.427,320.134 221.245,321.43L191.705,353.84ZM70.418,346.969C65.085,346.969 60.755,342.536 60.755,337.075L60.755,241.215C60.755,235.755 65.083,231.322 70.415,231.321L170.476,231.787C171.602,231.792 172.52,230.861 172.525,229.709C172.53,228.556 171.62,227.616 170.495,227.611L70.427,227.145L70.418,227.145C62.834,227.145 56.676,233.45 56.676,241.215L56.676,337.075C56.676,344.84 62.834,351.145 70.418,351.145C71.544,351.145 72.457,350.209 72.457,349.057C72.457,347.905 71.544,346.969 70.418,346.969ZM198.536,328.247L191.727,336.334C191.406,336.715 190.888,336.851 190.427,336.676C189.967,336.501 189.661,336.051 189.661,335.548L189.661,227.372C189.661,225.607 190.281,223.9 191.407,222.563L204.073,207.521C204.808,206.648 204.713,205.329 203.86,204.576C203.008,203.824 201.719,203.922 200.984,204.794L188.318,219.837C186.553,221.932 185.583,224.606 185.583,227.372L185.583,335.548C185.583,337.796 186.949,339.807 189.007,340.59C191.065,341.374 193.382,340.763 194.816,339.061L201.625,330.974C202.36,330.101 202.265,328.782 201.412,328.029C200.56,327.277 199.271,327.375 198.536,328.247ZM213.877,195.879C214.017,195.713 214.243,195.653 214.445,195.729C214.646,195.806 214.78,196.003 214.78,196.223L214.78,307.538C214.78,308.454 214.458,309.339 213.874,310.033C213.139,310.905 213.235,312.225 214.087,312.977C214.94,313.73 216.228,313.632 216.963,312.76C218.186,311.308 218.858,309.455 218.858,307.538L218.858,196.223C218.858,194.257 217.664,192.5 215.865,191.815C214.066,191.131 212.041,191.664 210.788,193.152C210.053,194.025 210.148,195.345 211.001,196.097C211.853,196.849 213.142,196.752 213.877,195.879ZM173.146,210.667L77.172,210.726C76.842,210.726 76.545,210.518 76.427,210.202C76.308,209.886 76.392,209.528 76.637,209.302L102.856,185.084C103.656,184.345 104.696,183.938 105.774,183.943L120.468,184.007C121.594,184.012 122.511,183.081 122.516,181.928C122.521,180.776 121.611,179.837 120.486,179.832L105.791,179.767C103.699,179.758 101.678,180.548 100.124,181.983L73.905,206.201C72.406,207.585 71.895,209.773 72.62,211.702C73.345,213.631 75.156,214.903 77.175,214.902L173.148,214.843C175.342,214.842 177.45,213.969 179.028,212.409C179.838,211.608 179.86,210.285 179.079,209.456C178.297,208.627 177.005,208.604 176.195,209.405C175.377,210.214 174.284,210.666 173.146,210.667ZM91.542,277.227C91.554,278.043 92.021,278.785 92.754,279.155C93.487,279.524 94.367,279.459 95.037,278.986C95.399,278.731 95.639,278.562 95.639,278.562C95.465,266.569 95.303,252.07 95.515,237.366C95.531,236.213 94.631,235.264 93.506,235.247C92.38,235.23 91.453,236.152 91.437,237.304C91.233,251.491 91.377,265.488 91.542,277.227Z" style="fill:rgb(226,126,255);"/>
                    </g>
                    <g transform="matrix(0.454159,-0.0205759,0.0207304,0.450774,-882.811,220.313)">
                        <path d="M3189.19,449.782C3192.41,449.929 3194.89,452.744 3194.74,456.064C3194.59,459.385 3191.86,461.961 3188.64,461.814C3166.95,460.824 3150.17,441.855 3151.19,419.48L3163.8,143.283C3164.82,120.908 3183.26,103.546 3204.95,104.536L3204.97,104.537L3491.08,118.943C3494.3,119.105 3496.78,121.932 3496.61,125.252C3496.45,128.571 3493.7,131.135 3490.48,130.973L3204.39,116.568C3189.14,115.876 3176.18,128.084 3175.46,143.815L3162.85,420.012C3162.13,435.746 3173.93,449.086 3189.19,449.782ZM3558.04,412.564C3560.26,410.145 3563.95,410.032 3566.29,412.311C3568.63,414.591 3568.73,418.405 3566.51,420.824L3545.98,443.234C3541.65,447.953 3534.95,449.409 3529.16,446.884C3523.38,444.359 3519.74,438.386 3520.03,431.908L3534.26,120.225C3534.63,112.254 3537.75,104.676 3543.07,98.869L3581.28,57.182C3583.49,54.763 3587.19,54.65 3589.53,56.929C3591.87,59.209 3591.97,63.023 3589.75,65.442L3551.55,107.129C3548.15,110.834 3546.16,115.671 3545.93,120.757L3531.7,432.44C3531.63,433.889 3532.45,435.226 3533.74,435.791C3535.03,436.355 3536.53,436.03 3537.5,434.974L3558.04,412.564ZM3619.32,33.178C3617.1,35.596 3613.4,35.709 3611.07,33.43C3608.73,31.151 3608.63,27.336 3610.84,24.918C3614.62,20.793 3620.49,19.521 3625.54,21.728C3630.6,23.935 3633.78,29.155 3633.52,34.818L3618.88,355.547C3618.63,361.07 3616.46,366.321 3612.77,370.345C3610.56,372.763 3606.86,372.876 3604.52,370.597C3602.18,368.318 3602.08,364.503 3604.3,362.085C3606.06,360.162 3607.1,357.654 3607.22,355.015L3621.86,34.285C3621.88,33.652 3621.53,33.068 3620.96,32.821C3620.4,32.574 3619.74,32.716 3619.32,33.178ZM3500.89,70.469C3504.15,70.615 3507.33,69.454 3509.78,67.229C3512.2,65.029 3515.89,65.264 3518.02,67.755C3520.14,70.245 3519.91,74.054 3517.49,76.255C3512.77,80.544 3506.62,82.783 3500.35,82.501L3225.88,70.143C3220.1,69.883 3215.09,65.981 3213.27,60.328C3211.45,54.674 3213.2,48.44 3217.67,44.646L3295.84,-21.709C3300.47,-25.641 3306.35,-27.654 3312.34,-27.355L3354.35,-25.251C3357.57,-25.089 3360.05,-22.263 3359.88,-18.944C3359.72,-15.624 3356.97,-13.06 3353.75,-13.221L3311.74,-15.325C3308.66,-15.48 3305.63,-14.443 3303.24,-12.418L3225.08,53.936C3224.34,54.558 3224.06,55.578 3224.36,56.504C3224.65,57.43 3225.47,58.069 3226.42,58.111L3500.89,70.469ZM3268.53,257.119C3266.55,258.394 3264.03,258.467 3261.98,257.307C3259.93,256.147 3258.69,253.947 3258.77,251.593C3259.84,217.749 3261.27,177.402 3263.72,136.551C3263.92,133.233 3266.69,130.699 3269.91,130.894C3273.12,131.09 3275.57,133.943 3275.37,137.261C3272.83,179.6 3271.39,221.398 3270.31,255.976C3270.31,255.976 3269.6,256.431 3268.53,257.119Z" style="fill:white;"/>
                    </g>
                </g>
                <g transform="matrix(1.30533,-0.160546,0.147065,1.24062,378.395,173.565)">
                    <g transform="matrix(1,0,0,1,-72.7784,-84.0177)">
                        <g transform="matrix(1.06613,0,0,1.51602,-71.8417,-161.473)">
                            <path d="M235.773,311.826C241.122,314.116 244.62,317.666 244.62,317.666C245.13,318.183 245.173,318.874 244.728,319.419C244.284,319.965 243.439,320.258 242.586,320.164C238.977,319.762 235.661,319.581 232.641,319.558C217.912,319.444 210.374,323.11 210.374,323.11C209.554,323.517 208.462,323.454 207.732,322.957C207.003,322.461 206.825,321.66 207.304,321.021C212.244,314.417 217.464,311.4 222.241,310.336C227.278,309.215 231.971,310.198 235.773,311.826ZM233.642,314.566C230.786,313.343 227.275,312.528 223.49,313.371C220.683,313.995 217.794,315.49 214.891,318.214C219.003,317.239 224.939,316.33 232.667,316.39C234.157,316.401 235.715,316.449 237.341,316.54C236.283,315.86 235.036,315.163 233.642,314.566Z"/>
                        </g>
                        <g transform="matrix(1.41034,0,0,1.95409,-78.8698,-309.987)">
                            <path d="M178.356,322.552C178.324,322.326 178.308,322.095 178.308,321.861C178.308,320.21 179.128,318.735 180.41,317.774C185.358,319.893 188.597,323.175 188.597,323.175C184.88,322.762 181.466,322.576 178.356,322.552Z"/>
                        </g>
                    </g>
                    <g transform="matrix(0.967632,0.270468,-0.235475,0.967632,62.2676,-119.393)">
                        <g transform="matrix(1.06613,0,0,1.51602,-71.8417,-161.473)">
                            <path d="M235.785,311.824C241.129,314.112 244.624,317.659 244.624,317.659C245.133,318.174 245.171,318.867 244.721,319.415C244.271,319.963 243.421,320.259 242.567,320.164C238.958,319.763 235.642,319.581 232.621,319.558C217.897,319.444 210.362,323.107 210.362,323.107C209.54,323.515 208.451,323.456 207.726,322.963C207,322.47 206.827,321.671 207.306,321.031C212.251,314.421 217.477,311.401 222.259,310.337C227.293,309.216 231.986,310.197 235.785,311.824ZM233.63,314.568C230.772,313.344 227.259,312.527 223.472,313.37C220.664,313.995 217.772,315.493 214.868,318.224C218.983,317.245 224.933,316.33 232.687,316.39C234.165,316.401 235.71,316.448 237.323,316.538C236.265,315.859 235.021,315.164 233.63,314.568Z"/>
                        </g>
                        <g transform="matrix(1.41034,0,0,1.95409,-78.8698,-309.987)">
                            <path d="M178.356,322.552C178.324,322.326 178.308,322.095 178.308,321.861C178.308,320.21 179.128,318.735 180.41,317.774C185.358,319.893 188.597,323.175 188.597,323.175C184.88,322.762 181.466,322.576 178.356,322.552Z"/>
                        </g>
                    </g>
                    <g transform="matrix(0.636355,0,0,0.573652,-2.59283,61.6116)">
                        <path d="M197.083,340.841C194.112,342.8 189.153,343.839 184.293,343.067C178.85,342.201 173.696,339.109 171.321,333.602C170.43,331.535 171.141,329.019 172.907,327.987C174.673,326.955 176.831,327.796 177.722,329.863C179.058,332.961 182.168,334.284 185.23,334.771C188.507,335.292 191.903,334.844 193.696,333.433L194.801,332.723L196.162,332.273L197.295,332.226L198.691,332.546C200.159,333.085 202.382,335.154 209.562,335.853C216.746,336.552 219.355,328.282 219.697,327.28C220.428,325.136 222.514,324.097 224.352,324.96C226.191,325.822 227.09,328.263 226.36,330.406C225.786,332.088 221.05,345.369 208.997,344.196C202.454,343.559 198.436,341.603 197.083,340.841Z"/>
                    </g>
                    <g transform="matrix(0.68885,1.91194e-17,0,0.738262,-770.519,27.8563)">
                        <path d="M1249.53,262.097C1249.53,262.097 1280.62,258.625 1279.45,247.18C1278.29,235.734 1254.72,254.123 1249.53,262.097Z"/>
                    </g>
                    <g transform="matrix(-0.68885,-1.91194e-17,0,0.738262,1014.15,27.8563)">
                        <path d="M1249.53,262.097C1249.53,262.097 1280.62,258.625 1279.45,247.18C1278.29,235.734 1254.72,254.123 1249.53,262.097Z"/>
                    </g>
                </g>
            </g>
        </g>
    </g>
</svg>
