<?xml version="1.0" encoding="UTF-8" standalone="no"?>
<!DOCTYPE svg PUBLIC "-//W3C//DTD SVG 1.1//EN" "http://www.w3.org/Graphics/SVG/1.1/DTD/svg11.dtd">
<svg width="100%" height="100%" viewBox="0 0 805 5" version="1.1" xmlns="http://www.w3.org/2000/svg" xmlns:xlink="http://www.w3.org/1999/xlink" xml:space="preserve" xmlns:serif="http://www.serif.com/" style="fill-rule:evenodd;clip-rule:evenodd;stroke-linejoin:round;stroke-miterlimit:2;">
    <g transform="matrix(1,0,0,1,-1821.37,-2835.51)">
        <g transform="matrix(1,0,0,0.703946,-0.517776,1653.87)">
            <g transform="matrix(1,0,0,1.42056,0.517776,-2349.43)">
                <path d="M1823.45,2839.68C1822.31,2839.68 1821.37,2838.74 1821.37,2837.59C1821.37,2836.44 1822.31,2835.51 1823.45,2835.51L1827.67,2835.51C1828.82,2835.51 1829.75,2836.44 1829.75,2837.59C1829.75,2838.74 1828.82,2839.68 1827.67,2839.68L1823.45,2839.68ZM1840.31,2839.68C1839.16,2839.68 1838.23,2838.74 1838.23,2837.59C1838.23,2836.44 1839.16,2835.51 1840.31,2835.51L1848.74,2835.51C1849.89,2835.51 1850.82,2836.44 1850.82,2837.59C1850.82,2838.74 1849.89,2839.68 1848.74,2839.68L1840.31,2839.68ZM1861.38,2839.68C1860.23,2839.68 1859.3,2838.74 1859.3,2837.59C1859.3,2836.44 1860.23,2835.51 1861.38,2835.51L1869.81,2835.51C1870.96,2835.51 1871.89,2836.44 1871.89,2837.59C1871.89,2838.74 1870.96,2839.68 1869.81,2839.68L1861.38,2839.68ZM1882.45,2839.68C1881.3,2839.68 1880.37,2838.74 1880.37,2837.59C1880.37,2836.44 1881.3,2835.51 1882.45,2835.51L1890.88,2835.51C1892.03,2835.51 1892.96,2836.44 1892.96,2837.59C1892.96,2838.74 1892.03,2839.68 1890.88,2839.68L1882.45,2839.68ZM1903.52,2839.68C1902.37,2839.68 1901.44,2838.74 1901.44,2837.59C1901.44,2836.44 1902.37,2835.51 1903.52,2835.51L1911.95,2835.51C1913.1,2835.51 1914.03,2836.44 1914.03,2837.59C1914.03,2838.74 1913.1,2839.68 1911.95,2839.68L1903.52,2839.68ZM1924.59,2839.68C1923.44,2839.68 1922.51,2838.74 1922.51,2837.59C1922.51,2836.44 1923.44,2835.51 1924.59,2835.51L1933.02,2835.51C1934.17,2835.51 1935.1,2836.44 1935.1,2837.59C1935.1,2838.74 1934.17,2839.68 1933.02,2839.68L1924.59,2839.68ZM1945.66,2839.68C1944.51,2839.68 1943.58,2838.74 1943.58,2837.59C1943.58,2836.44 1944.51,2835.51 1945.66,2835.51L1954.09,2835.51C1955.24,2835.51 1956.17,2836.44 1956.17,2837.59C1956.17,2838.74 1955.24,2839.68 1954.09,2839.68L1945.66,2839.68ZM1966.73,2839.68C1965.58,2839.68 1964.65,2838.74 1964.65,2837.59C1964.65,2836.44 1965.58,2835.51 1966.73,2835.51L1975.16,2835.51C1976.31,2835.51 1977.25,2836.44 1977.25,2837.59C1977.25,2838.74 1976.31,2839.68 1975.16,2839.68L1966.73,2839.68ZM1987.8,2839.68C1986.65,2839.68 1985.72,2838.74 1985.72,2837.59C1985.72,2836.44 1986.65,2835.51 1987.8,2835.51L1996.23,2835.51C1997.38,2835.51 1998.32,2836.44 1998.32,2837.59C1998.32,2838.74 1997.38,2839.68 1996.23,2839.68L1987.8,2839.68ZM2008.87,2839.68C2007.72,2839.68 2006.79,2838.74 2006.79,2837.59C2006.79,2836.44 2007.72,2835.51 2008.87,2835.51L2017.3,2835.51C2018.45,2835.51 2019.38,2836.44 2019.38,2837.59C2019.38,2838.74 2018.45,2839.68 2017.3,2839.68L2008.87,2839.68ZM2029.94,2839.68C2028.79,2839.68 2027.86,2838.74 2027.86,2837.59C2027.86,2836.44 2028.79,2835.51 2029.94,2835.51L2038.37,2835.51C2039.52,2835.51 2040.46,2836.44 2040.46,2837.59C2040.46,2838.74 2039.52,2839.68 2038.37,2839.68L2029.94,2839.68ZM2051.01,2839.68C2049.86,2839.68 2048.93,2838.74 2048.93,2837.59C2048.93,2836.44 2049.86,2835.51 2051.01,2835.51L2059.44,2835.51C2060.59,2835.51 2061.53,2836.44 2061.53,2837.59C2061.53,2838.74 2060.59,2839.68 2059.44,2839.68L2051.01,2839.68ZM2072.08,2839.68C2070.93,2839.68 2070,2838.74 2070,2837.59C2070,2836.44 2070.93,2835.51 2072.08,2835.51L2080.51,2835.51C2081.66,2835.51 2082.6,2836.44 2082.6,2837.59C2082.6,2838.74 2081.66,2839.68 2080.51,2839.68L2072.08,2839.68ZM2093.16,2839.68C2092.01,2839.68 2091.07,2838.74 2091.07,2837.59C2091.07,2836.44 2092.01,2835.51 2093.16,2835.51L2101.58,2835.51C2102.73,2835.51 2103.67,2836.44 2103.67,2837.59C2103.67,2838.74 2102.73,2839.68 2101.58,2839.68L2093.16,2839.68ZM2114.22,2839.68C2113.07,2839.68 2112.14,2838.74 2112.14,2837.59C2112.14,2836.44 2113.07,2835.51 2114.22,2835.51L2122.65,2835.51C2123.8,2835.51 2124.74,2836.44 2124.74,2837.59C2124.74,2838.74 2123.8,2839.68 2122.65,2839.68L2114.22,2839.68ZM2135.3,2839.68C2134.15,2839.68 2133.21,2838.74 2133.21,2837.59C2133.21,2836.44 2134.15,2835.51 2135.3,2835.51L2143.72,2835.51C2144.87,2835.51 2145.81,2836.44 2145.81,2837.59C2145.81,2838.74 2144.87,2839.68 2143.72,2839.68L2135.3,2839.68ZM2156.37,2839.68C2155.22,2839.68 2154.28,2838.74 2154.28,2837.59C2154.28,2836.44 2155.22,2835.51 2156.37,2835.51L2164.8,2835.51C2165.95,2835.51 2166.88,2836.44 2166.88,2837.59C2166.88,2838.74 2165.95,2839.68 2164.8,2839.68L2156.37,2839.68ZM2177.44,2839.68C2176.29,2839.68 2175.35,2838.74 2175.35,2837.59C2175.35,2836.44 2176.29,2835.51 2177.44,2835.51L2185.86,2835.51C2187.01,2835.51 2187.95,2836.44 2187.95,2837.59C2187.95,2838.74 2187.01,2839.68 2185.86,2839.68L2177.44,2839.68ZM2198.51,2839.68C2197.36,2839.68 2196.42,2838.74 2196.42,2837.59C2196.42,2836.44 2197.36,2835.51 2198.51,2835.51L2206.93,2835.51C2208.08,2835.51 2209.02,2836.44 2209.02,2837.59C2209.02,2838.74 2208.08,2839.68 2206.93,2839.68L2198.51,2839.68ZM2219.58,2839.68C2218.43,2839.68 2217.49,2838.74 2217.49,2837.59C2217.49,2836.44 2218.43,2835.51 2219.58,2835.51L2228.01,2835.51C2229.16,2835.51 2230.09,2836.44 2230.09,2837.59C2230.09,2838.74 2229.16,2839.68 2228.01,2839.68L2219.58,2839.68ZM2240.65,2839.68C2239.5,2839.68 2238.56,2838.74 2238.56,2837.59C2238.56,2836.44 2239.5,2835.51 2240.65,2835.51L2249.08,2835.51C2250.23,2835.51 2251.16,2836.44 2251.16,2837.59C2251.16,2838.74 2250.23,2839.68 2249.08,2839.68L2240.65,2839.68ZM2261.72,2839.68C2260.57,2839.68 2259.63,2838.74 2259.63,2837.59C2259.63,2836.44 2260.57,2835.51 2261.72,2835.51L2270.15,2835.51C2271.3,2835.51 2272.23,2836.44 2272.23,2837.59C2272.23,2838.74 2271.3,2839.68 2270.15,2839.68L2261.72,2839.68ZM2282.79,2839.68C2281.64,2839.68 2280.7,2838.74 2280.7,2837.59C2280.7,2836.44 2281.64,2835.51 2282.79,2835.51L2291.22,2835.51C2292.37,2835.51 2293.3,2836.44 2293.3,2837.59C2293.3,2838.74 2292.37,2839.68 2291.22,2839.68L2282.79,2839.68ZM2303.86,2839.68C2302.71,2839.68 2301.78,2838.74 2301.78,2837.59C2301.78,2836.44 2302.71,2835.51 2303.86,2835.51L2312.29,2835.51C2313.44,2835.51 2314.37,2836.44 2314.37,2837.59C2314.37,2838.74 2313.44,2839.68 2312.29,2839.68L2303.86,2839.68ZM2324.93,2839.68C2323.78,2839.68 2322.85,2838.74 2322.85,2837.59C2322.85,2836.44 2323.78,2835.51 2324.93,2835.51L2333.36,2835.51C2334.51,2835.51 2335.44,2836.44 2335.44,2837.59C2335.44,2838.74 2334.51,2839.68 2333.36,2839.68L2324.93,2839.68ZM2346,2839.68C2344.85,2839.68 2343.92,2838.74 2343.92,2837.59C2343.92,2836.44 2344.85,2835.51 2346,2835.51L2354.43,2835.51C2355.58,2835.51 2356.51,2836.44 2356.51,2837.59C2356.51,2838.74 2355.58,2839.68 2354.43,2839.68L2346,2839.68ZM2367.07,2839.68C2365.92,2839.68 2364.99,2838.74 2364.99,2837.59C2364.99,2836.44 2365.92,2835.51 2367.07,2835.51L2375.5,2835.51C2376.65,2835.51 2377.58,2836.44 2377.58,2837.59C2377.58,2838.74 2376.65,2839.68 2375.5,2839.68L2367.07,2839.68ZM2388.14,2839.68C2386.99,2839.68 2386.06,2838.74 2386.06,2837.59C2386.06,2836.44 2386.99,2835.51 2388.14,2835.51L2396.57,2835.51C2397.72,2835.51 2398.65,2836.44 2398.65,2837.59C2398.65,2838.74 2397.72,2839.68 2396.57,2839.68L2388.14,2839.68ZM2409.21,2839.68C2408.06,2839.68 2407.13,2838.74 2407.13,2837.59C2407.13,2836.44 2408.06,2835.51 2409.21,2835.51L2417.64,2835.51C2418.79,2835.51 2419.72,2836.44 2419.72,2837.59C2419.72,2838.74 2418.79,2839.68 2417.64,2839.68L2409.21,2839.68ZM2430.28,2839.68C2429.13,2839.68 2428.2,2838.74 2428.2,2837.59C2428.2,2836.44 2429.13,2835.51 2430.28,2835.51L2438.71,2835.51C2439.86,2835.51 2440.79,2836.44 2440.79,2837.59C2440.79,2838.74 2439.86,2839.68 2438.71,2839.68L2430.28,2839.68ZM2451.35,2839.68C2450.2,2839.68 2449.27,2838.74 2449.27,2837.59C2449.27,2836.44 2450.2,2835.51 2451.35,2835.51L2459.78,2835.51C2460.93,2835.51 2461.86,2836.44 2461.86,2837.59C2461.86,2838.74 2460.93,2839.68 2459.78,2839.68L2451.35,2839.68ZM2472.42,2839.68C2471.27,2839.68 2470.34,2838.74 2470.34,2837.59C2470.34,2836.44 2471.27,2835.51 2472.42,2835.51L2480.85,2835.51C2482,2835.51 2482.93,2836.44 2482.93,2837.59C2482.93,2838.74 2482,2839.68 2480.85,2839.68L2472.42,2839.68ZM2493.49,2839.68C2492.34,2839.68 2491.41,2838.74 2491.41,2837.59C2491.41,2836.44 2492.34,2835.51 2493.49,2835.51L2501.92,2835.51C2503.07,2835.51 2504,2836.44 2504,2837.59C2504,2838.74 2503.07,2839.68 2501.92,2839.68L2493.49,2839.68ZM2514.56,2839.68C2513.41,2839.68 2512.48,2838.74 2512.48,2837.59C2512.48,2836.44 2513.41,2835.51 2514.56,2835.51L2522.99,2835.51C2524.14,2835.51 2525.07,2836.44 2525.07,2837.59C2525.07,2838.74 2524.14,2839.68 2522.99,2839.68L2514.56,2839.68ZM2535.63,2839.68C2534.48,2839.68 2533.55,2838.74 2533.55,2837.59C2533.55,2836.44 2534.48,2835.51 2535.63,2835.51L2544.06,2835.51C2545.21,2835.51 2546.14,2836.44 2546.14,2837.59C2546.14,2838.74 2545.21,2839.68 2544.06,2839.68L2535.63,2839.68ZM2556.7,2839.68C2555.55,2839.68 2554.62,2838.74 2554.62,2837.59C2554.62,2836.44 2555.55,2835.51 2556.7,2835.51L2565.13,2835.51C2566.28,2835.51 2567.21,2836.44 2567.21,2837.59C2567.21,2838.74 2566.28,2839.68 2565.13,2839.68L2556.7,2839.68ZM2577.77,2839.68C2576.62,2839.68 2575.69,2838.74 2575.69,2837.59C2575.69,2836.44 2576.62,2835.51 2577.77,2835.51L2586.2,2835.51C2587.35,2835.51 2588.28,2836.44 2588.28,2837.59C2588.28,2838.74 2587.35,2839.68 2586.2,2839.68L2577.77,2839.68ZM2598.84,2839.68C2597.69,2839.68 2596.76,2838.74 2596.76,2837.59C2596.76,2836.44 2597.69,2835.51 2598.84,2835.51L2607.27,2835.51C2608.42,2835.51 2609.35,2836.44 2609.35,2837.59C2609.35,2838.74 2608.42,2839.68 2607.27,2839.68L2598.84,2839.68ZM2619.91,2839.68C2618.76,2839.68 2617.83,2838.74 2617.83,2837.59C2617.83,2836.44 2618.76,2835.51 2619.91,2835.51L2624.13,2835.51C2625.28,2835.51 2626.21,2836.44 2626.21,2837.59C2626.21,2838.74 2625.28,2839.68 2624.13,2839.68L2619.91,2839.68Z" style="fill:rgb(107,113,255);"/>
            </g>
        </g>
    </g>
</svg>
