<?xml version="1.0" encoding="UTF-8" standalone="no"?>
<!DOCTYPE svg PUBLIC "-//W3C//DTD SVG 1.1//EN" "http://www.w3.org/Graphics/SVG/1.1/DTD/svg11.dtd">
<svg width="100%" height="100%" viewBox="0 0 491 491" version="1.1" xmlns="http://www.w3.org/2000/svg" xmlns:xlink="http://www.w3.org/1999/xlink" xml:space="preserve" xmlns:serif="http://www.serif.com/" style="fill-rule:evenodd;clip-rule:evenodd;stroke-linejoin:round;stroke-miterlimit:2;">
    <g transform="matrix(1,0,0,1,-1839.25,0)">
        <g id="Artboard3" transform="matrix(1,0,0,1,666.044,0)">
            <rect x="1173.2" y="0" width="490.2" height="490.2" style="fill:none;"/>
            <g id="angry" transform="matrix(2.96571,0.034764,-0.034764,2.96571,1035.39,-550.472)">
                <g transform="matrix(0.832986,0,0,0.911487,17.1523,25.418)">
                    <g>
                        <g>
                            <path id="ảngy" d="M192.411,345.942C191.888,346.361 191.416,346.673 191.326,346.732C188.222,348.78 184.245,349.647 180.387,348.979C142.093,342.348 103.603,342.562 65.258,354.269C61.425,355.439 57.423,355.122 54.302,353.442C51.063,351.7 48.813,348.518 48.127,344.746C41.313,307.291 39.156,268.117 42.918,227.292C43.247,223.718 44.873,220.38 47.453,218.141L48.148,217.581C49.087,216.877 49.978,216.44 50.146,216.357C65.041,206.606 81.237,197.827 95.897,187.423C97.748,186.109 99.74,186.382 100.081,186.429C134.999,191.212 174.263,188.799 218.771,176.322C219.078,176.236 220.86,175.736 222.745,176.714C223.019,176.856 224.644,177.7 225.203,179.688C239.895,231.938 237.87,279.348 231.959,316.552C231.52,319.312 229.581,320.702 229.246,320.942C217.418,329.419 204.475,337.42 192.411,345.942ZM68.247,341.365C62.695,342.769 57.625,339.744 56.798,334.629C48.429,282.859 51.267,248.627 51.597,243.065C51.903,237.916 56.513,234.013 62.375,234.613C80.624,236.56 100.864,237.932 120.878,238.708C153.22,239.963 159.927,239.213 173.174,238.325C174.447,238.24 175.484,237.335 175.426,236.393C175.368,235.453 174.235,234.698 172.966,234.793C158.38,235.877 152.461,236.495 124.228,235.405C103.346,234.598 81.998,233.03 62.686,230.706L62.676,230.704C54.286,229.729 47.878,235.305 47.436,242.714C46.945,250.968 44.457,285.993 52.628,335.789C53.835,343.143 61.048,347.334 68.91,345.272C70.026,344.98 70.82,343.819 70.65,342.793C70.478,341.75 69.372,341.081 68.247,341.365ZM203.566,323.102C201.63,324.524 198.048,327.151 195.052,329.381C194.677,329.66 194.067,329.702 193.606,329.461C193.141,329.218 192.865,328.711 192.924,328.275C198.102,290.311 198.21,260.889 195.418,232.54C195.38,232.157 195.179,230.112 197.026,228C200.347,224.205 204.924,218.704 209.758,211.935C210.435,210.987 210.11,209.718 209.025,209.187C207.956,208.665 206.466,209.037 205.79,209.982C200.971,216.726 196.398,222.222 193.119,225.979C191.252,228.119 190.367,230.664 190.584,233.031C194.085,271.118 191.548,303.17 188.518,327.562C188.266,329.589 189.491,331.742 191.567,332.848C193.659,333.962 196.238,333.813 197.985,332.522C200.91,330.36 204.474,327.76 206.548,326.245C207.453,325.584 207.568,324.289 206.751,323.431C205.953,322.592 204.473,322.436 203.566,323.102ZM218.584,198.492C218.611,198.446 218.783,198.161 219.181,198.2C219.58,198.239 219.648,198.549 219.659,198.597C230.671,248.583 226.835,286.172 224.286,306.2C224.111,307.576 223.142,308.345 222.977,308.475C222.082,309.185 222.001,310.498 222.822,311.355C223.625,312.193 225.086,312.333 225.984,311.618C226.331,311.342 228.35,309.736 228.729,306.805C231.526,285.196 235.105,246.438 224.166,197.532C223.739,195.626 222.01,194.179 219.871,193.988C217.76,193.799 215.621,194.868 214.57,196.612C213.965,197.618 214.347,198.908 215.437,199.422C216.517,199.931 217.973,199.504 218.584,198.492ZM174.757,219.832C155.58,221.926 149.003,222.268 128.759,221.554C109.354,220.87 89.622,219.125 71.182,216.348C70.606,216.261 70.471,215.814 70.449,215.741C70.429,215.675 70.291,215.219 70.753,214.935C80.312,209.035 90.273,203.023 99.618,196.499C100.923,195.588 102.364,195.76 102.608,195.789C107.389,196.361 112.474,196.842 117.488,197.186C118.601,197.262 119.551,196.42 119.536,195.367C119.522,194.334 118.568,193.343 117.46,193.267C112.512,192.931 107.498,192.451 102.785,191.874C102.316,191.817 99.566,191.48 97.04,193.239C87.716,199.733 77.764,205.703 68.224,211.559C66.54,212.593 65.778,214.615 66.333,216.521C66.891,218.436 68.69,219.929 70.821,220.225C89.42,222.808 109.384,224.446 128.92,225.113C149.491,225.816 155.569,225.524 175.113,223.51C175.678,223.451 179.039,223.105 181.607,220.623C182.448,219.81 182.319,218.596 181.37,217.979C180.427,217.366 178.908,217.523 178.09,218.323C176.769,219.613 175.048,219.801 174.757,219.832ZM85.248,271.746C85.619,271.544 87.514,270.513 89.911,269.255C89.419,258.076 89.58,249.796 89.894,242.145C89.933,241.195 88.898,240.276 87.659,240.185C86.41,240.095 85.311,240.868 85.264,241.829C84.503,257.408 85.005,266.904 85.248,271.746Z" style="fill:rgb(163,116,255);"/>
                            <g transform="matrix(0.404738,-0.00433573,0.00474433,0.369881,-706.614,183.099)">
                                <path d="M2244.07,404.813C2246.35,403.021 2249.93,403.447 2251.93,405.793C2253.92,408.144 2253.63,411.605 2251.33,413.395C2246.21,417.393 2237.28,424.347 2229.98,430.115C2225.56,433.607 2219.22,433.869 2214.12,430.81C2209.04,427.773 2206.06,421.951 2206.75,416.434C2215.01,350.542 2222.29,263.99 2214.85,160.956C2214.38,154.47 2216.71,147.626 2221.34,141.967C2229.63,131.819 2241.08,117.11 2253.14,99.092C2254.88,96.51 2258.51,95.574 2261.16,97.036C2263.83,98.502 2264.62,101.894 2262.89,104.485C2253.99,117.77 2243.36,132.361 2230.93,147.543C2227.95,151.171 2226.48,155.582 2226.81,159.77C2232.81,236.485 2231.61,316.014 2217.61,418.488C2217.45,419.703 2218.15,421.065 2219.26,421.713C2220.38,422.37 2221.89,422.292 2222.84,421.54C2230.29,415.611 2239.18,408.645 2244.07,404.813ZM2285.12,68.4C2283.55,71.17 2279.99,72.249 2277.31,70.824C2274.64,69.403 2273.7,65.958 2275.26,63.204C2277.93,58.482 2283.27,55.697 2288.44,56.263C2293.64,56.834 2297.93,60.725 2298.93,65.968C2308.88,117.693 2313.73,167.203 2314.99,214.084C2315.32,226.175 2317.29,280.466 2306.74,361.486C2306.09,366.535 2303.58,371.22 2299.81,374.418C2297.55,376.346 2294.01,375.956 2292.01,373.614C2290,371.269 2290.21,367.761 2292.48,365.836C2294.16,364.416 2295.47,362.242 2295.79,359.722C2306.55,275.749 2303.94,222.48 2303.7,214.767C2302.27,167.459 2297.24,118.825 2287.77,68.717C2287.66,68.148 2287.16,67.696 2286.6,67.63C2286.04,67.564 2285.41,67.879 2285.12,68.4ZM1953.4,262.561C1952.9,247.907 1952.06,223.023 1954.39,181.69C1954.54,179.035 1957.22,177.029 1960.36,177.316C1963.47,177.6 1965.95,180.038 1965.82,182.677C1964.84,202.628 1964.12,224.895 1965,255.962C1959.04,259.292 1954.33,262.025 1953.4,262.561ZM1909.2,450.264C1911.99,449.527 1914.68,451.284 1915.09,454.192C1915.49,457.082 1913.48,460.083 1910.71,460.844C1891.21,466.196 1873.55,454.712 1870.79,434.736C1865.53,396.656 1861.26,353.908 1859.33,307.406C1857.75,269.508 1857.54,233.87 1860.91,182.986C1862.24,162.918 1878.22,148.081 1898.94,150.963L1898.97,150.967C2011.67,167.157 2121.35,167.98 2122.82,167.95C2127.89,167.848 2146.65,166.765 2148.72,166.645C2159.88,166.001 2169.47,165.334 2171.27,165.209C2174.46,164.987 2177.18,167.002 2177.3,169.605C2177.41,172.217 2174.87,174.567 2171.67,174.763C2167.79,175.002 2135.66,176.98 2123.15,177.178C2121.17,177.209 2010.27,175.956 1898.07,161.52C1883.64,159.732 1872.1,170.108 1871.18,184.055C1867.58,238.522 1868.32,269.179 1869.46,298.708C1871.3,345.957 1875.52,390.457 1881.13,431.724C1883.01,445.609 1895.47,453.888 1909.2,450.264ZM2176.17,124.82C2179.31,124.482 2182.34,123.036 2184.45,120.836C2186.54,118.657 2190.21,118.283 2192.57,120.001C2194.93,121.724 2195.18,124.976 2193.07,127.155C2188.96,131.395 2183.04,134.153 2176.93,134.77C2172.09,135.259 2130.67,139.44 2116.33,139.321C2052.69,138.793 1983.2,133.332 1919.39,122.871C1914.2,122.019 1909.76,117.983 1908.42,112.73C1907.11,107.528 1909.09,102.099 1913.25,99.37C1937.01,83.815 1961.78,67.966 1985.02,50.683C1989.03,47.698 1994.18,46.418 1999.26,47.159C2010.9,48.857 2023.27,50.299 2035.47,51.35C2038.21,51.586 2040.52,54.186 2040.53,57.086C2040.53,60.017 2038.18,62.184 2035.41,61.943C2023.05,60.869 2010.5,59.422 1998.69,57.736C1996.04,57.358 1993.36,58.022 1991.29,59.569C1967.99,76.934 1943.19,92.897 1919.39,108.568C1918.74,108.995 1918.4,109.903 1918.62,110.738C1918.84,111.574 1919.61,112.26 1920.41,112.401C1983.65,123.585 2052.25,129.3 2115.82,129.639C2130.63,129.718 2171.35,125.338 2176.17,124.82Z" style="fill:white;"/>
                            </g>
                        </g>
                    </g>
                </g>
                <g transform="matrix(0.920223,0,0,0.920223,-76.8225,55.6634)">
                    <g transform="matrix(1,0,0,1,-1064.45,213.764)">
                        <path d="M1265.97,59.193C1259.21,68.282 1252.42,71.564 1246.41,71.968C1240.66,72.353 1235.47,70.08 1231.34,67.123C1225.47,62.922 1221.81,57.417 1221.81,57.417C1221.18,56.478 1221.14,55.266 1221.69,54.282C1222.25,53.298 1223.31,52.708 1224.43,52.756L1263.69,54.405C1264.8,54.452 1265.79,55.109 1266.27,56.112C1266.75,57.116 1266.63,58.301 1265.97,59.193ZM1257.27,60.141C1257.27,60.141 1231.04,59.039 1231.04,59.038C1232.13,60.105 1233.4,61.22 1234.83,62.244C1237.91,64.445 1241.73,66.268 1246.01,65.981C1249.57,65.742 1253.35,64.029 1257.27,60.141Z"/>
                    </g>
                    <g transform="matrix(-1,0,0,1,1491.42,213.764)">
                        <path d="M1263.69,54.405L1224.43,52.756C1223.31,52.708 1222.25,53.298 1221.69,54.282C1221.14,55.266 1221.18,56.478 1221.81,57.417C1221.81,57.417 1225.47,62.922 1231.34,67.123C1235.47,70.08 1240.66,72.353 1246.41,71.968C1252.42,71.564 1259.21,68.282 1265.97,59.193C1266.63,58.301 1266.75,57.116 1266.27,56.112C1265.79,55.109 1264.8,54.452 1263.69,54.405ZM1257.27,60.141C1253.35,64.029 1249.57,65.742 1246.01,65.981C1241.73,66.268 1237.91,64.445 1234.83,62.244C1233.4,61.22 1232.13,60.105 1231.04,59.039L1257.27,60.141Z"/>
                    </g>
                    <g transform="matrix(1.31449,0,0,1.31449,-1455.92,194.257)">
                        <ellipse cx="1244.14" cy="61.923" rx="4.164" ry="4.669"/>
                    </g>
                    <g transform="matrix(-1.32572,0,0,1.32572,1896.86,193.614)">
                        <ellipse cx="1244.14" cy="61.923" rx="4.164" ry="4.669"/>
                    </g>
                    <g transform="matrix(-0.999448,-0.0332346,0.0332346,-0.999448,1491.57,413.658)">
                        <path d="M1267.89,80.013C1266.93,79.46 1266.61,78.235 1267.16,77.28C1267.72,76.325 1268.94,75.999 1269.9,76.553C1275.36,79.72 1281.23,79.925 1286.36,79.035C1294.35,77.649 1300.64,73.612 1301.27,73.249C1302.23,72.702 1303.45,73.037 1304,73.996C1304.55,74.955 1304.21,76.177 1303.26,76.724C1302.56,77.118 1295.73,81.471 1287.05,82.976C1281.07,84.013 1274.25,83.7 1267.89,80.013Z"/>
                    </g>
                    <g transform="matrix(0.916241,-0.400627,0.400627,0.916241,-1166.64,278.83)">
                        <path d="M1242.32,509.172C1241.47,507.753 1241.93,505.908 1243.35,505.055C1244.77,504.202 1246.61,504.662 1247.47,506.082L1261.03,528.66C1261.89,530.079 1261.43,531.924 1260.01,532.777C1258.59,533.629 1256.74,533.169 1255.89,531.75L1242.32,509.172Z" style="fill:rgb(16,16,16);"/>
                    </g>
                    <g transform="matrix(-0.204801,0.978804,-0.978804,-0.204801,1003.67,-861.996)">
                        <path d="M1242.32,509.172C1241.47,507.753 1241.93,505.908 1243.35,505.055C1244.77,504.202 1246.61,504.662 1247.47,506.082L1261.03,528.66C1261.89,530.079 1261.43,531.924 1260.01,532.777C1258.59,533.629 1256.74,533.169 1255.89,531.75L1242.32,509.172Z" style="fill:rgb(16,16,16);"/>
                    </g>
                </g>
            </g>
        </g>
    </g>
</svg>
