<?xml version="1.0" encoding="UTF-8" standalone="no"?>
<!DOCTYPE svg PUBLIC "-//W3C//DTD SVG 1.1//EN" "http://www.w3.org/Graphics/SVG/1.1/DTD/svg11.dtd">
<svg width="100%" height="100%" viewBox="0 0 807 54" version="1.1" xmlns="http://www.w3.org/2000/svg" xmlns:xlink="http://www.w3.org/1999/xlink" xml:space="preserve" xmlns:serif="http://www.serif.com/" style="fill-rule:evenodd;clip-rule:evenodd;stroke-linejoin:round;stroke-miterlimit:2;">
    <g transform="matrix(1,0,0,1,-1821.55,-2686.39)">
        <g transform="matrix(1,0,0,0.703946,-0.517776,1653.87)">
            <g transform="matrix(1,0,0,1.42056,0.517776,-2349.43)">
                <path d="M1825.25,2739.09C1824.53,2739.99 1823.22,2740.13 1822.32,2739.41C1821.43,2738.69 1821.29,2737.37 1822.01,2736.48C1822.01,2736.48 1822.98,2735.28 1824.84,2733.24C1825.62,2732.39 1826.94,2732.33 1827.79,2733.11C1828.63,2733.89 1828.69,2735.21 1827.91,2736.05C1826.16,2737.97 1825.25,2739.09 1825.25,2739.09ZM1836.65,2727.36C1835.8,2728.13 1834.49,2728.07 1833.71,2727.23C1832.93,2726.38 1832.99,2725.06 1833.84,2724.28C1835.75,2722.53 1837.88,2720.67 1840.21,2718.74C1841.1,2718.01 1842.41,2718.13 1843.14,2719.02C1843.88,2719.9 1843.75,2721.22 1842.87,2721.95C1840.59,2723.83 1838.51,2725.65 1836.65,2727.36ZM1852.68,2714.46C1851.74,2715.12 1850.44,2714.89 1849.78,2713.95C1849.12,2713.01 1849.35,2711.71 1850.29,2711.05C1852.52,2709.48 1854.87,2707.91 1857.33,2706.37C1858.31,2705.76 1859.6,2706.06 1860.2,2707.03C1860.81,2708.01 1860.52,2709.3 1859.54,2709.91C1857.14,2711.41 1854.86,2712.93 1852.68,2714.46ZM1870.27,2703.82C1869.25,2704.34 1867.99,2703.94 1867.47,2702.91C1866.94,2701.89 1867.35,2700.63 1868.37,2700.11C1870.84,2698.85 1873.4,2697.64 1876.03,2696.49C1877.09,2696.03 1878.31,2696.51 1878.77,2697.57C1879.23,2698.62 1878.75,2699.85 1877.69,2700.31C1875.14,2701.42 1872.66,2702.6 1870.27,2703.82ZM1889.2,2695.96C1888.11,2696.31 1886.93,2695.71 1886.58,2694.61C1886.23,2693.52 1886.83,2692.34 1887.93,2691.99C1890.59,2691.14 1893.31,2690.36 1896.09,2689.68C1897.21,2689.4 1898.34,2690.09 1898.61,2691.2C1898.89,2692.32 1898.2,2693.45 1897.09,2693.72C1894.4,2694.38 1891.77,2695.13 1889.2,2695.96ZM1909.15,2691.45C1908.02,2691.6 1906.97,2690.8 1906.82,2689.66C1906.67,2688.52 1907.48,2687.47 1908.62,2687.32C1911.39,2686.96 1914.21,2686.7 1917.08,2686.55C1918.23,2686.49 1919.21,2687.37 1919.27,2688.52C1919.33,2689.66 1918.45,2690.65 1917.3,2690.71C1914.54,2690.86 1911.82,2691.11 1909.15,2691.45ZM1929.57,2690.77C1928.42,2690.7 1927.55,2689.71 1927.62,2688.56C1927.69,2687.41 1928.68,2686.54 1929.83,2686.61C1932.61,2686.78 1935.43,2687.07 1938.29,2687.47C1939.43,2687.63 1940.22,2688.68 1940.06,2689.82C1939.9,2690.96 1938.85,2691.75 1937.71,2691.6C1934.96,2691.21 1932.25,2690.94 1929.57,2690.77ZM1949.76,2693.97C1948.64,2693.69 1947.97,2692.55 1948.26,2691.44C1948.54,2690.33 1949.67,2689.65 1950.79,2689.94C1953.48,2690.62 1956.19,2691.42 1958.93,2692.32C1960.03,2692.68 1960.62,2693.86 1960.26,2694.95C1959.9,2696.05 1958.72,2696.64 1957.62,2696.28C1954.98,2695.4 1952.35,2694.64 1949.76,2693.97ZM1969.11,2700.72C1968.06,2700.25 1967.58,2699.02 1968.04,2697.97C1968.51,2696.92 1969.74,2696.44 1970.79,2696.91C1973.32,2698.02 1975.86,2699.24 1978.43,2700.56C1979.45,2701.09 1979.85,2702.35 1979.33,2703.37C1978.8,2704.39 1977.54,2704.79 1976.52,2704.27C1974.03,2702.98 1971.56,2701.8 1969.11,2700.72ZM1987.25,2710.37C1986.27,2709.76 1985.97,2708.47 1986.58,2707.5C1987.19,2706.52 1988.48,2706.22 1989.45,2706.83C1991.79,2708.29 1994.14,2709.83 1996.51,2711.47C1997.45,2712.12 1997.69,2713.42 1997.04,2714.37C1996.38,2715.31 1995.08,2715.55 1994.14,2714.89C1991.83,2713.3 1989.53,2711.79 1987.25,2710.37ZM2004.07,2722.28C2003.17,2721.56 2003.02,2720.25 2003.74,2719.35C2004.45,2718.45 2005.76,2718.3 2006.66,2719.01C2008.82,2720.72 2010.98,2722.51 2013.15,2724.39C2014.03,2725.14 2014.12,2726.45 2013.38,2727.32C2012.62,2728.2 2011.31,2728.29 2010.44,2727.54C2008.31,2725.71 2006.18,2723.95 2004.07,2722.28ZM2019.61,2735.89C2018.78,2735.09 2018.75,2733.77 2019.55,2732.94C2020.35,2732.11 2021.66,2732.08 2022.5,2732.88C2023.5,2733.84 2024.5,2734.82 2025.51,2735.82C2026.33,2736.62 2026.33,2737.94 2025.52,2738.76C2024.71,2739.58 2023.39,2739.59 2022.58,2738.78C2021.59,2737.8 2020.6,2736.83 2019.61,2735.89Z" style="fill:rgb(255,253,194);"/>
            </g>
            <g transform="matrix(1,0,0,1.42056,402.075,-2349.43)">
                <path d="M1825.25,2739.09C1824.53,2739.99 1823.22,2740.13 1822.32,2739.41C1821.43,2738.69 1821.29,2737.37 1822.01,2736.48C1822.01,2736.48 1822.98,2735.28 1824.84,2733.24C1825.62,2732.39 1826.94,2732.33 1827.79,2733.11C1828.63,2733.89 1828.69,2735.21 1827.91,2736.05C1826.16,2737.97 1825.25,2739.09 1825.25,2739.09ZM1836.65,2727.36C1835.8,2728.13 1834.49,2728.07 1833.71,2727.23C1832.93,2726.38 1832.99,2725.06 1833.84,2724.28C1835.75,2722.53 1837.88,2720.67 1840.21,2718.74C1841.1,2718.01 1842.41,2718.13 1843.14,2719.02C1843.88,2719.9 1843.75,2721.22 1842.87,2721.95C1840.59,2723.83 1838.51,2725.65 1836.65,2727.36ZM1852.68,2714.46C1851.74,2715.12 1850.44,2714.89 1849.78,2713.95C1849.12,2713.01 1849.35,2711.71 1850.29,2711.05C1852.52,2709.48 1854.87,2707.91 1857.33,2706.37C1858.31,2705.76 1859.6,2706.06 1860.2,2707.03C1860.81,2708.01 1860.52,2709.3 1859.54,2709.91C1857.14,2711.41 1854.86,2712.93 1852.68,2714.46ZM1870.27,2703.82C1869.25,2704.34 1867.99,2703.94 1867.47,2702.91C1866.94,2701.89 1867.35,2700.63 1868.37,2700.11C1870.84,2698.85 1873.4,2697.64 1876.03,2696.49C1877.09,2696.03 1878.31,2696.51 1878.77,2697.57C1879.23,2698.62 1878.75,2699.85 1877.69,2700.31C1875.14,2701.42 1872.66,2702.6 1870.27,2703.82ZM1889.2,2695.96C1888.11,2696.31 1886.93,2695.71 1886.58,2694.61C1886.23,2693.52 1886.83,2692.34 1887.93,2691.99C1890.59,2691.14 1893.31,2690.36 1896.09,2689.68C1897.21,2689.4 1898.34,2690.09 1898.61,2691.2C1898.89,2692.32 1898.2,2693.45 1897.09,2693.72C1894.4,2694.38 1891.77,2695.13 1889.2,2695.96ZM1909.15,2691.45C1908.02,2691.6 1906.97,2690.8 1906.82,2689.66C1906.67,2688.52 1907.48,2687.47 1908.62,2687.32C1911.39,2686.96 1914.21,2686.7 1917.08,2686.55C1918.23,2686.49 1919.21,2687.37 1919.27,2688.52C1919.33,2689.66 1918.45,2690.65 1917.3,2690.71C1914.54,2690.86 1911.82,2691.11 1909.15,2691.45ZM1929.57,2690.77C1928.42,2690.7 1927.55,2689.71 1927.62,2688.56C1927.69,2687.41 1928.68,2686.54 1929.83,2686.61C1932.61,2686.78 1935.43,2687.07 1938.29,2687.47C1939.43,2687.63 1940.22,2688.68 1940.06,2689.82C1939.9,2690.96 1938.85,2691.75 1937.71,2691.6C1934.96,2691.21 1932.25,2690.94 1929.57,2690.77ZM1949.76,2693.97C1948.64,2693.69 1947.97,2692.55 1948.26,2691.44C1948.54,2690.33 1949.67,2689.65 1950.79,2689.94C1953.48,2690.62 1956.19,2691.42 1958.93,2692.32C1960.03,2692.68 1960.62,2693.86 1960.26,2694.95C1959.9,2696.05 1958.72,2696.64 1957.62,2696.28C1954.98,2695.4 1952.35,2694.64 1949.76,2693.97ZM1969.11,2700.72C1968.06,2700.25 1967.58,2699.02 1968.04,2697.97C1968.51,2696.92 1969.74,2696.44 1970.79,2696.91C1973.32,2698.02 1975.86,2699.24 1978.43,2700.56C1979.45,2701.09 1979.85,2702.35 1979.33,2703.37C1978.8,2704.39 1977.54,2704.79 1976.52,2704.27C1974.03,2702.98 1971.56,2701.8 1969.11,2700.72ZM1987.25,2710.37C1986.27,2709.76 1985.97,2708.47 1986.58,2707.5C1987.19,2706.52 1988.48,2706.22 1989.45,2706.83C1991.79,2708.29 1994.14,2709.83 1996.51,2711.47C1997.45,2712.12 1997.69,2713.42 1997.04,2714.37C1996.38,2715.31 1995.08,2715.55 1994.14,2714.89C1991.83,2713.3 1989.53,2711.79 1987.25,2710.37ZM2004.07,2722.28C2003.17,2721.56 2003.02,2720.25 2003.74,2719.35C2004.45,2718.45 2005.76,2718.3 2006.66,2719.01C2008.82,2720.72 2010.98,2722.51 2013.15,2724.39C2014.03,2725.14 2014.12,2726.45 2013.38,2727.32C2012.62,2728.2 2011.31,2728.29 2010.44,2727.54C2008.31,2725.71 2006.18,2723.95 2004.07,2722.28ZM2019.61,2735.89C2018.78,2735.09 2018.75,2733.77 2019.55,2732.94C2020.35,2732.11 2021.66,2732.08 2022.5,2732.88C2023.5,2733.84 2024.5,2734.82 2025.51,2735.82C2026.33,2736.62 2026.33,2737.94 2025.52,2738.76C2024.71,2739.58 2023.39,2739.59 2022.58,2738.78C2021.59,2737.8 2020.6,2736.83 2019.61,2735.89Z" style="fill:rgb(255,253,194);"/>
            </g>
            <g transform="matrix(1,0,0,1.42056,201.372,-2349.43)">
                <path d="M1825.25,2739.09C1824.53,2739.99 1823.22,2740.13 1822.32,2739.41C1821.43,2738.69 1821.29,2737.37 1822.01,2736.48C1822.01,2736.48 1822.98,2735.28 1824.84,2733.24C1825.62,2732.39 1826.94,2732.33 1827.79,2733.11C1828.63,2733.89 1828.69,2735.21 1827.91,2736.05C1826.16,2737.97 1825.25,2739.09 1825.25,2739.09ZM1836.65,2727.36C1835.8,2728.13 1834.49,2728.07 1833.71,2727.23C1832.93,2726.38 1832.99,2725.06 1833.84,2724.28C1835.75,2722.53 1837.88,2720.67 1840.21,2718.74C1841.1,2718.01 1842.41,2718.13 1843.14,2719.02C1843.88,2719.9 1843.75,2721.22 1842.87,2721.95C1840.59,2723.83 1838.51,2725.65 1836.65,2727.36ZM1852.68,2714.46C1851.74,2715.12 1850.44,2714.89 1849.78,2713.95C1849.12,2713.01 1849.35,2711.71 1850.29,2711.05C1852.52,2709.48 1854.87,2707.91 1857.33,2706.37C1858.31,2705.76 1859.6,2706.06 1860.2,2707.03C1860.81,2708.01 1860.52,2709.3 1859.54,2709.91C1857.14,2711.41 1854.86,2712.93 1852.68,2714.46ZM1870.27,2703.82C1869.25,2704.34 1867.99,2703.94 1867.47,2702.91C1866.94,2701.89 1867.35,2700.63 1868.37,2700.11C1870.84,2698.85 1873.4,2697.64 1876.03,2696.49C1877.09,2696.03 1878.31,2696.51 1878.77,2697.57C1879.23,2698.62 1878.75,2699.85 1877.69,2700.31C1875.14,2701.42 1872.66,2702.6 1870.27,2703.82ZM1889.2,2695.96C1888.11,2696.31 1886.93,2695.71 1886.58,2694.61C1886.23,2693.52 1886.83,2692.34 1887.93,2691.99C1890.59,2691.14 1893.31,2690.36 1896.09,2689.68C1897.21,2689.4 1898.34,2690.09 1898.61,2691.2C1898.89,2692.32 1898.2,2693.45 1897.09,2693.72C1894.4,2694.38 1891.77,2695.13 1889.2,2695.96ZM1909.15,2691.45C1908.02,2691.6 1906.97,2690.8 1906.82,2689.66C1906.67,2688.52 1907.48,2687.47 1908.62,2687.32C1911.39,2686.96 1914.21,2686.7 1917.08,2686.55C1918.23,2686.49 1919.21,2687.37 1919.27,2688.52C1919.33,2689.66 1918.45,2690.65 1917.3,2690.71C1914.54,2690.86 1911.82,2691.11 1909.15,2691.45ZM1929.57,2690.77C1928.42,2690.7 1927.55,2689.71 1927.62,2688.56C1927.69,2687.41 1928.68,2686.54 1929.83,2686.61C1932.61,2686.78 1935.43,2687.07 1938.29,2687.47C1939.43,2687.63 1940.22,2688.68 1940.06,2689.82C1939.9,2690.96 1938.85,2691.75 1937.71,2691.6C1934.96,2691.21 1932.25,2690.94 1929.57,2690.77ZM1949.76,2693.97C1948.64,2693.69 1947.97,2692.55 1948.26,2691.44C1948.54,2690.33 1949.67,2689.65 1950.79,2689.94C1953.48,2690.62 1956.19,2691.42 1958.93,2692.32C1960.03,2692.68 1960.62,2693.86 1960.26,2694.95C1959.9,2696.05 1958.72,2696.64 1957.62,2696.28C1954.98,2695.4 1952.35,2694.64 1949.76,2693.97ZM1969.11,2700.72C1968.06,2700.25 1967.58,2699.02 1968.04,2697.97C1968.51,2696.92 1969.74,2696.44 1970.79,2696.91C1973.32,2698.02 1975.86,2699.24 1978.43,2700.56C1979.45,2701.09 1979.85,2702.35 1979.33,2703.37C1978.8,2704.39 1977.54,2704.79 1976.52,2704.27C1974.03,2702.98 1971.56,2701.8 1969.11,2700.72ZM1987.25,2710.37C1986.27,2709.76 1985.97,2708.47 1986.58,2707.5C1987.19,2706.52 1988.48,2706.22 1989.45,2706.83C1991.79,2708.29 1994.14,2709.83 1996.51,2711.47C1997.45,2712.12 1997.69,2713.42 1997.04,2714.37C1996.38,2715.31 1995.08,2715.55 1994.14,2714.89C1991.83,2713.3 1989.53,2711.79 1987.25,2710.37ZM2004.07,2722.28C2003.17,2721.56 2003.02,2720.25 2003.74,2719.35C2004.45,2718.45 2005.76,2718.3 2006.66,2719.01C2008.82,2720.72 2010.98,2722.51 2013.15,2724.39C2014.03,2725.14 2014.12,2726.45 2013.38,2727.32C2012.62,2728.2 2011.31,2728.29 2010.44,2727.54C2008.31,2725.71 2006.18,2723.95 2004.07,2722.28ZM2019.61,2735.89C2018.78,2735.09 2018.75,2733.77 2019.55,2732.94C2020.35,2732.11 2021.66,2732.08 2022.5,2732.88C2023.5,2733.84 2024.5,2734.82 2025.51,2735.82C2026.33,2736.62 2026.33,2737.94 2025.52,2738.76C2024.71,2739.58 2023.39,2739.59 2022.58,2738.78C2021.59,2737.8 2020.6,2736.83 2019.61,2735.89Z" style="fill:rgb(255,253,194);"/>
            </g>
            <g transform="matrix(1,0,0,1.42056,602.93,-2349.43)">
                <path d="M1825.25,2739.09C1824.53,2739.99 1823.22,2740.13 1822.32,2739.41C1821.43,2738.69 1821.29,2737.37 1822.01,2736.48C1822.01,2736.48 1822.98,2735.28 1824.84,2733.24C1825.62,2732.39 1826.94,2732.33 1827.79,2733.11C1828.63,2733.89 1828.69,2735.21 1827.91,2736.05C1826.16,2737.97 1825.25,2739.09 1825.25,2739.09ZM1836.65,2727.36C1835.8,2728.13 1834.49,2728.07 1833.71,2727.23C1832.93,2726.38 1832.99,2725.06 1833.84,2724.28C1835.75,2722.53 1837.88,2720.67 1840.21,2718.74C1841.1,2718.01 1842.41,2718.13 1843.14,2719.02C1843.88,2719.9 1843.75,2721.22 1842.87,2721.95C1840.59,2723.83 1838.51,2725.65 1836.65,2727.36ZM1852.68,2714.46C1851.74,2715.12 1850.44,2714.89 1849.78,2713.95C1849.12,2713.01 1849.35,2711.71 1850.29,2711.05C1852.52,2709.48 1854.87,2707.91 1857.33,2706.37C1858.31,2705.76 1859.6,2706.06 1860.2,2707.03C1860.81,2708.01 1860.52,2709.3 1859.54,2709.91C1857.14,2711.41 1854.86,2712.93 1852.68,2714.46ZM1870.27,2703.82C1869.25,2704.34 1867.99,2703.94 1867.47,2702.91C1866.94,2701.89 1867.35,2700.63 1868.37,2700.11C1870.84,2698.85 1873.4,2697.64 1876.03,2696.49C1877.09,2696.03 1878.31,2696.51 1878.77,2697.57C1879.23,2698.62 1878.75,2699.85 1877.69,2700.31C1875.14,2701.42 1872.66,2702.6 1870.27,2703.82ZM1889.2,2695.96C1888.11,2696.31 1886.93,2695.71 1886.58,2694.61C1886.23,2693.52 1886.83,2692.34 1887.93,2691.99C1890.59,2691.14 1893.31,2690.36 1896.09,2689.68C1897.21,2689.4 1898.34,2690.09 1898.61,2691.2C1898.89,2692.32 1898.2,2693.45 1897.09,2693.72C1894.4,2694.38 1891.77,2695.13 1889.2,2695.96ZM1909.15,2691.45C1908.02,2691.6 1906.97,2690.8 1906.82,2689.66C1906.67,2688.52 1907.48,2687.47 1908.62,2687.32C1911.39,2686.96 1914.21,2686.7 1917.08,2686.55C1918.23,2686.49 1919.21,2687.37 1919.27,2688.52C1919.33,2689.66 1918.45,2690.65 1917.3,2690.71C1914.54,2690.86 1911.82,2691.11 1909.15,2691.45ZM1929.57,2690.77C1928.42,2690.7 1927.55,2689.71 1927.62,2688.56C1927.69,2687.41 1928.68,2686.54 1929.83,2686.61C1932.61,2686.78 1935.43,2687.07 1938.29,2687.47C1939.43,2687.63 1940.22,2688.68 1940.06,2689.82C1939.9,2690.96 1938.85,2691.75 1937.71,2691.6C1934.96,2691.21 1932.25,2690.94 1929.57,2690.77ZM1949.76,2693.97C1948.64,2693.69 1947.97,2692.55 1948.26,2691.44C1948.54,2690.33 1949.67,2689.65 1950.79,2689.94C1953.48,2690.62 1956.19,2691.42 1958.93,2692.32C1960.03,2692.68 1960.62,2693.86 1960.26,2694.95C1959.9,2696.05 1958.72,2696.64 1957.62,2696.28C1954.98,2695.4 1952.35,2694.64 1949.76,2693.97ZM1969.11,2700.72C1968.06,2700.25 1967.58,2699.02 1968.04,2697.97C1968.51,2696.92 1969.74,2696.44 1970.79,2696.91C1973.32,2698.02 1975.86,2699.24 1978.43,2700.56C1979.45,2701.09 1979.85,2702.35 1979.33,2703.37C1978.8,2704.39 1977.54,2704.79 1976.52,2704.27C1974.03,2702.98 1971.56,2701.8 1969.11,2700.72ZM1987.25,2710.37C1986.27,2709.76 1985.97,2708.47 1986.58,2707.5C1987.19,2706.52 1988.48,2706.22 1989.45,2706.83C1991.79,2708.29 1994.14,2709.83 1996.51,2711.47C1997.45,2712.12 1997.69,2713.42 1997.04,2714.37C1996.38,2715.31 1995.08,2715.55 1994.14,2714.89C1991.83,2713.3 1989.53,2711.79 1987.25,2710.37ZM2004.07,2722.28C2003.17,2721.56 2003.02,2720.25 2003.74,2719.35C2004.45,2718.45 2005.76,2718.3 2006.66,2719.01C2008.82,2720.72 2010.98,2722.51 2013.15,2724.39C2014.03,2725.14 2014.12,2726.45 2013.38,2727.32C2012.62,2728.2 2011.31,2728.29 2010.44,2727.54C2008.31,2725.71 2006.18,2723.95 2004.07,2722.28ZM2019.61,2735.89C2018.78,2735.09 2018.75,2733.77 2019.55,2732.94C2020.35,2732.11 2021.66,2732.08 2022.5,2732.88C2023.5,2733.84 2024.5,2734.82 2025.51,2735.82C2026.33,2736.62 2026.33,2737.94 2025.52,2738.76C2024.71,2739.58 2023.39,2739.59 2022.58,2738.78C2021.59,2737.8 2020.6,2736.83 2019.61,2735.89Z" style="fill:rgb(255,253,194);"/>
            </g>
        </g>
    </g>
</svg>
