<?xml version="1.0" encoding="UTF-8" standalone="no"?>
<!DOCTYPE svg PUBLIC "-//W3C//DTD SVG 1.1//EN" "http://www.w3.org/Graphics/SVG/1.1/DTD/svg11.dtd">
<svg width="100%" height="100%" viewBox="0 0 217 205" version="1.1" xmlns="http://www.w3.org/2000/svg" xmlns:xlink="http://www.w3.org/1999/xlink" xml:space="preserve" xmlns:serif="http://www.serif.com/" style="fill-rule:evenodd;clip-rule:evenodd;stroke-linejoin:round;stroke-miterlimit:2;">
    <g transform="matrix(1,0,0,1,-624.299,-782.17)">
        <g transform="matrix(1,0,0,1.13277,0,0)">
            <g transform="matrix(1,0,0,0.882792,-1.09813,-5.5838)">
                <g transform="matrix(1.56719,0,0,1.56719,-631.126,-125.753)">
                    <g>
                        <g>
                            <g>
                                <g transform="matrix(0.764924,0,0,0.764924,767.364,440.041)">
                                    <path d="M189.67,349.882L188.796,350.018C184.621,350.526 179.37,349.559 178.564,349.411C144.492,343.14 103.12,338.994 64.9,353.148C60.598,354.741 57.356,354.21 55.338,352.818C53.208,351.349 51.653,348.409 51.832,343.997C54.309,283.092 45.182,246.317 45.152,246.177C44.41,242.732 46.979,236.792 47.308,236.03L47.819,234.888C48.337,233.853 48.854,232.819 49.372,231.784C55.475,219.163 74.312,198.046 84.642,189.744C85.537,189.025 86.94,188.382 88.621,188.106C104.59,185.494 180.395,179.803 217.066,192.983C219.531,193.869 220.896,195.879 221.129,196.223C221.358,196.56 222.759,198.623 222.606,201.097C218.506,267.715 215.15,311.975 220.768,347.121C220.874,347.79 220.129,348.721 218.959,348.642C209.1,347.974 198.417,348.635 189.67,349.882ZM57.463,332.723C57.448,333.538 57.911,333.864 57.997,333.924C58.545,334.31 59.239,334.083 59.341,334.05L59.342,334.049C59.471,334.007 60.138,333.789 60.709,333.043C61.281,332.296 61.292,331.626 61.294,331.493C61.355,327.504 62.08,288.973 56.343,248.675C55.787,244.767 59.31,239.045 64.379,237.134C99.006,224.233 135.979,226.799 162.477,235.876C163.467,236.216 164.542,235.32 164.524,234.285C164.505,233.234 163.349,231.594 162.382,231.283C135.865,222.763 98.458,220.571 63.893,233.836L63.884,233.839C56.667,236.639 51.678,244.901 52.489,250.385C58.368,290.139 57.545,328.29 57.463,332.723ZM194.981,341.217C191.515,341.978 189.016,342.544 188.498,342.662C187.989,342.785 187.273,342.431 187.176,342.383C187.09,342.341 186.362,341.982 186.3,341.563C182.027,312.752 182.201,285.92 182.319,239.092C182.325,236.691 183.215,235.086 184.186,234.278C185.285,233.364 191.085,228.541 198.231,223.229C198.659,222.911 199.119,221.087 198.074,219.554C197.043,218.041 195.283,217.93 194.845,218.265C187.726,223.712 181.994,228.615 180.903,229.548C179.327,230.897 178.023,233.388 178.036,237.037C178.192,281.597 177.937,310.251 182.1,340.185C182.368,342.113 185.608,343.606 185.993,343.784C186.432,343.986 189.577,345.435 191.915,344.974C192.437,344.878 195.013,344.409 198.449,343.814C198.745,343.768 199.124,343.174 197.992,342.31C197.056,341.596 195.458,341.12 194.981,341.217ZM209.869,214.959C209.985,214.88 208.542,251.97 208.159,273.022C207.568,305.405 208.503,322.991 210.676,338.027C210.787,338.861 209.986,338.939 209.889,338.948C209.635,338.972 209.136,339.621 210.36,340.728C211.315,341.592 213.014,342.283 213.491,342.261C215.137,342.187 215.231,341.101 215.154,340.562C211.113,312.548 212.72,276.866 215.676,218.853C215.795,216.514 214.07,216.049 213.261,215.903C210.959,215.486 207.262,216.732 209.869,214.959ZM164.608,214.21C140.231,208.347 102.057,206.399 68.309,218.823C68.249,218.845 67.777,219.019 67.516,218.703C67.256,218.387 67.563,218.009 67.601,217.963C74.098,209.965 82.653,200.527 90.151,194.129C91.234,193.205 92.678,192.971 92.915,192.932C97.163,192.244 102.487,191.573 107.721,191.114C108.8,191.019 109.611,190.042 109.548,189.741C109.476,189.395 108.255,188.666 107.223,188.754C101.947,189.2 96.61,189.847 92.376,190.507C91.914,190.579 89.089,191.021 87.006,192.79C79.542,199.132 71.002,208.649 64.528,216.736C64.301,217.02 62.433,219.353 64.029,221.246C65.238,222.681 67.335,222.504 68.853,221.956C102.256,209.901 139.693,211.809 164.755,218.468C166.861,219.028 165.829,214.503 164.608,214.21ZM86.168,245.816C86.353,246.991 87.379,247.291 87.536,247.337C88.723,247.683 89.552,246.959 89.685,246.843L90.198,246.397C89.802,242.82 89.407,239.243 89.012,235.666C88.941,234.886 87.844,233.992 86.882,234.164C85.938,234.333 85.027,235.563 85.102,236.344C85.457,239.501 85.813,242.659 86.168,245.816Z" style="fill:rgb(107,113,255);"/>
                                </g>
                                <g transform="matrix(0.307203,0,0,0.307203,-350.577,573.466)">
                                    <path d="M4124.6,415.296C4125.83,415.044 4129.78,416.254 4132.09,418.017C4134.67,419.981 4134.31,421.595 4133.23,421.763C4128.4,422.52 4122.56,423.545 4116.96,424.649C4114.05,425.223 4107.61,424.172 4102.22,421.687C4095.76,418.713 4092.82,414.855 4092.52,412.726C4082.41,340.027 4082.77,260.827 4082.41,155.892C4082.37,146.431 4085.96,140.312 4089.55,137.244C4101.01,127.438 4113.59,117.315 4124.26,109.15C4125.88,107.911 4129.88,108.812 4132.3,112.359C4134.72,115.906 4134.32,120.297 4132.69,121.51C4121.94,129.499 4109.27,139.416 4097.72,149.022C4095.17,151.139 4093.09,155.117 4093.07,161.007C4092.8,267.458 4092.58,346 4102.98,416.158C4103.14,417.199 4104.95,418.094 4105.16,418.2C4105.4,418.319 4107.19,419.198 4108.45,418.892C4113.36,417.706 4119.25,416.382 4124.6,415.296ZM4048.97,99.051C4052.02,99.784 4054.67,111.073 4049.34,109.655C3921.57,75.703 3820,114.927 3810.54,118.34C3805.29,120.234 3800.42,118.816 3798.53,116.573C3796.67,114.36 3796.26,109.738 3799.77,105.343C3805.95,97.632 3829.78,67.779 3855.74,45.718C3859.14,42.835 3863.92,40.845 3869.11,40.034C3880.45,38.264 3893.45,36.735 3906.08,35.667C3909.28,35.396 3911.65,37.076 3911.87,38.125C3912.13,39.353 3910.15,41.296 3907.32,41.544C3894.69,42.651 3881.72,44.247 3870.46,46.072C3869.87,46.168 3866.27,46.75 3863.58,49.051C3837.36,71.423 3813.25,101.227 3807.43,108.396C3807.33,108.511 3806.57,109.454 3807.22,110.24C3807.86,111.026 3809.04,110.594 3809.19,110.538C3879.78,84.548 3966.29,79.166 4048.97,99.051ZM3862.41,180.309C3861.12,181.435 3859.19,182.162 3857.06,181.538C3855.67,181.13 3854.01,180.001 3853.66,177.751C3852.11,165.948 3852.14,165.968 3851,154.165C3850.82,152.232 3853.02,149.169 3855.43,148.738C3857.61,148.35 3860.52,150.126 3860.74,152.478C3861.53,161.147 3863.63,178.618 3863.69,179.197L3862.41,180.309ZM3786.86,397.449C3786.6,397.533 3784.88,398.097 3783.51,397.137C3782.14,396.174 3782.18,394.407 3782.18,394.145C3783.29,334.121 3780.36,260.581 3769.8,189.128C3767.61,174.311 3780.42,154.814 3798.17,147.928L3798.19,147.919C3808.24,144.063 3915.21,100.365 4043.43,141.564C4045.79,142.321 4048.71,146.015 4048.76,149.039C4048.81,152.039 4046.43,153.95 4043.66,153.001C3917.75,109.862 3810.89,151.853 3799.4,156.133C3787.42,160.651 3777.89,174.294 3779.39,184.868C3789.72,257.389 3792.62,331.989 3791.72,391.084C3791.69,393.082 3790.47,394.68 3790.26,394.942C3790.06,395.21 3788.84,396.801 3786.86,397.448L3786.86,397.449ZM4161.42,111.616C4161.47,107.689 4163.24,105.67 4164.87,104.865C4167.44,103.59 4170.62,104.595 4172.91,106.029C4173.29,106.267 4176.25,108.127 4176.13,110.612L4176.13,110.612C4170.03,230.291 4164.02,338.775 4174.83,413.665C4175.41,417.682 4171.16,417.874 4170.69,417.895C4169.45,417.951 4165.26,416.217 4162.89,414.078C4160.19,411.633 4160.56,409.757 4161.72,409.646C4163.54,409.47 4163.79,408.213 4163.68,407.353C4152.41,329.369 4158.09,222.71 4161.42,111.616Z" style="fill:white;"/>
                                </g>
                            </g>
                        </g>
                    </g>
                </g>
            </g>
            <g transform="matrix(0.840968,0,0,0.824805,-15.734,174.178)">
                <g transform="matrix(1,0,0,1,0,3.70335)">
                    <g>
                        <g transform="matrix(1,0,0,1.15374,28.3256,-151.366)">
                            <path d="M876.364,845.696C876.382,845.722 869.772,845.011 869.772,845.011C861.074,828.527 879.271,829.584 878.173,812.688C877.526,802.723 870.913,800.705 866.95,793.758C866.479,792.932 866.045,792.037 865.664,791.051C866.082,790.893 866.477,790.671 866.83,790.386C866.83,790.386 887.381,773.558 904.389,790.143C905.28,791.011 906.548,791.419 907.79,791.346C908.254,792.49 908.787,793.51 909.367,794.441C913.36,800.85 919.558,803.058 920.183,812.688C921.281,829.584 902.486,833.575 913.388,849.433L908.499,848.769C903.574,840.993 903.717,837.382 907.392,831.375C908.914,828.888 910.786,826.52 912.452,824.001C914.543,820.838 916.317,817.406 916.023,812.891C915.66,807.3 912.968,804.711 910.29,801.855C908.326,799.761 906.354,797.561 904.797,794.575C903.483,794.186 902.263,793.505 901.275,792.542C889.048,780.619 874.647,789.422 870.722,792.23C872.317,795.018 874.421,796.899 876.271,798.94C879.313,802.296 881.908,805.933 882.333,812.485C882.85,820.44 878.89,825.955 875.051,831.342C872.838,834.448 872.806,840.633 876.364,845.696Z"/>
                        </g>
                        <g transform="matrix(1,0,0,1.15374,-68.3257,-151.366)">
                            <path d="M874.456,850.837L870.146,851.504C856.149,830.607 879.271,829.584 878.173,812.688C877.532,802.811 871.03,800.742 867.056,793.941C866.56,793.093 866.104,792.172 865.703,791.153C866.232,790.993 866.732,790.738 867.168,790.386C867.168,790.386 887.719,773.558 904.728,790.143C905.539,790.933 906.661,791.342 907.794,791.354C908.274,792.539 908.83,793.59 909.435,794.548C913.43,800.875 919.561,803.111 920.183,812.688C921.281,829.584 902.908,832.88 909.9,845.832L904.644,845.848C898.553,835.561 910.511,827.338 912.177,824.819C914.268,821.656 916.317,817.406 916.023,812.891C915.66,807.302 912.969,804.713 910.293,801.859C908.3,799.733 906.297,797.499 904.73,794.445C903.571,794.041 902.499,793.406 901.614,792.542C889.124,780.363 874.365,789.81 870.822,792.403C872.413,795.111 874.482,796.963 876.302,798.974C879.33,802.32 881.909,805.955 882.333,812.485C882.85,820.44 878.89,825.955 875.051,831.342C872.838,834.448 870.025,836.124 869.708,839.958C869.416,843.48 870.532,845.45 874.456,850.837Z"/>
                        </g>
                        <g transform="matrix(1,0,0,1,13.2663,-15.4573)">
                            <path d="M784.111,780.879C782.598,781.407 780.848,781.032 779.687,779.785C778.12,778.101 778.214,775.463 779.897,773.896C779.897,773.896 780.825,773.042 782.478,771.811C789.106,766.873 807.408,755.859 824.411,769.442C826.079,770.774 827.734,772.343 829.364,774.177C830.892,775.896 830.737,778.532 829.018,780.06C828.211,780.777 827.203,781.123 826.202,781.111C825.069,781.097 823.947,780.626 823.136,779.713C806.127,760.579 785.576,779.995 785.576,779.995C785.14,780.401 784.64,780.695 784.111,780.879Z"/>
                        </g>
                        <g transform="matrix(1,0,0,1,33.6362,-15.4573)">
                            <path d="M860.353,780.762C858.777,781.453 856.869,781.115 855.63,779.785C854.063,778.101 854.157,775.463 855.84,773.896C855.84,773.896 856.89,772.93 858.746,771.57C865.679,766.494 883.867,755.933 900.696,769.719C902.248,770.99 903.788,772.468 905.307,774.177C906.835,775.896 906.68,778.532 904.961,780.06C904.244,780.697 903.368,781.041 902.48,781.102C901.237,781.186 899.969,780.716 899.079,779.713C882.07,760.579 861.519,779.995 861.519,779.995C861.166,780.323 860.771,780.579 860.353,780.762Z"/>
                        </g>
                    </g>
                    <g transform="matrix(1.42428,-0.352793,0.346964,1.32889,-1070.51,831.891)">
                        <path d="M1249.53,262.097C1249.53,262.097 1280.62,258.625 1279.45,247.18C1278.29,235.734 1254.72,254.123 1249.53,262.097Z"/>
                    </g>
                    <g transform="matrix(-1.26236,-0.0378059,-0.0559205,1.35315,2523.77,427.842)">
                        <path d="M1249.53,262.097C1249.53,262.097 1280.62,258.625 1279.45,247.18C1278.29,235.734 1254.72,254.123 1249.53,262.097Z"/>
                    </g>
                </g>
                <path d="M856.585,806.354C856.5,805.597 856.835,804.821 857.515,804.376C857.515,804.376 862.28,801.252 868.582,799.735C875.137,798.157 883.267,798.332 889.653,804.986C889.878,805.22 891.135,806.91 891.104,807.678C891.054,808.934 882.686,813.255 872.679,812.199C861.534,811.024 856.523,807.759 856.574,806.504C856.576,806.453 856.58,806.404 856.585,806.354ZM884.881,805.344C880.425,802.767 873.734,802.78 869.558,803.786C868.607,804.015 864.645,804.792 863.788,805.082C863.788,805.082 867.354,808.622 874.493,808.615C880.85,808.609 884.881,805.344 884.881,805.344Z"/>
            </g>
        </g>
    </g>
</svg>
