<?xml version="1.0" encoding="UTF-8" standalone="no"?>
<!DOCTYPE svg PUBLIC "-//W3C//DTD SVG 1.1//EN" "http://www.w3.org/Graphics/SVG/1.1/DTD/svg11.dtd">
<svg width="100%" height="100%" viewBox="0 0 1060 521" version="1.1" xmlns="http://www.w3.org/2000/svg" xmlns:xlink="http://www.w3.org/1999/xlink" xml:space="preserve" xmlns:serif="http://www.serif.com/" style="fill-rule:evenodd;clip-rule:evenodd;stroke-linejoin:round;stroke-miterlimit:2;">
    <g transform="matrix(1,0,0,1,-39.208,-4281.86)">
        <g transform="matrix(1.05478,0,0,1.07066,24.7454,596.027)">
            <g transform="matrix(29.1172,0,0,28.6854,-25920.6,-16831.1)">
                <path d="M919.091,716.047C919.091,716.225 919.02,716.396 918.894,716.522C918.768,716.648 918.597,716.719 918.419,716.719L914.277,716.719C914.052,716.719 913.835,716.629 913.676,716.47C913.516,716.31 913.427,716.094 913.427,715.868L913.427,715.063C913.427,714.391 913.771,714.055 914.459,714.055L919.667,714.055C920.163,714.055 920.411,713.807 920.411,713.311C920.411,713.087 920.339,712.911 920.195,712.783C920.067,712.639 919.891,712.567 919.667,712.567L915.563,712.567C913.959,712.567 912.659,711.267 912.659,709.663L912.659,709.663C912.659,708.893 912.965,708.154 913.509,707.609C914.054,707.065 914.792,706.759 915.563,706.759L921.059,706.759C922.227,706.759 923.203,707.159 923.987,707.959C924.787,708.743 925.187,709.719 925.187,710.887L925.187,711.223C925.187,712.391 924.787,713.375 923.987,714.175C923.203,714.959 922.227,715.351 921.059,715.351L919.835,715.351C919.547,715.351 919.347,715.399 919.235,715.495C919.139,715.591 919.091,715.775 919.091,716.047L919.091,716.047ZM914.553,716.212L914.374,716.212C914.131,716.212 913.933,716.015 913.933,715.771L913.933,715.063C913.933,714.892 913.951,714.755 914.039,714.669C914.13,714.58 914.275,714.562 914.459,714.562L919.667,714.562C920.078,714.562 920.377,714.433 920.583,714.227C920.789,714.022 920.917,713.722 920.917,713.311C920.917,712.936 920.789,712.644 920.555,712.425C920.554,712.424 920.553,712.423 920.552,712.422C920.334,712.189 920.042,712.06 919.667,712.06L915.563,712.06C914.927,712.06 914.317,711.808 913.868,711.358C913.418,710.908 913.165,710.299 913.165,709.663C913.165,708.339 914.239,707.266 915.563,707.266L920.616,707.266C920.636,707.266 920.655,707.258 920.669,707.244C920.684,707.229 920.692,707.21 920.692,707.19C920.692,707.17 920.684,707.151 920.669,707.137C920.655,707.123 920.636,707.115 920.616,707.115L915.563,707.115C914.155,707.115 913.015,708.256 913.015,709.663C913.015,710.339 913.283,710.987 913.761,711.465C914.239,711.942 914.887,712.211 915.563,712.211L919.667,712.211C919.996,712.211 920.253,712.322 920.445,712.529C920.446,712.53 920.447,712.531 920.449,712.533C920.655,712.724 920.767,712.982 920.767,713.311C920.767,713.674 920.658,713.939 920.476,714.121C920.295,714.302 920.029,714.411 919.667,714.411L914.459,714.411C914.228,714.411 914.049,714.449 913.933,714.562C913.821,714.672 913.783,714.843 913.783,715.063L913.783,715.771C913.783,716.098 914.048,716.363 914.374,716.363L914.553,716.363C914.594,716.363 914.628,716.329 914.628,716.287C914.628,716.246 914.594,716.212 914.553,716.212Z"/>
            </g>
        </g>
        <g transform="matrix(1.05478,0,0,1.07066,24.7454,596.027)">
            <g transform="matrix(2.07518,0,0,2.04441,105.217,2026.28)">
                <g id="blank">
                    <path d="M335.543,927.876L335.154,928.384C333.304,930.555 330.769,930.553 330.347,930.553L273.683,930.508C270.747,930.506 269.53,928.631 269.316,928.303C269.084,927.945 267.905,926.129 268.717,923.003C270.249,917.092 275.848,895.742 271.442,864.707C271.388,864.33 271.06,862.014 272.367,860.027L272.599,859.7L273.31,858.942C274.547,857.516 284.216,846.372 289.08,841.391C290.579,839.857 292.574,839.866 292.903,839.867L346.723,840.092C348.59,840.1 349.441,841.224 349.594,841.426C349.751,841.634 350.588,842.74 350.176,844.624C349.092,849.585 343.571,874.863 347.522,908.041C347.567,908.417 347.839,910.706 346.462,912.664C340.099,921.711 340.376,921.706 335.543,927.876ZM311.224,903.286C308.776,903.286 306.788,905.792 306.788,908.878C306.788,911.965 308.776,914.471 311.224,914.471C313.672,914.471 315.66,911.965 315.66,908.878C315.66,905.792 313.672,903.286 311.224,903.286ZM277.744,924.302C275.763,924.298 273.761,921.776 274.313,919.28C275.134,915.572 279.163,897.37 276.686,871.872C276.456,869.505 278.59,867.093 280.421,867.1L323.862,867.522C323.973,867.523 324.791,867.529 324.81,866.516C324.828,865.503 324.007,865.497 323.897,865.496L280.192,865.083L280.188,865.083C277.082,865.071 274.504,868.147 274.873,871.866C277.588,899.246 272.607,918.242 272.372,919.276C271.485,923.188 273.841,926.418 277.232,926.424C278.215,926.425 278.436,925.491 278.465,925.364C278.716,924.304 277.847,924.302 277.744,924.302ZM290.395,903.286C287.947,903.286 285.959,905.792 285.959,908.878C285.959,911.965 287.947,914.471 290.395,914.471C292.843,914.471 294.831,911.965 294.831,908.878C294.831,905.792 292.843,903.286 290.395,903.286ZM337.52,915.061L334.847,919.089C334.63,919.405 334.319,919.276 334.274,919.258C334.231,919.24 333.917,919.11 333.889,918.692C331.506,883.961 332.219,869.432 332.371,865.412C332.379,865.204 332.421,864.084 333.224,863.084C336.369,859.166 338.826,856.389 339.325,855.826C339.651,855.457 339.659,854.695 339.385,854.403C339.104,854.104 338.404,854.141 338.082,854.503C337.581,855.067 335.148,857.805 331.946,861.757C330.678,863.322 330.622,865.077 330.612,865.404C330.442,870.76 329.967,882.484 332.043,918.685C332.15,920.558 333.573,921.138 333.766,921.217C333.969,921.299 335.391,921.879 336.35,920.459L338.999,916.429C339.208,916.102 339.135,915.307 338.759,914.959C338.394,914.621 337.739,914.722 337.52,915.061ZM325.329,857.3L282.138,857.191C281.892,857.19 281.782,856.967 281.768,856.938C281.752,856.906 281.643,856.686 281.8,856.506C282.62,855.566 287.725,849.716 292.365,844.943C292.897,844.396 293.577,844.4 293.696,844.4L300.697,844.442C301.078,844.444 301.65,843.978 301.628,843.449C301.606,842.921 300.992,842.448 300.602,842.446L293.51,842.407C293.277,842.406 291.933,842.399 290.899,843.461C286.266,848.223 281.162,854.075 280.343,855.015C279.392,856.106 280.066,857.457 280.163,857.652C280.252,857.831 280.932,859.193 282.415,859.197L325.26,859.317C325.506,859.318 326.819,859.32 327.984,858.148C328.308,857.822 328.352,857.056 328.072,856.722C327.793,856.389 327.087,856.366 326.757,856.694C326.145,857.301 325.458,857.3 325.329,857.3ZM281.456,919.136L281.436,919.136C281.184,919.135 281.148,918.899 281.144,918.87C281.138,918.832 281.104,918.605 281.326,918.416L280.368,916.848C279.011,918.009 279.206,919.39 279.238,919.622C279.263,919.796 279.467,921.243 281.023,921.246L281.042,921.246L281.063,921.247L304.699,921.31L323.508,921.365C323.9,921.365 324.501,920.88 324.484,920.318C324.466,919.759 323.839,919.27 323.444,919.27L304.777,919.211L304.776,919.211L281.475,919.136L281.456,919.136ZM344.52,850.216L344.795,850.145C344.811,850.152 344.94,850.207 344.912,850.383C341.184,873.809 342.691,895.827 343.444,904.805C343.453,904.907 343.504,905.515 343.175,906.04C342.97,906.365 343.045,907.155 343.423,907.501C343.793,907.839 344.455,907.734 344.668,907.399C344.771,907.237 345.361,906.311 345.228,904.814C344.437,895.917 342.846,873.937 346.809,850.387C347.075,848.807 345.914,848.318 345.773,848.258C345.58,848.177 344.454,847.703 343.292,848.898C342.925,849.276 342.908,850.035 343.172,850.319C343.444,850.61 344.162,850.586 344.52,850.216ZM292.247,895.448C292.189,888.032 292.039,881.391 291.405,870.081C291.388,869.776 291.012,869.062 290.487,869.05C289.953,869.037 289.671,869.749 289.689,870.042C290.409,881.714 290.545,888.821 290.591,895.405L292.247,895.448Z"/>
                </g>
            </g>
        </g>
        <g transform="matrix(1.05478,0,0,1.07066,24.7454,596.027)">
            <g transform="matrix(14.1683,0,0,13.86,-770.972,3044.68)">
                <path d="M55.417,41.011L55.417,33.283C55.417,32.003 55.849,30.931 56.713,30.067C57.593,29.187 58.673,28.747 59.953,28.747L64.225,28.747C65.505,28.747 66.577,29.187 67.441,30.067C68.321,30.931 68.761,32.003 68.761,33.283L68.761,35.946C68.761,36.124 68.69,36.296 68.565,36.422C68.439,36.548 68.269,36.619 68.091,36.619L64.265,36.619C63.673,36.619 63.193,36.136 63.193,35.539C63.193,35.235 63.105,34.995 62.929,34.819C62.753,34.643 62.513,34.555 62.209,34.555C61.905,34.555 61.665,34.643 61.489,34.819C61.313,34.995 61.225,35.235 61.225,35.539L61.225,38.755C61.225,39.059 61.313,39.299 61.489,39.475C61.665,39.651 61.905,39.739 62.209,39.739C62.513,39.739 62.753,39.651 62.929,39.475C63.105,39.299 63.193,39.059 63.193,38.755C63.193,38.159 63.673,37.675 64.265,37.675L68.091,37.675C68.269,37.675 68.439,37.746 68.565,37.873C68.69,37.999 68.761,38.171 68.761,38.349L68.761,41.011C68.761,42.291 68.321,43.371 67.441,44.251C66.577,45.115 65.505,45.547 64.225,45.547L59.953,45.547C58.673,45.547 57.593,45.115 56.713,44.251C55.849,43.371 55.417,42.291 55.417,41.011ZM60.22,44.242C59.11,44.242 58.171,43.897 57.406,43.197C56.665,42.488 56.297,41.621 56.297,40.595L56.297,33.354C56.297,32.329 56.664,31.47 57.403,30.777C58.168,30.061 59.153,29.677 60.266,29.677L62.424,29.677C62.498,29.677 62.558,29.616 62.558,29.542C62.558,29.468 62.498,29.407 62.424,29.407L60.266,29.407C59.082,29.407 58.035,29.817 57.221,30.58C56.425,31.325 56.029,32.25 56.029,33.354L56.029,40.595C56.029,41.699 56.425,42.631 57.222,43.393C57.223,43.393 57.223,43.394 57.224,43.394C58.038,44.141 59.037,44.512 60.22,44.512C60.294,44.512 60.354,44.451 60.354,44.377C60.354,44.302 60.294,44.242 60.22,44.242Z"/>
            </g>
        </g>
        <g transform="matrix(1.05478,0,0,1.07066,24.7454,596.027)">
            <g transform="matrix(9.02369,0,0,8.7799,-407.314,3276.07)">
                <path d="M70.534,45.547C70.084,45.547 69.655,45.347 69.356,44.996C69.057,44.645 68.916,44.178 68.969,43.712L70.153,33.283C70.153,32.003 70.585,30.931 71.449,30.067C72.329,29.187 73.409,28.747 74.689,28.747L79.201,28.747C80.481,28.747 81.553,29.187 82.417,30.067C83.297,30.931 83.737,32.003 83.737,33.283L85.196,43.667C85.262,44.139 85.128,44.618 84.829,44.979C84.53,45.34 84.094,45.547 83.637,45.547L81.321,45.547C80.623,45.547 80.008,45.069 79.81,44.372L79.472,43.184L78.531,38.75C78.517,38.683 78.46,38.635 78.394,38.635L75.396,38.635C75.33,38.635 75.272,38.684 75.258,38.751L74.115,44.252C73.958,45.008 73.317,45.547 72.575,45.547L70.534,45.547ZM77.384,34.579L76.439,34.579C76.178,34.579 75.967,34.667 75.967,34.774L75.309,37.367C75.309,37.474 76.178,37.568 76.439,37.568L77.384,37.568C77.645,37.568 78.448,37.474 78.448,37.367L77.856,34.774C77.856,34.667 77.645,34.579 77.384,34.579ZM70.639,44.396C70.459,44.396 70.287,44.318 70.167,44.181C70.047,44.045 69.991,43.863 70.012,43.681L71.195,33.556L71.25,33.229C71.261,33.168 71.542,31.651 72.207,31.004C72.909,30.323 73.773,29.988 74.794,29.988C74.91,29.988 75.004,29.893 75.004,29.775C75.004,29.658 74.91,29.563 74.794,29.563C73.658,29.563 72.698,29.938 71.917,30.697C71.165,31.427 70.837,33.153 70.837,33.153C70.837,33.154 70.836,33.155 70.836,33.156L70.78,33.49C70.779,33.493 70.779,33.497 70.778,33.501L69.595,43.631C69.559,43.933 69.653,44.236 69.853,44.464C70.052,44.691 70.339,44.821 70.639,44.821C70.755,44.821 70.849,44.726 70.849,44.609C70.849,44.491 70.755,44.396 70.639,44.396Z"/>
            </g>
        </g>
        <g transform="matrix(1.05478,0,0,1.07066,24.7454,596.027)">
            <g transform="matrix(9.02369,0,0,8.7799,-396.346,3276.07)">
                <path d="M84.697,33.667L84.697,32.875C84.697,31.707 85.089,30.731 85.873,29.947C86.673,29.147 87.657,28.747 88.825,28.747L94.353,28.747C95.223,28.747 95.929,29.462 95.929,30.343L95.929,32.96C95.929,33.383 95.762,33.789 95.467,34.088C95.171,34.387 94.771,34.555 94.353,34.555L90.433,34.555C90.129,34.555 89.889,34.643 89.713,34.819C89.537,34.995 89.449,35.235 89.449,35.539C89.449,35.843 89.537,36.083 89.713,36.259C89.889,36.419 90.129,36.499 90.433,36.499L92.473,36.499C93.641,36.499 94.617,36.899 95.401,37.699C96.201,38.483 96.601,39.459 96.601,40.627L96.601,41.419C96.601,42.587 96.201,43.571 95.401,44.371C94.617,45.155 93.641,45.547 92.473,45.547L86.944,45.547C86.074,45.547 85.369,44.833 85.369,43.952L85.369,41.335C85.369,40.912 85.535,40.506 85.83,40.207C86.126,39.908 86.527,39.739 86.944,39.739L90.865,39.739C91.169,39.739 91.409,39.651 91.585,39.475C91.761,39.299 91.849,39.059 91.849,38.755C91.849,38.451 91.761,38.219 91.585,38.059C91.409,37.883 91.169,37.795 90.865,37.795L88.825,37.795C87.657,37.795 86.673,37.403 85.873,36.619C85.089,35.819 84.697,34.835 84.697,33.667ZM86.897,35.65C86.494,35.256 86.3,34.722 86.207,34.226C86.064,33.459 86.165,32.774 86.165,32.774C86.166,32.767 86.167,32.759 86.167,32.751C86.201,31.925 86.51,31.244 87.104,30.713C87.73,30.155 88.484,29.902 89.362,29.939C89.478,29.944 89.576,29.853 89.581,29.735C89.586,29.618 89.495,29.519 89.38,29.514C88.386,29.472 87.534,29.762 86.826,30.394C86.147,31.002 85.789,31.779 85.748,32.724C85.735,32.82 85.649,33.523 85.794,34.305C85.902,34.882 86.137,35.498 86.605,35.956C86.689,36.038 86.822,36.035 86.902,35.951C86.983,35.866 86.981,35.732 86.897,35.65ZM87.155,44.482C86.865,44.482 86.631,44.245 86.631,43.952L86.631,41.501C86.631,41.36 86.686,41.225 86.784,41.126C86.882,41.026 87.016,40.97 87.155,40.97L88.719,40.97C88.835,40.97 88.929,40.875 88.929,40.758C88.929,40.64 88.835,40.545 88.719,40.545L87.155,40.545C86.904,40.545 86.664,40.646 86.487,40.825C86.31,41.004 86.21,41.247 86.21,41.501L86.21,43.952C86.21,44.48 86.633,44.908 87.155,44.908C87.271,44.908 87.365,44.812 87.365,44.695C87.365,44.578 87.271,44.482 87.155,44.482Z"/>
            </g>
        </g>
        <g transform="matrix(1.05478,0,0,1.07066,24.7454,596.027)">
            <g transform="matrix(9.02369,0,0,8.7799,-395.962,3276.07)">
                <path d="M109.465,43.952C109.465,44.375 109.298,44.781 109.003,45.08C108.707,45.379 108.307,45.547 107.889,45.547L101.087,45.547C100.177,45.547 99.304,45.182 98.661,44.53C98.018,43.879 97.657,42.995 97.657,42.074L97.657,32.221C97.657,31.299 98.018,30.416 98.661,29.765C99.304,29.113 100.177,28.747 101.087,28.747L107.889,28.747C108.307,28.747 108.707,28.916 109.003,29.215C109.298,29.514 109.465,29.92 109.465,30.343L109.465,32.96C109.465,33.383 109.298,33.789 109.003,34.088C108.707,34.387 108.307,34.555 107.889,34.555L104.424,34.555C103.894,34.555 103.465,34.991 103.465,35.527L103.465,35.528C103.465,36.064 103.894,36.499 104.424,36.499L105.999,36.499C106.027,36.499 106.054,36.511 106.074,36.531C106.093,36.551 106.105,36.578 106.105,36.606L106.105,37.689C106.105,37.717 106.093,37.744 106.074,37.764C106.054,37.784 106.027,37.795 105.999,37.795L104.424,37.795C103.894,37.795 103.465,38.231 103.465,38.767L103.465,38.768C103.465,39.304 103.894,39.739 104.424,39.739L107.889,39.739C108.307,39.739 108.707,39.908 109.003,40.207C109.298,40.506 109.465,40.912 109.465,41.335L109.465,43.952ZM101.286,44.128C99.909,44.128 98.793,42.998 98.793,41.604L98.793,32.533C98.793,31.139 99.909,30.009 101.286,30.009L103.337,30.009C103.453,30.009 103.547,29.913 103.547,29.796C103.547,29.679 103.453,29.583 103.337,29.583L101.286,29.583C99.677,29.583 98.373,30.904 98.373,32.533L98.373,41.604C98.373,43.233 99.677,44.553 101.286,44.553C101.402,44.553 101.496,44.458 101.496,44.34C101.496,44.223 101.402,44.128 101.286,44.128Z"/>
            </g>
        </g>
        <g transform="matrix(1.05478,0,0,1.07066,24.7454,596.027)">
            <g transform="matrix(4.05722,0,0,3.99705,-7357.04,1999.3)">
                <path d="M1836.87,479.086C1836.87,481.022 1835.3,482.591 1833.37,482.591L1820.32,482.591C1818.38,482.591 1816.82,481.022 1816.82,479.086L1816.82,428.081C1816.82,426.145 1818.38,424.576 1820.32,424.576L1833.37,424.576C1835.3,424.576 1836.87,426.145 1836.87,428.081L1836.87,447.948C1836.87,449.825 1838.39,451.346 1840.27,451.346L1840.27,451.346C1842.15,451.346 1843.67,449.825 1843.67,447.948L1843.67,428.081C1843.67,426.145 1845.24,424.576 1847.17,424.576L1860.22,424.576C1862.15,424.576 1863.72,426.145 1863.72,428.081L1863.72,479.086C1863.72,481.022 1862.15,482.591 1860.22,482.591L1847.17,482.591C1845.24,482.591 1843.67,481.022 1843.67,479.086L1843.67,459.219C1843.67,457.342 1842.15,455.821 1840.27,455.821L1840.27,455.821C1838.39,455.821 1836.87,457.342 1836.87,459.219L1836.87,479.086ZM1820.79,480.546C1820.08,480.546 1819.5,479.971 1819.5,479.261L1819.5,428.256C1819.5,427.547 1820.08,426.971 1820.79,426.971L1833.83,426.971C1834.09,426.971 1834.3,426.762 1834.3,426.504C1834.3,426.246 1834.09,426.037 1833.83,426.037L1820.79,426.037C1819.56,426.037 1818.57,427.03 1818.57,428.256L1818.57,479.261C1818.57,480.487 1819.56,481.481 1820.79,481.481C1821.05,481.481 1821.26,481.272 1821.26,481.014C1821.26,480.756 1821.05,480.546 1820.79,480.546ZM1844.85,451.94C1845.21,451.645 1845.51,451.084 1845.71,450.426C1846.13,449.078 1846.23,447.325 1846.23,447.325C1846.23,447.317 1846.23,447.309 1846.23,447.301L1846.23,428.256C1846.23,427.547 1846.8,426.971 1847.51,426.971L1854.87,426.971C1855.13,426.971 1855.34,426.762 1855.34,426.504C1855.34,426.246 1855.13,426.037 1854.87,426.037L1847.51,426.037C1846.29,426.037 1845.29,427.03 1845.29,428.256L1845.29,447.288C1845.29,447.413 1845.22,448.539 1844.97,449.606C1844.81,450.273 1844.61,450.929 1844.26,451.213C1844.06,451.375 1844.03,451.67 1844.19,451.87C1844.35,452.071 1844.64,452.102 1844.85,451.94Z"/>
            </g>
        </g>
        <g transform="matrix(1.05478,0,0,1.07066,24.7454,596.027)">
            <g transform="matrix(4.05722,0,0,3.99705,-7357.04,1999.3)">
                <path d="M1836.99,479.086C1836.99,481.086 1835.37,482.708 1833.37,482.708L1820.32,482.708C1818.32,482.708 1816.7,481.086 1816.7,479.086L1816.7,428.081C1816.7,426.081 1818.32,424.459 1820.32,424.459L1833.37,424.459C1835.37,424.459 1836.99,426.081 1836.99,428.081L1836.99,447.948C1836.99,449.76 1838.46,451.229 1840.27,451.229L1840.27,451.229C1842.08,451.229 1843.55,449.76 1843.55,447.948L1843.55,428.081C1843.55,426.081 1845.17,424.459 1847.17,424.459L1860.22,424.459C1862.22,424.459 1863.84,426.081 1863.84,428.081L1863.84,479.086C1863.84,481.086 1862.22,482.708 1860.22,482.708L1847.17,482.708C1845.17,482.708 1843.55,481.086 1843.55,479.086L1843.55,459.219C1843.55,457.407 1842.08,455.938 1840.27,455.938L1840.27,455.938C1838.46,455.938 1836.99,457.407 1836.99,459.219L1836.99,479.086ZM1836.76,479.086L1836.76,459.219C1836.76,457.278 1838.33,455.704 1840.27,455.704L1840.27,455.704C1842.21,455.704 1843.79,457.278 1843.79,459.219L1843.79,479.086C1843.79,480.957 1845.3,482.474 1847.17,482.474L1860.22,482.474C1862.09,482.474 1863.61,480.957 1863.61,479.086L1863.61,428.081C1863.61,426.21 1862.09,424.693 1860.22,424.693L1847.17,424.693C1845.3,424.693 1843.79,426.21 1843.79,428.081L1843.79,447.948C1843.79,449.889 1842.21,451.463 1840.27,451.463L1840.27,451.463C1838.33,451.463 1836.76,449.889 1836.76,447.948L1836.76,428.081C1836.76,426.21 1835.24,424.693 1833.37,424.693L1820.32,424.693C1818.45,424.693 1816.93,426.21 1816.93,428.081L1816.93,479.086C1816.93,480.957 1818.45,482.474 1820.32,482.474L1833.37,482.474C1835.24,482.474 1836.76,480.957 1836.76,479.086Z"/>
            </g>
        </g>
        <g transform="matrix(1.05478,0,0,1.07066,24.7454,596.027)">
            <g transform="matrix(8.40559,0,0,8.79097,-883.189,3527.84)">
                <path d="M130.873,41.011L130.873,33.283C130.873,32.003 131.305,30.931 132.169,30.067C133.049,29.187 134.129,28.747 135.409,28.747L139.921,28.747C141.201,28.747 142.273,29.187 143.137,30.067C144.017,30.931 144.457,32.003 144.457,33.283L144.457,41.011C144.457,42.291 144.017,43.371 143.137,44.251C142.273,45.115 141.201,45.547 139.921,45.547L135.409,45.547C134.129,45.547 133.049,45.115 132.169,44.251C131.305,43.371 130.873,42.291 130.873,41.011ZM136.681,35.539L136.681,38.755C136.681,39.059 136.769,39.299 136.945,39.475C137.121,39.651 137.361,39.739 137.665,39.739C137.969,39.739 138.209,39.651 138.385,39.475C138.561,39.299 138.649,39.059 138.649,38.755L138.649,35.539C138.649,35.235 138.561,34.995 138.385,34.819C138.209,34.643 137.969,34.555 137.665,34.555C137.361,34.555 137.121,34.643 136.945,34.819C136.769,34.995 136.681,35.235 136.681,35.539ZM135.631,44.449C134.644,44.449 133.81,44.118 133.13,43.454C132.444,42.753 132.11,41.893 132.11,40.878L132.11,33.417C132.11,32.403 132.443,31.551 133.127,30.866C133.807,30.186 134.642,29.846 135.631,29.846L137.665,29.846C137.789,29.846 137.89,29.75 137.89,29.633C137.89,29.516 137.789,29.421 137.665,29.421L135.631,29.421C134.512,29.421 133.568,29.805 132.799,30.575C132.036,31.338 131.658,32.286 131.658,33.417L131.658,40.878C131.658,42.008 132.036,42.964 132.799,43.744C132.8,43.745 132.801,43.746 132.803,43.747C133.571,44.499 134.514,44.874 135.631,44.874C135.756,44.874 135.857,44.779 135.857,44.662C135.857,44.544 135.756,44.449 135.631,44.449Z"/>
            </g>
        </g>
        <g transform="matrix(1.05478,0,0,1.07066,24.7454,596.027)">
            <g transform="matrix(8.40559,0,0,8.79097,-882.525,3527.84)">
                <path d="M147.54,45.547C146.606,45.547 145.849,44.834 145.849,43.954L145.849,33.283C145.849,32.003 146.281,30.931 147.145,30.067C148.025,29.187 149.105,28.747 150.385,28.747L154.897,28.747C156.177,28.747 157.249,29.187 158.113,30.067C158.993,30.931 159.433,32.003 159.433,33.283L159.433,43.954C159.433,44.834 158.675,45.547 157.741,45.547L155.316,45.547C154.382,45.547 153.625,44.834 153.625,43.954L153.625,35.539C153.625,35.235 153.537,34.995 153.361,34.819C153.185,34.643 152.945,34.555 152.641,34.555C152.337,34.555 152.097,34.643 151.921,34.819C151.745,34.995 151.657,35.235 151.657,35.539L151.657,43.954C151.657,44.834 150.899,45.547 149.965,45.547L147.54,45.547ZM147.54,44.581C147.173,44.581 146.875,44.3 146.875,43.954L146.875,33.283C146.875,32.269 147.207,31.415 147.892,30.73C148.569,30.053 149.4,29.714 150.385,29.714L152.265,29.714C152.39,29.714 152.491,29.619 152.491,29.502C152.491,29.385 152.39,29.289 152.265,29.289L150.385,29.289C149.27,29.289 148.33,29.673 147.563,30.439C146.8,31.203 146.424,32.152 146.424,33.283L146.424,43.954C146.424,44.535 146.924,45.006 147.54,45.006C147.665,45.006 147.766,44.91 147.766,44.793C147.766,44.676 147.665,44.581 147.54,44.581Z"/>
            </g>
        </g>
        <g transform="matrix(1.05478,0,0,1.07066,24.7454,596.027)">
            <g transform="matrix(8.40559,0,0,8.79097,-881.86,3527.84)">
                <path d="M160.825,41.011L160.825,33.283C160.825,32.003 161.257,30.931 162.121,30.067C163.001,29.187 164.081,28.747 165.361,28.747L170.017,28.747C171.185,28.747 172.169,29.147 172.969,29.947C173.769,30.747 174.169,31.731 174.169,32.899L174.169,35.188C174.169,35.319 174.116,35.445 174.023,35.538C173.93,35.631 173.804,35.683 173.673,35.683L169.101,35.683C169.101,35.683 168.594,34.959 168.444,34.823C168.2,34.601 167.874,34.556 167.617,34.555C167.361,34.555 167.073,34.643 166.897,34.819C166.721,34.995 166.286,36.499 166.286,36.499L175.073,36.499C175.138,36.499 175.201,36.526 175.248,36.572C175.294,36.618 175.321,36.682 175.321,36.747L175.321,37.548C175.321,37.613 175.294,37.676 175.248,37.723C175.201,37.769 175.138,37.795 175.073,37.795L174.664,37.795C174.39,37.795 174.169,38.017 174.169,38.291L174.169,41.011C174.169,42.291 173.729,43.371 172.849,44.251C171.985,45.115 170.913,45.547 169.633,45.547L165.361,45.547C164.081,45.547 163.001,45.115 162.121,44.251C161.257,43.371 160.825,42.291 160.825,41.011ZM166.909,40.188C166.909,40.292 167.137,40.377 167.417,40.377L168.431,40.377C168.711,40.377 168.938,40.292 168.938,40.188L169.644,37.673C169.644,37.568 168.711,37.478 168.431,37.478L167.417,37.478C167.137,37.478 166.274,37.568 166.274,37.673L166.909,40.188ZM165.361,44.608C164.37,44.608 163.533,44.276 162.851,43.611C162.158,42.902 161.822,42.035 161.822,41.011L161.822,33.283C161.822,32.261 162.157,31.402 162.847,30.712C163.53,30.029 164.367,29.687 165.361,29.687L167.386,29.687C167.511,29.687 167.612,29.592 167.612,29.475C167.612,29.358 167.511,29.262 167.386,29.262L165.361,29.262C164.238,29.262 163.29,29.649 162.518,30.421C161.75,31.189 161.371,32.145 161.371,33.283L161.371,41.011C161.371,42.15 161.75,43.113 162.52,43.9C162.521,43.901 162.523,43.902 162.524,43.904C163.295,44.657 164.241,45.033 165.361,45.033C165.485,45.033 165.586,44.937 165.586,44.82C165.586,44.703 165.485,44.608 165.361,44.608Z"/>
            </g>
        </g>
        <g transform="matrix(1.05478,0,0,1.07066,24.7454,596.027)">
            <g transform="matrix(4.78518,0,0,1.86488,-4131.49,2823.42)">
                <path d="M923.299,491.936L924.906,509.011C924.906,509.719 922.725,510.335 922.016,510.335L919.45,510.335C918.742,510.335 916.382,509.719 916.382,509.011L918.167,491.936C918.167,491.228 918.742,490.653 919.45,490.653L922.016,490.653C922.725,490.653 923.299,491.228 923.299,491.936ZM919.559,494.783L920.974,494.783C921.193,494.783 921.37,494.335 921.37,493.782C921.37,493.229 921.193,492.78 920.974,492.78L919.45,492.78C919.374,492.78 919.282,492.801 919.195,492.832C919.037,492.888 918.908,493.178 918.867,493.568L917.513,506.516C917.457,507.051 917.583,507.6 917.795,507.741C918.006,507.882 918.223,507.563 918.279,507.028L919.559,494.783Z"/>
            </g>
        </g>
    </g>
</svg>
