<?xml version="1.0" encoding="UTF-8" standalone="no"?>
<!DOCTYPE svg PUBLIC "-//W3C//DTD SVG 1.1//EN" "http://www.w3.org/Graphics/SVG/1.1/DTD/svg11.dtd">
<svg width="100%" height="100%" viewBox="0 0 197 176" version="1.1" xmlns="http://www.w3.org/2000/svg" xmlns:xlink="http://www.w3.org/1999/xlink" xml:space="preserve" xmlns:serif="http://www.serif.com/" style="fill-rule:evenodd;clip-rule:evenodd;stroke-linejoin:round;stroke-miterlimit:2;">
    <g transform="matrix(1,0,0,1,-749.725,-290.743)">
        <g transform="matrix(1,0,0,1,266.14,0)">
            <g transform="matrix(1,0,0,1,-256.311,0)">
                <g transform="matrix(0.901417,0,0,0.901417,509.822,154.513)">
                    <g>
                        <g transform="matrix(1.15906,0,0,1.05419,213.967,-32.7546)">
                            <path d="M190.961,354.054C190.605,354.558 190.263,354.947 190.198,355.021C187.912,357.623 184.462,359.164 180.636,359.164C142.216,359.164 103.797,359.164 65.377,359.164C61.643,359.164 57.614,357.488 54.304,354.383C51.033,351.315 48.754,347.111 48.034,342.857C41.651,305.162 37.762,262.714 42.016,221.63C42.363,218.28 44.052,215.06 46.753,212.628L47.472,212.018C47.628,211.893 48.444,211.241 49.533,210.613C65.212,199.273 82.325,187.274 98.215,175.959C100.375,174.421 102.396,174.428 102.781,174.429C141.487,174.587 180.194,174.744 218.901,174.902C220.843,174.911 221.826,176.235 221.991,176.457C222.174,176.703 223.141,178.005 222.835,180.181C215.788,230.35 215.344,276.332 218.698,319.292C218.902,321.917 217.464,323.49 217.209,323.769C211.16,330.382 201.222,341.445 190.961,354.054ZM68.049,345.891C62.654,345.823 57.484,340.884 56.577,335.006C52.186,306.548 48.78,271.757 50.84,236.325C51.149,231.009 55.982,226.991 61.387,227.253C95.414,229.072 129.441,230.89 163.468,232.709C164.601,232.77 165.609,231.864 165.687,230.716C165.765,229.569 164.888,228.561 163.755,228.502C129.757,226.749 95.758,224.995 61.76,223.241L61.75,223.241C54.096,222.881 47.116,228.541 46.671,236.107C44.585,271.574 48.041,306.471 52.457,334.916C53.756,343.278 61.141,350.356 68.829,350.422C69.944,350.431 70.699,349.426 70.484,348.176C70.273,346.943 69.161,345.906 68.049,345.891ZM194.805,329.562C191.717,333.417 189.262,336.574 188.785,337.188C188.52,337.529 188.003,337.671 187.512,337.489C187.029,337.311 186.664,336.85 186.608,336.38C182.725,303.416 180.88,267.423 183.315,229.181C183.341,228.761 183.492,226.402 185.427,224.359C190.156,219.362 194.885,214.364 199.614,209.366C200.434,208.497 200.474,207.091 199.702,206.29C198.927,205.485 197.597,205.545 196.765,206.422C192.007,211.427 187.25,216.431 182.492,221.436C180.538,223.488 179.337,226.187 179.156,228.986C176.683,267.216 178.558,303.275 182.486,336.284C182.744,338.446 184.366,340.449 186.54,341.247C188.716,342.045 190.988,341.473 192.22,339.885C192.695,339.272 195.139,336.12 198.212,332.274C198.861,331.462 198.612,330.167 197.697,329.438C196.781,328.707 195.455,328.75 194.805,329.562ZM210.82,197.429C210.854,197.394 211.089,197.141 211.412,197.285C211.735,197.428 211.697,197.769 211.691,197.816C207.154,238.201 207.1,275.665 209.56,310.209C209.657,311.578 208.941,312.423 208.813,312.575C208.132,313.38 208.348,314.68 209.249,315.418C210.147,316.154 211.481,316.129 212.16,315.325C212.427,315.008 213.918,313.244 213.717,310.387C211.286,275.859 211.342,238.393 215.811,197.919C216.042,195.827 215.04,193.91 213.331,193.15C211.622,192.391 209.493,192.914 208.04,194.464C207.199,195.362 207.129,196.781 207.89,197.589C208.648,198.394 209.973,198.338 210.82,197.429ZM167.912,211.475C135.433,210.291 102.955,209.106 70.476,207.922C70.407,207.92 69.918,207.902 69.79,207.4C69.661,206.899 70.068,206.602 70.126,206.559C80.297,199.187 90.467,191.815 100.638,184.442C102.111,183.374 103.526,183.396 103.792,183.401C108.709,183.48 113.626,183.559 118.543,183.638C119.655,183.656 120.772,182.75 120.996,181.655C121.221,180.552 120.494,179.631 119.37,179.618C114.463,179.564 109.556,179.509 104.649,179.455C104.131,179.449 101.393,179.419 98.509,181.493C82.505,193.002 82.492,192.942 67.798,203.552C66.068,204.802 65.25,206.847 65.724,208.668C66.199,210.492 67.89,211.791 69.942,211.872C102.461,213.152 134.98,214.432 167.5,215.712C168.027,215.733 170.977,215.849 173.709,213.472C174.595,212.7 174.756,211.325 174.059,210.463C173.361,209.598 172.036,209.527 171.139,210.304C169.713,211.54 168.186,211.485 167.912,211.475ZM81.966,273.688C82.007,274.562 82.508,275.418 83.221,275.863C83.956,276.322 84.852,276.31 85.491,275.889L86.211,275.414C85.695,264.883 85.365,250.228 86.587,234.408C86.673,233.297 85.806,232.306 84.67,232.232C83.546,232.159 82.512,233.019 82.425,234.135C81.232,249.38 81.501,263.498 81.966,273.688Z" style="fill:rgb(255,253,194);"/>
                        </g>
                        <g id="v" transform="matrix(0.424002,0,0,0.424002,-773.293,144.35)">
                            <path d="M2514.45,442.292C2517.52,442.328 2520.53,444.881 2521.11,447.973C2521.69,451.064 2519.65,453.579 2516.58,453.555C2495.52,453.391 2475.38,435.791 2471.83,415.004C2459.92,345.258 2450.27,258.143 2456.01,169.335C2457.23,150.507 2476.29,136.452 2497.23,137.346L2497.26,137.347C2590.2,141.708 2683.14,146.068 2776.07,150.428C2779.21,150.576 2781.57,153.073 2781.36,155.932C2781.14,158.794 2778.43,161.04 2775.29,160.887C2682.27,156.365 2589.26,151.844 2496.24,147.322C2481.45,146.668 2468.25,156.672 2467.41,169.877C2461.74,258.6 2471.25,345.445 2483.09,415.228C2485.57,429.828 2499.69,442.121 2514.45,442.292ZM2904.73,73.171C2902.41,75.432 2898.8,75.574 2896.72,73.567C2894.64,71.554 2894.8,68.061 2897.13,65.8C2901.09,61.957 2906.91,60.638 2911.6,62.532C2916.3,64.434 2919,69.218 2918.37,74.389C2906.13,175.219 2906.02,268.422 2912.65,354.017C2913,358.585 2911.48,362.975 2908.39,366.294C2906.55,368.281 2902.96,368.409 2900.43,366.525C2897.9,364.635 2897.39,361.444 2899.24,359.457C2900.72,357.867 2901.46,355.763 2901.29,353.574C2894.58,267.953 2894.68,174.751 2907.11,74.134C2907.18,73.562 2906.87,73.02 2906.35,72.812C2905.84,72.605 2905.17,72.741 2904.73,73.171ZM2787.44,108.093C2790.57,108.196 2793.76,107.153 2796.26,105.183C2798.73,103.237 2802.32,103.417 2804.24,105.576C2806.15,107.728 2805.74,111.109 2803.28,113.057C2798.49,116.853 2792.36,118.844 2786.31,118.628C2697.41,115.445 2608.52,112.263 2519.63,109.081C2514.02,108.88 2509.39,105.655 2508.09,101.115C2506.79,96.571 2509.05,91.494 2513.76,88.394C2541.75,70.113 2569.73,51.831 2597.72,33.549C2602.77,30.242 2608.83,28.425 2614.5,28.482C2627.91,28.617 2641.33,28.752 2654.74,28.887C2657.83,28.919 2659.8,31.224 2659.19,33.952C2658.57,36.693 2655.57,38.928 2652.48,38.883C2639.04,38.686 2625.6,38.489 2612.16,38.292C2609.23,38.249 2606.13,39.173 2603.53,40.881C2556.68,71.78 2552.18,74.608 2520.13,95.871C2519.34,96.392 2519.01,97.26 2519.21,97.961C2519.41,98.663 2520.14,99.228 2521.09,99.259C2609.87,102.204 2698.65,105.148 2787.44,108.093ZM2562.13,268.244C2560.32,269.33 2557.93,269.319 2555.92,268.182C2553.92,267.047 2552.6,264.956 2552.49,262.774C2551.15,235.935 2550.57,201.433 2553.75,164.432C2553.99,161.662 2556.75,159.516 2559.89,159.701C2563.03,159.886 2565.36,162.341 2565.13,165.111C2561.86,203.583 2562.61,239.418 2564.1,267.065L2562.13,268.244ZM2860.95,401.693C2862.72,399.682 2866.28,399.515 2868.86,401.383C2871.43,403.25 2872.03,406.429 2870.27,408.434C2861.86,417.999 2855.18,425.833 2853.88,427.357C2850.49,431.341 2844.27,432.716 2838.36,430.744C2832.43,428.765 2827.98,423.801 2827.28,418.405C2816.6,336.819 2811.39,247.055 2818.17,151.629C2818.66,144.734 2821.9,138.006 2827.29,132.858C2840.3,120.416 2853.3,107.973 2866.31,95.53C2868.59,93.34 2872.21,93.192 2874.34,95.2C2876.46,97.202 2876.37,100.659 2874.1,102.85C2861.17,115.276 2848.24,127.701 2835.32,140.127C2831.9,143.407 2829.85,147.707 2829.54,152.116C2822.86,247.557 2827.99,337.155 2838.55,418.643C2838.69,419.788 2839.67,420.948 2841.01,421.402C2842.37,421.859 2843.78,421.492 2844.5,420.652C2845.8,419.126 2852.51,411.278 2860.95,401.693Z" style="fill:white;"/>
                        </g>
                    </g>
                </g>
            </g>
            <g transform="matrix(0.901417,0,0,0.901417,195.499,204.123)">
                <g>
                    <g transform="matrix(0.576843,-0.277424,0.268036,0.557322,-589.774,519.481)">
                        <path d="M1511.23,234.808C1511.23,234.808 1498.75,223.98 1493.81,232.455C1488.87,240.929 1511.23,234.808 1511.23,234.808Z" style="fill:rgb(22,22,22);"/>
                    </g>
                    <g transform="matrix(-0.716449,-0.344565,-0.283423,0.589318,1641.16,606.16)">
                        <path d="M1511.23,234.808C1511.23,234.808 1498.75,223.98 1493.81,232.455C1488.87,240.929 1511.23,234.808 1511.23,234.808Z" style="fill:rgb(22,22,22);"/>
                    </g>
                    <g transform="matrix(1,0,0,1,-0.720452,4.80308)">
                        <g transform="matrix(1,0,0,1,-1155.23,0)">
                            <path d="M1620.67,223.508C1620.67,223.508 1597.46,214.255 1597.46,214.254C1596.18,213.744 1595.27,212.547 1595.16,211.13L1595.16,211.116C1595.05,209.694 1595.78,208.369 1596.97,207.674C1596.98,207.673 1625.48,191.093 1625.48,191.093C1627.23,190.075 1629.48,190.67 1630.49,192.42C1631.51,194.17 1630.92,196.418 1629.17,197.436L1614.84,205.77C1618.19,205.445 1621.42,205.101 1623.8,204.784C1625.81,204.516 1627.66,205.929 1627.93,207.936C1628.19,209.943 1626.78,211.79 1624.77,212.058C1622.09,212.415 1618.35,212.806 1614.55,213.168L1623.39,216.692C1625.27,217.442 1626.19,219.578 1625.44,221.459C1624.69,223.34 1622.55,224.258 1620.67,223.508ZM1531.01,215.348C1526.31,215.755 1522.7,216.036 1522.7,216.036C1520.68,216.193 1518.92,214.682 1518.76,212.663C1518.6,210.644 1520.11,208.877 1522.13,208.72C1522.13,208.72 1530.24,208.09 1537.91,207.354L1522.73,197.326C1521.04,196.21 1520.57,193.932 1521.69,192.242C1522.81,190.553 1525.09,190.087 1526.77,191.204L1551.87,207.784C1552.98,208.521 1553.61,209.805 1553.5,211.136C1553.4,212.468 1552.58,213.637 1551.36,214.188L1530.92,223.442C1529.08,224.278 1526.9,223.458 1526.07,221.614C1525.23,219.769 1526.05,217.593 1527.9,216.758C1527.9,216.758 1529.19,216.17 1531.01,215.348Z" style="fill:rgb(22,22,22);"/>
                        </g>
                        <g transform="matrix(1,0,0,1,-1155.23,-9.64001)">
                            <path d="M1549.85,235.524C1549.85,235.524 1586.48,241.694 1598.82,229.74C1598.82,229.74 1577.61,294.135 1549.85,235.524Z" style="fill:rgb(25,25,25);"/>
                        </g>
                    </g>
                </g>
            </g>
        </g>
    </g>
</svg>
