<?xml version="1.0" encoding="UTF-8" standalone="no"?>
<!DOCTYPE svg PUBLIC "-//W3C//DTD SVG 1.1//EN" "http://www.w3.org/Graphics/SVG/1.1/DTD/svg11.dtd">
<svg width="100%" height="100%" viewBox="0 0 211 176" version="1.1" xmlns="http://www.w3.org/2000/svg" xmlns:xlink="http://www.w3.org/1999/xlink" xml:space="preserve" xmlns:serif="http://www.serif.com/" style="fill-rule:evenodd;clip-rule:evenodd;stroke-linejoin:round;stroke-miterlimit:2;">
    <g transform="matrix(1,0,0,1,-1011.76,-290.743)">
        <g transform="matrix(1,0,0,1,551.795,0)">
            <g transform="matrix(1,0,0,1,-551.795,0)">
                <g transform="matrix(0.901417,0,0,0.901417,795.478,154.513)">
                    <g>
                        <g transform="matrix(1.15906,0,0,1.05419,213.967,-32.7546)">
                            <path d="M189.463,354.16C189.252,354.655 189.023,355.036 188.979,355.109C187.481,357.607 184.548,359.164 180.636,359.164C142.216,359.164 103.797,359.164 65.377,359.164C61.649,359.164 57.217,357.616 53.267,354.756C49.31,351.891 46.263,348.016 44.829,344.102C29.755,302.971 29.559,263.199 36.766,225.65C37.438,222.149 39.411,218.727 42.29,216.106L43.053,215.446C44.08,214.605 45.024,214.028 45.205,213.918C60.833,202.221 78.727,189.327 97.94,176.094C100.37,174.42 102.371,174.428 102.781,174.429C141.438,174.587 180.095,174.745 218.752,174.903C220.688,174.912 221.255,176.238 221.351,176.461C222.01,178.002 221.167,179.912 221.046,180.185C199.232,229.591 196.977,275.673 208.537,319.426C208.63,319.777 209.232,322.057 207.957,323.924C204.225,329.389 196.591,340.849 189.463,354.16ZM65.251,346.823C59.929,346.785 53.822,342.257 52.012,336.716C40.863,302.585 39.938,270.071 43.901,240.581C44.632,235.142 49.673,230.864 54.852,231C87.412,232.022 119.971,233.045 152.53,234.067C153.617,234.101 154.685,233.145 154.889,232C155.096,230.836 154.379,229.84 153.289,229.806C120.731,228.819 88.173,227.832 55.615,226.844L55.606,226.844C48.252,226.657 40.958,232.73 39.913,240.467C35.929,269.982 36.802,302.52 47.927,336.666C50.506,344.584 59.347,351.009 66.922,351.045C68.045,351.051 68.572,350.096 68.116,348.946C67.667,347.812 66.364,346.831 65.251,346.823ZM187.205,330.004C184.997,333.83 183.289,336.988 182.958,337.601C182.786,337.92 182.326,338.093 181.772,337.91C181.253,337.738 180.788,337.288 180.627,336.827C169.478,304.821 164.844,269.175 172.058,230.04C172.139,229.6 172.575,227.238 174.735,225.131C182.65,217.414 189.67,210.955 190.988,209.743C191.959,208.849 192.269,207.428 191.686,206.642C191.1,205.851 189.785,205.924 188.797,206.823C187.461,208.038 180.348,214.509 172.322,222.245C170.11,224.377 168.592,227.131 168.074,229.938C160.863,269.032 165.396,304.683 176.542,336.774C177.281,338.902 179.36,340.849 181.7,341.614C184.069,342.389 186.158,341.786 186.983,340.226C187.307,339.614 188.974,336.463 191.134,332.645C191.582,331.853 191.092,330.569 190.018,329.843C188.934,329.11 187.662,329.212 187.205,330.004ZM204.517,197.572C204.555,197.539 204.85,197.28 205.132,197.42C205.414,197.56 205.293,197.909 205.279,197.95C191.728,237.06 190.116,274.472 198.106,310.521C198.148,310.709 198.409,311.888 197.749,312.897C197.224,313.699 197.62,314.991 198.64,315.724C199.656,316.454 200.941,316.383 201.458,315.579C202.808,313.479 202.257,311.009 202.169,310.618C194.181,274.814 195.6,237.385 209.294,198.003C210.037,195.866 209.5,193.98 208.038,193.248C206.568,192.512 204.337,193.03 202.506,194.624C201.446,195.547 201.057,196.976 201.605,197.768C202.145,198.549 203.457,198.505 204.517,197.572ZM159.791,212.443C128.463,211.843 97.134,211.243 65.806,210.644C65.741,210.642 65.268,210.633 65.207,210.107C65.146,209.581 65.577,209.261 65.641,209.213C75.686,201.757 87.116,193.482 98.835,185.24C100.479,184.084 101.86,184.098 102.14,184.101C106.991,184.153 111.842,184.205 116.692,184.257C117.792,184.269 119.077,183.29 119.514,182.137C119.958,180.967 119.424,179.986 118.309,179.977C113.443,179.938 108.576,179.898 103.71,179.859C103.163,179.855 100.471,179.833 97.247,182.084C85.481,190.298 73.951,198.58 63.771,206.074C61.924,207.434 60.874,209.617 61.107,211.526C61.342,213.445 62.827,214.766 64.796,214.807C96.095,215.457 127.394,216.108 158.693,216.758C162.028,216.827 164.654,214.705 165.078,214.362C166.067,213.563 166.459,212.159 165.938,211.301C165.413,210.438 164.134,210.388 163.128,211.193C161.525,212.476 160.076,212.448 159.791,212.443ZM72.173,277.241C72.212,278.11 72.704,278.939 73.389,279.357C74.095,279.788 74.959,279.762 75.578,279.327L76.269,278.842C75.748,269.014 75.709,254.655 78.416,237.7C78.597,236.567 77.858,235.573 76.771,235.527C75.699,235.48 74.622,236.388 74.439,237.528C71.818,253.869 71.751,267.718 72.173,277.241Z" style="fill:rgb(255,253,194);"/>
                        </g>
                        <g id="v" transform="matrix(0.424002,0,0,0.424002,-773.293,144.35)">
                            <path d="M2506.8,444.608C2509.86,444.628 2513.38,447.006 2514.63,449.886C2515.89,452.772 2514.43,455.119 2511.37,455.106C2490.63,455.017 2466.5,439.044 2459.44,419.355C2428.97,334.294 2426.68,253.314 2437.54,180.175C2440.39,160.93 2460.31,145.84 2480.43,146.305L2480.46,146.306C2569.46,148.761 2658.46,151.215 2747.46,153.67C2750.45,153.753 2752.41,156.219 2751.84,159.124C2751.27,162.031 2748.38,164.349 2745.39,164.263C2656.39,161.721 2567.38,159.179 2478.38,156.637C2464.2,156.299 2450.43,166.949 2448.44,180.458C2437.64,253.544 2440.08,334.461 2470.61,419.478C2475.56,433.266 2492.22,444.514 2506.8,444.608ZM2887.5,73.527C2884.58,75.861 2881.03,75.974 2879.54,74.013C2878.04,72.037 2879.06,68.526 2882,66.196C2886.95,62.276 2893.06,60.923 2897.12,62.776C2901.21,64.637 2902.55,69.38 2900.56,74.597C2863.44,171.686 2859.04,264.741 2881.08,354.591C2882.23,359.252 2881.46,363.641 2879.14,366.925C2877.72,368.931 2874.26,369.132 2871.44,367.287C2868.59,365.428 2867.56,362.259 2869,360.258C2870.13,358.692 2870.52,356.577 2869.98,354.352C2847.88,263.668 2852.94,170.648 2889.58,74.467C2889.82,73.856 2889.6,73.338 2889.18,73.148C2888.76,72.958 2888.08,73.066 2887.5,73.527ZM2765.24,110.499C2768.19,110.55 2771.49,109.482 2774.36,107.392C2777.15,105.358 2780.61,105.514 2782.04,107.661C2783.46,109.793 2782.46,113.236 2779.69,115.27C2774.2,119.304 2767.91,121.335 2762.24,121.228C2676.68,119.611 2591.12,117.994 2505.56,116.378C2500.18,116.276 2496.12,113.012 2495.47,108.221C2494.84,103.472 2497.71,98.046 2502.76,94.665C2530.51,76.084 2562.03,55.49 2594.27,35.017C2600.03,31.361 2606.41,29.447 2611.93,29.487C2625.24,29.584 2638.54,29.682 2651.84,29.779C2654.88,29.802 2656.36,32.214 2655.14,35.149C2653.92,38.073 2650.45,40.45 2647.42,40.42C2634.16,40.292 2620.9,40.163 2607.64,40.034C2604.81,40.007 2601.55,40.982 2598.61,42.865C2566.49,63.407 2535.25,83.985 2507.87,102.469C2507.03,103.038 2506.59,103.961 2506.68,104.692C2506.78,105.437 2507.42,106.01 2508.32,106.026C2593.96,107.517 2679.6,109.008 2765.24,110.499ZM2535.03,276.793C2533.29,277.909 2530.98,277.942 2529.05,276.869C2527.11,275.797 2525.83,273.767 2525.72,271.607C2524.5,246.454 2524.93,212.478 2531.92,172.868C2532.42,170.023 2535.31,167.775 2538.29,167.892C2541.28,168.009 2543.29,170.454 2542.79,173.297C2535.57,214.449 2535.41,249.683 2536.92,275.586L2535.03,276.793ZM2840.18,402.79C2841.43,400.807 2844.87,400.546 2847.87,402.39C2850.85,404.224 2852.15,407.373 2850.92,409.357C2845.01,418.851 2840.45,426.684 2839.57,428.205C2837.28,432.145 2831.53,433.562 2825.13,431.658C2818.73,429.754 2813.05,424.913 2811.03,419.624C2781.03,341.063 2767.94,252.306 2787.88,153.998C2789.28,147.08 2793.39,140.217 2799.49,134.87C2821.43,115.637 2840.88,99.543 2844.53,96.526C2847.26,94.265 2850.82,94.101 2852.43,96.077C2854.03,98.039 2853.22,101.522 2850.52,103.785C2846.92,106.796 2827.72,122.858 2806.09,142.047C2802.25,145.448 2799.67,149.829 2798.77,154.25C2778.84,252.604 2792.17,341.352 2822.2,419.754C2822.63,420.881 2823.88,422.013 2825.32,422.448C2826.79,422.89 2828.07,422.511 2828.57,421.679C2829.47,420.154 2834.14,412.304 2840.18,402.79Z" style="fill:white;"/>
                        </g>
                    </g>
                </g>
            </g>
            <g transform="matrix(0.901417,0,0,0.901417,172.971,204.123)">
                <g>
                    <g transform="matrix(0.828748,-0.199372,0.201144,0.836116,-945.575,316.955)">
                        <path d="M1511.23,234.808C1511.23,234.808 1498.75,223.98 1493.81,232.455C1488.87,240.929 1511.23,234.808 1511.23,234.808Z" style="fill:rgb(22,22,22);"/>
                    </g>
                    <g transform="matrix(0.576843,-0.277424,0.268036,0.557322,-589.774,519.481)">
                        <path d="M1511.23,234.808C1511.23,234.808 1498.75,223.98 1493.81,232.455C1488.87,240.929 1511.23,234.808 1511.23,234.808Z" style="fill:rgb(22,22,22);"/>
                    </g>
                    <g transform="matrix(-1.19678,-0.105647,-0.102072,1.15628,2315.94,97.8357)">
                        <path d="M1511.23,234.808C1511.23,234.808 1498.75,223.98 1493.81,232.455C1488.87,240.929 1511.23,234.808 1511.23,234.808Z" style="fill:rgb(22,22,22);"/>
                    </g>
                    <g transform="matrix(-0.716449,-0.344565,-0.283423,0.589318,1641.16,606.16)">
                        <path d="M1511.23,234.808C1511.23,234.808 1498.75,223.98 1493.81,232.455C1488.87,240.929 1511.23,234.808 1511.23,234.808Z" style="fill:rgb(22,22,22);"/>
                    </g>
                    <g transform="matrix(1,0,0,1,-0.720452,4.80308)">
                        <g transform="matrix(1,0,0,1,-1155.23,0)">
                            <path d="M1620.67,223.508C1620.67,223.508 1597.46,214.255 1597.46,214.254C1596.18,213.744 1595.27,212.547 1595.16,211.13L1595.16,211.116C1595.05,209.694 1595.78,208.369 1596.97,207.674C1596.98,207.673 1625.48,191.093 1625.48,191.093C1627.23,190.075 1629.48,190.67 1630.49,192.42C1631.51,194.17 1630.92,196.418 1629.17,197.436L1614.84,205.77C1618.19,205.445 1621.42,205.101 1623.8,204.784C1625.81,204.516 1627.66,205.929 1627.93,207.936C1628.19,209.943 1626.78,211.79 1624.77,212.058C1622.09,212.415 1618.35,212.806 1614.55,213.168L1623.39,216.692C1625.27,217.442 1626.19,219.578 1625.44,221.459C1624.69,223.34 1622.55,224.258 1620.67,223.508ZM1531.01,215.348C1526.31,215.755 1522.7,216.036 1522.7,216.036C1520.68,216.193 1518.92,214.682 1518.76,212.663C1518.6,210.644 1520.11,208.877 1522.13,208.72C1522.13,208.72 1530.24,208.09 1537.91,207.354L1522.73,197.326C1521.04,196.21 1520.57,193.932 1521.69,192.242C1522.81,190.553 1525.09,190.087 1526.77,191.204L1551.87,207.784C1552.98,208.521 1553.61,209.805 1553.5,211.136C1553.4,212.468 1552.58,213.637 1551.36,214.188L1530.92,223.442C1529.08,224.278 1526.9,223.458 1526.07,221.614C1525.23,219.769 1526.05,217.593 1527.9,216.758C1527.9,216.758 1529.19,216.17 1531.01,215.348Z" style="fill:rgb(22,22,22);"/>
                        </g>
                        <g transform="matrix(1,0,0,1,-1155.23,-9.64001)">
                            <path d="M1549.85,235.524C1549.85,235.524 1586.48,241.694 1598.82,229.74C1598.82,229.74 1577.61,294.135 1549.85,235.524Z" style="fill:rgb(25,25,25);"/>
                        </g>
                    </g>
                </g>
            </g>
        </g>
    </g>
</svg>
