<?xml version="1.0" encoding="UTF-8" standalone="no"?>
<!DOCTYPE svg PUBLIC "-//W3C//DTD SVG 1.1//EN" "http://www.w3.org/Graphics/SVG/1.1/DTD/svg11.dtd">
<svg width="100%" height="100%" viewBox="0 0 181 176" version="1.1" xmlns="http://www.w3.org/2000/svg" xmlns:xlink="http://www.w3.org/1999/xlink" xml:space="preserve" xmlns:serif="http://www.serif.com/" style="fill-rule:evenodd;clip-rule:evenodd;stroke-linejoin:round;stroke-miterlimit:2;">
    <g transform="matrix(1,0,0,1,-489.836,-290.743)">
        <g>
            <g transform="matrix(0.901417,0,0,0.901417,243.683,154.513)">
                <g transform="matrix(1.15906,0,0,1.05419,213.967,-32.7546)">
                    <path d="M191.705,353.84C191.422,354.19 191.122,354.527 190.805,354.851C188.108,357.613 184.45,359.164 180.636,359.164L65.377,359.164C61.563,359.164 57.905,357.613 55.207,354.851C52.51,352.09 50.995,348.344 50.995,344.439L50.995,226.426C50.995,222.833 52.278,219.375 54.584,216.694C54.784,216.461 54.992,216.234 55.207,216.014C55.777,215.431 56.388,214.902 57.035,214.43L98.582,176.073C99.733,175.009 101.23,174.424 102.781,174.429L218.971,174.862C220.216,174.867 221.409,175.378 222.286,176.283C223.163,177.188 223.653,178.413 223.648,179.688L223.094,316.656C223.087,318.429 222.427,320.134 221.245,321.43L191.705,353.84ZM70.418,346.969C65.085,346.969 60.755,342.536 60.755,337.075L60.755,241.215C60.755,235.755 65.083,231.322 70.415,231.321L170.476,231.787C171.602,231.792 172.52,230.861 172.525,229.709C172.53,228.556 171.62,227.616 170.495,227.611L70.427,227.145L70.418,227.145C62.834,227.145 56.676,233.45 56.676,241.215L56.676,337.075C56.676,344.84 62.834,351.145 70.418,351.145C71.544,351.145 72.457,350.209 72.457,349.057C72.457,347.905 71.544,346.969 70.418,346.969ZM198.536,328.247L191.727,336.334C191.406,336.715 190.888,336.851 190.427,336.676C189.967,336.501 189.661,336.051 189.661,335.548L189.661,227.372C189.661,225.607 190.281,223.9 191.407,222.563L204.073,207.521C204.808,206.648 204.713,205.329 203.86,204.576C203.008,203.824 201.719,203.922 200.984,204.794L188.318,219.837C186.553,221.932 185.583,224.606 185.583,227.372L185.583,335.548C185.583,337.796 186.949,339.807 189.007,340.59C191.065,341.374 193.382,340.763 194.816,339.061L201.625,330.974C202.36,330.101 202.265,328.782 201.412,328.029C200.56,327.277 199.271,327.375 198.536,328.247ZM213.877,195.879C214.017,195.713 214.243,195.653 214.445,195.729C214.646,195.806 214.78,196.003 214.78,196.223L214.78,307.538C214.78,308.454 214.458,309.339 213.874,310.033C213.139,310.905 213.235,312.225 214.087,312.977C214.94,313.73 216.228,313.632 216.963,312.76C218.186,311.308 218.858,309.455 218.858,307.538L218.858,196.223C218.858,194.257 217.664,192.5 215.865,191.815C214.066,191.131 212.041,191.664 210.788,193.152C210.053,194.025 210.148,195.345 211.001,196.097C211.853,196.849 213.142,196.752 213.877,195.879ZM173.146,210.667L77.172,210.726C76.842,210.726 76.545,210.518 76.427,210.202C76.308,209.886 76.392,209.528 76.637,209.302L102.856,185.084C103.656,184.345 104.696,183.938 105.774,183.943L120.468,184.007C121.594,184.012 122.511,183.081 122.516,181.928C122.521,180.776 121.611,179.837 120.486,179.832L105.791,179.767C103.699,179.758 101.678,180.548 100.124,181.983L73.905,206.201C72.406,207.585 71.895,209.773 72.62,211.702C73.345,213.631 75.156,214.903 77.175,214.902L173.148,214.843C175.342,214.842 177.45,213.969 179.028,212.409C179.838,211.608 179.86,210.285 179.079,209.456C178.297,208.627 177.005,208.604 176.195,209.405C175.377,210.214 174.284,210.666 173.146,210.667ZM91.54,277.078C91.553,277.953 91.995,278.752 92.697,279.165C93.398,279.579 94.248,279.543 94.918,279.07C95.346,278.769 95.639,278.562 95.639,278.562C95.465,266.569 95.303,252.07 95.515,237.366C95.531,236.213 94.631,235.264 93.506,235.247C92.38,235.23 91.453,236.152 91.437,237.304C91.233,251.431 91.375,265.37 91.54,277.078Z" style="fill:rgb(255,253,194);"/>
                </g>
                <g id="v" transform="matrix(0.424002,0,0,0.424002,-773.293,144.35)">
                    <path d="M2520.93,444.972C2524,444.972 2526.5,447.298 2526.5,450.163C2526.5,453.028 2524,455.354 2520.93,455.354C2500.19,455.354 2483.36,439.679 2483.36,420.371L2483.36,182.036C2483.36,162.728 2500.19,147.053 2520.93,147.053L2520.95,147.053L2794.5,148.212C2797.57,148.225 2800.06,150.562 2800.05,153.427C2800.03,156.292 2797.52,158.608 2794.45,158.595L2520.92,157.435C2506.34,157.439 2494.51,168.461 2494.51,182.036L2494.51,420.371C2494.51,433.948 2506.35,444.972 2520.93,444.972ZM2913.09,69.317C2911.08,71.487 2907.55,71.73 2905.22,69.859C2902.89,67.988 2902.63,64.707 2904.64,62.537C2908.07,58.837 2913.6,57.511 2918.52,59.212C2923.44,60.914 2926.7,65.285 2926.7,70.171L2926.7,346.934C2926.7,351.7 2924.87,356.307 2921.52,359.916C2919.51,362.086 2915.99,362.329 2913.66,360.458C2911.33,358.587 2911.07,355.307 2913.08,353.137C2914.68,351.412 2915.55,349.211 2915.55,346.934L2915.55,70.171C2915.55,69.624 2915.19,69.135 2914.64,68.945C2914.09,68.754 2913.47,68.903 2913.09,69.317ZM2801.74,106.084C2804.85,106.082 2807.84,104.957 2810.08,102.945C2812.29,100.955 2815.83,101.013 2817.96,103.074C2820.1,105.135 2820.04,108.424 2817.82,110.414C2813.51,114.293 2807.75,116.463 2801.75,116.466L2539.4,116.614C2533.88,116.617 2528.93,113.453 2526.95,108.657C2524.97,103.86 2526.36,98.422 2530.46,94.98L2602.13,34.768C2606.38,31.199 2611.9,29.235 2617.62,29.257L2657.79,29.418C2660.87,29.43 2663.36,31.766 2663.34,34.631C2663.33,37.497 2660.82,39.813 2657.74,39.8L2617.58,39.64C2614.63,39.628 2611.79,40.64 2609.6,42.477L2537.93,102.689C2537.26,103.253 2537.03,104.143 2537.35,104.928C2537.68,105.714 2538.49,106.232 2539.39,106.231L2801.74,106.084ZM2587.9,276.155C2586.07,277.33 2583.74,277.421 2581.83,276.393C2579.91,275.364 2578.7,273.377 2578.66,271.201C2578.22,242.092 2577.83,207.437 2578.38,172.311C2578.43,169.447 2580.96,167.155 2584.04,167.197C2587.12,167.239 2589.58,169.6 2589.53,172.464C2588.95,209.024 2589.4,245.074 2589.87,274.892C2589.87,274.892 2589.07,275.405 2587.9,276.155ZM2871.15,398.424C2873.16,396.254 2876.68,396.011 2879.01,397.882C2881.34,399.753 2881.6,403.033 2879.6,405.203L2860.98,425.309C2857.06,429.542 2850.73,431.059 2845.1,429.112C2839.47,427.165 2835.74,422.165 2835.74,416.575L2835.74,147.618C2835.74,140.74 2838.39,134.091 2843.22,128.882L2877.84,91.483C2879.85,89.313 2883.38,89.07 2885.71,90.941C2888.04,92.812 2888.3,96.093 2886.29,98.262L2851.66,135.662C2848.58,138.986 2846.89,143.229 2846.89,147.619L2846.89,416.575C2846.89,417.826 2847.73,418.944 2848.99,419.38C2850.24,419.815 2851.66,419.476 2852.54,418.529L2871.15,398.424Z" style="fill:white;"/>
                </g>
            </g>
            <g transform="matrix(0.901417,0,0,0.901417,195.499,204.123)">
                <g>
                    <g transform="matrix(0.828748,-0.199372,0.201144,0.836116,-945.575,316.955)">
                        <path d="M1511.23,234.808C1511.23,234.808 1498.75,223.98 1493.81,232.455C1488.87,240.929 1511.23,234.808 1511.23,234.808Z" style="fill:rgb(22,22,22);"/>
                    </g>
                    <g transform="matrix(0.576843,-0.277424,0.268036,0.557322,-589.774,519.481)">
                        <path d="M1511.23,234.808C1511.23,234.808 1498.75,223.98 1493.81,232.455C1488.87,240.929 1511.23,234.808 1511.23,234.808Z" style="fill:rgb(22,22,22);"/>
                    </g>
                    <g transform="matrix(-1.19678,-0.105647,-0.102072,1.15628,2315.94,97.8357)">
                        <path d="M1511.23,234.808C1511.23,234.808 1498.75,223.98 1493.81,232.455C1488.87,240.929 1511.23,234.808 1511.23,234.808Z" style="fill:rgb(22,22,22);"/>
                    </g>
                    <g transform="matrix(-0.716449,-0.344565,-0.283423,0.589318,1641.16,606.16)">
                        <path d="M1511.23,234.808C1511.23,234.808 1498.75,223.98 1493.81,232.455C1488.87,240.929 1511.23,234.808 1511.23,234.808Z" style="fill:rgb(22,22,22);"/>
                    </g>
                    <g transform="matrix(1,0,0,1,-0.720452,4.80308)">
                        <g transform="matrix(1,0,0,1,-1155.23,0)">
                            <path d="M1620.67,223.508C1620.67,223.508 1597.46,214.255 1597.46,214.254C1596.18,213.744 1595.27,212.547 1595.16,211.13L1595.16,211.116C1595.05,209.694 1595.78,208.369 1596.97,207.674C1596.98,207.673 1625.48,191.093 1625.48,191.093C1627.23,190.075 1629.48,190.67 1630.49,192.42C1631.51,194.17 1630.92,196.418 1629.17,197.436L1614.84,205.77C1618.19,205.445 1621.42,205.101 1623.8,204.784C1625.81,204.516 1627.66,205.929 1627.93,207.936C1628.19,209.943 1626.78,211.79 1624.77,212.058C1622.09,212.415 1618.35,212.806 1614.55,213.168L1623.39,216.692C1625.27,217.442 1626.19,219.578 1625.44,221.459C1624.69,223.34 1622.55,224.258 1620.67,223.508ZM1531.01,215.348C1526.31,215.755 1522.7,216.036 1522.7,216.036C1520.68,216.193 1518.92,214.682 1518.76,212.663C1518.6,210.644 1520.11,208.877 1522.13,208.72C1522.13,208.72 1530.24,208.09 1537.91,207.354L1522.73,197.326C1521.04,196.21 1520.57,193.932 1521.69,192.242C1522.81,190.553 1525.09,190.087 1526.77,191.204L1551.87,207.784C1552.98,208.521 1553.61,209.805 1553.5,211.136C1553.4,212.468 1552.58,213.637 1551.36,214.188L1530.92,223.442C1529.08,224.278 1526.9,223.458 1526.07,221.614C1525.23,219.769 1526.05,217.593 1527.9,216.758C1527.9,216.758 1529.19,216.17 1531.01,215.348Z" style="fill:rgb(22,22,22);"/>
                        </g>
                        <g transform="matrix(1,0,0,1,-1155.23,-9.64001)">
                            <path d="M1549.85,235.524C1549.85,235.524 1586.48,241.694 1598.82,229.74C1598.82,229.74 1577.61,294.135 1549.85,235.524Z" style="fill:rgb(25,25,25);"/>
                        </g>
                    </g>
                </g>
            </g>
        </g>
    </g>
</svg>
