<?xml version="1.0" encoding="UTF-8" standalone="no"?>
<!DOCTYPE svg PUBLIC "-//W3C//DTD SVG 1.1//EN" "http://www.w3.org/Graphics/SVG/1.1/DTD/svg11.dtd">
<svg width="100%" height="100%" viewBox="0 0 194 176" version="1.1" xmlns="http://www.w3.org/2000/svg" xmlns:xlink="http://www.w3.org/1999/xlink" xml:space="preserve" xmlns:serif="http://www.serif.com/" style="fill-rule:evenodd;clip-rule:evenodd;stroke-linejoin:round;stroke-miterlimit:2;">
    <g transform="matrix(1,0,0,1,-258.215,-290.743)">
        <g>
            <g transform="matrix(0.901417,0,0,0.901417,12.0623,154.513)">
                <g>
                    <g transform="matrix(1.15906,0,0,1.05419,213.967,-32.7546)">
                        <path d="M192.52,353.744C192.015,354.28 191.556,354.694 191.469,354.773C188.334,357.605 184.383,359.164 180.636,359.164L65.377,359.164C61.559,359.164 58.181,357.561 56.007,354.79C53.863,352.056 52.942,348.244 53.569,344.243C60.346,301.005 60.649,261.098 57.748,225.914C57.453,222.33 58.447,218.867 60.461,216.241L61.017,215.565C61.782,214.699 62.543,214.103 62.688,213.99C76.703,199.799 88.845,186.994 98.883,176.045C99.111,175.796 100.372,174.421 102.781,174.429C141.541,174.57 180.3,174.71 219.06,174.851C219.369,174.852 221.01,174.858 222.666,176.234C224.327,177.614 224.643,179.246 224.702,179.552C233.483,224.876 232.928,271.069 228.402,315.97C228.359,316.397 228.12,318.76 226.078,320.808C214.763,332.153 203.283,343.412 192.52,353.744ZM72.535,346.798C67.222,346.8 63.628,342.305 64.4,336.789C68.811,305.283 70.246,273.099 68.522,240.602C68.235,235.174 72.246,230.747 77.585,230.732C111.013,230.804 144.442,230.876 177.87,230.948C178.982,230.95 179.859,230.01 179.787,228.88C179.716,227.753 178.714,226.806 177.607,226.803C144.165,226.729 110.724,226.655 77.282,226.581L77.273,226.581C69.673,226.6 64.027,232.895 64.439,240.612C66.195,273.498 64.708,305.671 60.337,336.792C59.236,344.634 64.281,351.032 71.845,351.03C72.944,351.03 74.042,350.068 74.23,348.913C74.419,347.748 73.649,346.798 72.535,346.798ZM202.726,327.743C202.107,328.401 198.849,331.869 194.967,335.952C194.595,336.343 194.043,336.468 193.629,336.3C193.213,336.131 192.946,335.668 193.009,335.156C197.223,301.223 199.509,264.159 196.798,226.52C196.602,223.803 197.936,222.066 198.178,221.751C199.086,220.569 204.009,214.157 209.378,206.864C210.01,206.006 209.73,204.683 208.807,203.964C207.887,203.247 206.579,203.322 205.95,204.183C200.632,211.469 195.748,217.878 194.848,219.059C193.287,221.107 192.512,223.779 192.711,226.53C195.439,264.274 193.159,301.344 188.947,335.158C188.662,337.444 189.78,339.491 191.704,340.275C193.626,341.059 196.04,340.452 197.694,338.718C198.319,338.063 201.589,334.635 205.483,330.506C206.295,329.644 206.372,328.277 205.614,327.519C204.864,326.769 203.55,326.866 202.726,327.743ZM217.665,195.399C217.858,195.127 218.17,195.236 218.213,195.251C218.26,195.268 218.567,195.376 218.621,195.735C224.296,233.655 223.913,271.466 220.961,306.757C220.943,306.977 220.841,308.191 219.844,309.28C219.047,310.152 219.024,311.511 219.79,312.258C220.559,313.01 221.871,312.905 222.672,312.034C224.769,309.751 224.982,307.211 225.02,306.75C227.982,271.394 228.386,233.586 222.71,195.729C222.422,193.813 220.941,192.078 219.036,191.411C217.122,190.742 215.171,191.284 214.157,192.728C213.561,193.576 213.874,194.898 214.814,195.617C215.757,196.337 217.062,196.25 217.665,195.399ZM178.722,210.027C146.642,210.11 114.562,210.194 82.483,210.277C81.933,210.278 81.71,209.828 81.676,209.759C81.645,209.695 81.42,209.24 81.786,208.867C90.531,199.936 98.381,191.696 104.72,184.909C104.882,184.737 105.777,183.778 107.454,183.784C112.363,183.802 117.271,183.82 122.18,183.837C123.3,183.841 124.07,182.921 123.876,181.792C123.684,180.677 122.582,179.737 121.476,179.733C116.57,179.714 111.664,179.695 106.758,179.675C103.505,179.663 101.778,181.523 101.467,181.859C95.206,188.605 87.411,196.839 78.684,205.801C77.364,207.157 77.086,209.34 78.025,211.253C78.962,213.162 80.926,214.421 82.932,214.415C115.009,214.328 147.087,214.24 179.165,214.153C181.378,214.147 183.416,213.254 184.809,211.735C185.533,210.946 185.389,209.614 184.536,208.82C183.685,208.029 182.358,207.986 181.639,208.775C181.468,208.962 180.502,210.022 178.722,210.027ZM99.86,276.346C99.854,277.229 100.309,278.043 100.965,278.436C101.633,278.837 102.509,278.806 103.182,278.336L103.913,277.825C104.072,261.848 103.55,246.74 103.116,236.681C103.067,235.551 102.085,234.593 100.978,234.579C99.865,234.565 98.979,235.497 99.028,236.63C99.463,246.608 99.966,261.049 99.86,276.346Z" style="fill:rgb(255,253,194);"/>
                    </g>
                    <g id="v" transform="matrix(0.424002,0,0,0.424002,-773.293,144.35)">
                        <path d="M2526.72,444.546C2529.78,444.545 2531.86,446.924 2531.35,449.805C2530.83,452.689 2527.89,455.067 2524.83,455.068C2504.11,455.072 2490.36,439.16 2493.37,419.667C2505.36,342.041 2509.37,262.02 2504.58,180.537C2503.46,161.349 2518.85,145.697 2539.67,145.652L2539.69,145.652C2631.11,145.836 2722.52,146.02 2813.94,146.204C2817.02,146.21 2819.7,148.547 2819.9,151.366C2820.1,154.183 2817.74,156.515 2814.66,156.509C2723.28,156.33 2631.9,156.15 2540.52,155.971C2525.9,156.008 2514.96,167.032 2515.74,180.511C2520.44,261.072 2516.57,341.124 2504.48,419.661C2502.37,433.357 2512.17,444.551 2526.72,444.546ZM2923.44,68.123C2921.81,70.221 2918.3,70.508 2915.65,68.664C2913,66.825 2912.23,63.58 2913.85,61.482C2916.62,57.903 2921.94,56.538 2927.19,58.208C2932.43,59.875 2936.45,64.207 2937.23,68.944C2952.79,163.334 2951.61,257.474 2943.55,344.976C2943.11,349.709 2940.85,354.427 2937.13,358.112C2934.91,360.305 2931.36,360.545 2929.25,358.67C2927.14,356.8 2927.19,353.461 2929.4,351.266C2929.8,350.872 2932.12,348.557 2932.45,344.992C2940.48,257.663 2941.62,163.515 2926.05,68.958C2925.97,68.448 2925.53,67.943 2924.94,67.756C2924.34,67.565 2923.74,67.742 2923.44,68.123ZM2816.99,104.493C2820.15,104.485 2823.01,103.322 2824.96,101.379C2826.91,99.428 2830.49,99.466 2832.88,101.492C2835.28,103.527 2835.59,106.792 2833.63,108.74C2829.85,112.487 2824.29,114.736 2818.2,114.751C2730.51,114.968 2642.82,115.186 2555.13,115.403C2549.62,115.417 2544.27,112.261 2541.72,107.54C2539.17,102.81 2539.89,97.378 2543.52,93.987C2567.45,71.639 2588.76,51.165 2605.8,34.458C2609.29,31.037 2614.44,29.009 2620.26,29.03C2633.68,29.078 2647.09,29.125 2660.5,29.173C2663.57,29.184 2666.53,31.501 2667.06,34.293C2667.59,37.083 2665.5,39.388 2662.42,39.378C2649.01,39.333 2635.59,39.289 2622.17,39.245C2619.17,39.235 2616.51,40.281 2614.7,42.043C2597.43,58.851 2575.97,79.342 2552,101.608C2551.42,102.144 2551.28,103.049 2551.7,103.827C2552.11,104.584 2553.01,105.116 2553.91,105.114C2641.6,104.907 2729.29,104.7 2816.99,104.493ZM2610.49,274.328C2608.64,275.505 2606.3,275.6 2604.43,274.579C2602.55,273.558 2601.39,271.554 2601.41,269.382C2601.7,231.972 2600.38,196.633 2599.14,170.636C2599,167.813 2601.38,165.501 2604.46,165.536C2607.54,165.571 2610.18,167.937 2610.31,170.763C2611.55,197.012 2612.92,233.962 2612.49,273.058L2610.49,274.328ZM2882.61,397.169C2884.88,394.964 2888.44,394.741 2890.5,396.613C2892.56,398.487 2892.43,401.832 2890.14,404.038C2888.44,405.677 2879.5,414.305 2868.85,424.458C2864.37,428.724 2857.79,430.302 2852.47,428.329C2847.16,426.356 2844.16,421.268 2844.94,415.607C2856.37,332.12 2862.72,239.773 2855.23,145.525C2854.69,138.73 2856.77,132.075 2861.07,126.948C2863.53,124.015 2876.88,108.079 2891.42,89.964C2893.12,87.844 2896.64,87.581 2899.23,89.417C2901.83,91.261 2902.5,94.512 2900.79,96.628C2886.11,114.76 2872.65,130.706 2870.17,133.642C2867.41,136.918 2866.06,141.165 2866.4,145.5C2873.84,239.469 2867.48,331.798 2856.04,415.6C2855.87,416.846 2856.57,418.014 2857.74,418.445C2858.88,418.868 2860.39,418.542 2861.39,417.579C2863.1,415.951 2872.01,407.428 2882.61,397.169Z" style="fill:white;"/>
                    </g>
                </g>
            </g>
            <g transform="matrix(0.901417,0,0,0.901417,-36.1216,204.123)">
                <g>
                    <g transform="matrix(0.828748,-0.199372,0.201144,0.836116,-945.575,316.955)">
                        <path d="M1511.23,234.808C1511.23,234.808 1498.75,223.98 1493.81,232.455C1488.87,240.929 1511.23,234.808 1511.23,234.808Z" style="fill:rgb(22,22,22);"/>
                    </g>
                    <g transform="matrix(-1.19678,-0.105647,-0.102072,1.15628,2315.94,97.8357)">
                        <path d="M1511.23,234.808C1511.23,234.808 1498.75,223.98 1493.81,232.455C1488.87,240.929 1511.23,234.808 1511.23,234.808Z" style="fill:rgb(22,22,22);"/>
                    </g>
                    <g transform="matrix(1,0,0,1,-0.720452,4.80308)">
                        <g transform="matrix(1,0,0,1,-1155.23,0)">
                            <path d="M1620.67,223.508C1620.67,223.508 1597.46,214.255 1597.46,214.254C1596.18,213.744 1595.27,212.547 1595.16,211.13L1595.16,211.116C1595.05,209.694 1595.78,208.369 1596.97,207.674C1596.98,207.673 1625.48,191.093 1625.48,191.093C1627.23,190.075 1629.48,190.67 1630.49,192.42C1631.51,194.17 1630.92,196.418 1629.17,197.436L1614.84,205.77C1618.19,205.445 1621.42,205.101 1623.8,204.784C1625.81,204.516 1627.66,205.929 1627.93,207.936C1628.19,209.943 1626.78,211.79 1624.77,212.058C1622.09,212.415 1618.35,212.806 1614.55,213.168L1623.39,216.692C1625.27,217.442 1626.19,219.578 1625.44,221.459C1624.69,223.34 1622.55,224.258 1620.67,223.508ZM1531.01,215.348C1526.31,215.755 1522.7,216.036 1522.7,216.036C1520.68,216.193 1518.92,214.682 1518.76,212.663C1518.6,210.644 1520.11,208.877 1522.13,208.72C1522.13,208.72 1530.24,208.09 1537.91,207.354L1522.73,197.326C1521.04,196.21 1520.57,193.932 1521.69,192.242C1522.81,190.553 1525.09,190.087 1526.77,191.204L1551.87,207.784C1552.98,208.521 1553.61,209.805 1553.5,211.136C1553.4,212.468 1552.58,213.637 1551.36,214.188L1530.92,223.442C1529.08,224.278 1526.9,223.458 1526.07,221.614C1525.23,219.769 1526.05,217.593 1527.9,216.758C1527.9,216.758 1529.19,216.17 1531.01,215.348Z" style="fill:rgb(22,22,22);"/>
                        </g>
                        <g transform="matrix(1,0,0,1,-1155.23,-9.64001)">
                            <path d="M1549.85,235.524C1549.85,235.524 1586.48,241.694 1598.82,229.74C1598.82,229.74 1577.61,294.135 1549.85,235.524Z" style="fill:rgb(25,25,25);"/>
                        </g>
                    </g>
                </g>
            </g>
        </g>
    </g>
</svg>
