<?xml version="1.0" encoding="UTF-8" standalone="no"?>
<!DOCTYPE svg PUBLIC "-//W3C//DTD SVG 1.1//EN" "http://www.w3.org/Graphics/SVG/1.1/DTD/svg11.dtd">
<svg width="100%" height="100%" viewBox="0 0 405 84" version="1.1" xmlns="http://www.w3.org/2000/svg" xmlns:xlink="http://www.w3.org/1999/xlink" xml:space="preserve" xmlns:serif="http://www.serif.com/" style="fill-rule:evenodd;clip-rule:evenodd;stroke-linejoin:round;stroke-miterlimit:2;">
    <g transform="matrix(1,0,0,1,-2633.49,-3427.54)">
        <g transform="matrix(1,0,0,0.703946,271.74,1917.76)">
            <g transform="matrix(-1,-1.73969e-16,1.22465e-16,-1.42056,4587.88,6463.27)">
                <path d="M1825.66,3039.4C1824.84,3040.22 1823.52,3040.22 1822.71,3039.41C1821.89,3038.6 1821.89,3037.28 1822.7,3036.46C1822.7,3036.46 1823.76,3035.4 1825.81,3033.52C1826.66,3032.75 1827.98,3032.81 1828.76,3033.65C1829.53,3034.5 1829.47,3035.82 1828.62,3036.6C1826.66,3038.39 1825.66,3039.4 1825.66,3039.4ZM1838.04,3028.5C1837.15,3029.22 1835.84,3029.09 1835.11,3028.2C1834.39,3027.31 1834.52,3025.99 1835.41,3025.27C1837.39,3023.65 1839.6,3021.9 1842.02,3020.04C1842.93,3019.34 1844.24,3019.52 1844.94,3020.43C1845.64,3021.34 1845.47,3022.65 1844.56,3023.35C1842.17,3025.18 1840,3026.9 1838.04,3028.5ZM1854.6,3015.98C1853.66,3016.64 1852.36,3016.41 1851.7,3015.47C1851.03,3014.53 1851.26,3013.23 1852.2,3012.57C1854.4,3011.02 1856.72,3009.43 1859.15,3007.82C1860.11,3007.18 1861.4,3007.45 1862.04,3008.4C1862.68,3009.36 1862.41,3010.66 1861.46,3011.29C1859.06,3012.88 1856.77,3014.45 1854.6,3015.98ZM1871.97,3004.6C1870.99,3005.2 1869.7,3004.89 1869.11,3003.91C1868.51,3002.92 1868.82,3001.64 1869.8,3001.04C1872.14,2999.62 1874.55,2998.19 1877.05,2996.76C1878.04,2996.18 1879.32,2996.53 1879.89,2997.52C1880.46,2998.52 1880.12,2999.8 1879.12,3000.37C1876.66,3001.78 1874.28,3003.2 1871.97,3004.6ZM1890.05,2994.37C1889.03,2994.91 1887.77,2994.51 1887.23,2993.49C1886.7,2992.47 1887.09,2991.22 1888.11,2990.68C1890.55,2989.4 1893.06,2988.13 1895.62,2986.88C1896.65,2986.37 1897.9,2986.8 1898.41,2987.83C1898.91,2988.86 1898.49,2990.11 1897.45,2990.62C1894.92,2991.86 1892.45,2993.11 1890.05,2994.37ZM1908.75,2985.35C1907.7,2985.82 1906.47,2985.34 1906,2984.29C1905.54,2983.24 1906.01,2982.01 1907.07,2981.54C1909.6,2980.42 1912.18,2979.32 1914.81,2978.25C1915.88,2977.81 1917.09,2978.32 1917.53,2979.39C1917.97,2980.45 1917.45,2981.67 1916.39,2982.1C1913.8,2983.16 1911.25,2984.25 1908.75,2985.35ZM1928.01,2977.62C1926.93,2978.01 1925.74,2977.45 1925.35,2976.37C1924.95,2975.29 1925.52,2974.1 1926.6,2973.7C1929.21,2972.76 1931.86,2971.84 1934.56,2970.95C1935.65,2970.59 1936.83,2971.18 1937.19,2972.28C1937.55,2973.37 1936.95,2974.55 1935.86,2974.91C1933.2,2975.78 1930.59,2976.69 1928.01,2977.62ZM1947.77,2971.26C1946.66,2971.57 1945.51,2970.93 1945.2,2969.82C1944.88,2968.72 1945.53,2967.56 1946.63,2967.25C1949.31,2966.49 1952.02,2965.77 1954.77,2965.08C1955.89,2964.8 1957.02,2965.47 1957.3,2966.59C1957.58,2967.7 1956.9,2968.84 1955.79,2969.12C1953.08,2969.8 1950.41,2970.51 1947.77,2971.26ZM1967.93,2966.35C1966.8,2966.58 1965.7,2965.86 1965.47,2964.73C1965.24,2963.6 1965.97,2962.5 1967.09,2962.27C1969.82,2961.71 1972.58,2961.19 1975.37,2960.71C1976.51,2960.51 1977.58,2961.27 1977.78,2962.41C1977.98,2963.54 1977.22,2964.62 1976.08,2964.82C1973.33,2965.29 1970.62,2965.8 1967.93,2966.35ZM1988.39,2962.98C1987.25,2963.12 1986.21,2962.31 1986.07,2961.17C1985.92,2960.03 1986.73,2958.99 1987.87,2958.84C1990.64,2958.49 1993.43,2958.18 1996.25,2957.92C1997.39,2957.81 1998.41,2958.65 1998.52,2959.8C1998.63,2960.94 1997.79,2961.96 1996.64,2962.07C1993.87,2962.33 1991.12,2962.63 1988.39,2962.98ZM2009.06,2961.18C2007.91,2961.24 2006.93,2960.35 2006.88,2959.2C2006.82,2958.05 2007.71,2957.08 2008.86,2957.02C2011.64,2956.89 2014.45,2956.8 2017.28,2956.76C2018.43,2956.74 2019.38,2957.66 2019.4,2958.8C2019.42,2959.95 2018.5,2960.9 2017.35,2960.92C2014.56,2960.97 2011.8,2961.05 2009.06,2961.18ZM2029.79,2961.01C2028.64,2960.98 2027.74,2960.02 2027.77,2958.87C2027.81,2957.72 2028.77,2956.81 2029.92,2956.85C2032.71,2956.93 2035.51,2957.07 2038.34,2957.24C2039.49,2957.31 2040.36,2958.3 2040.29,2959.45C2040.22,2960.6 2039.23,2961.47 2038.08,2961.4C2035.3,2961.23 2032.54,2961.1 2029.79,2961.01ZM2050.48,2962.46C2049.34,2962.34 2048.51,2961.31 2048.64,2960.17C2048.76,2959.02 2049.79,2958.2 2050.93,2958.32C2053.7,2958.62 2056.49,2958.97 2059.3,2959.37C2060.43,2959.52 2061.23,2960.58 2061.07,2961.72C2060.91,2962.86 2059.85,2963.65 2058.72,2963.49C2055.95,2963.1 2053.21,2962.76 2050.48,2962.46ZM2071,2965.5C2069.87,2965.29 2069.12,2964.2 2069.34,2963.07C2069.55,2961.94 2070.64,2961.2 2071.77,2961.41C2074.5,2961.92 2077.26,2962.48 2080.02,2963.08C2081.15,2963.33 2081.86,2964.44 2081.61,2965.56C2081.37,2966.68 2080.26,2967.4 2079.13,2967.15C2076.41,2966.56 2073.7,2966.01 2071,2965.5ZM2091.24,2970.08C2090.13,2969.78 2089.46,2968.64 2089.76,2967.53C2090.05,2966.42 2091.19,2965.75 2092.3,2966.05C2094.99,2966.76 2097.7,2967.52 2100.41,2968.32C2101.52,2968.65 2102.15,2969.81 2101.82,2970.91C2101.49,2972.01 2100.34,2972.64 2099.23,2972.32C2096.55,2971.53 2093.89,2970.78 2091.24,2970.08ZM2111.1,2976.1C2110.01,2975.73 2109.43,2974.54 2109.8,2973.45C2110.17,2972.37 2111.36,2971.78 2112.45,2972.16C2115.08,2973.05 2117.72,2974 2120.38,2974.99C2121.45,2975.39 2122,2976.59 2121.6,2977.66C2121.2,2978.74 2120,2979.29 2118.92,2978.89C2116.3,2977.91 2113.7,2976.99 2111.1,2976.1ZM2130.51,2983.47C2129.45,2983.02 2128.95,2981.8 2129.39,2980.74C2129.84,2979.68 2131.06,2979.18 2132.12,2979.62C2134.68,2980.69 2137.26,2981.81 2139.84,2982.97C2140.89,2983.44 2141.36,2984.67 2140.89,2985.72C2140.42,2986.77 2139.19,2987.24 2138.14,2986.77C2135.59,2985.63 2133.05,2984.53 2130.51,2983.47ZM2149.42,2992.08C2148.39,2991.57 2147.96,2990.32 2148.47,2989.28C2148.98,2988.25 2150.23,2987.83 2151.26,2988.34C2153.75,2989.57 2156.25,2990.84 2158.76,2992.15C2159.78,2992.68 2160.18,2993.94 2159.64,2994.96C2159.11,2995.98 2157.85,2996.37 2156.83,2995.84C2154.35,2994.54 2151.88,2993.29 2149.42,2992.08ZM2167.78,3001.81C2166.78,3001.24 2166.43,2999.97 2167,2998.97C2167.57,2997.97 2168.84,2997.62 2169.84,2998.18C2172.26,2999.55 2174.68,3000.96 2177.11,3002.41C2178.1,3003 2178.42,3004.28 2177.83,3005.27C2177.24,3006.25 2175.96,3006.58 2174.97,3005.99C2172.57,3004.55 2170.17,3003.16 2167.78,3001.81ZM2185.59,3012.55C2184.62,3011.93 2184.34,3010.64 2184.95,3009.67C2185.58,3008.7 2186.86,3008.42 2187.83,3009.04C2190.17,3010.54 2192.51,3012.07 2194.87,3013.64C2195.82,3014.28 2196.08,3015.58 2195.44,3016.53C2194.8,3017.49 2193.5,3017.75 2192.55,3017.11C2190.22,3015.55 2187.9,3014.03 2185.59,3012.55ZM2202.82,3024.2C2201.88,3023.53 2201.66,3022.23 2202.33,3021.29C2203,3020.36 2204.3,3020.14 2205.24,3020.8C2207.5,3022.41 2209.76,3024.06 2212.03,3025.74C2212.96,3026.43 2213.15,3027.73 2212.47,3028.66C2211.78,3029.58 2210.48,3029.78 2209.55,3029.09C2207.3,3027.43 2205.06,3025.79 2202.82,3024.2ZM2219.49,3036.66C2218.58,3035.95 2218.42,3034.64 2219.13,3033.73C2219.84,3032.83 2221.15,3032.67 2222.06,3033.38C2223.15,3034.24 2224.25,3035.1 2225.35,3035.98C2226.25,3036.7 2226.4,3038.01 2225.68,3038.91C2224.97,3039.81 2223.66,3039.95 2222.76,3039.24C2221.66,3038.37 2220.58,3037.51 2219.49,3036.66Z" style="fill:rgb(255,164,242);"/>
            </g>
        </g>
    </g>
</svg>
