<?xml version="1.0" encoding="UTF-8" standalone="no"?>
<!DOCTYPE svg PUBLIC "-//W3C//DTD SVG 1.1//EN" "http://www.w3.org/Graphics/SVG/1.1/DTD/svg11.dtd">
<svg width="100%" height="100%" viewBox="0 0 491 491" version="1.1" xmlns="http://www.w3.org/2000/svg" xmlns:xlink="http://www.w3.org/1999/xlink" xml:space="preserve" xmlns:serif="http://www.serif.com/" style="fill-rule:evenodd;clip-rule:evenodd;stroke-linejoin:round;stroke-miterlimit:2;">
    <g transform="matrix(1,0,0,1,-3735.93,0)">
        <g id="Artboard4" transform="matrix(1,0,0,1,2562.72,0)">
            <rect x="1173.2" y="0" width="490.2" height="490.2" style="fill:none;"/>
            <g transform="matrix(1.57099,0,0,1.57099,-926.589,-47.4708)">
                <g transform="matrix(2.07205,0,0,2.07205,-315.051,-1158.04)">
                    <g>
                        <g transform="matrix(0.764924,0,0,0.764924,767.364,440.041)">
                            <path d="M191.97,356.075C191.896,356.124 191.52,356.374 191.022,356.652C188.271,358.183 184.451,359.164 180.636,359.164C142.216,359.164 103.797,359.164 65.377,359.164C61.523,359.164 57.962,357.904 55.481,355.829C52.952,353.713 51.639,350.843 51.785,347.937C53.28,318.091 49.806,291.034 44.496,265.529C44.029,263.286 44.706,260.4 46.656,257.299L47.171,256.518C47.288,256.349 47.883,255.487 48.739,254.489C61.151,237.585 72.735,218.977 84.094,200.089C85.674,197.461 87.676,196.386 88.07,196.175C126.909,175.316 167.59,169.919 217.569,198.071C220.068,199.479 221.606,201.984 221.861,202.4C222.101,202.791 223.637,205.293 223.623,207.863C223.292,266.301 226.168,310.812 225.176,338.388C225.147,339.208 224.635,340.193 223.137,340.748C212.144,344.817 201.479,350.45 191.97,356.075ZM57.645,342.24C58.994,342.2 60.342,342.16 61.691,342.12C62.322,317.354 59.768,293.908 55.968,271.655C55.284,267.652 59.239,262.669 64.15,260.731C96.52,248.091 128.987,240.693 164.677,246.733C165.868,246.935 166.77,246.089 166.666,244.823C166.564,243.576 165.484,242.333 164.293,242.136C128.484,236.21 96.002,244.166 63.613,257.533L63.604,257.537C56.769,260.385 50.992,267.542 51.981,273.15C55.794,294.763 58.319,317.714 57.645,342.24ZM199.515,340.507C198.948,340.862 196.121,342.629 192.492,345.043C191.94,345.41 191.268,345.171 191.168,345.135C190.662,344.955 190.4,344.577 190.404,344.291C190.786,319.757 187.943,286.768 185.145,246.732C185.116,246.328 184.929,243.652 186.722,241.932C189.736,239.038 194.57,234.53 200.264,229.862C201.059,229.209 200.905,227.575 199.855,226.244C198.786,224.889 197.272,224.438 196.486,225.123C190.855,230.031 186.057,234.743 183.057,237.77C181.359,239.483 180.396,242.194 180.635,245.426C183.598,285.497 186.555,318.75 186.267,343.866C186.25,345.347 187.5,346.883 189.667,347.611C191.729,348.303 194.14,348.073 195.582,347.152C199.229,344.824 202.085,343.124 202.656,342.783C203.366,342.36 203.362,341.477 202.468,340.821C201.591,340.177 200.241,340.053 199.515,340.507ZM211.538,221.315C211.677,221.218 211.666,230.076 214.044,275.615C215.121,296.242 216.179,315.165 216.425,329.973C216.429,330.56 216.117,331.114 215.476,331.437C214.746,331.806 214.781,332.746 215.703,333.507C216.611,334.256 218.007,334.509 218.737,334.165C220.142,333.505 220.76,332.385 220.762,331.245C220.794,306.152 218.525,270.118 217.708,225.021C217.665,222.636 210.763,221.854 211.538,221.315ZM165.527,223.33C130.547,217.69 99.089,226.652 67.942,241.683C67.884,241.711 67.405,241.942 67.137,241.616C66.87,241.29 67.177,240.847 67.215,240.792C75.002,229.542 82.563,217.765 89.632,206.551C90.724,204.818 92.119,204.171 92.39,204.045C97.948,201.468 103.016,199.461 107.211,197.983C108.342,197.585 109.168,196.239 109.028,195.018C108.885,193.781 107.834,193.089 106.687,193.515C102.509,195.068 97.426,197.179 91.831,199.897C91.302,200.153 88.61,201.46 86.47,204.921C79.432,216.306 71.882,228.266 64.091,239.681C62.81,241.556 62.659,243.505 63.624,244.635C64.581,245.755 66.544,245.958 68.533,245.045C99.652,230.754 131.077,222.368 165.924,228.171C168.3,228.567 166.757,223.528 165.527,223.33ZM87.333,271.313C87.624,271.048 89.096,269.706 90.958,267.99C90.356,263.901 90.284,263.931 90.187,263.483L90.181,263.809C89.928,261.72 89.674,259.631 89.421,257.542C89.296,256.527 88.272,255.935 87.192,256.23C86.122,256.522 85.299,257.609 85.424,258.597C85.98,263.009 86.303,265.77 86.372,266.025C86.448,266.306 86.585,266.258 87.333,271.313Z" style="fill:rgb(107,113,255);"/>
                        </g>
                        <g transform="matrix(0.307203,0,0,0.307203,-350.577,573.466)">
                            <path d="M4135.89,413.528C4137.77,412.354 4141.07,412.717 4143.24,414.308C4145.4,415.896 4145.59,418.073 4143.71,419.195C4138.85,422.091 4132.69,425.861 4126.1,430.073C4122.48,432.38 4116.52,432.948 4111.37,431.216C4105.97,429.404 4102.86,425.579 4102.9,421.892C4103.62,359.353 4096.27,276.708 4088.88,176.78C4088.28,168.732 4090.68,161.982 4094.91,157.717C4102.37,150.189 4114.32,138.451 4128.35,126.227C4130.31,124.51 4134.08,125.65 4136.73,129.016C4139.35,132.335 4139.75,136.382 4137.75,138.024C4123.57,149.653 4111.53,160.883 4104.03,168.078C4101.3,170.696 4099.75,174.91 4100.11,180.03C4107.09,279.894 4114.15,361.859 4113.2,422.949C4113.19,423.695 4113.85,424.605 4115.1,425.051C4116.29,425.473 4117.63,425.332 4118.4,424.822C4125.01,420.425 4131.11,416.511 4135.89,413.528ZM4051.26,121.76C4054.32,122.253 4058.2,134.807 4052.25,133.815C3965.48,119.365 3887.23,140.249 3809.75,175.83C3804.82,178.093 3799.92,177.615 3797.52,174.808C3795.1,171.978 3795.52,167.117 3798.69,162.473C3818.09,134.05 3836.89,104.266 3854.41,75.924C3857.81,70.418 3862.65,65.892 3867.76,63.412C3881.68,56.651 3894.34,51.392 3904.75,47.523C3907.61,46.462 3910.22,48.186 3910.58,51.265C3910.93,54.336 3908.91,57.643 3906.05,58.648C3895.6,62.331 3882.98,67.328 3869.15,73.743C3866.52,74.961 3864.03,77.2 3862.28,79.981C3844.68,107.899 3825.86,137.227 3806.46,165.241C3805.91,166.047 3805.92,166.863 3806.27,167.293C3806.62,167.723 3807.41,167.878 3808.28,167.46C3885.82,130.035 3964.16,107.717 4051.26,121.76ZM3856.56,241.237C3854.65,228.366 3854.32,228.439 3854.23,228.262C3854.02,227.834 3853.48,222.878 3851.8,209.574C3851.49,207.101 3853.48,204.425 3856.21,203.681C3858.98,202.925 3861.45,204.449 3861.76,206.947C3863.16,218.396 3863.11,218.411 3863.65,222.549L3863.69,221.748C3863.72,221.881 3863.96,221.914 3865.58,232.962C3864.86,233.626 3860.95,237.236 3856.56,241.237ZM3782.64,417.843C3784.29,357.464 3778.21,300.662 3768.53,245.81C3766.07,231.822 3780.46,214.024 3797.47,206.936L3797.49,206.926C3878.14,173.643 3959.02,153.83 4048.18,168.586C4051.16,169.08 4053.84,172.126 4054.09,175.278C4054.35,178.43 4052.11,180.536 4049.14,180.034C3960.27,164.994 3879.43,183.416 3798.83,214.887C3786.55,219.733 3776.75,232.104 3778.46,242.089C3788.11,298.591 3794.26,356.584 3792.71,417.544C3789.35,417.643 3785.99,417.743 3782.64,417.843ZM4165.87,117.33C4167.54,118.487 4181.09,120.703 4181.19,125.971C4183.22,238.345 4188.87,327.916 4188.79,390.466C4188.79,393.576 4187.08,396.174 4183.75,397.737C4181.85,398.629 4178.44,397.949 4176.19,396.097C4173.9,394.199 4173.78,391.879 4175.63,390.945C4177.18,390.162 4178,388.838 4177.99,387.298C4177.43,353.416 4175.19,311.421 4172.73,264.715C4166.2,140.445 4166.84,134.169 4165.87,117.33Z" style="fill:white;"/>
                        </g>
                    </g>
                </g>
                <g transform="matrix(1.11188,0,0,1.16147,500.944,-650.853)">
                    <g transform="matrix(1,0,0,1,0,3.70335)">
                        <g>
                            <g transform="matrix(1,0,0,1.15374,28.3256,-151.366)">
                                <path d="M909.367,794.441C913.36,800.85 919.558,803.058 920.183,812.688C921.281,829.584 898.723,833.833 912.721,854.731L870.711,854.731C856.713,833.833 879.271,829.584 878.173,812.688C877.526,802.723 870.913,800.705 866.95,793.758C866.479,792.932 866.045,792.037 865.664,791.051C866.082,790.893 866.477,790.671 866.83,790.386C866.83,790.386 887.381,773.558 904.389,790.143C905.28,791.011 906.548,791.419 907.79,791.346C908.254,792.49 908.787,793.51 909.367,794.441ZM870.722,792.23C872.317,795.018 874.421,796.899 876.271,798.94C879.313,802.296 881.908,805.933 882.333,812.485C882.85,820.44 878.89,825.955 875.051,831.342C872.838,834.448 870.639,837.481 870.321,841.315C870.029,844.837 871.376,848.942 875.299,854.329C875.299,854.329 907.707,854.329 907.707,854.329C901.609,844.045 903.717,837.382 907.392,831.375C908.914,828.888 910.786,826.52 912.452,824.001C914.543,820.838 916.317,817.406 916.023,812.891C915.66,807.3 912.968,804.711 910.29,801.855C908.326,799.761 906.354,797.561 904.797,794.575C903.483,794.186 902.263,793.505 901.275,792.542C889.048,780.619 874.647,789.422 870.722,792.23Z"/>
                            </g>
                            <g transform="matrix(1,0,0,1.15374,-68.3257,-151.366)">
                                <path d="M909.435,794.548C913.43,800.875 919.561,803.111 920.183,812.688C921.281,829.584 898.723,833.833 912.721,854.731L870.711,854.731C856.713,833.833 879.271,829.584 878.173,812.688C877.532,802.811 871.03,800.742 867.056,793.941C866.56,793.093 866.104,792.172 865.703,791.153C866.232,790.993 866.732,790.738 867.168,790.386C867.168,790.386 887.719,773.558 904.728,790.143C905.539,790.933 906.661,791.342 907.794,791.354C908.274,792.539 908.83,793.59 909.435,794.548ZM870.822,792.403C872.413,795.111 874.482,796.963 876.302,798.974C879.33,802.32 881.909,805.955 882.333,812.485C882.85,820.44 878.89,825.955 875.051,831.342C872.838,834.448 870.639,837.481 870.321,841.315C870.029,844.837 871.376,848.942 875.299,854.329C875.299,854.329 907.707,854.329 907.707,854.329C901.609,844.045 903.717,837.382 907.392,831.375C908.914,828.888 910.786,826.52 912.452,824.001C914.543,820.838 916.317,817.406 916.023,812.891C915.66,807.302 912.969,804.713 910.293,801.859C908.3,799.733 906.297,797.499 904.73,794.445C903.571,794.041 902.499,793.406 901.614,792.542C889.124,780.363 874.365,789.81 870.822,792.403Z"/>
                            </g>
                            <g transform="matrix(1,0,0,1,13.2663,-15.4573)">
                                <path d="M784.111,780.879C782.598,781.407 780.848,781.032 779.687,779.785C778.12,778.101 778.214,775.463 779.897,773.896C779.897,773.896 780.825,773.042 782.478,771.811C789.106,766.873 807.408,755.859 824.411,769.442C826.079,770.774 827.734,772.343 829.364,774.177C830.892,775.896 830.737,778.532 829.018,780.06C828.211,780.777 827.203,781.123 826.202,781.111C825.069,781.097 823.947,780.626 823.136,779.713C806.127,760.579 785.576,779.995 785.576,779.995C785.14,780.401 784.64,780.695 784.111,780.879Z"/>
                            </g>
                            <g transform="matrix(1,0,0,1,33.6362,-15.4573)">
                                <path d="M860.353,780.762C858.777,781.453 856.869,781.115 855.63,779.785C854.063,778.101 854.157,775.463 855.84,773.896C855.84,773.896 856.89,772.93 858.746,771.57C865.679,766.494 883.867,755.933 900.696,769.719C902.248,770.99 903.788,772.468 905.307,774.177C906.835,775.896 906.68,778.532 904.961,780.06C904.244,780.697 903.368,781.041 902.48,781.102C901.237,781.186 899.969,780.716 899.079,779.713C882.07,760.579 861.519,779.995 861.519,779.995C861.166,780.323 860.771,780.579 860.353,780.762Z"/>
                            </g>
                        </g>
                        <g transform="matrix(1.46662,-0.110859,0.100834,1.36636,-1061.83,523.476)">
                            <path d="M1249.53,262.097C1249.53,262.097 1280.62,258.625 1279.45,247.18C1278.29,235.734 1254.72,254.123 1249.53,262.097Z"/>
                        </g>
                        <g transform="matrix(-1.25906,0.0951695,0.0996884,1.35084,2480.26,267.263)">
                            <path d="M1249.53,262.097C1249.53,262.097 1280.62,258.625 1279.45,247.18C1278.29,235.734 1254.72,254.123 1249.53,262.097Z"/>
                        </g>
                    </g>
                    <path d="M859.795,807.864C858.833,808.493 857.541,808.222 856.911,807.26C856.282,806.297 856.553,805.005 857.515,804.376C857.515,804.376 862.28,801.252 868.582,799.735C875.137,798.157 883.267,798.332 889.653,804.986C890.449,805.815 890.422,807.135 889.593,807.931C888.763,808.728 887.443,808.701 886.647,807.871C881.479,802.487 874.862,802.509 869.558,803.786C864.001,805.123 859.795,807.864 859.795,807.864Z"/>
                </g>
            </g>
        </g>
    </g>
</svg>
