<?xml version="1.0" encoding="UTF-8" standalone="no"?>
<!DOCTYPE svg PUBLIC "-//W3C//DTD SVG 1.1//EN" "http://www.w3.org/Graphics/SVG/1.1/DTD/svg11.dtd">
<svg width="100%" height="100%" viewBox="0 0 478 446" version="1.1" xmlns="http://www.w3.org/2000/svg" xmlns:xlink="http://www.w3.org/1999/xlink" xml:space="preserve" xmlns:serif="http://www.serif.com/" style="fill-rule:evenodd;clip-rule:evenodd;stroke-linejoin:round;stroke-miterlimit:2;">
    <g transform="matrix(1,0,0,1,-1174.46,-1313.53)">
        <g transform="matrix(1,0,0,1,-0.20546,1274.29)">
            <g id="blank" transform="matrix(1.90476,0,0,1.90476,-3399.63,-124.11)">
                <g>
                    <g transform="matrix(1.35703,0,0,1.35703,2347,-970.588)">
                        <g>
                            <g>
                                <g>
                                    <g>
                                        <g>
                                            <g>
                                                <g transform="matrix(2.19487,0,0,2.19487,-2133.38,-939.576)">
                                                    <path d="M991.484,812.082C991.482,812.082 991.481,812.082 991.48,812.082C990.819,812.081 990.284,811.543 990.285,810.883C990.287,810.06 990.294,809.24 990.306,808.423C990.316,807.763 990.86,807.234 991.521,807.244C991.522,807.244 991.524,807.244 991.525,807.245C991.49,808.845 991.477,810.46 991.484,812.082ZM991.558,805.974C991.556,805.974 991.555,805.974 991.553,805.974C990.893,805.949 990.377,805.393 990.402,804.732C990.433,803.906 990.471,803.085 990.516,802.27C990.552,801.611 991.117,801.105 991.777,801.141C991.798,801.142 991.82,801.144 991.841,801.146C991.757,801.528 991.741,801.81 991.734,801.922C991.657,803.256 991.599,804.608 991.558,805.974ZM992.26,799.954C992.221,799.929 992.184,799.902 992.148,799.872C991.639,799.45 991.568,798.695 991.99,798.186C992.283,797.833 992.636,797.484 993.061,797.157C993.072,797.148 993.083,797.141 993.093,797.133L993.42,796.898C993.443,796.882 993.465,796.867 993.489,796.853C993.489,796.853 994.259,796.376 994.259,796.376C994.564,796.13 994.866,795.887 995.166,795.649C995.683,795.238 996.437,795.325 996.848,795.842C996.849,795.843 996.85,795.845 996.851,795.846C996.23,796.33 995.597,796.833 994.953,797.354L994.118,797.871L993.791,798.105C993.037,798.686 992.561,799.346 992.26,799.954ZM997.87,795.06C997.869,795.059 997.868,795.057 997.867,795.056C997.471,794.527 997.579,793.776 998.108,793.38C998.792,792.868 999.459,792.379 1000.11,791.914C1000.64,791.529 1001.39,791.652 1001.78,792.188C1001.78,792.19 1001.78,792.192 1001.78,792.193C1000.55,793.057 999.243,794.012 997.87,795.06ZM1002.84,791.458C1002.84,791.457 1002.84,791.455 1002.83,791.453C1002.47,790.905 1002.61,790.16 1003.16,789.792C1003.89,789.302 1004.58,788.849 1005.23,788.431C1005.79,788.074 1006.53,788.237 1006.89,788.793C1006.89,788.795 1006.89,788.797 1006.89,788.799C1005.69,789.546 1004.33,790.43 1002.84,791.458ZM1007.99,788.125C1007.99,788.122 1007.99,788.12 1007.98,788.118C1007.65,787.548 1007.84,786.814 1008.41,786.479C1009.29,785.962 1010.01,785.552 1010.57,785.247C1011.15,784.929 1011.88,785.142 1012.2,785.721C1012.2,785.724 1012.2,785.727 1012.2,785.73C1012.17,785.745 1012.14,785.761 1012.11,785.776C1011.53,786.087 1010.08,786.855 1007.99,788.125ZM1013.4,785.28C1013.4,785.247 1013.39,785.213 1013.39,785.179C1013.34,784.521 1013.83,783.942 1014.49,783.889C1015.18,783.832 1015.7,783.877 1015.86,783.89C1016.28,783.926 1016.7,783.961 1017.13,783.994C1017.78,784.046 1018.28,784.62 1018.23,785.277C1017.39,785.218 1016.57,785.153 1015.75,785.083C1015.54,785.065 1014.56,784.981 1013.4,785.28ZM1019.51,785.365C1019.55,784.707 1020.12,784.205 1020.78,784.244C1021.58,784.292 1022.4,784.335 1023.22,784.374C1023.87,784.406 1024.38,784.966 1024.35,785.625C1022.72,785.554 1021.1,785.468 1019.51,785.365ZM1025.64,785.676C1025.66,785.017 1026.22,784.5 1026.88,784.522C1027.69,784.549 1028.5,784.572 1029.32,784.591C1029.98,784.607 1030.5,785.154 1030.49,785.814C1028.87,785.782 1027.25,785.737 1025.64,785.676ZM1031.77,785.836C1031.78,785.176 1032.32,784.647 1032.98,784.654C1033.8,784.663 1034.62,784.668 1035.43,784.67C1036.09,784.672 1036.62,785.208 1036.62,785.868C1035.02,785.87 1033.39,785.86 1031.77,785.836ZM1037.91,785.864C1037.9,785.204 1038.43,784.664 1039.1,784.658C1039.91,784.65 1040.73,784.639 1041.54,784.625C1042.2,784.614 1042.74,785.14 1042.76,785.799C1041.16,785.833 1039.55,785.855 1037.91,785.864ZM1044.04,785.77C1044.03,785.11 1044.55,784.56 1045.21,784.54C1046.03,784.516 1046.85,784.489 1047.65,784.459C1048.31,784.435 1048.86,784.949 1048.89,785.609C1047.32,785.674 1045.7,785.728 1044.04,785.77ZM1050.18,785.552C1050.14,784.893 1050.65,784.332 1051.31,784.299C1052.14,784.257 1052.95,784.212 1053.75,784.164C1054.41,784.124 1054.97,784.625 1055.02,785.283C1053.48,785.384 1051.86,785.475 1050.18,785.552ZM1056.3,785.195C1056.25,784.538 1056.74,783.964 1057.4,783.913C1058.24,783.847 1059.05,783.778 1059.83,783.707C1060.49,783.646 1061.07,784.128 1061.13,784.784C1059.65,784.933 1058.04,785.071 1056.3,785.195ZM1062.41,784.648C1062.34,783.995 1062.8,783.401 1063.45,783.32C1064.32,783.212 1065.12,783.1 1065.84,782.984C1066.49,782.88 1067.1,783.32 1067.21,783.968C1067.09,783.984 1067,784 1066.95,784.009C1065.72,784.235 1064.19,784.449 1062.41,784.648ZM1068.49,783.984C1068.51,783.93 1068.53,783.877 1068.55,783.824C1068.83,783.224 1069.54,782.959 1070.14,783.234C1070.38,783.347 1070.63,783.484 1070.88,783.65C1071.65,784.166 1072.14,784.81 1072.46,785.418C1072.76,786.005 1072.53,786.728 1071.95,787.032C1071.89,787.06 1071.84,787.084 1071.78,787.104C1071.68,786.547 1071.35,785.407 1070.21,784.644C1069.63,784.25 1069.02,784.064 1068.49,783.984ZM1071.92,788.378C1071.92,788.378 1071.92,788.378 1071.92,788.378C1072.58,788.315 1073.16,788.798 1073.22,789.456C1073.3,790.277 1073.38,791.094 1073.45,791.908C1073.51,792.566 1073.02,793.148 1072.37,793.206C1072.36,793.206 1072.36,793.206 1072.36,793.207C1072.23,791.611 1072.08,790.004 1071.92,788.378ZM1072.47,794.489C1072.47,794.489 1072.47,794.489 1072.47,794.489C1073.13,794.438 1073.71,794.932 1073.76,795.59C1073.82,796.412 1073.88,797.231 1073.94,798.049C1073.98,798.708 1073.48,799.28 1072.83,799.325C1072.82,799.325 1072.82,799.325 1072.82,799.325C1072.72,797.719 1072.6,796.109 1072.47,794.489ZM1072.9,800.61C1072.9,800.61 1072.9,800.61 1072.9,800.61C1073.56,800.574 1074.13,801.081 1074.16,801.741C1074.21,802.561 1074.25,803.382 1074.28,804.204C1074.31,804.865 1073.8,805.424 1073.14,805.452C1073.14,805.453 1073.14,805.453 1073.14,805.453C1073.08,803.835 1073,802.223 1072.9,800.61ZM1073.18,806.739C1073.18,806.739 1073.18,806.739 1073.18,806.739C1073.85,806.721 1074.4,807.243 1074.41,807.904C1074.44,808.723 1074.45,809.545 1074.47,810.371C1074.48,811.032 1073.95,811.576 1073.29,811.586C1073.29,811.586 1073.29,811.586 1073.28,811.586C1073.27,809.958 1073.23,808.344 1073.18,806.739ZM1073.29,812.874C1073.29,812.874 1073.3,812.874 1073.3,812.874C1073.96,812.875 1074.49,813.413 1074.49,814.074C1074.49,814.891 1074.48,815.714 1074.47,816.542C1074.46,817.203 1073.92,817.731 1073.26,817.722C1073.26,817.722 1073.25,817.722 1073.25,817.722C1073.29,816.085 1073.3,814.471 1073.29,812.874ZM1073.22,819.009C1073.22,819.009 1073.22,819.009 1073.23,819.009C1073.89,819.03 1074.4,819.583 1074.38,820.244C1074.36,821.059 1074.33,821.881 1074.29,822.71C1074.26,823.37 1073.7,823.883 1073.04,823.854C1073.04,823.854 1073.04,823.854 1073.04,823.854C1073.12,822.212 1073.18,820.599 1073.22,819.009ZM1072.97,825.139C1072.97,825.139 1072.98,825.14 1072.98,825.14C1073.64,825.179 1074.14,825.747 1074.1,826.406C1074.05,827.219 1074,828.039 1073.94,828.868C1073.89,829.527 1073.32,830.024 1072.66,829.978C1072.66,829.978 1072.66,829.978 1072.66,829.978C1072.78,828.334 1072.89,826.723 1072.97,825.139ZM1072.56,831.261C1072.56,831.261 1072.56,831.261 1072.56,831.261C1073.22,831.318 1073.71,831.898 1073.65,832.556C1073.58,833.366 1073.51,834.185 1073.43,835.012C1073.37,835.67 1072.78,836.153 1072.12,836.09C1072.12,836.09 1072.12,836.09 1072.12,836.09C1072.29,834.446 1072.43,832.838 1072.56,831.261ZM1071.99,837.37C1071.99,837.37 1071.99,837.37 1071.99,837.37C1072.65,837.442 1073.12,838.034 1073.05,838.69C1072.96,839.498 1072.87,840.314 1072.78,841.139C1072.7,841.795 1072.1,842.265 1071.45,842.188C1071.44,842.188 1071.44,842.188 1071.44,842.188C1071.45,842.096 1071.46,842.025 1071.47,841.978C1071.66,840.41 1071.83,838.875 1071.99,837.37ZM1071.07,843.416C1071.1,843.431 1071.13,843.449 1071.16,843.467C1071.71,843.829 1071.86,844.572 1071.5,845.125C1071.16,845.649 1070.71,846.216 1070.11,846.799C1070.02,846.884 1069.89,847.011 1069.73,847.173C1069.25,847.633 1068.49,847.623 1068.03,847.149C1068.03,847.148 1068.03,847.147 1068.03,847.146C1068.64,846.564 1069.07,846.141 1069.27,845.943C1070.23,845.007 1070.77,844.119 1071.07,843.416ZM1067.1,848.033C1067.1,848.034 1067.1,848.035 1067.1,848.036C1067.55,848.519 1067.53,849.277 1067.04,849.728C1066.49,850.247 1065.87,850.811 1065.22,851.401C1064.74,851.845 1063.98,851.809 1063.53,851.32C1063.53,851.319 1063.53,851.318 1063.53,851.317C1064.89,850.1 1066.12,848.958 1067.1,848.033ZM1062.57,852.171C1062.57,852.172 1062.57,852.173 1062.57,852.175C1063,852.675 1062.95,853.431 1062.45,853.863C1061.83,854.399 1061.19,854.937 1060.56,855.466C1060.05,855.887 1059.29,855.817 1058.87,855.308C1058.87,855.306 1058.87,855.304 1058.87,855.302C1060.12,854.286 1061.38,853.214 1062.57,852.171ZM1057.86,856.103C1057.86,856.106 1057.86,856.109 1057.87,856.112C1058.26,856.639 1058.16,857.391 1057.63,857.789C1057.29,858.044 1056.96,858.292 1056.63,858.531L1056.17,858.862C1056.16,858.872 1056.14,858.882 1056.13,858.892C1055.71,859.17 1055.29,859.394 1054.87,859.576C1054.26,859.839 1053.56,859.56 1053.3,858.954C1053.28,858.924 1053.27,858.893 1053.26,858.863C1053.96,858.685 1054.73,858.388 1055.47,857.896L1055.92,857.562C1056.56,857.105 1057.2,856.615 1057.86,856.103ZM1052.01,859.079C1052.01,859.109 1052.01,859.14 1052.01,859.17C1051.97,859.83 1051.41,860.337 1050.75,860.301C1050.74,860.3 1050.73,860.3 1050.72,860.299C1049.95,860.256 1049.15,860.216 1048.32,860.179C1047.66,860.149 1047.15,859.591 1047.18,858.932C1048.44,858.983 1049.65,859.04 1050.79,859.104C1050.94,859.112 1051.39,859.138 1052.01,859.079ZM1045.91,858.884C1045.88,859.544 1045.33,860.061 1044.67,860.04C1043.88,860.015 1043.07,859.992 1042.24,859.972C1041.58,859.955 1041.06,859.407 1041.07,858.747C1042.74,858.783 1044.36,858.829 1045.91,858.884ZM1039.8,858.722C1039.79,859.381 1039.25,859.908 1038.59,859.898C1037.78,859.885 1036.97,859.875 1036.15,859.866C1035.49,859.86 1034.96,859.319 1034.96,858.659C1036.6,858.671 1038.22,858.692 1039.8,858.722ZM1033.69,858.65C1033.69,859.311 1033.15,859.845 1032.49,859.843C1031.68,859.841 1030.87,859.841 1030.05,859.843C1029.39,859.844 1028.86,859.31 1028.85,858.65C1030.47,858.642 1032.09,858.642 1033.69,858.65ZM1027.58,858.658C1027.59,859.318 1027.06,859.859 1026.4,859.865C1025.58,859.873 1024.77,859.883 1023.96,859.895C1023.3,859.905 1022.76,859.378 1022.75,858.718C1024.34,858.69 1025.96,858.67 1027.58,858.658ZM1021.47,858.742C1021.49,859.402 1020.97,859.95 1020.31,859.965C1019.49,859.984 1018.67,860.005 1017.87,860.028C1017.21,860.047 1016.66,859.528 1016.64,858.868C1018.21,858.818 1019.83,858.775 1021.47,858.742ZM1015.37,858.912C1015.39,859.571 1014.88,860.127 1014.22,860.153C1013.39,860.185 1012.58,860.22 1011.79,860.258C1011.13,860.29 1010.57,859.781 1010.53,859.122C1012.07,859.042 1013.69,858.972 1015.37,858.912ZM1009.26,859.192C1009.31,859.849 1008.8,860.417 1008.15,860.458C1007.31,860.512 1006.5,860.568 1005.73,860.628C1005.07,860.679 1004.49,860.189 1004.44,859.533C1005.91,859.405 1007.53,859.291 1009.26,859.192ZM1003.17,859.65C1003.24,860.303 1002.77,860.891 1002.12,860.964C1001.62,861.021 1001.14,861.079 1000.7,861.14C1000.3,861.195 999.911,861.218 999.548,861.217C998.887,861.213 998.353,860.674 998.356,860.014C998.356,859.976 998.358,859.939 998.362,859.902C998.983,860.024 999.709,860.067 1000.54,859.954C1001.33,859.846 1002.21,859.744 1003.17,859.65ZM997.154,859.528C997.132,859.566 997.108,859.603 997.082,859.64C996.695,860.175 995.945,860.295 995.41,859.907C995.221,859.77 995.091,859.66 995.02,859.6C994.812,859.422 994.089,858.811 993.47,857.693C993.15,857.115 993.359,856.385 993.937,856.065C993.971,856.046 994.006,856.029 994.041,856.014C994.57,857.646 995.564,858.491 995.795,858.688C995.94,858.811 996.4,859.201 997.154,859.528ZM993.767,854.777C993.756,854.778 993.745,854.778 993.734,854.779C993.074,854.798 992.521,854.278 992.502,853.617C992.48,852.863 992.446,852.056 992.403,851.201C992.37,850.542 992.876,849.98 993.534,849.945C993.619,851.431 993.68,852.793 993.71,854.009C993.717,854.277 993.737,854.533 993.767,854.777ZM993.459,848.676C992.8,848.718 992.231,848.219 992.187,847.56C992.136,846.775 992.08,845.964 992.02,845.128C991.974,844.469 992.471,843.897 993.129,843.849C993.253,845.556 993.365,847.172 993.459,848.676ZM993.037,842.582C992.378,842.63 991.804,842.134 991.755,841.476C991.697,840.679 991.637,839.866 991.576,839.038C991.527,838.379 992.023,837.805 992.682,837.757C992.682,837.757 992.682,837.757 992.683,837.757C992.804,839.423 992.924,841.036 993.037,842.582ZM992.591,836.489C992.591,836.489 992.59,836.489 992.59,836.489C991.931,836.535 991.358,836.038 991.312,835.379C991.255,834.575 991.199,833.761 991.143,832.937C991.099,832.278 991.598,831.707 992.257,831.662C992.258,831.662 992.258,831.662 992.259,831.662C992.366,833.308 992.478,834.92 992.591,836.489ZM992.177,830.394C992.177,830.394 992.176,830.394 992.176,830.394C991.516,830.434 990.948,829.931 990.908,829.272C990.859,828.462 990.811,827.647 990.766,826.826C990.729,826.166 991.235,825.601 991.895,825.564C991.895,825.564 991.896,825.564 991.897,825.564C991.982,827.195 992.077,828.808 992.177,830.394ZM991.832,824.294C991.831,824.294 991.831,824.294 991.83,824.294C991.17,824.325 990.61,823.813 990.58,823.153C990.542,822.339 990.508,821.522 990.477,820.703C990.452,820.042 990.967,819.486 991.627,819.461C991.628,819.461 991.629,819.461 991.63,819.461C991.685,821.081 991.754,822.695 991.832,824.294ZM991.589,818.19C991.588,818.19 991.587,818.19 991.587,818.19C990.926,818.207 990.376,817.684 990.36,817.024C990.339,816.205 990.323,815.387 990.31,814.568C990.3,813.908 990.828,813.363 991.489,813.353C991.49,813.353 991.491,813.353 991.492,813.353C991.508,814.964 991.542,816.579 991.589,818.19Z" style="fill:rgb(255,164,242);"/>
                                                </g>
                                                <g>
                                                    <g transform="matrix(2.15889,0,0,2.15889,-2088.7,-902.245)">
                                                        <path d="M998.137,851.51C998.24,851.505 998.998,851.469 999.101,852.367C999.112,852.465 999.202,853.255 998.327,853.318C995.176,853.547 992.165,850.367 992.023,847.195C990.714,817.988 989.794,818.188 990.219,804.814C990.299,802.294 994.286,799.103 996.221,799.23L996.224,799.23C1014.21,800.511 1040.41,801.841 1044.26,802.036C1044.38,802.042 1045.37,802.092 1045.41,802.998C1045.45,803.906 1044.45,803.855 1044.34,803.85C1022.25,802.737 1011.91,801.86 996.255,800.952C995.344,800.905 992.4,803.664 992.403,804.969C992.434,819.412 993.458,829.18 993.822,847.15C993.853,848.688 996.764,851.577 998.137,851.51Z" style="fill:none;stroke:rgb(255,164,242);stroke-width:0.75px;stroke-dasharray:1.49,0.75,0,0,0,0;"/>
                                                    </g>
                                                    <g transform="matrix(0.760821,0,0,1.05703,43.034,-46.3508)">
                                                        <path d="M197.718,915.777C198.317,915.348 200.745,915.238 201.288,915.581C201.771,915.886 201.903,917.53 201.249,918L191.839,924.447C188.529,926.611 184.904,925.692 184.314,925.543C183.889,925.435 180.116,924.479 180.505,921.599C181.496,914.244 186.17,879.583 183.86,828.897C183.69,825.178 186.672,823.026 187.127,822.698C188.426,821.76 196.092,816.227 202.985,810.455C203.473,810.046 205.945,809.916 206.621,810.325C207.378,810.782 207.468,812.555 207.065,812.901C200.3,818.713 192.898,824.199 191.632,825.137C189.504,826.714 189.577,828.752 189.59,829.109C191.478,881.762 186.806,914.288 185.753,921.62C185.659,922.276 186.504,922.488 186.6,922.512C186.732,922.545 187.541,922.748 188.289,922.255L197.718,915.777ZM218.696,802.469C218.174,802.925 215.602,803.207 214.916,802.783C214.19,802.334 214.076,800.501 214.482,800.11C214.878,799.728 216.864,797.815 221.175,798.53C221.672,798.613 225.627,799.269 226.204,802.308C232.672,836.402 228.716,873.333 225.087,897.748C224.887,899.091 222.686,901.863 221.985,902.299C221.291,902.731 218.389,902.864 217.744,902.516C217.166,902.205 216.964,900.493 217.704,899.987C219.129,899.013 219.238,898.019 219.261,897.806C221.708,875.317 225.491,859.918 220.024,802.722C219.992,802.384 219.552,802.301 219.498,802.291L218.696,802.469Z" style="fill:none;stroke:rgb(255,164,242);stroke-width:1.75px;stroke-dasharray:3.5,1.75,0,0,0,0;"/>
                                                    </g>
                                                    <g transform="matrix(0.668404,0,0,1.05703,-57.0775,-46.3508)">
                                                        <path d="M211.04,877.42C211.05,877.537 211.111,878.215 210.39,878.728C209.669,879.241 208.758,879.164 208.612,879.152L208.449,879.138C207.327,879.043 205.971,877.449 205.946,877.158C205.005,866.04 203.34,842.777 202.943,832.369C202.933,832.097 204.189,830.627 205.44,830.705C206.695,830.782 208.099,832.42 208.108,832.693C208.688,850.165 210.731,873.848 211.04,877.42Z" style="fill:none;stroke:rgb(255,164,242);stroke-width:1.82px;stroke-dasharray:3.65,1.82,0,0,0,0;"/>
                                                    </g>
                                                    <g transform="matrix(-0.00326583,0.760814,0.92681,0.00397837,-662.626,640.557)">
                                                        <path d="M224.025,896.929C224.039,897.241 224.125,899.129 222.762,900.621C222.27,901.16 222.382,903.549 222.96,904.139C223.542,904.734 225.827,904.789 226.317,904.264C228.966,901.425 228.79,897.759 228.761,897.158C226.758,855.522 225.213,812.678 222.446,788.372C222.395,787.926 222.12,785.508 218.338,784.549C217.857,784.427 214.515,783.58 212.276,785.853C201.38,796.912 191.829,810.749 190.238,813.054C188.377,815.751 188.616,818.551 188.659,819.044L189.992,834.561C190.054,835.303 191.509,836.618 192.109,836.535C192.719,836.451 193.955,834.733 193.894,833.994L192.816,821.046L192.62,818.335C192.487,816.645 193.341,815.449 193.491,815.239C195.132,812.94 205.024,799.082 216.086,788.106C216.46,787.735 216.994,787.866 217.072,787.886C217.683,788.036 217.734,788.44 217.743,788.513C220.921,813.79 222.691,867.681 224.025,896.929Z" style="fill:none;stroke:rgb(255,164,242);stroke-width:1.9px;stroke-dasharray:3.8,1.9,0,0,0,0;"/>
                                                    </g>
                                                    <g transform="matrix(-0.00326583,0.760814,0.92681,0.00397837,-663.805,761.274)">
                                                        <path d="M212.89,792.837L212.89,792.877C213.428,832.622 214.447,844.149 214.462,845.272L214.462,845.275C214.637,856.981 215.667,887.675 215.596,891.37C215.581,892.131 217.045,893.659 217.735,893.635C218.421,893.61 219.91,892.004 219.92,891.258C219.925,890.948 218.925,856.396 218.822,845.855C218.669,827.644 217.755,815.438 218.007,793.286L218.007,793.243L218.008,793.203C218.046,789.938 214.531,788.726 214.071,788.567C213.856,788.493 212.724,788.103 211.268,788.117C211.072,788.118 209.599,788.123 209.091,789.242C208.59,790.348 209.702,791.14 209.841,791.24L210.023,791.376C210.802,791.932 211.67,791.963 211.821,791.969L212.232,792.046C212.307,792.073 212.882,792.277 212.889,792.796L212.89,792.837Z" style="fill:none;stroke:rgb(255,164,242);stroke-width:1.9px;stroke-dasharray:3.8,1.9,0,0,0,0;"/>
                                                    </g>
                                                </g>
                                            </g>
                                        </g>
                                    </g>
                                </g>
                            </g>
                        </g>
                    </g>
                    <g transform="matrix(1,0,0,1,1982.06,-646.085)">
                        <g transform="matrix(1,0,0,1,-2.55336,6.12811)">
                            <ellipse cx="496.082" cy="901.64" rx="11.745" ry="14.81"/>
                        </g>
                        <g transform="matrix(1,0,0,1,52.5992,6.12811)">
                            <ellipse cx="496.082" cy="901.64" rx="11.745" ry="14.81"/>
                        </g>
                    </g>
                </g>
            </g>
        </g>
    </g>
</svg>
