<?xml version="1.0" encoding="UTF-8" standalone="no"?>
<!DOCTYPE svg PUBLIC "-//W3C//DTD SVG 1.1//EN" "http://www.w3.org/Graphics/SVG/1.1/DTD/svg11.dtd">
<svg width="100%" height="100%" viewBox="0 0 491 491" version="1.1" xmlns="http://www.w3.org/2000/svg" xmlns:xlink="http://www.w3.org/1999/xlink" xml:space="preserve" xmlns:serif="http://www.serif.com/" style="fill-rule:evenodd;clip-rule:evenodd;stroke-linejoin:round;stroke-miterlimit:2;">
    <g transform="matrix(1,0,0,1,-2505.25,0)">
        <g id="Artboard4" transform="matrix(1,0,0,1,1332.04,0)">
            <rect x="1173.2" y="0" width="490.2" height="490.2" style="fill:none;"/>
            <clipPath id="_clip1">
                <rect x="1173.2" y="0" width="490.2" height="490.2"/>
            </clipPath>
            <g clip-path="url(#_clip1)">
                <g id="lmao" transform="matrix(2.35848,0,0,2.35848,490.129,-325.537)">
                    <g transform="matrix(0.940434,0,0,0.912207,16.2658,23.1602)">
                        <g>
                            <g transform="matrix(1.23247,0,0,1.15565,210.223,-61.2962)">
                                <path d="M186.068,349C185.482,349.424 184.97,349.744 184.873,349.805C181.372,351.998 177.562,352.96 174.419,352.581C139.928,348.419 110.197,350.434 84.786,356.493C82.056,357.144 79.853,356.28 78.541,354.192C77.262,352.157 76.791,348.87 77.44,344.997C83.77,307.237 82.892,268.362 71.771,228.135C70.743,224.415 70.915,220.55 72.172,217.369L72.535,216.529C73.05,215.441 73.62,214.646 73.731,214.493C82.591,198.109 90.944,181.949 97.647,166.192C97.773,165.896 98.533,164.109 100.88,163.813C138.676,159.061 177.996,161.368 218.978,173.466C221.032,174.072 223.005,175.925 223.304,176.205C223.631,176.512 225.584,178.346 226.663,180.694C251.445,234.638 245.652,279.463 229.087,321.046C228.932,321.435 228.096,323.535 225.592,324.942C213.054,331.982 199.768,339.968 186.068,349ZM91.096,343.96C87.141,344.799 84.906,341.191 85.742,336.028C90.703,305.417 90.93,273.827 84.324,241.117C83.195,235.528 86.105,230.153 91.041,229.227C121.625,223.661 154.026,222.34 188.192,226.878C189.317,227.027 190.13,226.166 189.961,224.942C189.793,223.727 188.685,222.584 187.571,222.437C153.295,217.903 120.761,219.282 90.018,224.928L90.009,224.93C82.969,226.26 78.959,233.972 80.613,241.933C87.395,274.589 87.437,306.171 82.721,336.775C81.61,343.989 84.56,349.191 90.213,347.977C90.986,347.811 91.907,346.777 92.158,345.656C92.411,344.522 91.882,343.794 91.096,343.96ZM202.079,326.545C199.015,328.669 195.836,330.906 192.991,332.934C192.547,333.251 192.024,333.271 191.709,333.062C191.392,332.852 191.254,332.392 191.446,331.91C204.65,298.679 212.684,263.886 207.084,225.29C207.028,224.902 206.657,222.345 208.058,220.48C209.899,218.03 213.763,212.817 217.615,206.905C218.108,206.148 217.627,204.637 216.482,203.575C215.313,202.492 214.003,202.362 213.54,203.118C209.842,209.143 206.111,214.437 204.33,216.927C203.022,218.756 202.446,221.45 202.899,224.521C208.6,263.129 200.817,298.014 187.831,331.353C187.016,333.445 187.49,335.491 188.981,336.479C190.473,337.466 192.773,337.255 194.704,335.908C197.591,333.893 200.803,331.683 203.885,329.595C204.864,328.932 205.271,327.679 204.776,326.847C204.283,326.019 203.051,325.871 202.079,326.545ZM223.92,196.466C224.057,196.218 224.424,196.438 224.461,196.46C224.52,196.496 224.866,196.703 225.009,197.119C239.542,239.361 235.839,276.219 224.232,310.64C224.163,310.843 223.789,311.953 222.576,312.747C221.63,313.366 221.259,314.636 221.814,315.523C222.37,316.412 223.658,316.597 224.615,315.987C224.994,315.746 227.198,314.343 228.137,311.619C239.963,277.339 243.868,240.585 229.325,198.345C228.564,196.132 226.52,193.708 224.346,192.402C222.059,191.027 220.219,191.191 219.554,192.482C219.168,193.232 219.755,194.788 220.971,195.901C222.229,197.052 223.524,197.181 223.92,196.466ZM186.483,204.437C153.265,200.05 121.6,201.35 91.568,206.703C91.044,206.797 90.726,206.346 90.681,206.282C90.635,206.217 90.316,205.766 90.577,205.301C95.92,195.802 101.4,185.668 106.301,175.565C106.399,175.363 106.984,174.156 108.625,173.984C113.474,173.476 118.437,173.08 123.154,172.816C124.248,172.754 124.747,171.678 124.179,170.373C123.63,169.11 122.227,168.078 121.122,168.144C116.412,168.426 111.452,168.843 106.601,169.372C104.541,169.596 102.957,170.736 102.143,172.494C97.406,182.736 92.079,192.975 86.886,202.533C85.97,204.219 86.212,206.622 87.552,208.522C88.891,210.421 91.032,211.402 92.913,211.071C122.848,205.816 154.436,204.595 187.602,209.01C189.918,209.318 191.846,208.607 192.996,207.211C193.596,206.482 193.274,205.012 192.226,203.972C191.171,202.924 189.825,202.741 189.248,203.478C189.103,203.662 188.307,204.677 186.483,204.437ZM115.795,277.099C116.081,276.839 117.577,275.481 119.385,273.867C119.317,257.398 117.607,242.926 115.844,231.985C115.657,230.823 114.611,229.899 113.55,230.004C112.488,230.108 111.795,231.199 111.989,232.362C113.863,243.639 115.807,259.24 115.795,277.099Z" style="fill:rgb(255,253,194);"/>
                            </g>
                            <g id="v" transform="matrix(0.450858,0,0,0.464809,-839.568,132.853)">
                                <path d="M2577.45,437.491C2579.66,437.065 2581.04,438.905 2580.35,441.706C2579.68,444.459 2577.25,447.045 2575.04,447.477C2559.49,450.514 2551.54,437.468 2554.56,419.626C2567.43,343.623 2567.35,265.086 2548.79,183.821C2544.28,164.044 2555.18,144.863 2574.48,141.545L2574.5,141.541C2658.65,127.487 2747.58,124.086 2841.18,135.347C2844.28,135.72 2847.25,138.541 2847.71,141.575C2848.17,144.601 2845.97,146.763 2842.88,146.389C2749.57,135.119 2661.01,138.374 2577.3,152.229C2563.79,154.535 2555.86,167.913 2558.94,181.793C2577.02,263.191 2576.36,341.751 2562.82,417.767C2560.54,430.55 2566.56,439.592 2577.45,437.491ZM2940.54,70.776C2939.41,72.641 2935.83,72.159 2932.48,69.371C2929.15,66.6 2927.53,62.78 2928.61,60.871C2930.47,57.574 2935.58,57.322 2941.7,60.671C2947.7,63.946 2953.23,69.932 2955.32,75.447C2995.08,180.489 2984.39,271.878 2952.07,357.08C2950.44,361.379 2947.03,365.284 2942.44,367.941C2939.74,369.504 2936.29,368.982 2934.78,366.787C2933.28,364.603 2934.19,361.477 2936.87,359.885C2937.34,359.602 2940.18,357.912 2941.39,354.645C2973.11,269.094 2983.25,177.444 2943.52,72.4C2943.29,71.807 2942.69,71.127 2942.02,70.762C2941.26,70.345 2940.72,70.482 2940.54,70.776ZM2838.2,90.593C2841.51,90.991 2844.19,90.029 2845.76,88.209C2847.37,86.345 2851.02,86.834 2853.9,89.438C2856.8,92.051 2857.66,95.662 2856.01,97.491C2852.89,100.934 2847.64,102.736 2841.26,101.964C2750.71,91.001 2664.37,94.003 2582.42,107.09C2577.25,107.915 2571.41,105.45 2567.76,100.752C2564.13,96.064 2563.42,90.091 2565.94,85.861C2580.12,62.126 2594.69,36.658 2607.65,11.176C2609.84,6.872 2614.12,3.978 2619.84,3.411C2633.11,2.095 2646.62,1.064 2659.53,0.36C2662.56,0.195 2666.36,2.691 2667.89,5.901C2669.43,9.131 2668.09,11.821 2665.09,11.974C2652.15,12.633 2638.64,13.616 2625.37,14.88C2622.42,15.161 2620.18,16.627 2619.01,18.811C2605.61,43.946 2590.62,69.153 2576.03,92.743C2575.63,93.391 2575.7,94.387 2576.32,95.181C2576.92,95.958 2577.92,96.362 2578.74,96.229C2660.96,82.898 2747.51,79.701 2838.2,90.593ZM2644.97,271.254C2645,226.423 2639.59,187.5 2634.56,160.023C2634.02,157.064 2635.94,154.419 2638.83,154.16C2641.73,153.902 2644.58,156.124 2645.1,159.087C2649.86,185.925 2654.6,221.971 2654.78,263.217C2649.84,267.231 2645.75,270.608 2644.97,271.254ZM2880.84,394.191C2883.55,392.478 2886.86,392.883 2888.21,394.941C2889.56,397.006 2888.52,400.084 2885.77,401.775C2877.34,406.974 2868.55,412.469 2860.68,417.469C2855.45,420.791 2849.15,421.37 2845.03,418.889C2840.88,416.386 2839.69,411.268 2841.89,406.145C2877.36,323.311 2898.67,236.559 2883.08,140.53C2881.84,132.926 2883.4,126.218 2886.99,121.648C2892.91,114.126 2902.57,101.538 2912.16,87.314C2913.47,85.377 2917.05,85.793 2920.21,88.451C2923.36,91.108 2924.67,94.823 2923.3,96.73C2913.31,110.679 2903.31,123.066 2897.18,130.482C2894.8,133.357 2893.74,137.596 2894.52,142.442C2909.83,238.44 2887.84,324.964 2851.77,407.53C2851.25,408.713 2851.61,409.865 2852.49,410.395C2853.35,410.917 2854.78,410.86 2855.99,410.076C2863.76,405.041 2872.45,399.479 2880.84,394.191Z" style="fill:white;"/>
                            </g>
                        </g>
                    </g>
                    <g transform="matrix(1,0,0,1,-31.9151,55.0349)">
                        <g>
                            <g transform="matrix(0.828748,-0.199372,0.201144,0.836116,-945.575,316.955)">
                                <path d="M1511.23,234.808C1511.23,234.808 1498.75,223.98 1493.81,232.455C1488.87,240.929 1511.23,234.808 1511.23,234.808Z" style="fill:rgb(22,22,22);"/>
                            </g>
                            <g transform="matrix(0.576843,-0.277424,0.268036,0.557322,-589.774,519.481)">
                                <path d="M1511.23,234.808C1511.23,234.808 1498.75,223.98 1493.81,232.455C1488.87,240.929 1511.23,234.808 1511.23,234.808Z" style="fill:rgb(22,22,22);"/>
                            </g>
                            <g transform="matrix(-1.19678,-0.105647,-0.102072,1.15628,2315.94,97.8357)">
                                <path d="M1511.23,234.808C1511.23,234.808 1498.75,223.98 1493.81,232.455C1488.87,240.929 1511.23,234.808 1511.23,234.808Z" style="fill:rgb(22,22,22);"/>
                            </g>
                            <g transform="matrix(-0.716449,-0.344565,-0.283423,0.589318,1641.16,606.16)">
                                <path d="M1511.23,234.808C1511.23,234.808 1498.75,223.98 1493.81,232.455C1488.87,240.929 1511.23,234.808 1511.23,234.808Z" style="fill:rgb(22,22,22);"/>
                            </g>
                            <g transform="matrix(1,0,0,1,-0.720452,4.80308)">
                                <g transform="matrix(1,0,0,1,-1155.23,0)">
                                    <path d="M1620.67,223.508C1620.67,223.508 1597.46,214.255 1597.46,214.254C1596.18,213.744 1595.27,212.547 1595.16,211.13L1595.16,211.116C1595.05,209.694 1595.78,208.369 1596.97,207.674C1596.98,207.673 1625.48,191.093 1625.48,191.093C1627.23,190.075 1629.48,190.67 1630.49,192.42C1631.51,194.17 1630.92,196.418 1629.17,197.436L1614.84,205.77C1618.19,205.445 1621.42,205.101 1623.8,204.784C1625.81,204.516 1627.66,205.929 1627.93,207.936C1628.19,209.943 1626.78,211.79 1624.77,212.058C1622.09,212.415 1618.35,212.806 1614.55,213.168L1623.39,216.692C1625.27,217.442 1626.19,219.578 1625.44,221.459C1624.69,223.34 1622.55,224.258 1620.67,223.508ZM1531.01,215.348C1526.31,215.755 1522.7,216.036 1522.7,216.036C1520.68,216.193 1518.92,214.682 1518.76,212.663C1518.6,210.644 1520.11,208.877 1522.13,208.72C1522.13,208.72 1530.24,208.09 1537.91,207.354L1522.73,197.326C1521.04,196.21 1520.57,193.932 1521.69,192.242C1522.81,190.553 1525.09,190.087 1526.77,191.204L1551.87,207.784C1552.98,208.521 1553.61,209.805 1553.5,211.136C1553.4,212.468 1552.58,213.637 1551.36,214.188L1530.92,223.442C1529.08,224.278 1526.9,223.458 1526.07,221.614C1525.23,219.769 1526.05,217.593 1527.9,216.758C1527.9,216.758 1529.19,216.17 1531.01,215.348Z" style="fill:rgb(22,22,22);"/>
                                </g>
                                <g transform="matrix(1,0,0,1,-1155.23,-9.64001)">
                                    <path d="M1549.85,235.524C1549.85,235.524 1586.48,241.694 1598.82,229.74C1598.82,229.74 1577.61,294.135 1549.85,235.524Z" style="fill:rgb(25,25,25);"/>
                                </g>
                            </g>
                        </g>
                    </g>
                </g>
            </g>
        </g>
    </g>
</svg>
