<?xml version="1.0" encoding="UTF-8" standalone="no"?>
<!DOCTYPE svg PUBLIC "-//W3C//DTD SVG 1.1//EN" "http://www.w3.org/Graphics/SVG/1.1/DTD/svg11.dtd">
<svg width="100%" height="100%" viewBox="0 0 205 189" version="1.1" xmlns="http://www.w3.org/2000/svg" xmlns:xlink="http://www.w3.org/1999/xlink" xml:space="preserve" xmlns:serif="http://www.serif.com/" style="fill-rule:evenodd;clip-rule:evenodd;stroke-linejoin:round;stroke-miterlimit:2;">
    <g transform="matrix(1,0,0,1,-36.9327,-277.773)">
        <g id="lmao" transform="matrix(0.901417,0,0,0.901417,-209.22,154.513)">
            <g transform="matrix(0.940434,0,0,0.912207,16.2658,23.1602)">
                <g>
                    <g transform="matrix(1.23247,0,0,1.15565,210.223,-61.2962)">
                        <path d="M186.055,349.053C185.469,349.472 184.958,349.789 184.86,349.85C181.37,352.012 177.569,352.961 174.419,352.581C149.909,349.623 117.926,348.591 84.786,356.493C82.055,357.144 79.844,356.28 78.531,354.191C77.258,352.165 76.787,348.894 77.44,344.997C83.537,308.626 83.206,269.497 71.771,228.135C70.744,224.419 70.882,220.526 72.113,217.308L72.469,216.46C72.975,215.359 73.537,214.556 73.646,214.4C81.416,199.7 90.497,182.998 97.656,166.173C97.781,165.879 98.534,164.109 100.88,163.813C140.498,158.83 179.781,161.891 218.979,173.466C221.034,174.073 223.007,175.925 223.305,176.205C223.632,176.512 225.583,178.344 226.663,180.694C251.616,235.009 245.453,280.024 229.097,321.057C228.942,321.447 228.103,323.552 225.625,324.982C214.928,331.159 200.89,339.374 186.055,349.053ZM91.02,343.97C87.082,344.795 84.831,341.204 85.651,336.012C87.735,322.818 93.025,285.852 84.11,240.933C83.001,235.346 85.874,229.929 90.82,228.98C112.302,224.978 151.644,221.337 188.129,226.518C189.261,226.679 190.085,225.825 189.921,224.598C189.759,223.382 188.649,222.227 187.529,222.068C149.69,216.715 110.26,220.843 89.817,224.689L89.809,224.69C82.75,226.056 78.828,233.836 80.467,241.811C89.365,285.133 85.074,320.813 82.661,336.761C81.559,344.044 84.545,349.181 90.162,347.986C90.934,347.822 91.848,346.791 92.092,345.67C92.338,344.538 91.805,343.806 91.02,343.97ZM202.107,326.737C197.384,329.981 193.688,332.591 192.959,333.105C192.513,333.42 191.987,333.441 191.668,333.233C191.347,333.024 191.208,332.565 191.399,332.087C205.015,297.932 212.712,263.123 207.221,225.166C207.165,224.778 206.794,222.215 208.209,220.365C209.013,219.314 213.583,213.34 217.779,206.882C218.268,206.129 217.785,204.616 216.635,203.546C215.462,202.454 214.153,202.319 213.692,203.068C209.669,209.62 205.233,215.699 204.454,216.767C203.131,218.578 202.543,221.263 202.993,224.342C208.721,263.501 200.396,299.062 187.752,331.533C186.942,333.613 187.427,335.649 188.934,336.631C190.439,337.613 192.753,337.402 194.692,336.061C195.428,335.553 199.149,332.981 203.926,329.77C204.912,329.108 205.321,327.859 204.824,327.033C204.329,326.211 203.087,326.065 202.107,326.737ZM224.007,196.469C224.142,196.221 224.507,196.442 224.544,196.464C224.603,196.5 224.947,196.708 225.092,197.124C241.393,244.138 234.087,282.285 224.363,310.788C224.293,310.992 223.915,312.101 222.705,312.902C221.757,313.529 221.385,314.796 221.932,315.671C222.479,316.546 223.756,316.721 224.713,316.101C227.277,314.438 228.077,312.135 228.225,311.71C238.665,281.673 245.179,244.027 229.377,198.352C228.611,196.137 226.573,193.712 224.407,192.404C222.129,191.027 220.298,191.186 219.644,192.475C219.264,193.224 219.856,194.78 221.073,195.897C222.332,197.053 223.618,197.182 224.007,196.469ZM186.514,204.101C178.982,203.039 140.759,197.648 91.469,206.485C90.943,206.579 90.625,206.131 90.58,206.067C90.535,206.002 90.217,205.553 90.482,205.089C94.395,198.231 100.823,186.836 106.364,175.459C106.463,175.257 107.046,174.059 108.692,173.886C115.971,173.122 122.092,172.771 123.259,172.704C124.355,172.641 124.846,171.572 124.266,170.279C123.706,169.029 122.291,168.008 121.184,168.075C120.018,168.146 113.918,168.517 106.64,169.312C104.573,169.538 102.993,170.673 102.183,172.416C96.852,183.899 90.598,195.413 86.791,202.339C85.864,204.025 86.097,206.424 87.43,208.314C88.763,210.204 90.905,211.174 92.797,210.841C142.012,202.166 180.11,207.596 187.622,208.666C189.952,208.998 191.894,208.31 193.054,206.934C193.658,206.216 193.34,204.749 192.288,203.7C191.228,202.645 189.876,202.449 189.294,203.176C189.148,203.359 188.346,204.359 186.514,204.101ZM115.598,272.737C115.613,273.65 116.059,274.409 116.636,274.737C117.229,275.073 118.021,274.994 118.64,274.459L119.296,273.892C119.244,254.338 116.891,238.32 115.863,231.809C115.676,230.624 114.608,229.711 113.542,229.807C112.474,229.903 111.749,230.973 111.941,232.157C112.639,236.452 115.269,252.66 115.598,272.737Z" style="fill:rgb(255,253,194);"/>
                    </g>
                    <g id="v" transform="matrix(0.450858,0,0,0.464809,-839.568,132.853)">
                        <path d="M2577.24,437.516C2579.45,437.097 2580.84,438.942 2580.17,441.741C2579.52,444.494 2577.11,447.072 2574.9,447.5C2559.45,450.489 2551.4,437.604 2554.39,419.591C2560.93,380.303 2572.76,291.424 2548.39,183.518C2543.92,163.711 2554.58,144.356 2573.93,140.95L2573.96,140.946C2630.37,131.294 2682.98,129.124 2711.17,128.502C2780.55,126.971 2818.74,131.559 2841.06,134.431C2844.18,134.832 2847.16,137.683 2847.6,140.722C2848.05,143.753 2845.82,145.896 2842.7,145.494C2821.55,142.762 2783.85,138.09 2713.38,139.525C2685.03,140.102 2632.43,142.171 2576.7,151.615C2563.16,153.979 2555.33,167.461 2558.36,181.334C2582.77,293.204 2568.2,385.307 2562.57,417.728C2560.34,430.578 2566.39,439.581 2577.24,437.516ZM2940.78,70.784C2939.66,72.647 2936.11,72.158 2932.76,69.36C2929.43,66.582 2927.79,62.759 2928.85,60.853C2930.69,57.562 2935.77,57.322 2941.87,60.677C2947.84,63.958 2953.36,69.942 2955.46,75.465C2998.7,189.14 2980.78,282.804 2952.31,357.308C2950.67,361.604 2947.27,365.531 2942.71,368.224C2940.02,369.811 2936.6,369.32 2935.11,367.155C2933.62,364.998 2934.54,361.881 2937.22,360.271C2937.69,359.984 2940.53,358.279 2941.75,355.015C2965.93,290.553 2969.6,243.626 2970.03,215.816C2970.72,170.644 2962.82,122.442 2943.74,72.412C2943.52,71.818 2942.91,71.137 2942.25,70.772C2941.48,70.353 2940.95,70.49 2940.78,70.784ZM2838.29,89.759C2841.61,90.185 2844.31,89.252 2845.89,87.458C2847.51,85.619 2851.18,86.143 2854.07,88.763C2856.97,91.395 2857.84,95 2856.16,96.803C2853.02,100.197 2847.73,101.941 2841.32,101.109C2802.74,96.109 2765.35,93.556 2710.44,94.989C2661.37,96.27 2617.94,100.772 2582.1,106.516C2576.9,107.35 2571.06,104.91 2567.43,100.233C2563.82,95.57 2563.13,89.609 2565.68,85.379C2576.05,68.218 2593.17,39.558 2607.76,10.98C2609.94,6.717 2614.21,3.833 2619.94,3.263C2639.84,1.287 2656.51,0.365 2659.7,0.189C2662.73,0.021 2666.56,2.488 2668.13,5.667C2669.7,8.867 2668.39,11.539 2665.37,11.696C2662.18,11.863 2645.45,12.736 2625.55,14.636C2622.59,14.919 2620.35,16.381 2619.19,18.547C2604.03,46.86 2586.43,75.222 2575.77,92.215C2575.37,92.863 2575.43,93.857 2576.04,94.646C2576.64,95.419 2577.64,95.821 2578.47,95.686C2615.52,89.645 2659.1,85.124 2707.06,83.777C2760.91,82.264 2798.92,84.709 2838.29,89.759ZM2652.74,264.69C2651.08,266.001 2648.97,266.258 2647.27,265.382C2645.58,264.508 2644.47,262.601 2644.43,260.408C2643.54,210.736 2636.45,170.801 2634.43,159.513C2633.91,156.551 2635.87,153.912 2638.81,153.672C2641.76,153.431 2644.64,155.679 2645.16,158.649C2648.13,175.803 2654.4,215.142 2654.54,263.28L2652.74,264.69ZM2880.91,394.67C2883.65,392.96 2886.98,393.357 2888.34,395.404C2889.7,397.456 2888.65,400.522 2885.89,402.21C2872.83,410.194 2862.66,416.587 2860.64,417.852C2855.39,421.155 2849.06,421.734 2844.9,419.269C2840.71,416.78 2839.49,411.686 2841.67,406.593C2876.08,326.234 2899.03,237.692 2883.34,140.083C2882.11,132.464 2883.7,125.776 2887.33,121.249C2889.45,118.604 2901.58,103.482 2912.58,87.192C2913.88,85.268 2917.46,85.703 2920.63,88.379C2923.79,91.055 2925.11,94.775 2923.76,96.673C2912.28,112.729 2899.78,127.592 2897.59,130.195C2895.2,133.044 2894.12,137.272 2894.89,142.133C2909.94,236.75 2888.7,323.409 2851.64,407.969C2851.13,409.143 2851.49,410.291 2852.38,410.82C2853.25,411.34 2854.69,411.282 2855.91,410.502C2857.9,409.222 2868,402.734 2880.91,394.67Z" style="fill:white;"/>
                    </g>
                </g>
            </g>
            <g transform="matrix(1,0,0,1,-31.9151,55.0349)">
                <g>
                    <g transform="matrix(0.828748,-0.199372,0.201144,0.836116,-945.575,316.955)">
                        <path d="M1511.23,234.808C1511.23,234.808 1498.75,223.98 1493.81,232.455C1488.87,240.929 1511.23,234.808 1511.23,234.808Z" style="fill:rgb(22,22,22);"/>
                    </g>
                    <g transform="matrix(0.576843,-0.277424,0.268036,0.557322,-589.774,519.481)">
                        <path d="M1511.23,234.808C1511.23,234.808 1498.75,223.98 1493.81,232.455C1488.87,240.929 1511.23,234.808 1511.23,234.808Z" style="fill:rgb(22,22,22);"/>
                    </g>
                    <g transform="matrix(-1.19678,-0.105647,-0.102072,1.15628,2315.94,97.8357)">
                        <path d="M1511.23,234.808C1511.23,234.808 1498.75,223.98 1493.81,232.455C1488.87,240.929 1511.23,234.808 1511.23,234.808Z" style="fill:rgb(22,22,22);"/>
                    </g>
                    <g transform="matrix(-0.716449,-0.344565,-0.283423,0.589318,1641.16,606.16)">
                        <path d="M1511.23,234.808C1511.23,234.808 1498.75,223.98 1493.81,232.455C1488.87,240.929 1511.23,234.808 1511.23,234.808Z" style="fill:rgb(22,22,22);"/>
                    </g>
                    <g transform="matrix(1,0,0,1,-0.720452,4.80308)">
                        <g transform="matrix(1,0,0,1,-1155.23,0)">
                            <path d="M1620.67,223.508C1620.67,223.508 1597.46,214.255 1597.46,214.254C1596.18,213.744 1595.27,212.547 1595.16,211.13L1595.16,211.116C1595.05,209.694 1595.78,208.369 1596.97,207.674C1596.98,207.673 1625.48,191.093 1625.48,191.093C1627.23,190.075 1629.48,190.67 1630.49,192.42C1631.51,194.17 1630.92,196.418 1629.17,197.436L1614.84,205.77C1618.19,205.445 1621.42,205.101 1623.8,204.784C1625.81,204.516 1627.66,205.929 1627.93,207.936C1628.19,209.943 1626.78,211.79 1624.77,212.058C1622.09,212.415 1618.35,212.806 1614.55,213.168L1623.39,216.692C1625.27,217.442 1626.19,219.578 1625.44,221.459C1624.69,223.34 1622.55,224.258 1620.67,223.508ZM1531.01,215.348C1526.31,215.755 1522.7,216.036 1522.7,216.036C1520.68,216.193 1518.92,214.682 1518.76,212.663C1518.6,210.644 1520.11,208.877 1522.13,208.72C1522.13,208.72 1530.24,208.09 1537.91,207.354L1522.73,197.326C1521.04,196.21 1520.57,193.932 1521.69,192.242C1522.81,190.553 1525.09,190.087 1526.77,191.204L1551.87,207.784C1552.98,208.521 1553.61,209.805 1553.5,211.136C1553.4,212.468 1552.58,213.637 1551.36,214.188L1530.92,223.442C1529.08,224.278 1526.9,223.458 1526.07,221.614C1525.23,219.769 1526.05,217.593 1527.9,216.758C1527.9,216.758 1529.19,216.17 1531.01,215.348Z" style="fill:rgb(22,22,22);"/>
                        </g>
                        <g transform="matrix(1,0,0,1,-1155.23,-9.64001)">
                            <path d="M1549.85,235.524C1549.85,235.524 1586.48,241.694 1598.82,229.74C1598.82,229.74 1577.61,294.135 1549.85,235.524Z" style="fill:rgb(25,25,25);"/>
                        </g>
                    </g>
                </g>
            </g>
        </g>
    </g>
</svg>
