<?xml version="1.0" encoding="UTF-8" standalone="no"?>
<!DOCTYPE svg PUBLIC "-//W3C//DTD SVG 1.1//EN" "http://www.w3.org/Graphics/SVG/1.1/DTD/svg11.dtd">
<svg width="100%" height="100%" viewBox="0 0 231 248" version="1.1" xmlns="http://www.w3.org/2000/svg" xmlns:xlink="http://www.w3.org/1999/xlink" xml:space="preserve" xmlns:serif="http://www.serif.com/" style="fill-rule:evenodd;clip-rule:evenodd;stroke-linejoin:round;stroke-miterlimit:2;">
    <g transform="matrix(1,0,0,1,-305.28,-749.262)">
        <g transform="matrix(1,0,0,1.13277,0,0)">
            <g transform="matrix(1,0,0,0.882792,0,0)">
                <g transform="matrix(1.56719,0,0,1.56719,-940.857,-125.753)">
                    <g>
                        <g>
                            <g transform="matrix(0.764924,0,0,0.764924,767.364,440.041)">
                                <path d="M192.305,350.944C192.231,350.986 191.858,351.202 191.363,351.431C188.678,352.674 184.85,353.247 181.054,352.809C143.836,348.51 105.112,347.835 65.597,355.821C61.605,356.628 58.01,355.757 55.582,353.683C53.054,351.524 51.716,348.019 51.888,344.139C54.44,286.518 45.962,249.611 45.109,245.614C44.76,243.981 44.965,240.777 47.281,235.659L47.796,234.562C47.913,234.321 48.508,233.097 49.359,231.608C52.483,225.514 52.745,225.683 57.045,220.342C65.767,209.507 75.139,198.989 84.688,191.668C86.207,190.504 88.308,190.244 88.643,190.203C100.371,188.75 112.833,188.021 153.604,187.558C178.92,187.271 198.999,187.436 217.818,191.647C220.334,192.21 221.813,193.815 222.08,194.104C222.32,194.365 223.847,196.022 223.843,198.161C223.743,249.982 226.188,307.341 225.2,336.457C225.176,337.158 224.822,338.344 223.186,338.781C210.521,342.17 198.696,347.749 192.305,350.944ZM57.932,333.554C57.913,334.381 58.41,334.774 58.498,334.844C58.59,334.917 59.083,335.306 59.933,335.136L59.934,335.136C60.068,335.109 60.784,334.965 61.399,334.263C62.014,333.561 62.029,332.868 62.032,332.736C62.694,302.042 60.351,273.562 56.596,248.956C55.931,244.601 59.766,239.464 64.876,237.806C67.148,237.078 109.212,221.895 165.53,233.811C166.721,234.063 167.609,233.33 167.507,232.211C167.407,231.117 166.319,229.943 165.145,229.709C107.575,218.222 65.348,234.172 64.336,234.506L64.327,234.509C57.026,236.944 51.613,244.353 52.562,250.468C56.379,275.07 58.634,303.142 57.932,333.554ZM199.828,335.144C199.265,335.457 196.433,337.029 192.857,339.16C192.31,339.486 191.638,339.137 191.545,339.089C191.032,338.823 190.786,338.351 190.791,338.077C190.994,326.452 190.914,302.488 185.854,234.686C185.827,234.316 185.642,231.845 187.416,230.309C188.463,229.403 193.935,224.667 200.818,219.364C201.577,218.779 201.46,217.345 200.406,216.244C199.345,215.137 197.818,214.859 197.068,215.45C190.219,220.841 184.815,225.615 183.778,226.531C182.171,227.95 181.136,230.304 181.381,233.353C187.307,307.096 186.765,331.748 186.691,337.104C186.67,338.661 187.876,340.501 190.049,341.575C192.099,342.587 194.506,342.639 195.912,341.85C199.508,339.833 202.363,338.355 202.93,338.062C203.6,337.715 203.641,336.735 202.75,335.887C201.888,335.065 200.524,334.758 199.828,335.144ZM211.951,211.159C211.966,211.149 211.961,211.167 213.097,235.919C213.571,246.332 214.045,256.745 214.52,267.158C215.505,288.988 216.404,310.032 216.588,325.732C216.591,326.838 215.776,327.194 215.645,327.251C214.967,327.548 214.931,328.599 215.862,329.602C216.753,330.562 218.163,331.033 218.859,330.759C220.859,329.972 220.867,328.035 220.868,327.746C220.972,301.023 219.026,257.996 218.054,213.809C218.009,211.729 211.221,211.675 211.951,211.159ZM166.329,214.251C149.978,211.787 132.162,210.939 115.81,211.745C96.714,212.687 81.414,215.77 68.688,219.787C68.625,219.807 68.147,219.957 67.877,219.632C67.606,219.307 67.915,218.946 67.953,218.901C73.45,212.466 81.559,203.412 90.318,196.22C91.383,195.346 92.831,195.161 93.066,195.131C99.966,194.25 106.698,193.798 107.886,193.718C109.057,193.64 109.818,192.984 109.676,192.407C109.53,191.814 108.482,191.322 107.312,191.395C102.009,191.726 96.628,192.216 92.463,192.718C90.211,192.989 88.327,193.804 87.125,194.783C78.445,201.857 70.387,210.922 64.802,217.534C63.489,219.089 63.397,220.876 64.34,221.995C65.28,223.108 67.24,223.554 69.289,222.918C76.745,220.606 113.496,209.207 166.74,218.064C169.061,218.45 167.587,214.44 166.329,214.251ZM87.655,246.825C87.781,247.476 88.347,248.107 89.117,248.315C89.845,248.512 90.751,248.318 91.335,247.821L91.855,247.381C91.325,243.663 91.214,243.388 91.084,242.783L91.079,243.107C90.825,241.034 90.571,238.961 90.317,236.888C90.192,235.899 89.126,235.235 88.077,235.406C87.02,235.578 86.177,236.568 86.3,237.526C86.589,239.788 87.14,244.312 87.19,244.655C87.216,244.83 87.32,244.805 87.655,246.825Z" style="fill:rgb(107,113,255);"/>
                            </g>
                            <g transform="matrix(0.307203,0,0,0.307203,-350.577,573.466)">
                                <path d="M4136.67,400.175C4138.5,399.159 4141.78,399.964 4143.94,402.023C4146.11,404.091 4146.21,406.498 4144.39,407.44C4139.31,410.068 4132.96,413.48 4126.91,416.873C4123.39,418.847 4117.45,418.722 4112.32,416.186C4106.9,413.51 4103.9,408.942 4103.96,405.053C4104.14,391.834 4105.5,330.516 4090.73,146.717C4090.13,139.192 4092.65,133.308 4096.7,129.731C4109.94,118.039 4122.56,107.831 4129.79,102.14C4131.69,100.646 4135.45,101.345 4138.11,104.118C4140.76,106.887 4141.05,110.408 4139.13,111.885C4131.48,117.78 4118.82,127.835 4105.76,139.139C4103.19,141.368 4101.51,145.129 4101.87,150.038C4114.49,319.101 4114.67,378.646 4114.16,407.477C4114.15,408.243 4114.8,409.35 4116.04,409.997C4117.24,410.619 4118.6,410.595 4119.31,410.172C4125.15,406.694 4131.41,403.091 4136.67,400.175ZM4053.25,99.153C4056.38,99.624 4060.14,109.623 4054.28,108.649C4014.16,101.975 3971.36,99.504 3931.68,101.068C3881.27,103.056 3842.18,111.259 3811.63,120.735C3806.55,122.31 3801.66,121.225 3799.31,118.436C3796.94,115.635 3797.2,111.182 3800.46,107.33C3816.46,88.379 3835.61,67.33 3856.04,50.68C3859.29,48.03 3864.08,46.17 3869.33,45.538C3880.67,44.173 3893.96,43.014 3906.3,42.244C3909.17,42.066 3911.81,43.215 3912.19,44.765C3912.57,46.295 3910.62,47.834 3907.73,48.028C3895.36,48.86 3882.08,50.111 3870.83,51.546C3866.64,52.081 3864.45,53.884 3863.99,54.258C3843.35,71.205 3824.11,92.234 3808.3,110.732C3807.72,111.409 3807.79,112.165 3808.11,112.553C3808.43,112.94 3809.23,113.224 3810.13,112.938C3841.59,103.008 3879.89,95.183 3928.4,92.87C3968.83,90.942 4012.75,93.052 4053.25,99.153ZM3866.52,182.744C3865.03,184.015 3862.88,184.484 3861,183.975C3859.08,183.456 3857.69,181.995 3857.36,180.262C3856.79,176.821 3856.47,176.238 3856.36,175.776C3856.15,174.911 3855.1,165.793 3853.98,157.109C3853.68,154.698 3855.66,152.277 3858.41,151.829C3861.18,151.379 3863.68,153.097 3863.99,155.519C3865.01,163.595 3865.4,167.292 3865.89,171L3865.93,170.206C3865.95,170.293 3866.28,170.848 3867.82,181.647L3866.52,182.744ZM3788.33,400.154C3788.05,400.211 3786.22,400.578 3784.76,399.427C3784.54,399.253 3783.3,398.275 3783.35,396.215C3785.11,320.117 3779.43,250.257 3769.98,189.335C3767.61,174.062 3781.1,155.659 3799.27,149.596L3799.3,149.588C3830.87,139.18 3871.69,129.812 3923.11,127.722C3965.01,126.019 4008.9,129.382 4050.31,137.644C4053.27,138.235 4055.93,141.071 4056.19,143.874C4056.44,146.662 4054.23,148.486 4051.27,147.859C4009.56,139.034 3965.57,135.326 3923.41,136.844C3872.39,138.68 3831.71,147.849 3800.64,157.805C3787.78,161.978 3778.37,174.727 3780.02,185.569C3789.31,246.44 3795.22,317.339 3793.56,394.177C3793.51,396.232 3792.2,397.733 3791.98,397.981C3790.45,399.729 3788.67,400.086 3788.34,400.153L3788.33,400.154ZM4167.34,100.499C4167.14,97.563 4168.44,95.475 4170.34,94.454C4172.21,93.448 4175.14,93.238 4178.5,94.576C4178.54,94.591 4182,95.793 4182.05,98.054L4182.05,98.054C4184.47,208.266 4189.31,315.158 4189.05,381.753C4189.04,385.276 4187.31,387.975 4184.05,389.255C4182.21,389.98 4178.82,388.771 4176.59,386.374C4174.28,383.882 4174.28,381.294 4176.05,380.521C4177.57,379.858 4178.4,378.47 4178.4,376.739C4178.14,354.624 4177.79,324.66 4167.34,100.499Z" style="fill:white;"/>
                            </g>
                        </g>
                    </g>
                </g>
            </g>
            <g transform="matrix(0.840968,0,0,0.775513,-323.02,222.047)">
                <g transform="matrix(1,0,0,1,0,3.70335)">
                    <g>
                        <g transform="matrix(1,0,0,1.15374,28.3256,-151.366)">
                            <path d="M874.445,850.031C874.463,850.057 869.186,849.858 869.186,849.858C855.188,828.961 879.271,829.584 878.173,812.688C877.526,802.723 870.913,800.705 866.95,793.758C866.479,792.932 866.045,792.037 865.664,791.051C866.082,790.893 866.477,790.671 866.83,790.386C866.83,790.386 887.381,773.558 904.389,790.143C905.28,791.011 906.548,791.419 907.79,791.346C908.254,792.49 908.787,793.51 909.367,794.441C913.36,800.85 919.558,803.058 920.183,812.688C921.281,829.584 897.435,831.084 911.433,851.982L906.681,851.982C900.583,841.698 903.717,837.382 907.392,831.375C908.914,828.888 910.786,826.52 912.452,824.001C914.543,820.838 916.317,817.406 916.023,812.891C915.66,807.3 912.968,804.711 910.29,801.855C908.326,799.761 906.354,797.561 904.797,794.575C903.483,794.186 902.263,793.505 901.275,792.542C889.048,780.619 874.647,789.422 870.722,792.23C872.317,795.018 874.421,796.899 876.271,798.94C879.313,802.296 881.908,805.933 882.333,812.485C882.85,820.44 878.89,825.955 875.051,831.342C872.838,834.448 870.639,837.481 870.321,841.315C870.041,844.691 870.887,844.968 874.445,850.031Z"/>
                        </g>
                        <g transform="matrix(1,0,0,1.15374,-68.3257,-151.366)">
                            <path d="M874.694,854.275L870.711,854.731C856.713,833.833 879.271,829.584 878.173,812.688C877.532,802.811 871.03,800.742 867.056,793.941C866.56,793.093 866.104,792.172 865.703,791.153C866.232,790.993 866.732,790.738 867.168,790.386C867.168,790.386 887.719,773.558 904.728,790.143C905.539,790.933 906.661,791.342 907.794,791.354C908.274,792.539 908.83,793.59 909.435,794.548C913.43,800.875 919.561,803.111 920.183,812.688C921.281,829.584 898.343,829.992 912.341,850.89L906.648,851.036C900.558,840.749 903.717,837.382 907.392,831.375C908.914,828.888 910.786,826.52 912.452,824.001C914.543,820.838 916.317,817.406 916.023,812.891C915.66,807.302 912.969,804.713 910.293,801.859C908.3,799.733 906.297,797.499 904.73,794.445C903.571,794.041 902.499,793.406 901.614,792.542C889.124,780.363 874.365,789.81 870.822,792.403C872.413,795.111 874.482,796.963 876.302,798.974C879.33,802.32 881.909,805.955 882.333,812.485C882.85,820.44 878.89,825.955 875.051,831.342C872.838,834.448 870.639,837.481 870.321,841.315C870.029,844.837 870.771,848.888 874.694,854.275Z"/>
                        </g>
                        <g transform="matrix(1,0,0,1,13.2663,-15.4573)">
                            <path d="M784.111,780.879C782.598,781.407 780.848,781.032 779.687,779.785C778.12,778.101 778.214,775.463 779.897,773.896C779.897,773.896 780.825,773.042 782.478,771.811C789.106,766.873 807.408,755.859 824.411,769.442C826.079,770.774 827.734,772.343 829.364,774.177C830.892,775.896 830.737,778.532 829.018,780.06C828.211,780.777 827.203,781.123 826.202,781.111C825.069,781.097 823.947,780.626 823.136,779.713C806.127,760.579 785.576,779.995 785.576,779.995C785.14,780.401 784.64,780.695 784.111,780.879Z"/>
                        </g>
                        <g transform="matrix(1,0,0,1,33.6362,-15.4573)">
                            <path d="M860.353,780.762C858.777,781.453 856.869,781.115 855.63,779.785C854.063,778.101 854.157,775.463 855.84,773.896C855.84,773.896 856.89,772.93 858.746,771.57C865.679,766.494 883.867,755.933 900.696,769.719C902.248,770.99 903.788,772.468 905.307,774.177C906.835,775.896 906.68,778.532 904.961,780.06C904.244,780.697 903.368,781.041 902.48,781.102C901.237,781.186 899.969,780.716 899.079,779.713C882.07,760.579 861.519,779.995 861.519,779.995C861.166,780.323 860.771,780.579 860.353,780.762Z"/>
                        </g>
                    </g>
                    <g transform="matrix(1.42428,-0.352793,0.346964,1.32889,-1070.51,831.891)">
                        <path d="M1249.53,262.097C1249.53,262.097 1280.62,258.625 1279.45,247.18C1278.29,235.734 1254.72,254.123 1249.53,262.097Z"/>
                    </g>
                    <g transform="matrix(-1.26236,-0.0378059,-0.0559205,1.35315,2523.77,427.842)">
                        <path d="M1249.53,262.097C1249.53,262.097 1280.62,258.625 1279.45,247.18C1278.29,235.734 1254.72,254.123 1249.53,262.097Z"/>
                    </g>
                </g>
                <path d="M856.585,806.354C856.5,805.597 856.835,804.821 857.515,804.376C857.515,804.376 862.28,801.252 868.582,799.735C875.137,798.157 883.267,798.332 889.653,804.986C889.878,805.22 890.037,805.494 890.131,805.783C890.748,806.217 891.135,806.91 891.104,807.678C891.054,808.934 889.905,809.916 888.541,809.869L858.954,808.863C857.59,808.816 856.523,807.759 856.574,806.504C856.576,806.453 856.58,806.404 856.585,806.354ZM883.181,805.13C878.725,802.553 873.734,802.78 869.558,803.786C868.607,804.015 867.696,804.284 866.839,804.575L883.181,805.13Z"/>
            </g>
        </g>
    </g>
</svg>
