<?xml version="1.0" encoding="UTF-8" standalone="no"?>
<!DOCTYPE svg PUBLIC "-//W3C//DTD SVG 1.1//EN" "http://www.w3.org/Graphics/SVG/1.1/DTD/svg11.dtd">
<svg width="100%" height="100%" viewBox="0 0 94 82" version="1.1" xmlns="http://www.w3.org/2000/svg" xmlns:xlink="http://www.w3.org/1999/xlink" xml:space="preserve" xmlns:serif="http://www.serif.com/" style="fill-rule:evenodd;clip-rule:evenodd;stroke-linejoin:round;stroke-miterlimit:2;">
    <g transform="matrix(1,0,0,1,-2266.43,-1008.59)">
        <g transform="matrix(1,0,0,1,-0.284563,0)">
            <g transform="matrix(1,0,0,1,1419.19,289.416)">
                <g transform="matrix(0.917018,0,0,1,205.95,1)">
                    <path d="M732.277,754.74L701.909,761.669L744.16,736.868C745.843,738.168 748.148,738.969 750.688,738.969C755.836,738.969 760.015,735.679 760.015,731.625C760.015,730.386 759.625,729.219 758.936,728.195L772.46,720.256C772.46,720.256 808.477,723.965 796.202,740.153L751.784,750.289C749.818,747.868 746.62,746.291 743.012,746.291C737.492,746.291 732.932,749.981 732.277,754.74Z" style="fill:white;"/>
                </g>
                <g transform="matrix(0.917018,0,0,1,205.95,1)">
                    <path d="M732.826,756.761L702.458,763.691C701.378,763.937 700.262,763.43 699.822,762.493C699.382,761.556 699.747,760.465 700.684,759.914L742.935,735.113C743.773,734.622 744.862,734.687 745.623,735.274C746.927,736.281 748.72,736.886 750.688,736.886C754.496,736.886 757.743,734.623 757.743,731.625C757.743,730.781 757.472,729.987 757.002,729.289C756.351,728.321 756.666,727.053 757.711,726.44L771.235,718.501C771.674,718.244 772.196,718.132 772.714,718.186C772.714,718.186 786.288,719.622 794.379,724.405C797.452,726.222 799.751,728.527 800.628,731.285C801.515,734.079 801.037,737.426 798.067,741.343C797.753,741.757 797.285,742.053 796.75,742.175L752.332,752.31C751.443,752.513 750.508,752.206 749.961,751.533C748.405,749.616 745.869,748.374 743.012,748.374C738.665,748.374 735.047,751.253 734.531,755C734.414,755.854 733.736,756.554 732.826,756.761ZM730.325,753.038C731.761,747.977 736.888,744.208 743.012,744.208C746.804,744.208 750.217,745.654 752.604,747.955C752.604,747.955 794.797,738.327 794.798,738.326C796.365,736.048 796.797,734.123 796.265,732.451C795.674,730.589 793.992,729.134 791.917,727.907C785.676,724.218 775.827,722.77 772.992,722.417C772.992,722.417 761.823,728.973 761.823,728.973C762.126,729.816 762.287,730.706 762.287,731.625C762.287,736.736 757.178,741.053 750.688,741.053C748.229,741.053 745.954,740.429 744.091,739.382L714.786,756.584L730.325,753.038Z" style="fill:rgb(255,164,242);"/>
                </g>
                <g transform="matrix(1.01989,0,0,1,131.776,0)">
                    <path d="M731.461,759.628C732.644,763.627 736.378,766.551 740.796,766.551C746.163,766.551 750.521,762.236 750.521,756.921C750.521,756.308 750.463,755.709 750.352,755.128L787.47,746.287C788.927,745.94 790.459,746.291 791.632,747.239C792.804,748.188 793.487,749.63 793.487,751.156L793.487,780.703C793.487,783.126 791.784,785.2 789.446,785.625L707.673,800.507C706.244,800.767 704.776,800.368 703.664,799.418C702.552,798.468 701.909,797.064 701.909,795.585L701.909,766.667L731.461,759.628Z" style="fill:rgb(255,164,242);"/>
                </g>
                <g transform="matrix(0.611158,0,0,0.763003,445.857,149.637)">
                    <ellipse cx="772.841" cy="766.017" rx="10.63" ry="7.308" style="fill:rgb(255,164,242);"/>
                </g>
                <g transform="matrix(1,0,0,1,2.3571,-3.41107)">
                    <g transform="matrix(0.424046,0,0,0.889419,544.174,97.2864)">
                        <ellipse cx="772.841" cy="766.017" rx="10.63" ry="7.308" style="fill:white;"/>
                    </g>
                    <g transform="matrix(0.424046,0,0,0.889419,583.601,97.2864)">
                        <ellipse cx="772.841" cy="766.017" rx="10.63" ry="7.308" style="fill:white;"/>
                    </g>
                    <g transform="matrix(0.862918,0,0,1,124.412,-0.284251)">
                        <path d="M878.552,787.068C878.2,786.58 878.373,785.937 878.938,785.633C879.504,785.329 880.249,785.479 880.601,785.967C880.601,785.967 881.698,787.569 883.411,787.74C884.604,787.86 885.95,787.189 887.517,785.099C887.707,784.846 888.015,784.676 888.361,784.633C888.708,784.591 889.058,784.68 889.322,784.878C889.322,784.878 891.227,786.309 893.491,786.991C894.656,787.342 895.932,787.518 897.032,787.005C897.767,786.661 898.392,786.013 898.884,784.983C899.138,784.452 899.845,784.198 900.461,784.418C901.076,784.637 901.37,785.247 901.116,785.778C900.357,787.364 899.314,788.307 898.181,788.837C896.478,789.633 894.501,789.502 892.695,788.958C891.13,788.486 889.708,787.715 888.793,787.152C886.72,789.475 884.721,789.969 883.133,789.81C880.39,789.536 878.552,787.068 878.552,787.068Z" style="fill:white;"/>
                    </g>
                </g>
                <g transform="matrix(1,0,0,1.13389,146.736,-99.5588)">
                    <path d="M709.883,784.94L715.876,783.549C716.988,783.291 718.128,783.878 718.42,784.858C718.713,785.839 718.048,786.845 716.936,787.103L710.835,788.519L709.908,788.636L708.987,788.566L708.108,788.314L707.305,787.889L706.634,787.313L706.135,786.627L705.824,785.859L705.717,785.039L705.717,773.04C705.717,772.026 706.65,771.202 707.8,771.202C708.95,771.202 709.883,772.026 709.883,773.04L709.883,784.94Z" style="fill:white;"/>
                </g>
            </g>
        </g>
    </g>
</svg>
