<?xml version="1.0" encoding="UTF-8" standalone="no"?>
<!DOCTYPE svg PUBLIC "-//W3C//DTD SVG 1.1//EN" "http://www.w3.org/Graphics/SVG/1.1/DTD/svg11.dtd">
<svg width="100%" height="100%" viewBox="0 0 118 79" version="1.1" xmlns="http://www.w3.org/2000/svg" xmlns:xlink="http://www.w3.org/1999/xlink" xml:space="preserve" xmlns:serif="http://www.serif.com/" style="fill-rule:evenodd;clip-rule:evenodd;stroke-linejoin:round;stroke-miterlimit:2;">
    <g transform="matrix(1,0,0,1,-2555.54,-71.24)">
        <g transform="matrix(1,0,0,1,1857.8,-49.9466)">
            <g transform="matrix(-0.939864,-1.151e-16,1.22465e-16,-1,1449.68,299.852)">
                <path d="M797.308,162.579C797.931,164.116 797.709,165.842 796.716,167.195C795.723,168.549 794.086,169.357 792.336,169.357L707.876,169.357C706.127,169.357 704.489,168.549 703.496,167.195C702.503,165.842 702.282,164.116 702.904,162.579C706.592,153.47 713.132,137.318 717.008,127.745C718.892,123.09 723.641,120.013 728.941,120.013L771.272,120.013C776.571,120.013 781.32,123.09 783.205,127.745C787.081,137.318 793.62,153.47 797.308,162.579Z" style="fill:rgb(255,164,242);"/>
            </g>
            <g transform="matrix(1,0,0,1,-0.960382,-3.24664)">
                <circle cx="730.059" cy="194.029" r="9.264" style="fill:rgb(255,164,242);"/>
            </g>
            <g transform="matrix(1,0,0,1,31.4483,-3.24664)">
                <circle cx="730.059" cy="194.029" r="9.264" style="fill:rgb(255,164,242);"/>
            </g>
            <g transform="matrix(0.852349,0,0,0.891016,110.236,18.2459)">
                <path d="M794.767,177.445C793.792,179.852 790.958,181.048 788.443,180.116C785.927,179.184 784.676,176.473 785.651,174.066L808.102,118.638C808.823,116.858 810.603,115.676 812.599,115.652L822.542,115.532C825.239,115.5 827.457,117.569 827.491,120.15C827.525,122.73 825.362,124.852 822.664,124.884C822.664,124.884 816.025,124.964 816.025,124.964L794.767,177.445Z" style="fill:rgb(255,164,242);"/>
            </g>
            <g transform="matrix(1,0,0,1,1.42958,-1.63763)">
                <path d="M708.99,141.748C708.692,140.637 709.351,139.493 710.461,139.195C711.572,138.897 712.716,139.556 713.014,140.667C713.014,140.667 716.191,152.504 719.945,160.983C721.396,164.26 722.841,167.043 724.297,168.129C728.403,171.191 734.794,170.188 734.794,170.188C735.932,170.022 736.991,170.811 737.156,171.949C737.322,173.087 736.533,174.145 735.395,174.311C735.395,174.311 727.135,175.443 721.806,171.469C719.984,170.11 717.95,166.77 716.135,162.67C712.268,153.938 708.99,141.748 708.99,141.748Z" style="fill:white;"/>
            </g>
        </g>
    </g>
</svg>
