<?xml version="1.0" encoding="UTF-8" standalone="no"?>
<!DOCTYPE svg PUBLIC "-//W3C//DTD SVG 1.1//EN" "http://www.w3.org/Graphics/SVG/1.1/DTD/svg11.dtd">
<svg width="100%" height="100%" viewBox="0 0 98 69" version="1.1" xmlns="http://www.w3.org/2000/svg" xmlns:xlink="http://www.w3.org/1999/xlink" xml:space="preserve" xmlns:serif="http://www.serif.com/" style="fill-rule:evenodd;clip-rule:evenodd;stroke-linejoin:round;stroke-miterlimit:2;">
    <g transform="matrix(1,0,0,1,-1955.57,-698.197)">
        <g transform="matrix(1,0,0,1,-0.284563,0)">
            <g id="up" transform="matrix(6.12323e-17,-1,1,6.12323e-17,1655.68,1294.17)">
                <g transform="matrix(-2.5453e-16,1.3856,-0.728712,-1.33862e-16,820.156,-152.497)">
                    <path d="M357.952,311.486C358.891,309.069 360.377,307.643 361.958,307.643C363.538,307.643 365.025,309.069 365.963,311.486L396.509,390.128C397.318,392.212 397.441,394.984 396.827,397.296C396.214,399.608 394.968,401.066 393.606,401.066L330.309,401.066C328.947,401.066 327.701,399.608 327.088,397.296C326.474,394.984 326.598,392.212 327.407,390.128L357.952,311.486ZM354.41,387.387L341.328,387.387C340.797,387.387 340.326,386.738 340.087,385.776C339.82,384.703 339.87,383.416 340.222,382.449L353.996,344.592C354.469,343.294 354.298,341.512 353.615,340.614C352.933,339.716 351.996,340.041 351.523,341.339L337.749,379.196C336.794,381.819 336.645,385.309 337.368,388.22C338.12,391.242 339.66,393.105 341.328,393.105L354.41,393.105C355.24,393.105 355.914,391.824 355.914,390.246C355.914,388.669 355.24,387.387 354.41,387.387Z" style="fill:rgb(255,164,242);"/>
                </g>
                <g transform="matrix(6.12323e-17,1,-1,6.12323e-17,1246.34,-1964.45)">
                    <path d="M2303.02,708.479C2304.17,708.479 2305.11,709.413 2305.11,710.563C2305.11,711.713 2304.17,712.646 2303.02,712.646L2284.9,712.646C2282.59,712.646 2280.45,711.288 2279.41,709.086C2278.41,706.965 2278.61,704.422 2279.94,702.51L2299.02,674.923C2299.68,673.977 2300.98,673.741 2301.92,674.395C2302.87,675.049 2303.1,676.348 2302.45,677.294L2283.36,704.881C2282.88,705.585 2282.81,706.523 2283.18,707.305C2283.51,708.006 2284.16,708.479 2284.9,708.479L2303.02,708.479Z" style="fill:white;"/>
                </g>
            </g>
        </g>
    </g>
</svg>
