<?xml version="1.0" encoding="UTF-8" standalone="no"?>
<!DOCTYPE svg PUBLIC "-//W3C//DTD SVG 1.1//EN" "http://www.w3.org/Graphics/SVG/1.1/DTD/svg11.dtd">
<svg width="100%" height="100%" viewBox="0 0 100 100" version="1.1" xmlns="http://www.w3.org/2000/svg" xmlns:xlink="http://www.w3.org/1999/xlink" xml:space="preserve" xmlns:serif="http://www.serif.com/" style="fill-rule:evenodd;clip-rule:evenodd;stroke-linejoin:round;stroke-miterlimit:2;">
    <g transform="matrix(1,0,0,1,-1964.44,-832.368)">
        <g transform="matrix(1,0,0,1,-0.284563,0)">
            <g id="MENU" transform="matrix(1,0,0,1,464.864,732.215)">
                <g transform="matrix(1,0,0,0.703545,0,29.691)">
                    <path d="M1589.75,100.153C1595.27,100.153 1599.75,106.517 1599.75,114.367C1599.75,114.596 1599.75,114.826 1599.75,115.055C1599.75,122.905 1595.27,129.269 1589.75,129.269C1570.61,129.269 1529,129.269 1509.86,129.269C1504.33,129.269 1499.86,122.905 1499.86,115.055C1499.86,114.826 1499.86,114.596 1499.86,114.367C1499.86,106.517 1504.33,100.153 1509.86,100.153C1529,100.153 1570.61,100.153 1589.75,100.153Z" style="fill:rgb(255,164,242);"/>
                </g>
                <g transform="matrix(1,0,0,0.703545,0,69.4773)">
                    <path d="M1589.75,100.153C1595.27,100.153 1599.75,106.517 1599.75,114.367C1599.75,114.596 1599.75,114.826 1599.75,115.055C1599.75,122.905 1595.27,129.269 1589.75,129.269C1570.61,129.269 1529,129.269 1509.86,129.269C1504.33,129.269 1499.86,122.905 1499.86,115.055C1499.86,114.826 1499.86,114.596 1499.86,114.367C1499.86,106.517 1504.33,100.153 1509.86,100.153C1529,100.153 1570.61,100.153 1589.75,100.153Z" style="fill:rgb(255,164,242);"/>
                </g>
                <g transform="matrix(1,0,0,0.703545,0,108.969)">
                    <path d="M1589.75,100.153C1595.27,100.153 1599.75,106.517 1599.75,114.367C1599.75,114.596 1599.75,114.826 1599.75,115.055C1599.75,122.905 1595.27,129.269 1589.75,129.269C1570.61,129.269 1529,129.269 1509.86,129.269C1504.33,129.269 1499.86,122.905 1499.86,115.055C1499.86,114.826 1499.86,114.596 1499.86,114.367C1499.86,106.517 1504.33,100.153 1509.86,100.153C1529,100.153 1570.61,100.153 1589.75,100.153Z" style="fill:rgb(255,164,242);"/>
                </g>
                <path d="M1510.85,115.01C1509.7,115.01 1508.77,114.076 1508.77,112.926C1508.77,111.776 1509.7,110.843 1510.85,110.843L1579.93,110.843C1581.08,110.843 1582.02,111.776 1582.02,112.926C1582.02,114.076 1581.08,115.01 1579.93,115.01L1510.85,115.01Z" style="fill:white;"/>
                <g transform="matrix(1,0,0,1,0,39.7863)">
                    <path d="M1510.85,115.01C1509.7,115.01 1508.77,114.076 1508.77,112.926C1508.77,111.776 1509.7,110.843 1510.85,110.843L1579.93,110.843C1581.08,110.843 1582.02,111.776 1582.02,112.926C1582.02,114.076 1581.08,115.01 1579.93,115.01L1510.85,115.01Z" style="fill:white;"/>
                </g>
                <g transform="matrix(1,0,0,1,0,79.2779)">
                    <path d="M1510.85,115.01C1509.7,115.01 1508.77,114.076 1508.77,112.926C1508.77,111.776 1509.7,110.843 1510.85,110.843L1579.93,110.843C1581.08,110.843 1582.02,111.776 1582.02,112.926C1582.02,114.076 1581.08,115.01 1579.93,115.01L1510.85,115.01Z" style="fill:white;"/>
                </g>
            </g>
        </g>
    </g>
</svg>
