<?xml version="1.0" encoding="UTF-8" standalone="no"?>
<!DOCTYPE svg PUBLIC "-//W3C//DTD SVG 1.1//EN" "http://www.w3.org/Graphics/SVG/1.1/DTD/svg11.dtd">
<svg width="100%" height="100%" viewBox="0 0 41 100" version="1.1" xmlns="http://www.w3.org/2000/svg" xmlns:xlink="http://www.w3.org/1999/xlink" xml:space="preserve" xmlns:serif="http://www.serif.com/" style="fill-rule:evenodd;clip-rule:evenodd;stroke-linejoin:round;stroke-miterlimit:2;">
    <g transform="matrix(1,0,0,1,-2365.2,-522.14)">
        <g transform="matrix(1,0,0,1,-0.284563,0)">
            <g id="notice" transform="matrix(1,0,0,1,1035.41,220.967)">
                <g transform="matrix(-1,-1.22465e-16,1.24764e-16,-1.01878,2697.76,674.079)">
                    <path d="M1367.54,354.586C1368.03,357.434 1367.21,360.349 1365.32,362.555C1363.41,364.76 1360.62,366.032 1357.68,366.032C1351.46,366.032 1343.86,366.032 1337.64,366.032C1334.69,366.032 1331.9,364.76 1330,362.555C1328.1,360.349 1327.29,357.434 1327.78,354.586C1330.25,340.142 1334.39,316.029 1336.03,306.461C1336.44,304.098 1338.52,302.368 1340.96,302.368C1344.82,302.368 1350.49,302.368 1354.35,302.368C1356.79,302.368 1358.88,304.098 1359.28,306.461C1360.92,316.029 1365.06,340.142 1367.54,354.586Z" style="fill:rgb(255,164,242);"/>
                </g>
                <g transform="matrix(-1,-1.22465e-16,1.24764e-16,-1.01878,2697.76,674.079)">
                    <path d="M1350.12,310.733C1348.97,310.733 1348.04,309.817 1348.04,308.688C1348.04,307.559 1348.97,306.643 1350.12,306.643C1352.88,306.643 1355.23,308.596 1355.69,311.264L1363.25,355.296C1363.52,356.904 1363.06,358.549 1361.99,359.794C1360.92,361.039 1359.34,361.757 1357.68,361.757L1351.52,361.757C1350.37,361.757 1349.43,360.841 1349.43,359.712C1349.43,358.584 1350.37,357.667 1351.52,357.667L1357.68,357.667C1358.11,357.667 1358.53,357.479 1358.81,357.153C1359.09,356.827 1359.21,356.397 1359.14,355.976L1351.58,311.943C1351.46,311.244 1350.85,310.733 1350.12,310.733Z" style="fill:white;"/>
                </g>
                <g transform="matrix(1,0,0,1,-0.604087,2.55795e-12)">
                    <circle cx="1350.7" cy="386.871" r="14.195" style="fill:rgb(255,164,242);"/>
                </g>
            </g>
        </g>
    </g>
</svg>
