<?xml version="1.0" encoding="UTF-8" standalone="no"?>
<!DOCTYPE svg PUBLIC "-//W3C//DTD SVG 1.1//EN" "http://www.w3.org/Graphics/SVG/1.1/DTD/svg11.dtd">
<svg width="100%" height="100%" viewBox="0 0 116 77" version="1.1" xmlns="http://www.w3.org/2000/svg" xmlns:xlink="http://www.w3.org/1999/xlink" xml:space="preserve" xmlns:serif="http://www.serif.com/" style="fill-rule:evenodd;clip-rule:evenodd;stroke-linejoin:round;stroke-miterlimit:2;">
    <g transform="matrix(1,0,0,1,-2835.12,-811.084)">
        <g transform="matrix(1,0,0,1,-0.284563,0)">
            <g transform="matrix(0.504765,0,0,0.504765,2558.51,372.116)">
                <g transform="matrix(1,0,0,1.02885,-194.223,-55.6302)">
                    <path d="M742.792,1022.2L742.792,924.321C742.792,921.569 743.252,918.92 744.099,916.443C747.496,906.509 757.142,899.336 768.498,899.336L944.932,899.336C956.287,899.336 965.933,906.509 969.33,916.443C970.178,918.92 970.637,921.569 970.637,924.321L970.637,1022.2C970.637,1035.99 959.119,1047.18 944.932,1047.18L768.498,1047.18C754.31,1047.18 742.792,1035.99 742.792,1022.2ZM961.006,917.709C958.351,911.629 952.15,907.359 944.932,907.359L768.498,907.359C761.279,907.359 755.078,911.629 752.424,917.709L961.006,917.709ZM751.047,949.652L751.047,1022.2C751.047,1031.56 758.866,1039.16 768.498,1039.16L944.932,1039.16C954.563,1039.16 962.383,1031.56 962.383,1022.2L962.383,949.652L751.047,949.652Z" style="fill:rgb(255,164,242);"/>
                </g>
                <g transform="matrix(1,0,0,1,-194.223,-25.5388)">
                    <path d="M769.696,1008.98C767.418,1008.98 765.568,1007.13 765.568,1004.85C765.568,1002.57 767.418,1000.72 769.696,1000.72L796.44,1000.72C798.718,1000.72 800.567,1002.57 800.567,1004.85C800.567,1007.13 798.718,1008.98 796.44,1008.98L769.696,1008.98Z" style="fill:rgb(255,164,242);"/>
                    <g transform="matrix(1,0,0,1,40.3333,0)">
                        <path d="M769.696,1008.98C767.418,1008.98 765.568,1007.13 765.568,1004.85C765.568,1002.57 767.418,1000.72 769.696,1000.72L796.44,1000.72C798.718,1000.72 800.567,1002.57 800.567,1004.85C800.567,1007.13 798.718,1008.98 796.44,1008.98L769.696,1008.98Z" style="fill:rgb(255,164,242);"/>
                    </g>
                    <g transform="matrix(1,0,0,1,80.6665,0)">
                        <path d="M769.696,1008.98C767.418,1008.98 765.568,1007.13 765.568,1004.85C765.568,1002.57 767.418,1000.72 769.696,1000.72L796.44,1000.72C798.718,1000.72 800.567,1002.57 800.567,1004.85C800.567,1007.13 798.718,1008.98 796.44,1008.98L769.696,1008.98Z" style="fill:rgb(255,164,242);"/>
                    </g>
                </g>
            </g>
        </g>
    </g>
</svg>
