<?xml version="1.0" encoding="UTF-8" standalone="no"?>
<!DOCTYPE svg PUBLIC "-//W3C//DTD SVG 1.1//EN" "http://www.w3.org/Graphics/SVG/1.1/DTD/svg11.dtd">
<svg width="100%" height="100%" viewBox="0 0 100 102" version="1.1" xmlns="http://www.w3.org/2000/svg" xmlns:xlink="http://www.w3.org/1999/xlink" xml:space="preserve" xmlns:serif="http://www.serif.com/" style="fill-rule:evenodd;clip-rule:evenodd;stroke-linejoin:round;stroke-miterlimit:2;">
    <g transform="matrix(1,0,0,1,-2358.19,-48.3296)">
        <g transform="matrix(1,0,0,1,-0.284563,0)">
            <g id="SEARCH" transform="matrix(1,0,0,1,1858.08,-49.9466)">
                <g transform="matrix(0.707107,-0.707107,0.472438,0.472438,181.899,420.144)">
                    <path d="M442.699,128.517C436.78,126.025 431.195,121.297 426.542,114.332C412.049,92.64 412.049,57.418 426.542,35.727C441.035,14.035 464.568,14.035 479.06,35.727C493.553,57.418 493.553,92.64 479.06,114.332C473.787,122.224 467.317,127.245 460.522,129.394C460.684,130.102 460.772,130.861 460.772,131.651L460.772,193.098C460.772,196.933 458.692,200.047 456.13,200.047L446.844,200.047C444.281,200.047 442.201,196.933 442.201,193.098L442.201,131.651C442.201,130.524 442.38,129.459 442.699,128.517ZM473.168,44.546C461.927,27.722 443.675,27.722 432.435,44.546C421.194,61.37 421.194,88.688 432.435,105.513C443.675,122.337 461.927,122.337 473.168,105.513C484.408,88.688 484.408,61.37 473.168,44.546Z" style="fill:rgb(255,164,242);"/>
                </g>
                <g transform="matrix(1,0,0,1,1,-1.375)">
                    <path d="M546.106,155.414C547.162,154.959 548.388,155.448 548.843,156.504C549.297,157.56 548.808,158.787 547.752,159.241C544.613,160.591 541.155,161.34 537.524,161.34C523.214,161.34 511.596,149.722 511.596,135.412C511.596,134.262 512.53,133.329 513.68,133.329C514.83,133.329 515.763,134.262 515.763,135.412C515.763,147.423 525.514,157.173 537.524,157.173C540.571,157.173 543.472,156.547 546.106,155.414Z" style="fill:rgb(255,164,242);"/>
                </g>
            </g>
        </g>
    </g>
</svg>
