<?xml version="1.0" encoding="UTF-8" standalone="no"?>
<!DOCTYPE svg PUBLIC "-//W3C//DTD SVG 1.1//EN" "http://www.w3.org/Graphics/SVG/1.1/DTD/svg11.dtd">
<svg width="100%" height="100%" viewBox="0 0 100 84" version="1.1" xmlns="http://www.w3.org/2000/svg" xmlns:xlink="http://www.w3.org/1999/xlink" xml:space="preserve" xmlns:serif="http://www.serif.com/" style="fill-rule:evenodd;clip-rule:evenodd;stroke-linejoin:round;stroke-miterlimit:2;">
    <g transform="matrix(1,0,0,1,-2125.01,-999.923)">
        <g transform="matrix(1,0,0,1,-0.284563,0)">
            <g transform="matrix(1,0,0,1,1623.99,282.617)">
                <g transform="matrix(0.831103,0,0,0.905967,93.1044,75.2744)">
                    <path d="M501.303,760.645L493.579,760.645C492.24,760.645 491.152,759.741 491.152,758.628L491.152,752.577C491.152,751.464 492.24,750.56 493.579,750.56L608.919,750.56C610.259,750.56 611.346,751.464 611.346,752.577L611.346,758.628C611.346,759.741 610.259,760.645 608.919,760.645L601.196,760.645L601.196,790.518C601.196,796.031 595.81,800.507 589.177,800.507L513.322,800.507C506.688,800.507 501.303,796.031 501.303,790.518L501.303,760.645Z" style="fill:rgb(255,164,242);"/>
                </g>
                <g transform="matrix(0.996436,0.338755,-0.139681,0.410868,107.36,241.365)">
                    <path d="M577.147,730.137L585.233,730.137C586.913,730.137 588.563,731.217 590.014,733.268L593.43,738.091C593.801,738.615 593.981,739.677 593.869,740.683C593.757,741.688 593.381,742.386 592.951,742.386L513.258,742.386C512.829,742.386 512.453,741.688 512.341,740.683C512.229,739.677 512.409,738.615 512.78,738.091L516.195,733.268C517.647,731.217 519.297,730.137 520.977,730.137L529.063,730.137C529.098,730.009 529.139,729.889 529.185,729.778L530.126,727.524C531.744,723.647 533.927,721.473 536.202,721.473L549.477,721.473C549.477,721.406 549.476,721.339 549.476,721.272C549.476,716.379 551.102,712.407 553.105,712.407C555.107,712.407 556.733,716.379 556.733,721.272C556.733,721.339 556.733,721.406 556.732,721.473L569.656,721.473C572.156,721.473 574.555,723.862 576.334,728.122L577.025,729.778C577.071,729.889 577.112,730.009 577.147,730.137Z" style="fill:rgb(255,164,242);"/>
                </g>
                <g transform="matrix(1,0,0,1,0,4.47144)">
                    <g transform="matrix(0.768025,0,0,0.664179,168.427,249.652)">
                        <path d="M514.327,749.826C514.327,747.637 516.036,745.838 518.161,745.729C516.75,744.39 517.056,742.103 518.898,740.555C520.741,739.006 523.463,738.75 525.058,739.935C525.188,738.15 527.328,736.714 529.934,736.714C532.54,736.714 534.681,738.15 534.811,739.935C536.406,738.75 539.128,739.006 540.971,740.555C542.813,742.103 543.118,744.39 541.708,745.729C543.833,745.838 545.542,747.637 545.542,749.826L514.327,749.826Z" style="fill:rgb(255,164,242);"/>
                    </g>
                    <g transform="matrix(1,0,0,1,4,-1.7)">
                        <g transform="matrix(0.852273,0,0,0.855069,74.9198,109.074)">
                            <path d="M531.686,748.824L512.466,748.824C511.492,747.678 510.979,746.377 510.979,745.054C510.979,740.892 515.952,737.513 522.076,737.513C528.201,737.513 533.173,740.892 533.173,745.054C533.173,746.377 532.66,747.678 531.686,748.824Z" style="fill:rgb(255,164,242);"/>
                        </g>
                        <g transform="matrix(1,0,0,1,0.466649,1)">
                            <g transform="matrix(1,0,0,-0.776666,2.25073,1297.26)">
                                <path d="M516.991,719.519C516.991,719.519 518.627,728.434 519.644,733.978C519.836,735.022 519.646,736.122 519.129,736.963C518.612,737.804 517.825,738.295 516.992,738.295C516.991,738.295 516.99,738.295 516.989,738.295C516.156,738.295 515.369,737.804 514.852,736.963C514.335,736.122 514.145,735.022 514.337,733.978C515.354,728.434 516.991,719.519 516.991,719.519Z" style="fill:rgb(255,164,242);"/>
                            </g>
                            <g transform="matrix(0.781417,0.624009,0.310557,-0.388896,-107,695.582)">
                                <path d="M516.991,719.519C516.991,719.519 518.249,726.373 519.244,731.799C519.516,733.28 519.411,734.934 518.961,736.229C518.512,737.523 517.776,738.295 516.991,738.295C516.991,738.295 516.99,738.295 516.99,738.295C516.205,738.295 515.469,737.523 515.02,736.229C514.57,734.934 514.465,733.28 514.737,731.799C515.732,726.373 516.991,719.519 516.991,719.519Z" style="fill:rgb(255,164,242);"/>
                            </g>
                            <g transform="matrix(0.793922,-0.60802,-0.3026,-0.39512,325.542,1337.07)">
                                <path d="M516.991,719.519C516.991,719.519 518.249,726.373 519.244,731.799C519.516,733.28 519.411,734.934 518.961,736.229C518.512,737.523 517.776,738.295 516.991,738.295C516.991,738.295 516.99,738.295 516.99,738.295C516.205,738.295 515.469,737.523 515.02,736.229C514.57,734.934 514.465,733.28 514.737,731.799C515.732,726.373 516.991,719.519 516.991,719.519Z" style="fill:rgb(255,164,242);"/>
                            </g>
                        </g>
                    </g>
                    <g transform="matrix(0.907868,0.523294,-0.541919,0.940181,457.338,-242.075)">
                        <path d="M538.735,752.677L536.499,750.086L540.827,746.898L535.43,745.76L536.616,740.958L542.014,742.096L539.612,737.489L544.416,735.352L546.818,739.959L549.22,735.352L554.025,737.489L551.623,742.096L557.02,740.958L557.356,742.316L538.735,752.677Z" style="fill:rgb(255,164,242);"/>
                    </g>
                </g>
                <g transform="matrix(1,0,0,1,0,3.07674)">
                    <path d="M514.596,769.728C514.596,768.578 515.53,767.644 516.68,767.644C517.83,767.644 518.763,768.578 518.763,769.728L518.763,785.225C518.763,787.158 520.33,788.726 522.263,788.726L529.67,788.726C530.82,788.726 531.754,789.659 531.754,790.809C531.754,791.959 530.82,792.892 529.67,792.892L522.263,792.892C518.029,792.892 514.596,789.46 514.596,785.225L514.596,769.728Z" style="fill:white;"/>
                </g>
            </g>
        </g>
    </g>
</svg>
