<?xml version="1.0" encoding="UTF-8" standalone="no"?>
<!DOCTYPE svg PUBLIC "-//W3C//DTD SVG 1.1//EN" "http://www.w3.org/Graphics/SVG/1.1/DTD/svg11.dtd">
<svg width="100%" height="100%" viewBox="0 0 113 101" version="1.1" xmlns="http://www.w3.org/2000/svg" xmlns:xlink="http://www.w3.org/1999/xlink" xml:space="preserve" xmlns:serif="http://www.serif.com/" style="fill-rule:evenodd;clip-rule:evenodd;stroke-linejoin:round;stroke-miterlimit:2;">
    <g transform="matrix(1,0,0,1,-2145.63,-201.699)">
        <g transform="matrix(1,0,0,1,-0.284563,0)">
            <g id="HOME" transform="matrix(1,0,0,1,2052.28,102)">
                <g transform="matrix(1.04469,0,0,1.03142,-179.388,-6.28504)">
                    <path d="M272.011,148.178C270.623,149.066 269.781,150.613 269.781,152.276L269.781,190.351C269.781,192.923 270.79,195.389 272.585,197.207C274.38,199.025 276.815,200.047 279.354,200.047L350.904,200.047C353.442,200.047 355.877,199.025 357.672,197.207C359.467,195.389 360.476,192.923 360.476,190.351C360.476,178.565 360.476,159.385 360.476,152.418C360.476,150.775 359.654,149.243 358.293,148.35C352.033,144.24 333.795,132.268 323.284,125.367C318.584,122.282 312.542,122.246 307.806,125.276C297.104,132.123 278.418,144.078 272.011,148.178Z" style="fill:rgb(255,164,242);"/>
                </g>
                <g transform="matrix(0.828281,0,0,0.790452,25.2525,24.9864)">
                    <path d="M94.196,147.201C90.7,149.573 86.024,148.524 83.761,144.861C81.498,141.197 82.499,136.298 85.995,133.927L139.224,97.819C145.66,93.453 153.932,93.416 160.404,97.723L214.744,133.89C218.259,136.229 219.301,141.12 217.068,144.803C214.835,148.487 210.168,149.578 206.653,147.238L152.313,111.072C150.819,110.078 148.91,110.086 147.425,111.094L94.196,147.201Z" style="fill:rgb(255,164,242);"/>
                </g>
                <g transform="matrix(1,0,0,0.81952,2.2,36.3162)">
                    <path d="M109.584,151.322C109.584,149.919 110.518,148.78 111.668,148.78C112.818,148.78 113.751,149.919 113.751,151.322L113.751,179.991C113.751,181.42 114.216,182.791 115.045,183.801C115.873,184.812 116.996,185.38 118.168,185.38L132.668,185.38C133.818,185.38 134.751,186.519 134.751,187.922C134.751,189.325 133.818,190.464 132.668,190.464L118.168,190.464C115.891,190.464 113.708,189.361 112.098,187.396C110.489,185.432 109.584,182.768 109.584,179.99L109.584,151.322Z" style="fill:white;"/>
                </g>
            </g>
        </g>
    </g>
</svg>
