<?xml version="1.0" encoding="UTF-8" standalone="no"?>
<!DOCTYPE svg PUBLIC "-//W3C//DTD SVG 1.1//EN" "http://www.w3.org/Graphics/SVG/1.1/DTD/svg11.dtd">
<svg width="100%" height="100%" viewBox="0 0 671 486" version="1.1" xmlns="http://www.w3.org/2000/svg" xmlns:xlink="http://www.w3.org/1999/xlink" xml:space="preserve" xmlns:serif="http://www.serif.com/" style="fill-rule:evenodd;clip-rule:evenodd;stroke-linejoin:round;stroke-miterlimit:2;">
    <g transform="matrix(1,0,0,1,-3482.37,-115.734)">
        <g transform="matrix(0.894749,0,0,0.894749,585.288,0)">
            <g transform="matrix(6.65469,0,0,6.65469,-5371.13,-3325.98)">
                <g transform="matrix(0.736278,0,0,0.720908,344.988,160.501)">
                    <g transform="matrix(1,0,0,1,-12.2873,27.3566)">
                        <path d="M1308.92,516.735C1303.89,511.812 1300.78,504.952 1300.78,497.37C1300.78,482.404 1312.93,470.253 1327.89,470.253C1342.86,470.253 1355.01,482.404 1355.01,497.37C1355.01,500.535 1354.46,503.574 1353.47,506.398L1326.86,506.398C1319.26,506.398 1312.59,510.541 1308.92,516.735ZM1350.61,512.178C1345.76,519.587 1337.39,524.486 1327.89,524.486C1322.58,524.486 1317.62,522.954 1313.43,520.308C1316.03,515.465 1321.07,512.178 1326.86,512.178L1350.61,512.178Z" style="fill:rgb(255,164,242);"/>
                    </g>
                    <g transform="matrix(1,0,0,1,59.8314,27.3566)">
                        <path d="M1340.85,521.189C1337,523.291 1332.59,524.486 1327.89,524.486C1318.39,524.486 1310.02,519.587 1305.18,512.178L1326.99,512.178C1333.12,512.178 1338.41,515.868 1340.85,521.189ZM1302.32,506.398C1301.32,503.574 1300.78,500.535 1300.78,497.37C1300.78,482.404 1312.93,470.253 1327.89,470.253C1342.86,470.253 1355.01,482.404 1355.01,497.37C1355.01,505.579 1351.35,512.942 1345.58,517.916C1342.08,511.073 1335.07,506.398 1326.99,506.398L1302.32,506.398Z" style="fill:rgb(255,164,242);"/>
                    </g>
                </g>
                <g transform="matrix(6.12323e-17,-1,0.678508,4.15466e-17,999.055,2001.04)">
                    <path d="M1445.18,588.353C1446.03,590.87 1445.94,593.854 1444.93,596.244C1443.93,598.633 1442.16,600.087 1440.25,600.087C1431.98,600.087 1419.73,600.087 1411.46,600.087C1409.56,600.087 1407.79,598.633 1406.78,596.244C1405.78,593.854 1405.68,590.87 1406.53,588.353C1408.78,581.699 1411.44,573.821 1412.97,569.299C1413.73,567.037 1415.3,565.607 1417.01,565.607C1421.49,565.607 1430.22,565.607 1434.7,565.607C1436.42,565.607 1437.98,567.037 1438.75,569.299C1440.27,573.821 1442.93,581.699 1445.18,588.353Z" style="fill:rgb(255,164,242);"/>
                </g>
                <g transform="matrix(0.780892,0,0,0.764592,285.106,140.957)">
                    <path d="M1401.37,549.007L1401.37,583.928C1401.37,593.565 1393.71,601.389 1384.27,601.389L1316.15,601.389C1306.71,601.389 1299.05,593.565 1299.05,583.928L1299.05,549.007C1299.05,539.37 1306.71,531.546 1316.15,531.546L1384.27,531.546C1393.71,531.546 1401.37,539.37 1401.37,549.007Z" style="fill:rgb(255,164,242);"/>
                </g>
                <g transform="matrix(1,0,0,1,5.68564,0)">
                    <path d="M1301.24,569.436C1301.24,568.286 1302.18,567.353 1303.33,567.353C1304.48,567.353 1305.41,568.286 1305.41,569.436L1305.41,586.079C1305.41,588.935 1307.73,591.25 1310.58,591.25L1323.14,591.25C1324.29,591.25 1325.23,592.184 1325.23,593.334C1325.23,594.484 1324.29,595.417 1323.14,595.417L1310.58,595.417C1305.42,595.417 1301.24,591.236 1301.24,586.079L1301.24,569.436Z" style="fill:white;"/>
                </g>
            </g>
        </g>
    </g>
</svg>
