<?xml version="1.0" encoding="UTF-8" standalone="no"?>
<!DOCTYPE svg PUBLIC "-//W3C//DTD SVG 1.1//EN" "http://www.w3.org/Graphics/SVG/1.1/DTD/svg11.dtd">
<svg width="100%" height="100%" viewBox="0 0 66 100" version="1.1" xmlns="http://www.w3.org/2000/svg" xmlns:xlink="http://www.w3.org/1999/xlink" xml:space="preserve" xmlns:serif="http://www.serif.com/" style="fill-rule:evenodd;clip-rule:evenodd;stroke-linejoin:round;stroke-miterlimit:2;">
    <g transform="matrix(1,0,0,1,-2377.53,-203.359)">
        <g transform="matrix(1,0,0,1,-0.284563,0)">
            <g id="PHONE" transform="matrix(1,0,0,1,1460.62,103.206)">
                <g transform="matrix(1.13187,0,0,1,-127.276,0)">
                    <path d="M980.658,113.254L980.658,186.946C980.658,194.176 975.471,200.047 969.083,200.047L934.359,200.047C927.971,200.047 922.784,194.176 922.784,186.946L922.784,113.254C922.784,106.024 927.971,100.153 934.359,100.153L969.083,100.153C975.471,100.153 980.658,106.024 980.658,113.254ZM973.796,120.651C973.796,113.862 968.926,108.35 962.927,108.35L941.191,108.35C935.192,108.35 930.322,113.862 930.322,120.651L930.322,168.42C930.322,175.21 935.192,180.722 941.191,180.722L962.927,180.722C968.926,180.722 973.796,175.21 973.796,168.42L973.796,120.651ZM951.721,183.089C948.341,183.089 945.596,186.196 945.596,190.022C945.596,193.848 948.341,196.955 951.721,196.955C955.102,196.955 957.846,193.848 957.846,190.022C957.846,186.196 955.102,183.089 951.721,183.089Z" style="fill:rgb(255,164,242);"/>
                </g>
                <g transform="matrix(1,0,0,0.739583,1.28837,45.7807)">
                    <path d="M931.421,122.553C931.421,120.999 932.354,119.737 933.504,119.737C934.654,119.737 935.588,120.999 935.588,122.553L935.588,164.492C935.588,165.538 935.895,166.541 936.442,167.281C936.989,168.02 937.731,168.436 938.504,168.436L949.947,168.436C951.096,168.436 952.03,169.698 952.03,171.253C952.03,172.807 951.096,174.069 949.947,174.069L938.504,174.069C936.626,174.069 934.824,173.06 933.496,171.264C932.167,169.468 931.421,167.032 931.421,164.492L931.421,122.553Z" style="fill:rgb(255,164,242);"/>
                </g>
            </g>
        </g>
    </g>
</svg>
