<?xml version="1.0" encoding="UTF-8" standalone="no"?>
<!DOCTYPE svg PUBLIC "-//W3C//DTD SVG 1.1//EN" "http://www.w3.org/Graphics/SVG/1.1/DTD/svg11.dtd">
<svg width="100%" height="100%" viewBox="0 0 111 73" version="1.1" xmlns="http://www.w3.org/2000/svg" xmlns:xlink="http://www.w3.org/1999/xlink" xml:space="preserve" xmlns:serif="http://www.serif.com/" style="fill-rule:evenodd;clip-rule:evenodd;stroke-linejoin:round;stroke-miterlimit:2;">
    <g transform="matrix(1,0,0,1,-1937.7,-225.816)">
        <g transform="matrix(1,0,0,1,-0.284563,0)">
            <g id="MAIL" transform="matrix(1,0,0,1,445.405,-302)">
                <path d="M1600.22,534.999C1600.76,534.592 1601.48,534.527 1602.09,534.83C1602.7,535.133 1603.08,535.752 1603.08,536.429C1603.08,547.629 1603.08,582.046 1603.08,595C1603.08,597.761 1600.84,600 1598.08,600C1579.69,600 1515.96,600 1497.58,600C1494.82,600 1492.58,597.761 1492.58,595C1492.58,582.046 1492.58,547.629 1492.58,536.429C1492.58,535.752 1492.96,535.133 1493.57,534.83C1494.17,534.527 1494.9,534.592 1495.44,534.999C1504.73,541.964 1534.02,563.931 1544.25,571.609C1546.37,573.198 1549.29,573.198 1551.4,571.609C1561.64,563.931 1590.93,541.964 1600.22,534.999Z" style="fill:rgb(255,164,242);"/>
                <g transform="matrix(1,0,0,0.776605,3.33333,131.213)">
                    <path d="M1494.2,550.053C1494.2,548.573 1495.13,547.371 1496.28,547.371C1497.43,547.371 1498.37,548.573 1498.37,550.053L1498.37,591.312C1498.37,591.766 1498.65,592.134 1499.01,592.134L1511.17,592.134C1512.32,592.134 1513.26,593.337 1513.26,594.817C1513.26,596.298 1512.32,597.5 1511.17,597.5L1499.01,597.5C1496.35,597.5 1494.2,594.729 1494.2,591.312L1494.2,550.053Z" style="fill:white;"/>
                </g>
                <g transform="matrix(-2.98198,-3.65188e-16,3.15165e-16,-2.57352,6108.15,1994.65)">
                    <path d="M1528.26,555.014C1528.87,554.49 1529.71,554.49 1530.32,555.014C1533.62,557.831 1543.85,566.579 1546.93,569.213C1547.06,569.321 1547.11,569.51 1547.06,569.683C1547.01,569.855 1546.87,569.971 1546.72,569.971C1541.28,569.971 1517.31,569.971 1511.87,569.971C1511.71,569.971 1511.57,569.855 1511.52,569.683C1511.47,569.51 1511.52,569.321 1511.65,569.213C1514.73,566.579 1524.96,557.831 1528.26,555.014Z" style="fill:rgb(255,164,242);"/>
                </g>
            </g>
        </g>
    </g>
</svg>
