<?xml version="1.0" encoding="UTF-8" standalone="no"?>
<!DOCTYPE svg PUBLIC "-//W3C//DTD SVG 1.1//EN" "http://www.w3.org/Graphics/SVG/1.1/DTD/svg11.dtd">
<svg width="100%" height="100%" viewBox="0 0 100 96" version="1.1" xmlns="http://www.w3.org/2000/svg" xmlns:xlink="http://www.w3.org/1999/xlink" xml:space="preserve" xmlns:serif="http://www.serif.com/" style="fill-rule:evenodd;clip-rule:evenodd;stroke-linejoin:round;stroke-miterlimit:2;">
    <g transform="matrix(1,0,0,1,-1949.61,-367.173)">
        <g transform="matrix(1,0,0,1,-0.284563,0)">
            <g transform="matrix(1,0,0,1,1850.28,66)">
                <path d="M199.499,341.13C199.499,363.183 177.119,381.087 149.552,381.087C144.808,381.087 140.09,380.547 135.539,379.482C134.897,379.33 134.221,379.504 133.732,379.949C131.017,382.417 121.869,390.74 115.9,396.17C115.234,396.776 114.245,396.862 113.484,396.381C112.723,395.899 112.378,394.969 112.641,394.108C114.674,387.441 117.591,377.877 118.691,374.271C118.951,373.418 118.615,372.496 117.867,372.011C106.328,364.442 99.606,353.114 99.606,341.13C99.606,319.077 121.986,301.173 149.552,301.173C177.119,301.173 199.499,319.077 199.499,341.13Z" style="fill:rgb(255,164,242);"/>
            </g>
            <g transform="matrix(1.21895,0,0,1.12605,1816.94,16.8094)">
                <path d="M125.847,367.042C118.819,361.873 114.505,354.506 114.505,346.396C114.505,338.86 118.226,331.97 124.391,326.884C125.142,326.265 126.215,326.422 126.787,327.234C127.359,328.046 127.214,329.208 126.463,329.827C121.207,334.164 117.923,339.971 117.923,346.396C117.923,353.341 121.755,359.561 127.775,363.986L127.782,363.992C127.813,364.015 127.844,364.039 127.873,364.064C128.704,364.74 134.879,370.089 131.531,377.14C131.1,378.048 130.069,378.407 129.23,377.94C128.391,377.473 128.06,376.357 128.491,375.449C129.61,373.093 128.978,371.05 128.092,369.595C127.162,368.068 125.957,367.126 125.855,367.047C125.851,367.045 125.849,367.043 125.847,367.042Z" style="fill:white;"/>
            </g>
        </g>
    </g>
</svg>
