<?xml version="1.0" encoding="UTF-8" standalone="no"?>
<!DOCTYPE svg PUBLIC "-//W3C//DTD SVG 1.1//EN" "http://www.w3.org/Graphics/SVG/1.1/DTD/svg11.dtd">
<svg width="100%" height="100%" viewBox="0 0 723 1037" version="1.1" xmlns="http://www.w3.org/2000/svg" xmlns:xlink="http://www.w3.org/1999/xlink" xml:space="preserve" xmlns:serif="http://www.serif.com/" style="fill-rule:evenodd;clip-rule:evenodd;stroke-linejoin:round;stroke-miterlimit:2;">
    <g transform="matrix(1,0,0,1,-2688.83,-1407.6)">
        <g id="left" transform="matrix(10.6106,0,0,10.6106,-593.998,-1800.7)">
            <g transform="matrix(8.48433e-17,-1.3856,0.728712,4.46207e-17,85.2087,852.747)">
                <path d="M357.952,311.486C358.891,309.069 360.377,307.643 361.958,307.643C363.538,307.643 365.025,309.069 365.963,311.486C373.33,330.453 388.964,370.704 396.509,390.128C397.318,392.212 397.441,394.984 396.827,397.296C396.214,399.608 394.968,401.066 393.606,401.066C378.831,401.066 345.085,401.066 330.309,401.066C328.947,401.066 327.701,399.608 327.088,397.296C326.474,394.984 326.598,392.212 327.407,390.128C334.951,370.704 350.585,330.453 357.952,311.486Z" style="fill:white;"/>
            </g>
            <g transform="matrix(8.48433e-17,-1.3856,0.728712,4.46207e-17,85.2087,853.714)">
                <path d="M351.906,348.605C351.413,349.874 350.471,350.144 349.804,349.207C349.136,348.269 348.994,346.478 349.487,345.208L357.845,323.69C358.809,321.208 360.335,319.744 361.958,319.744C363.58,319.744 365.106,321.208 366.07,323.69L381.254,362.782C381.747,364.051 381.605,365.843 380.937,366.78C380.27,367.718 379.328,367.448 378.835,366.179L363.651,327.087C363.254,326.065 362.626,325.462 361.958,325.462C361.29,325.462 360.661,326.065 360.264,327.087L351.906,348.605Z" style="fill:rgb(255,164,242);"/>
            </g>
        </g>
    </g>
</svg>
