<?xml version="1.0" encoding="UTF-8" standalone="no"?>
<!DOCTYPE svg PUBLIC "-//W3C//DTD SVG 1.1//EN" "http://www.w3.org/Graphics/SVG/1.1/DTD/svg11.dtd">
<svg width="100%" height="100%" viewBox="0 0 94 105" version="1.1" xmlns="http://www.w3.org/2000/svg" xmlns:xlink="http://www.w3.org/1999/xlink" xml:space="preserve" xmlns:serif="http://www.serif.com/" style="fill-rule:evenodd;clip-rule:evenodd;stroke-linejoin:round;stroke-miterlimit:2;">
    <g transform="matrix(1,0,0,1,-1104.68,-497.837)">
        <g>
            <g transform="matrix(0.944436,0,0,0.940674,84.4048,32.5452)">
                <circle cx="1124.47" cy="561.253" r="41.965" style="fill:white;"/>
            </g>
            <g>
                <g transform="matrix(0.944436,0,0,0.940674,84.4048,32.5452)">
                    <path d="M1124.47,517.073C1148.85,517.073 1168.64,536.872 1168.64,561.253C1168.64,585.633 1148.85,605.432 1124.47,605.432C1100.09,605.432 1080.3,585.633 1080.3,561.253C1080.3,536.872 1100.09,517.073 1124.47,517.073ZM1088.15,545.062C1087.57,546.366 1087.06,547.707 1086.61,549.081C1104.15,559.085 1120.55,555.638 1133.04,549.144C1134.13,552.586 1134.82,556.261 1134.95,560.149C1134.99,561.453 1134.96,562.781 1134.87,564.132C1121.51,569.532 1104.46,571.163 1085.49,560.605L1084.73,560.182C1084.72,560.538 1084.71,560.895 1084.71,561.253C1084.71,562.557 1084.78,563.848 1084.9,565.12C1103.68,575.044 1120.65,573.89 1134.26,568.907C1133.61,572.418 1132.47,576.068 1130.76,579.849C1129.97,581.585 1129.07,583.348 1128.03,585.136C1111.82,588.143 1093.36,581.189 1089.13,579.462C1090.03,581.203 1091.05,582.869 1092.19,584.448C1103.9,589.809 1115.03,590.99 1125.04,589.852C1122.85,593.029 1120.24,596.281 1117.19,599.603C1117,599.81 1116.81,600.017 1116.61,600.224C1118.28,600.56 1119.99,600.79 1121.73,600.909C1125.34,596.819 1128.3,592.829 1130.69,588.951C1133.67,588.34 1136.53,587.539 1139.26,586.603C1136.64,590.878 1133.28,595.298 1129.06,599.854C1128.76,600.175 1128.46,600.497 1128.15,600.819L1128.14,600.835C1130.48,600.621 1132.76,600.203 1134.97,599.601C1139.52,594.269 1142.97,589.11 1145.5,584.148C1148.4,582.859 1151.1,581.45 1153.57,580.009C1151.38,584.817 1148.26,589.833 1144.03,595.04C1143.63,595.537 1143.21,596.036 1142.79,596.536C1147.36,594.159 1151.4,590.921 1154.72,587.038C1156.87,583.298 1158.48,579.662 1159.65,576.14C1160.46,575.574 1161.24,575.016 1161.98,574.47C1162.75,572.288 1163.33,570.019 1163.71,567.682C1163,568.287 1162.2,568.94 1161.33,569.626C1161.91,566.516 1162.14,563.509 1162.09,560.61C1162.03,557.65 1161.68,554.799 1161.09,552.067C1161.68,551.518 1162.23,550.989 1162.75,550.484C1162.32,548.96 1161.81,547.473 1161.2,546.029C1160.78,546.464 1160.32,546.928 1159.82,547.417C1158.2,542.484 1155.84,537.99 1153.13,533.985C1153.17,533.939 1153.22,533.894 1153.26,533.849C1149.32,529.709 1144.49,526.417 1139.08,524.277C1141.87,526.838 1144.84,529.939 1147.58,533.533C1146.54,534.52 1145.37,535.583 1144.07,536.681C1140.62,530.957 1136.37,526.12 1132.38,522.29C1130.03,521.816 1127.61,521.548 1125.13,521.508C1130.01,525.552 1136.16,531.604 1140.72,539.355C1139.05,540.618 1137.23,541.883 1135.28,543.091C1131.42,534.229 1125.29,527.014 1119.74,521.782C1117.95,521.994 1116.21,522.324 1114.5,522.765C1120.32,527.827 1127.45,535.463 1131.58,545.218C1119.93,551.4 1104.58,554.703 1088.15,545.062ZM1136.8,547.029C1138.92,545.754 1140.89,544.415 1142.71,543.072C1144.08,545.903 1145.21,548.929 1145.97,552.137C1146.41,553.97 1146.73,555.862 1146.91,557.811C1144.54,559.351 1141.96,560.845 1139.2,562.2C1139.21,561.464 1139.2,560.735 1139.18,560.013C1139.03,555.405 1138.17,551.068 1136.8,547.029ZM1150.04,536.998C1152.7,541.036 1154.97,545.594 1156.37,550.621C1154.75,552.045 1152.9,553.557 1150.85,555.074C1150.65,553.739 1150.4,552.43 1150.09,551.147C1149.18,547.327 1147.81,543.742 1146.13,540.413C1147.57,539.228 1148.88,538.075 1150.04,536.998ZM1156.04,573.473C1153.7,575.048 1151.05,576.659 1148.14,578.179C1149.22,575.296 1150,572.487 1150.52,569.758C1151.16,566.37 1151.39,563.1 1151.28,559.956C1153.53,558.402 1155.56,556.828 1157.38,555.316C1157.66,557.058 1157.82,558.85 1157.85,560.688C1157.92,564.734 1157.38,569.001 1156.04,573.473ZM1133.5,583.935C1133.89,583.155 1134.27,582.379 1134.62,581.608C1136.91,576.532 1138.25,571.667 1138.84,567.038C1141.77,565.722 1144.51,564.25 1147.05,562.709C1146.98,564.741 1146.76,566.828 1146.35,568.968C1145.63,572.786 1144.35,576.764 1142.38,580.891C1139.59,582.061 1136.62,583.103 1133.5,583.935Z" style="fill:rgb(255,164,242);"/>
                </g>
                <g transform="matrix(0.864791,0,0,1,159.677,11.0255)">
                    <path d="M1184.53,581.198C1183.51,581.939 1181.99,581.825 1181.13,580.946C1180.28,580.066 1180.41,578.75 1181.42,578.01C1207.51,559.023 1198.81,515.294 1157.78,507.207C1139.63,503.63 1121.98,504.144 1110.75,501.729C1102.01,499.848 1096.83,496.257 1096.83,488.895C1096.83,487.745 1097.91,486.812 1099.24,486.812C1100.57,486.812 1101.65,487.745 1101.65,488.895C1101.65,494.122 1105.7,496.35 1111.91,497.686C1123.12,500.096 1140.74,499.575 1158.85,503.144C1204.03,512.05 1213.26,560.291 1184.53,581.198Z" style="fill:rgb(255,164,242);"/>
                </g>
            </g>
        </g>
    </g>
</svg>
