<?xml version="1.0" encoding="UTF-8" standalone="no"?>
<!DOCTYPE svg PUBLIC "-//W3C//DTD SVG 1.1//EN" "http://www.w3.org/Graphics/SVG/1.1/DTD/svg11.dtd">
<svg width="100%" height="100%" viewBox="0 0 73 97" version="1.1" xmlns="http://www.w3.org/2000/svg" xmlns:xlink="http://www.w3.org/1999/xlink" xml:space="preserve" xmlns:serif="http://www.serif.com/" style="fill-rule:evenodd;clip-rule:evenodd;stroke-linejoin:round;stroke-miterlimit:2;">
    <g transform="matrix(1,0,0,1,-2570.69,-209.982)">
        <g transform="matrix(1,0,0,1,-0.284563,0)">
            <g id="LOCATION" transform="matrix(1,0,0,1,1458.17,109.828)">
                <g transform="matrix(1.14613,0,0,1.14613,-176.956,-31.873)">
                    <path d="M1130.4,163.893C1127.19,158.952 1125.32,153.056 1125.32,146.726C1125.32,129.322 1139.45,115.193 1156.85,115.193C1174.26,115.193 1188.39,129.322 1188.39,146.726C1188.39,153.056 1186.52,158.952 1183.3,163.893C1183.01,164.345 1182.7,164.789 1182.39,165.224L1160.45,197.123C1159.63,198.307 1158.29,199.014 1156.85,199.014C1155.42,199.014 1154.07,198.307 1153.26,197.123L1131.32,165.224C1131,164.789 1130.7,164.345 1130.4,163.893ZM1156.85,130.383C1149.48,130.383 1143.49,136.369 1143.49,143.743C1143.49,151.117 1149.48,157.103 1156.85,157.103C1164.23,157.103 1170.21,151.117 1170.21,143.743C1170.21,136.369 1164.23,130.383 1156.85,130.383Z" style="fill:rgb(255,164,242);"/>
                </g>
                <g transform="matrix(1,0,0,1,1,1)">
                    <path d="M1130.05,112.021C1131.05,111.444 1132.32,111.784 1132.9,112.779C1133.47,113.774 1133.13,115.049 1132.14,115.626C1122.42,121.258 1116.34,139.167 1137.97,162.266C1138.76,163.106 1138.71,164.425 1137.87,165.211C1137.03,165.997 1135.71,165.954 1134.93,165.115C1110.39,138.913 1119.03,118.41 1130.05,112.021Z" style="fill:white;"/>
                </g>
            </g>
        </g>
    </g>
</svg>
