<?xml version="1.0" encoding="UTF-8" standalone="no"?>
<!DOCTYPE svg PUBLIC "-//W3C//DTD SVG 1.1//EN" "http://www.w3.org/Graphics/SVG/1.1/DTD/svg11.dtd">
<svg width="100%" height="100%" viewBox="0 0 66 100" version="1.1" xmlns="http://www.w3.org/2000/svg" xmlns:xlink="http://www.w3.org/1999/xlink" xml:space="preserve" xmlns:serif="http://www.serif.com/" style="fill-rule:evenodd;clip-rule:evenodd;stroke-linejoin:round;stroke-miterlimit:2;">
    <g transform="matrix(1,0,0,1,-2571.94,-986.03)">
        <g transform="matrix(1,0,0,1,-0.284563,0)">
            <g transform="matrix(1,0,0,1,1354.91,285.416)">
                <g transform="matrix(5.31977,0,0,4.87284,-5832.92,-2812.92)">
                    <path d="M1325.29,727.668L1325.29,727.093C1325.29,725.876 1325.7,724.86 1326.52,724.043C1327.35,723.21 1328.37,722.793 1329.59,722.793L1330.79,722.793L1330.79,721.807C1330.79,721.604 1330.86,721.41 1331,721.267C1331.13,721.124 1331.3,721.043 1331.49,721.043C1331.49,721.043 1331.49,721.043 1331.49,721.043C1331.68,721.043 1331.85,721.124 1331.99,721.267C1332.12,721.41 1332.19,721.604 1332.19,721.807C1332.19,722.278 1332.19,722.793 1332.19,722.793L1336.05,722.793C1336.57,722.793 1336.99,723.252 1336.99,723.819L1336.99,727.567C1336.99,728.134 1336.57,728.593 1336.05,728.593C1334.42,728.593 1331.27,728.593 1331.27,728.593C1330.95,728.593 1330.7,728.685 1330.52,728.868C1330.33,729.051 1330.24,729.301 1330.24,729.618C1330.24,729.935 1330.33,730.185 1330.52,730.368C1330.7,730.535 1330.95,730.618 1331.27,730.618L1333.39,730.618C1334.61,730.618 1335.62,731.035 1336.44,731.868C1337.27,732.685 1337.69,733.701 1337.69,734.918L1337.69,735.493C1337.69,736.71 1337.27,737.735 1336.44,738.568C1335.62,739.385 1334.61,739.793 1333.39,739.793L1332.19,739.793L1332.19,740.779C1332.19,740.982 1332.12,741.176 1331.99,741.319C1331.85,741.463 1331.68,741.543 1331.49,741.543C1331.49,741.543 1331.49,741.543 1331.49,741.543C1331.3,741.543 1331.13,741.463 1331,741.319C1330.86,741.176 1330.79,740.982 1330.79,740.779C1330.79,740.308 1330.79,739.793 1330.79,739.793L1326.93,739.793C1326.41,739.793 1325.99,739.334 1325.99,738.767L1325.99,735.019C1325.99,734.452 1326.41,733.993 1326.93,733.993C1328.55,733.993 1331.71,733.993 1331.71,733.993C1332.03,733.993 1332.28,733.901 1332.46,733.718C1332.65,733.535 1332.74,733.285 1332.74,732.968C1332.74,732.651 1332.65,732.41 1332.46,732.243C1332.28,732.06 1332.03,731.968 1331.71,731.968L1329.59,731.968C1328.37,731.968 1327.35,731.56 1326.52,730.743C1325.7,729.91 1325.29,728.885 1325.29,727.668Z" style="fill:rgb(255,164,242);fill-rule:nonzero;"/>
                </g>
                <g>
                    <g transform="matrix(5.31977,0,0,4.87284,-5830.92,-2812.92)">
                        <path d="M1329.59,731.079C1329.7,731.079 1329.79,731.175 1329.79,731.293C1329.79,731.411 1329.7,731.507 1329.59,731.507C1328.49,731.507 1327.56,731.144 1326.81,730.408C1326.8,730.407 1326.8,730.406 1326.8,730.404C1326.08,729.66 1325.71,728.749 1325.71,727.668L1325.71,727.093C1325.71,726.012 1326.08,725.109 1326.8,724.383C1327.17,724.012 1327.59,723.734 1328.04,723.546C1328.14,723.505 1328.25,723.56 1328.29,723.671C1328.33,723.781 1328.28,723.904 1328.18,723.946C1327.77,724.115 1327.4,724.365 1327.07,724.699C1326.42,725.34 1326.1,726.138 1326.1,727.093L1326.1,727.668C1326.1,728.625 1326.42,729.431 1327.07,730.091C1327.75,730.756 1328.59,731.079 1329.59,731.079Z" style="fill:white;"/>
                    </g>
                    <g transform="matrix(5.31977,0,0,4.87284,-5830.92,-2812.92)">
                        <path d="M1329.13,738.904C1329.24,738.904 1329.33,739 1329.33,739.118C1329.33,739.236 1329.24,739.332 1329.13,739.332L1326.93,739.332C1326.64,739.332 1326.41,739.079 1326.41,738.767L1326.41,735.019C1326.41,734.707 1326.64,734.454 1326.93,734.454L1327.38,734.454C1327.48,734.454 1327.57,734.55 1327.57,734.668C1327.57,734.786 1327.48,734.882 1327.38,734.882L1326.93,734.882C1326.86,734.882 1326.8,734.943 1326.8,735.019L1326.8,738.767C1326.8,738.843 1326.86,738.904 1326.93,738.904L1329.13,738.904Z" style="fill:white;"/>
                    </g>
                </g>
            </g>
        </g>
    </g>
</svg>
