<?xml version="1.0" encoding="UTF-8" standalone="no"?>
<!DOCTYPE svg PUBLIC "-//W3C//DTD SVG 1.1//EN" "http://www.w3.org/Graphics/SVG/1.1/DTD/svg11.dtd">
<svg width="100%" height="100%" viewBox="0 0 84 100" version="1.1" xmlns="http://www.w3.org/2000/svg" xmlns:xlink="http://www.w3.org/1999/xlink" xml:space="preserve" xmlns:serif="http://www.serif.com/" style="fill-rule:evenodd;clip-rule:evenodd;stroke-linejoin:round;stroke-miterlimit:2;">
    <g transform="matrix(1,0,0,1,-2163,-535.13)">
        <g transform="matrix(1,0,0,1,-0.284563,0)">
            <g transform="matrix(1,0,0,1,2048.62,-165.483)">
                <g>
                    <g transform="matrix(0.938319,0,0,0.814575,229.443,135.343)">
                        <path d="M-43.946,707.488L-43.946,794.354C-43.946,801.828 -49.214,807.896 -55.702,807.896L-110.565,807.896C-117.054,807.896 -122.322,801.828 -122.322,794.354L-122.322,707.488C-122.322,700.014 -117.054,693.946 -110.565,693.946L-55.702,693.946C-49.214,693.946 -43.946,700.014 -43.946,707.488Z" style="fill:rgb(255,164,242);"/>
                    </g>
                    <g>
                        <g transform="matrix(0.815564,0,0,0.815564,25.9397,132.68)">
                            <path d="M140.643,714.738L140.643,728.377C140.643,729.788 139.499,730.932 138.088,730.932L125.291,730.932C123.88,730.932 122.737,729.788 122.737,728.377L122.737,714.738C122.737,713.327 123.88,712.184 125.291,712.184L138.088,712.184C139.499,712.184 140.643,713.327 140.643,714.738ZM135.534,717.293L127.846,717.293L127.846,725.823L135.534,725.823L135.534,717.293Z" style="fill:white;"/>
                        </g>
                        <g transform="matrix(0.815564,0,0,0.815564,25.9397,152.164)">
                            <path d="M140.643,714.738L140.643,728.377C140.643,729.788 139.499,730.932 138.088,730.932L125.291,730.932C123.88,730.932 122.737,729.788 122.737,728.377L122.737,714.738C122.737,713.327 123.88,712.184 125.291,712.184L138.088,712.184C139.499,712.184 140.643,713.327 140.643,714.738ZM135.534,717.293L127.846,717.293L127.846,725.823L135.534,725.823L135.534,717.293Z" style="fill:white;"/>
                        </g>
                        <g transform="matrix(0.815564,0,0,0.815564,25.9397,171.079)">
                            <path d="M140.643,714.738L140.643,728.377C140.643,729.788 139.499,730.932 138.088,730.932L125.291,730.932C123.88,730.932 122.737,729.788 122.737,728.377L122.737,714.738C122.737,713.327 123.88,712.184 125.291,712.184L138.088,712.184C139.499,712.184 140.643,713.327 140.643,714.738ZM135.534,717.293L127.846,717.293L127.846,725.823L135.534,725.823L135.534,717.293Z" style="fill:white;"/>
                        </g>
                        <g transform="matrix(1.11549,0,0,1,-21.7334,-1.65837)">
                            <path d="M149.051,730.46C148.02,730.46 147.183,729.527 147.183,728.377C147.183,727.227 148.02,726.294 149.051,726.294L176.143,726.294C177.173,726.294 178.01,727.227 178.01,728.377C178.01,729.527 177.173,730.46 176.143,730.46L149.051,730.46Z" style="fill:white;"/>
                        </g>
                        <g transform="matrix(1.11549,0,0,1,-21.7334,17.8254)">
                            <path d="M149.051,730.46C148.02,730.46 147.183,729.527 147.183,728.377C147.183,727.227 148.02,726.294 149.051,726.294L176.143,726.294C177.173,726.294 178.01,727.227 178.01,728.377C178.01,729.527 177.173,730.46 176.143,730.46L149.051,730.46Z" style="fill:white;"/>
                        </g>
                        <g transform="matrix(1.11549,0,0,1,-21.7334,36.7403)">
                            <path d="M149.051,730.46C148.02,730.46 147.183,729.527 147.183,728.377C147.183,727.227 148.02,726.294 149.051,726.294L176.143,726.294C177.173,726.294 178.01,727.227 178.01,728.377C178.01,729.527 177.173,730.46 176.143,730.46L149.051,730.46Z" style="fill:white;"/>
                        </g>
                        <g transform="matrix(1,0,0,1,-0.0331532,0)">
                            <path d="M121.019,770.056C121.019,768.907 121.952,767.973 123.102,767.973C124.252,767.973 125.186,768.907 125.186,770.056L125.186,781.742C125.186,783.352 126.491,784.658 128.102,784.658L140.277,784.658C141.427,784.658 142.361,785.592 142.361,786.742C142.361,787.891 141.427,788.825 140.277,788.825L128.102,788.825C124.19,788.825 121.019,785.654 121.019,781.742L121.019,770.056Z" style="fill:white;"/>
                        </g>
                    </g>
                    <g transform="matrix(1,0,0,1,-0.78886,-2.68213)">
                        <g transform="matrix(1,0,0,1,3.03089,-6.08376)">
                            <circle cx="180.479" cy="792.825" r="13.765" style="fill:white;"/>
                        </g>
                        <g transform="matrix(1,0,0,1,3.03089,-6.08376)">
                            <path d="M180.479,776.977C189.226,776.977 196.327,784.078 196.327,792.825C196.327,801.572 189.226,808.674 180.479,808.674C171.731,808.674 164.63,801.572 164.63,792.825C164.63,784.078 171.731,776.977 180.479,776.977ZM180.479,781.143C174.031,781.143 168.797,786.378 168.797,792.825C168.797,799.273 174.031,804.507 180.479,804.507C186.926,804.507 192.16,799.273 192.16,792.825C192.16,786.378 186.926,781.143 180.479,781.143Z" style="fill:rgb(255,164,242);"/>
                        </g>
                        <path d="M176.535,788.042C175.818,787.143 175.965,785.831 176.863,785.114C177.761,784.396 179.073,784.543 179.791,785.441C179.791,785.441 182.96,789.409 182.96,789.409L186.291,781.587C186.742,780.529 187.966,780.036 189.024,780.487C190.082,780.938 190.575,782.162 190.125,783.22L185.426,794.251C185.139,794.926 184.518,795.4 183.791,795.499C183.065,795.598 182.339,795.308 181.882,794.735L176.535,788.042Z" style="fill:rgb(255,164,242);"/>
                    </g>
                </g>
            </g>
        </g>
    </g>
</svg>
