<?xml version="1.0" encoding="UTF-8" standalone="no"?>
<!DOCTYPE svg PUBLIC "-//W3C//DTD SVG 1.1//EN" "http://www.w3.org/Graphics/SVG/1.1/DTD/svg11.dtd">
<svg width="100%" height="100%" viewBox="0 0 175 183" version="1.1" xmlns="http://www.w3.org/2000/svg" xmlns:xlink="http://www.w3.org/1999/xlink" xml:space="preserve" xmlns:serif="http://www.serif.com/" style="fill-rule:evenodd;clip-rule:evenodd;stroke-linejoin:round;stroke-miterlimit:2;">
    <g transform="matrix(1,0,0,1,-483.188,-57.8323)">
        <g id="blank" transform="matrix(0.760315,0,0,0.760315,-1348.65,-2.40695)">
            <g transform="matrix(1.31525,0,0,1.31525,1773.81,3.16573)">
                <g transform="matrix(1,0,0,1,218.185,4.44089e-16)">
                    <g transform="matrix(1.03177,0,0,1.03177,217.619,-740.359)">
                        <g>
                            <g transform="matrix(2.19487,0,0,2.19487,-2133.38,-939.576)">
                                <path d="M1055.66,857.451L1055.25,857.841C1054.96,858.093 1053.37,859.48 1050.68,859.273C1033.99,857.986 1016.57,857.691 999.25,860.138C998.882,860.19 996.596,860.513 994.762,858.965C992.907,857.399 992.907,855.103 992.907,854.734L992.907,803.231C992.907,800.795 994.238,799.335 994.478,799.072L994.751,798.792C995.123,798.436 995.483,798.197 995.551,798.152C1001.4,793.158 1007.59,788.188 1013.06,783.797C1013.3,783.607 1014.59,782.567 1016.68,782.681C1031.19,783.478 1047.79,783.335 1065.87,781.248C1067.61,781.048 1068.64,781.927 1068.83,782.087C1069.01,782.243 1070.05,783.132 1070.05,784.83C1069.97,803.704 1069.89,822.578 1069.81,841.452C1069.81,841.794 1069.8,843.805 1068.18,845.408C1063.49,850.042 1058.9,854.399 1055.66,857.451Z" style="fill:rgb(255,164,242);"/>
                            </g>
                            <g>
                                <g transform="matrix(2.15889,0,0,2.15889,-2088.7,-902.245)">
                                    <path d="M997.469,851.621C997.955,851.566 998.386,851.944 998.386,852.417C998.386,852.891 997.956,853.364 997.47,853.421C994.045,853.825 991.303,851.424 991.302,848.07C991.298,834.023 991.294,819.976 991.291,805.929C991.29,802.582 994.01,799.849 997.423,799.969L997.427,799.969C1011.84,800.542 1027.19,800.976 1042.7,800.798C1043.2,800.793 1043.64,801.205 1043.64,801.664C1043.63,802.123 1043.2,802.545 1042.7,802.55C1027.26,802.687 1011.91,802.27 997.423,801.769C995.036,801.698 993.109,803.614 993.11,805.959C993.116,819.919 993.123,833.879 993.129,847.838C993.13,850.187 995.072,851.892 997.469,851.621Z" style="fill:white;"/>
                                </g>
                                <g transform="matrix(0.760821,0,0,1.05703,43.034,-46.3508)">
                                    <path d="M193.644,913.499C194.556,912.809 196.3,912.781 197.387,913.48C198.497,914.194 198.604,915.38 197.669,916.088C196.964,916.622 193.425,919.299 188.83,922.739C187.024,924.091 183.984,924.51 181.285,923.688C178.514,922.844 176.829,920.936 176.822,919.099C176.717,887.841 176.612,856.583 176.507,825.325C176.5,823.151 177.601,820.71 180.053,818.701C181.384,817.61 188.587,811.707 196.58,804.939C197.504,804.156 199.263,803.973 200.349,804.564C201.462,805.17 201.58,806.348 200.633,807.152C192.624,813.956 185.425,819.871 184.093,820.966C183.796,821.21 181.82,822.833 181.827,825.211C181.925,856.588 182.023,887.966 182.121,919.343C182.122,919.693 182.456,920.171 183.12,920.372C183.728,920.557 184.432,920.438 184.808,920.156C185.516,919.625 189.414,916.702 193.644,913.499ZM213.492,796.07C212.561,796.885 210.799,797.093 209.71,796.511C208.599,795.917 208.473,794.736 209.427,793.905C211.034,792.505 213.734,791.806 216.106,792.25C218.572,792.711 220.049,794.265 220.05,795.927C220.069,829.332 220.087,862.736 220.106,896.141C220.108,898.82 217.965,900.494 217.635,900.752C216.718,901.468 214.97,901.508 213.882,900.81C212.771,900.098 212.662,898.9 213.601,898.167C213.758,898.044 214.782,897.245 214.781,895.973C214.747,862.748 214.714,829.523 214.68,796.298C214.68,795.971 214.287,795.896 214.239,795.887C214.179,795.875 213.799,795.802 213.492,796.07Z" style="fill:white;"/>
                                </g>
                                <g transform="matrix(0.668404,0,0,1.05703,-57.0775,-46.3508)">
                                    <path d="M219.031,876.313C219.048,876.64 218.895,877.159 218.213,877.584C217.357,878.119 216.307,878.122 216.136,878.122L216.078,878.122C214.413,878.127 213.146,877.277 213.099,876.385C212.738,868.76 212.147,851.685 212.536,833.513C212.556,832.6 213.857,831.746 215.535,831.784C217.213,831.823 218.479,832.731 218.46,833.642C218.076,851.646 218.662,868.589 219.031,876.313Z" style="fill:white;"/>
                                </g>
                                <g transform="matrix(-0.00326583,0.760814,0.92681,0.00397837,-662.626,640.557)">
                                    <path d="M219.584,893.716C219.572,894.007 219.507,895.609 217.938,896.963C216.952,897.815 216.915,899.214 217.855,900.045C218.789,900.871 220.411,900.857 221.393,900.011C223.375,898.304 224.478,896.001 224.563,893.748C225.915,857.905 225.043,823.317 223.464,792.5C223.359,790.466 221.739,788.513 219.306,787.737C216.908,786.972 214.237,787.523 212.686,789.046C203.135,798.426 192.754,808.89 185.407,816.291C183.782,817.929 182.993,820.093 183.116,822.217C183.563,829.961 183.776,836.424 183.817,837.66C183.855,838.814 184.978,839.81 186.34,839.813C187.703,839.816 188.768,838.824 188.732,837.67C188.692,836.434 188.486,829.976 188.059,822.226C188.044,821.964 187.962,820.467 189.251,819.173C196.702,811.697 207.117,801.235 216.636,791.909C217.067,791.486 217.632,791.668 217.716,791.695C218.108,791.82 218.381,792.179 218.398,792.475C220.13,822.955 221.068,857.552 219.584,893.716Z" style="fill:white;"/>
                                </g>
                                <g transform="matrix(-0.00326583,0.760814,0.92681,0.00397837,-663.805,761.274)">
                                    <path d="M212.748,792.663L212.742,792.707C210.222,814.844 209.77,834.918 209.718,847.128L209.718,847.131C209.671,864.892 210.445,881.021 210.89,889.171C210.953,890.339 212.117,891.347 213.493,891.354C214.871,891.361 215.916,890.364 215.849,889.197C215.384,881.096 214.57,864.975 214.626,847.158C214.684,834.984 215.164,814.913 217.814,792.732L217.819,792.686L217.825,792.642C218.07,790.595 216.8,788.636 214.512,787.858C212.359,787.126 210.378,787.759 210.037,787.868C209.913,787.911 209.099,788.19 208.845,788.997C208.592,789.804 209.168,790.284 209.255,790.357C209.231,790.465 209.274,790.538 209.359,790.61C209.541,790.761 210.473,791.538 212.042,791.837C212.1,791.808 212.145,791.813 212.204,791.833C212.583,791.962 212.788,792.307 212.752,792.617L212.748,792.663Z" style="fill:white;"/>
                                </g>
                            </g>
                        </g>
                    </g>
                </g>
            </g>
            <g transform="matrix(1,0,0,1,1982.06,-646.085)">
                <g transform="matrix(1,0,0,1,-2.55336,6.12811)">
                    <ellipse cx="496.082" cy="901.64" rx="11.745" ry="14.81"/>
                </g>
                <g transform="matrix(1,0,0,1,52.5992,6.12811)">
                    <ellipse cx="496.082" cy="901.64" rx="11.745" ry="14.81"/>
                </g>
            </g>
        </g>
    </g>
</svg>
