<?xml version="1.0" encoding="UTF-8" standalone="no"?>
<!DOCTYPE svg PUBLIC "-//W3C//DTD SVG 1.1//EN" "http://www.w3.org/Graphics/SVG/1.1/DTD/svg11.dtd">
<svg width="100%" height="100%" viewBox="0 0 175 183" version="1.1" xmlns="http://www.w3.org/2000/svg" xmlns:xlink="http://www.w3.org/1999/xlink" xml:space="preserve" xmlns:serif="http://www.serif.com/" style="fill-rule:evenodd;clip-rule:evenodd;stroke-linejoin:round;stroke-miterlimit:2;">
    <g transform="matrix(1,0,0,1,-65.1808,-57.5885)">
        <g id="blank" transform="matrix(0.760315,0,0,0.760315,-1766.66,-2.40695)">
            <g transform="matrix(2.64791,0,0,2.64791,1706.65,-2144.94)">
                <g>
                    <g transform="matrix(0.512491,0,0,0.512491,241.831,443.503)">
                        <g>
                            <g transform="matrix(2.19487,0,0,2.19487,-2133.38,-939.576)">
                                <path d="M1055.29,858.688L1054.95,859.14C1053.3,861.07 1051.05,861.069 1050.67,861.069C1033.88,861.055 1017.09,861.042 1000.3,861.029C997.689,861.027 996.607,859.36 996.418,859.068C995.163,857.136 995.789,854.723 995.884,854.356C997.957,846.365 1002.05,828.915 998.307,802.531C998.26,802.195 997.967,800.137 999.13,798.37L999.336,798.08C999.381,798.021 999.621,797.709 999.968,797.406C1004.04,792.711 1008.64,787.276 1013.99,781.803C1015.32,780.439 1017.09,780.447 1017.39,780.448C1033.34,780.515 1049.28,780.581 1065.23,780.648C1065.46,780.649 1066.89,780.655 1067.79,781.834C1068.67,783.002 1068.35,784.452 1068.3,784.677C1067.34,789.088 1062.43,811.558 1065.94,841.055C1066.22,843.424 1065.19,844.889 1065,845.165C1062.36,848.916 1059.33,853.539 1055.29,858.688Z" style="fill:rgb(255,164,242);"/>
                            </g>
                            <g>
                                <g transform="matrix(2.15889,0,0,2.15889,-2088.7,-902.245)">
                                    <path d="M999.946,852.479C1000.4,852.479 1000.72,852.921 1000.6,853.438C1000.48,853.955 999.944,854.397 999.483,854.396C996.256,854.391 994.278,851.519 995.09,847.936C996.138,843.316 999.689,828.653 997.351,805.085C997.012,801.67 999.206,798.943 1002.15,798.955L1002.16,798.955C1015.33,799.08 1028.49,799.204 1041.66,799.328C1042.1,799.331 1042.49,799.758 1042.49,800.25C1042.48,800.741 1042.07,801.163 1041.63,801.159C1028.54,801.032 1015.45,800.905 1002.37,800.778C1000.3,800.77 998.757,802.692 998.99,805.091C1001.33,829.163 997.801,843.623 996.845,847.94C996.288,850.456 997.704,852.474 999.946,852.479Z" style="fill:white;"/>
                                </g>
                                <g transform="matrix(0.760821,0,0,1.05703,43.034,-46.3508)">
                                    <path d="M188.848,914.333C189.546,913.555 191.021,913.474 192.025,914.144C193.045,914.825 193.342,916.068 192.64,916.858C189.131,920.799 186.398,923.71 185.847,924.297C184.404,925.835 181.713,926.427 179.219,925.695C176.67,924.948 174.959,923.017 174.8,921.022C169.114,849.634 170.833,829.428 171.13,822.667C171.232,820.336 172.37,817.872 174.552,815.934C174.853,815.667 182.286,809.025 190.289,802.545C191.202,801.805 192.772,801.701 193.629,802.358C194.495,803.023 194.423,804.216 193.476,804.986C190.001,807.812 184.32,812.564 177.829,818.384C177.542,818.641 175.771,820.229 175.642,822.682C175.307,829.032 173.237,854.966 179.534,921.034C179.572,921.424 179.931,921.904 180.522,922.079C181.078,922.245 181.689,922.085 181.991,921.767C182.548,921.18 185.36,918.219 188.848,914.333ZM206.799,794.631C205.803,795.371 204.197,795.478 203.344,794.82C202.491,794.161 202.606,792.972 203.652,792.198C205.414,790.893 208.008,790.409 210.013,791.017C212.084,791.644 213.063,793.273 212.672,794.946C204.471,830.017 204.767,864.266 208.616,895.416C208.958,898.18 207.444,899.89 207.18,900.188C206.497,900.96 205.002,901.045 203.987,900.376C202.942,899.688 202.675,898.452 203.35,897.679C204.194,896.712 204.063,895.589 204.041,895.4C200.392,864.118 200.079,829.878 207.806,794.939C207.878,794.613 207.545,794.511 207.504,794.499C207.45,794.482 207.131,794.385 206.799,794.631Z" style="fill:white;"/>
                                </g>
                                <g transform="matrix(0.668404,0,0,1.05703,-57.0775,-46.3508)">
                                    <path d="M232.55,876.211C232.552,876.332 232.562,876.994 231.85,877.549C231.138,878.104 230.286,878.09 230.143,878.087L230.096,878.087C228.78,878.065 227.733,877.17 227.718,876.197C227.558,862.103 226.822,848.835 225.104,831.228C225.01,830.261 226.024,829.376 227.432,829.397C228.816,829.417 230.025,830.321 230.112,831.301C231.652,848.663 232.37,861.74 232.55,876.211Z" style="fill:white;"/>
                                </g>
                                <g transform="matrix(-0.00326583,0.760814,0.92681,0.00397837,-662.626,640.557)">
                                    <path d="M214.665,891.502C214.659,893.22 213.304,894.33 213.095,894.502C212.114,895.305 212.136,896.566 213.153,897.271C214.159,897.97 215.849,897.876 216.811,897.098C218.818,895.474 219.833,893.376 219.839,891.374C219.894,861.307 219.948,831.239 220.003,801.171C220.006,799.36 218.483,797.418 216.065,796.417C213.673,795.427 210.956,795.596 209.299,796.772C202.064,801.906 190.813,809.973 179.552,818.89C177.755,820.314 176.818,822.338 176.821,824.378C176.828,829.355 176.835,834.332 176.842,839.31C176.843,840.417 177.971,841.425 179.403,841.478C180.821,841.531 181.96,840.625 181.958,839.527C181.949,834.614 181.939,829.701 181.93,824.789C181.929,824.538 181.927,823.105 183.337,821.99C194.618,813.064 205.876,804.988 213.107,799.853C213.57,799.524 214.133,799.755 214.215,799.789C214.29,799.819 214.86,800.053 214.859,800.57C214.794,830.881 214.73,861.191 214.665,891.502Z" style="fill:white;"/>
                                </g>
                                <g transform="matrix(-0.00326583,0.760814,0.92681,0.00397837,-663.805,761.274)">
                                    <path d="M215.064,800.407L215.063,800.447C215.041,816.799 215.02,833.151 214.998,849.503L214.998,849.505C214.98,862.605 214.962,875.705 214.944,888.805C214.94,889.946 216.125,890.961 217.622,891.004C219.122,891.048 220.312,890.097 220.316,888.959C220.339,875.76 220.361,862.56 220.384,849.36C220.416,832.773 220.448,816.186 220.481,799.598L220.48,799.555L220.481,799.514C220.486,797.641 218.918,796.052 216.335,795.743C213.966,795.46 211.943,796.366 211.592,796.523C211.472,796.58 210.639,796.971 210.469,797.741C210.3,798.51 210.977,798.853 211.07,798.9C211.056,799.006 211.117,799.063 211.211,799.111C211.431,799.222 212.509,799.768 214.212,799.777C214.271,799.742 214.319,799.739 214.385,799.747C214.82,799.803 215.064,800.092 215.063,800.364L215.064,800.407Z" style="fill:white;"/>
                                </g>
                            </g>
                        </g>
                    </g>
                </g>
            </g>
            <g transform="matrix(1,0,0,1,1982.06,-646.085)">
                <g transform="matrix(1,0,0,1,-2.55336,6.12811)">
                    <ellipse cx="496.082" cy="901.64" rx="11.745" ry="14.81"/>
                </g>
                <g transform="matrix(1,0,0,1,52.5992,6.12811)">
                    <ellipse cx="496.082" cy="901.64" rx="11.745" ry="14.81"/>
                </g>
            </g>
        </g>
    </g>
</svg>
